<svg xmlns="http://www.w3.org/2000/svg" width="291.778" height="35.564" viewBox="0 0 291.778 35.564" fill="currentColor">
  <path d="M 100.967 16.593 C 99.358 15.966 97.264 15.354 94.757 14.77 C 92.948 14.328 91.51 13.929 90.47 13.573 C 89.487 13.246 88.661 12.79 88.02 12.235 C 87.436 11.722 87.152 11.067 87.152 10.241 C 87.152 9.016 87.679 8.076 88.747 7.321 C 89.858 6.552 91.61 6.153 93.974 6.153 C 95.427 6.153 96.951 6.367 98.503 6.808 C 100.056 7.235 101.565 7.891 103.004 8.731 L 103.488 9.016 L 105.81 3.276 L 105.482 3.062 C 104.001 2.079 102.22 1.31 100.198 0.783 C 98.176 0.271 96.11 0 94.031 0 C 91.026 0 88.448 0.47 86.368 1.382 C 84.26 2.307 82.651 3.589 81.597 5.184 C 80.543 6.78 80.002 8.574 80.002 10.525 C 80.002 12.847 80.614 14.727 81.825 16.109 C 83.007 17.462 84.445 18.473 86.098 19.1 C 87.693 19.712 89.801 20.339 92.379 20.937 C 94.173 21.378 95.626 21.777 96.666 22.133 C 97.649 22.461 98.475 22.917 99.116 23.501 C 99.7 24.028 99.984 24.697 99.984 25.523 C 99.984 26.677 99.457 27.574 98.361 28.286 C 97.207 29.027 95.427 29.411 93.034 29.411 C 91.083 29.411 89.103 29.07 87.166 28.4 C 85.229 27.731 83.577 26.862 82.238 25.808 L 81.754 25.423 L 79.19 31.177 L 79.461 31.42 C 80.913 32.673 82.907 33.698 85.371 34.439 C 87.821 35.18 90.399 35.564 93.034 35.564 C 96.039 35.564 98.617 35.094 100.725 34.183 C 102.847 33.257 104.471 31.975 105.525 30.408 C 106.579 28.827 107.12 27.047 107.12 25.096 C 107.12 22.803 106.508 20.951 105.297 19.584 C 104.115 18.245 102.662 17.248 101.01 16.593 L 100.967 16.593 Z M 27.887 14.385 C 27.246 15.453 26.42 16.336 25.409 17.02 L 25.423 17.02 C 26.919 17.661 28.158 18.63 29.112 19.869 C 30.266 21.364 30.85 23.258 30.85 25.466 C 30.85 28.543 29.653 30.95 27.289 32.616 C 24.968 34.254 21.578 35.08 17.205 35.08 L 0 35.08 L 0 0.484 L 16.237 0.484 C 20.296 0.484 23.472 1.296 25.694 2.906 C 27.959 4.558 29.112 6.837 29.112 9.714 C 29.112 11.465 28.699 13.032 27.887 14.385 Z M 15.567 14.67 C 17.633 14.67 19.228 14.3 20.31 13.573 C 21.35 12.875 21.848 11.921 21.848 10.54 C 21.848 9.158 21.35 8.161 20.31 7.463 C 19.228 6.737 17.633 6.367 15.567 6.367 L 7.221 6.367 L 7.221 14.67 L 15.567 14.67 Z M 16.806 20.495 L 7.207 20.495 L 7.207 29.226 L 16.806 29.226 C 21.364 29.226 23.572 27.788 23.572 24.854 C 23.572 21.92 21.364 20.495 16.806 20.495 Z M 35.336 35.094 L 50.904 0.498 L 57.683 0.498 L 73.293 35.094 L 65.688 35.094 L 62.326 27.318 L 46.161 27.318 L 42.842 35.094 L 35.336 35.094 Z M 48.696 21.435 L 59.848 21.435 L 54.251 8.46 L 48.696 21.435 Z M 140.263 20.581 L 124.026 20.581 L 124.026 28.884 L 142.998 28.884 L 142.998 35.08 L 116.805 35.08 L 116.805 0.498 L 142.998 0.498 L 142.998 6.694 L 124.026 6.694 L 124.026 14.471 L 140.263 14.471 L 140.263 20.581 Z M 178.135 17.02 C 179.146 16.336 179.972 15.453 180.613 14.385 C 181.425 13.032 181.838 11.465 181.838 9.714 C 181.838 6.837 180.684 4.558 178.419 2.906 C 176.198 1.296 173.021 0.484 168.962 0.484 L 152.725 0.484 L 152.725 35.08 L 169.931 35.08 C 174.303 35.08 177.693 34.254 180.015 32.616 C 182.379 30.95 183.575 28.543 183.575 25.466 C 183.575 23.258 182.991 21.364 181.838 19.869 C 180.883 18.63 179.644 17.661 178.149 17.02 L 178.135 17.02 Z M 173.036 13.573 C 171.953 14.3 170.358 14.67 168.293 14.67 L 159.947 14.67 L 159.947 6.367 L 168.293 6.367 C 170.358 6.367 171.953 6.737 173.036 7.463 C 174.075 8.161 174.574 9.158 174.574 10.54 C 174.574 11.921 174.075 12.875 173.036 13.573 Z M 159.932 20.495 L 169.532 20.495 C 174.09 20.495 176.297 21.92 176.297 24.854 C 176.297 27.788 174.09 29.226 169.532 29.226 L 159.932 29.226 L 159.932 20.495 Z M 188.062 35.094 L 203.629 0.498 L 210.409 0.498 L 226.019 35.094 L 218.413 35.094 L 215.052 27.318 L 198.886 27.318 L 195.568 35.094 L 188.062 35.094 Z M 201.422 21.435 L 212.574 21.435 L 206.976 8.46 L 201.422 21.435 Z M 239.663 0.498 L 232.442 0.498 L 232.442 35.08 L 257.239 35.08 L 257.239 28.827 L 239.663 28.827 L 239.663 0.498 Z M 274.188 0.498 L 274.188 28.827 L 291.778 28.827 L 291.778 35.08 L 266.981 35.08 L 266.981 0.498 L 274.188 0.498 Z" fill="currentColor" fill-rule="evenodd"></path>
</svg>