<svg xmlns="http://www.w3.org/2000/svg" width="212.355" height="25.952" viewBox="0 0 212.355 25.952" fill="currentColor">
  <path d="M 73.117 12.075 C 71.939 11.621 70.407 11.167 68.591 10.741 C 67.271 10.415 66.221 10.131 65.469 9.876 C 64.745 9.634 64.149 9.308 63.681 8.897 C 63.255 8.514 63.043 8.045 63.043 7.449 C 63.043 6.555 63.426 5.86 64.206 5.321 C 65.015 4.753 66.306 4.47 68.023 4.47 C 69.087 4.47 70.194 4.626 71.329 4.952 C 72.464 5.264 73.557 5.747 74.607 6.357 L 74.962 6.57 L 76.664 2.384 L 76.423 2.228 C 75.345 1.504 74.053 0.951 72.564 0.568 C 71.088 0.184 69.57 0 68.066 0 C 65.88 0 63.993 0.341 62.475 1.007 C 60.943 1.689 59.765 2.625 58.999 3.789 C 58.232 4.952 57.835 6.257 57.835 7.676 C 57.835 9.365 58.289 10.741 59.169 11.749 C 60.034 12.742 61.084 13.466 62.291 13.934 C 63.454 14.388 65.001 14.828 66.874 15.282 C 68.193 15.608 69.243 15.892 69.995 16.147 C 70.719 16.389 71.315 16.729 71.783 17.141 C 72.209 17.524 72.422 18.006 72.422 18.616 C 72.422 19.453 72.039 20.106 71.23 20.631 C 70.393 21.17 69.087 21.454 67.342 21.454 C 65.909 21.454 64.476 21.213 63.057 20.716 C 61.638 20.234 60.432 19.595 59.467 18.829 L 59.112 18.545 L 57.239 22.745 L 57.438 22.916 C 58.502 23.838 59.949 24.576 61.751 25.129 C 63.539 25.668 65.426 25.952 67.342 25.952 C 69.527 25.952 71.414 25.611 72.947 24.945 C 74.493 24.264 75.671 23.341 76.451 22.192 C 77.218 21.043 77.615 19.737 77.615 18.318 C 77.615 16.644 77.161 15.296 76.281 14.303 C 75.416 13.324 74.366 12.6 73.145 12.118 L 73.117 12.075 Z M 20.347 10.472 C 19.893 11.238 19.283 11.891 18.545 12.387 L 18.531 12.387 C 19.624 12.87 20.532 13.565 21.227 14.473 C 22.064 15.566 22.49 16.942 22.49 18.559 C 22.49 20.787 21.624 22.547 19.893 23.767 C 18.205 24.959 15.736 25.569 12.543 25.569 L 0 25.569 L 0 0.326 L 11.848 0.326 C 14.799 0.326 17.126 0.922 18.744 2.1 C 20.404 3.306 21.241 4.966 21.241 7.066 C 21.241 8.343 20.943 9.493 20.347 10.472 Z M 11.366 10.67 C 12.87 10.67 14.033 10.401 14.828 9.876 L 14.828 9.861 C 15.58 9.351 15.949 8.655 15.949 7.648 C 15.949 6.641 15.58 5.917 14.828 5.406 C 14.033 4.881 12.87 4.611 11.366 4.611 L 5.278 4.611 L 5.278 10.67 L 11.366 10.67 Z M 12.274 14.927 L 5.264 14.927 L 5.264 21.298 L 12.274 21.298 C 15.594 21.298 17.211 20.248 17.211 18.105 C 17.211 15.963 15.594 14.927 12.274 14.927 Z M 25.796 25.569 L 37.147 0.326 L 42.085 0.326 L 53.479 25.569 L 47.931 25.569 L 45.476 19.893 L 33.685 19.893 L 31.273 25.569 L 25.796 25.569 Z M 35.53 15.608 L 43.674 15.608 L 39.588 6.144 L 35.53 15.608 Z M 101.793 14.984 L 89.959 14.984 L 89.959 21.043 L 103.794 21.043 L 103.794 25.569 L 84.681 25.569 L 84.681 0.326 L 103.794 0.326 L 103.794 4.853 L 89.959 4.853 L 89.959 10.528 L 101.793 10.528 L 101.793 14.984 Z M 129.434 12.387 C 130.172 11.891 130.782 11.238 131.236 10.472 C 131.832 9.493 132.13 8.343 132.13 7.066 C 132.13 4.966 131.293 3.306 129.632 2.1 C 128.015 0.922 125.688 0.326 122.737 0.326 L 110.889 0.326 L 110.889 25.569 L 123.432 25.569 C 126.624 25.569 129.093 24.959 130.782 23.767 C 132.513 22.547 133.378 20.787 133.378 18.559 C 133.378 16.942 132.953 15.566 132.116 14.473 C 131.42 13.565 130.512 12.87 129.42 12.387 L 129.434 12.387 Z M 125.716 9.876 C 124.922 10.401 123.758 10.67 122.254 10.67 L 116.167 10.67 L 116.167 4.611 L 122.254 4.611 C 123.758 4.611 124.922 4.881 125.716 5.406 C 126.468 5.917 126.837 6.641 126.837 7.648 C 126.837 8.655 126.468 9.351 125.716 9.861 L 125.716 9.876 Z M 116.153 14.927 L 123.162 14.927 C 126.482 14.927 128.1 15.963 128.1 18.105 C 128.1 20.248 126.482 21.298 123.162 21.298 L 116.153 21.298 L 116.153 14.927 Z M 136.684 25.569 L 148.036 0.326 L 152.974 0.326 L 164.368 25.569 L 158.82 25.569 L 156.365 19.893 L 144.574 19.893 L 142.161 25.569 L 136.684 25.569 Z M 146.418 15.608 L 154.563 15.608 L 150.476 6.144 L 146.418 15.608 Z M 174.328 0.326 L 169.064 0.326 L 169.064 25.569 L 187.155 25.569 L 187.155 21 L 174.328 21 L 174.328 0.326 Z M 199.528 0.326 L 199.528 21 L 212.355 21 L 212.355 25.569 L 194.264 25.569 L 194.264 0.326 L 199.528 0.326 Z" fill="currentColor" fill-rule="evenodd"></path>
</svg>