<svg xmlns="http://www.w3.org/2000/svg" width="211.729" height="25.810" viewBox="0 0 211.729 25.810" fill="currentColor">
  <path d="M 73.267 12.009 C 72.096 11.557 70.572 11.106 68.765 10.682 C 67.453 10.358 66.409 10.076 65.661 9.822 C 64.941 9.582 64.349 9.257 63.883 8.848 C 63.46 8.467 63.248 8.001 63.248 7.409 C 63.248 6.52 63.629 5.828 64.405 5.292 C 65.209 4.727 66.494 4.445 68.201 4.445 C 69.259 4.445 70.36 4.6 71.489 4.925 C 72.618 5.235 73.705 5.715 74.749 6.322 L 75.102 6.534 L 76.795 2.371 L 76.555 2.216 C 75.483 1.496 74.198 0.945 72.717 0.564 C 71.249 0.183 69.739 0 68.243 0 C 66.07 0 64.193 0.339 62.683 1.002 C 61.159 1.679 59.988 2.611 59.226 3.768 C 58.464 4.925 58.069 6.223 58.069 7.634 C 58.069 9.314 58.521 10.682 59.395 11.684 C 60.256 12.672 61.3 13.392 62.5 13.858 C 63.657 14.309 65.195 14.747 67.058 15.198 C 68.37 15.523 69.415 15.805 70.163 16.059 C 70.882 16.299 71.475 16.638 71.941 17.047 C 72.364 17.428 72.576 17.908 72.576 18.514 C 72.576 19.347 72.195 19.996 71.39 20.518 C 70.558 21.054 69.259 21.337 67.524 21.337 C 66.098 21.337 64.673 21.097 63.262 20.603 C 61.851 20.123 60.651 19.488 59.692 18.726 L 59.339 18.444 L 57.476 22.621 L 57.674 22.79 C 58.732 23.707 60.172 24.441 61.964 24.992 C 63.742 25.528 65.619 25.81 67.524 25.81 C 69.697 25.81 71.574 25.471 73.098 24.808 C 74.636 24.131 75.807 23.213 76.583 22.07 C 77.345 20.927 77.74 19.629 77.74 18.218 C 77.74 16.553 77.289 15.212 76.414 14.224 C 75.553 13.251 74.509 12.531 73.295 12.051 L 73.267 12.009 Z M 20.236 10.414 C 19.784 11.176 19.178 11.825 18.444 12.319 L 18.43 12.319 C 19.516 12.799 20.419 13.491 21.111 14.394 C 21.943 15.48 22.367 16.849 22.367 18.458 C 22.367 20.673 21.506 22.423 19.784 23.637 C 18.105 24.822 15.65 25.429 12.475 25.429 L 0 25.429 L 0 0.325 L 11.783 0.325 C 14.718 0.325 17.033 0.917 18.641 2.088 C 20.292 3.288 21.125 4.939 21.125 7.028 C 21.125 8.298 20.829 9.441 20.236 10.414 Z M 11.303 10.612 C 12.799 10.612 13.956 10.344 14.747 9.822 L 14.732 9.822 C 15.48 9.314 15.847 8.622 15.847 7.62 C 15.847 6.618 15.48 5.899 14.732 5.391 C 13.942 4.868 12.785 4.6 11.289 4.6 L 5.235 4.6 L 5.235 10.612 L 11.303 10.612 Z M 12.206 14.845 L 5.235 14.845 L 5.235 21.181 L 12.206 21.181 C 15.509 21.181 17.117 20.137 17.117 18.006 C 17.117 15.875 15.509 14.845 12.206 14.845 Z M 25.655 25.443 L 36.944 0.339 L 41.855 0.339 L 53.186 25.443 L 47.669 25.443 L 45.227 19.798 L 33.501 19.798 L 31.102 25.443 L 25.655 25.443 Z M 35.335 15.537 L 43.435 15.537 L 39.371 6.124 L 35.335 15.537 Z M 101.787 14.916 L 90.003 14.916 L 90.003 20.927 L 103.762 20.927 L 103.762 25.429 L 84.768 25.429 L 84.768 0.339 L 103.762 0.339 L 103.762 4.84 L 90.003 4.84 L 90.003 10.471 L 101.787 10.471 L 101.787 14.916 Z M 129.276 12.319 C 130.01 11.825 130.616 11.176 131.068 10.414 C 131.661 9.441 131.957 8.298 131.957 7.028 C 131.957 4.939 131.124 3.288 129.473 2.088 C 127.865 0.917 125.55 0.325 122.615 0.325 L 110.832 0.325 L 110.832 25.429 L 123.307 25.429 C 126.482 25.429 128.937 24.822 130.616 23.637 C 132.338 22.423 133.199 20.673 133.199 18.458 C 133.199 16.849 132.775 15.48 131.943 14.394 C 131.251 13.491 130.348 12.799 129.262 12.319 L 129.276 12.319 Z M 125.579 9.822 C 124.788 10.344 123.631 10.612 122.135 10.612 L 116.081 10.612 L 116.081 4.6 L 122.135 4.6 C 123.631 4.6 124.788 4.868 125.579 5.391 C 126.326 5.899 126.693 6.618 126.693 7.62 C 126.693 8.622 126.326 9.314 125.579 9.822 Z M 116.067 14.845 L 123.038 14.845 C 126.341 14.845 127.949 15.875 127.949 18.006 C 127.949 20.137 126.341 21.181 123.038 21.181 L 116.067 21.181 L 116.067 14.845 Z M 136.473 25.443 L 147.762 0.339 L 147.776 0.339 L 152.687 0.339 L 164.004 25.443 L 158.487 25.443 L 156.045 19.798 L 144.319 19.798 L 141.92 25.443 L 136.473 25.443 Z M 146.153 15.537 L 154.253 15.537 L 150.189 6.124 L 146.153 15.537 Z M 173.911 0.339 L 168.675 0.339 L 168.675 25.429 L 186.667 25.429 L 186.667 20.899 L 173.911 20.899 L 173.911 0.339 Z M 198.973 0.339 L 198.973 20.899 L 211.729 20.899 L 211.729 25.429 L 193.737 25.429 L 193.737 0.339 L 198.973 0.339 Z" fill="currentColor" fill-rule="evenodd"></path>
</svg>