<svg xmlns="http://www.w3.org/2000/svg" width="295.574" height="169.738" viewBox="0 0 295.574 169.738" fill="currentColor">
  <path d="M 110.303 17.567 L 115.418 50.522 C 115.418 50.522 116.693 56.165 114.384 58.312 C 114.384 58.312 113.393 58.582 113.603 59.534 C 113.603 59.534 113.594 60.233 114.978 60.46 C 114.978 60.46 123.466 61.457 125.703 63.95 C 125.703 63.95 127.559 66.339 129.036 64.085 C 129.036 64.085 127.941 58.328 127.066 54.018 L 119.618 9.228 C 119.618 9.228 118.741 5.699 121.496 2.365 C 121.496 2.365 122.826 1.273 121.989 0.353 C 121.989 0.353 121.253 -0.461 119.682 0.383 C 119.682 0.383 116.766 1.757 113.316 5.887 C 113.316 5.887 109.316 10.283 110.303 17.567 Z M 20.781 90.763 C 20.781 90.763 22.785 90.34 22.096 87.54 C 22.096 87.54 21.905 86.41 21.366 84.973 C 20.701 82.96 16.802 75.133 14.934 71.655 C 14.225 70.328 13.382 68.12 13.285 66.154 C 13.237 65.182 13.546 64.017 13.839 62.914 C 14.041 62.153 14.235 61.422 14.299 60.804 C 14.404 60.18 14.412 59.157 14.412 59.157 C 14.502 57.662 13.937 56.602 13.937 56.602 C 13.069 55.29 11.844 56.542 11.844 56.542 C 11.17 56.873 10.382 58.084 10.382 58.084 C 8.235 60.548 3.752 70.174 8.754 80.678 C 10.427 84.218 13.354 87.574 15.951 89.22 C 15.951 89.22 16.945 90.009 18.311 90.628 C 18.311 90.628 19.577 91.368 20.781 90.763 Z M 57.431 79.034 C 58.71 79.472 60.354 81.044 58.324 84.384 C 57.969 84.964 57.55 85.76 57.054 86.701 C 54.576 91.405 50.181 99.746 42.402 103.005 C 33.945 106.539 10.577 107.618 2.567 85.987 C -7.143 59.685 13.436 44.487 18.817 43.37 C 24.506 42.188 26.672 41.864 29.042 41.51 L 29.042 41.51 L 29.044 41.509 L 29.05 41.508 L 29.05 41.508 C 29.43 41.451 29.816 41.394 30.222 41.332 C 32.386 40.994 33.382 40.518 35.108 39.692 C 35.713 39.402 36.407 39.07 37.274 38.685 C 38.252 38.244 39.349 38.412 39.792 39.412 C 40.726 41.477 39.7 50.02 32.989 50.11 C 32.582 50.116 32.119 50.11 31.614 50.103 L 31.614 50.103 L 31.614 50.103 L 31.614 50.103 L 31.614 50.103 L 31.613 50.103 L 31.613 50.103 C 27.999 50.057 22.272 49.984 20.147 53.838 C 18.386 57.057 20.535 61.155 23.542 66.89 C 24.729 69.152 26.049 71.669 27.315 74.487 C 29.63 79.639 28.6 84.141 27.804 87.618 C 27.271 89.95 26.843 91.822 27.6 93.119 C 28.507 94.647 31.319 97.35 41.687 93.198 C 46.546 91.244 49.374 87.025 51.621 83.672 C 53.673 80.61 55.242 78.27 57.431 79.034 Z M 240.616 60.018 C 239.538 58.794 237.706 60.468 237.706 60.468 C 230.702 66.851 233.792 73.924 233.792 73.924 C 234.354 77.113 236.448 75.981 236.448 75.981 L 241.191 74.848 L 245.767 65.414 L 240.616 60.018 Z M 261.603 57.512 L 250.211 81.332 C 248.961 84.064 251.441 84.034 251.441 84.034 C 253.344 84.673 253.336 85.547 253.336 85.547 C 253.488 86.922 251.938 86.892 251.938 86.892 L 242.972 89.147 C 239.882 90.308 239.937 86.138 239.937 86.138 C 239.618 84.927 239.521 80.694 239.521 80.694 C 240.158 78.673 237.949 78.864 237.949 78.864 L 228.367 80.921 C 224.737 82.071 223.533 77.282 223.533 77.282 C 217.264 62.372 238.047 55.923 238.047 55.923 C 241.248 54.304 242.209 56.192 242.209 56.192 L 247.568 61.922 C 249.188 60.127 251.076 54.377 251.076 54.377 C 251.973 52.546 250.841 51.817 250.841 51.817 L 241.523 42.463 C 240.664 41.694 241.433 41.146 241.433 41.146 C 241.883 40.378 243.239 41.012 243.239 41.012 C 245.694 42.311 250.267 41.314 250.267 41.314 C 253.068 41.089 253.973 42.898 253.973 42.898 L 259.444 48.647 C 263.831 53.013 261.603 57.512 261.603 57.512 Z M 147.979 169.738 C 150.398 169.747 152.794 167.822 155.298 163.89 C 155.298 163.89 189.93 109.743 192.157 106.453 C 195.363 101.71 189.407 94.924 184.144 100.799 C 184.144 100.799 157.314 129.708 153.924 133.59 C 151.749 136.078 150.07 137.379 147.979 137.379 C 145.892 137.379 144.207 136.078 142.034 133.59 C 138.64 129.708 111.815 100.799 111.815 100.799 C 106.549 94.924 100.597 101.71 103.804 106.453 C 106.024 109.743 140.662 163.89 140.662 163.89 C 143.165 167.822 145.564 169.747 147.979 169.738 Z M 94.362 55.482 L 85.044 24.687 C 83.042 17.611 85.999 11.583 85.999 11.583 C 88.826 7.021 91.523 5.251 91.523 5.251 C 92.967 4.192 93.806 4.9 93.806 4.9 C 94.754 5.69 93.598 6.941 93.598 6.941 C 91.351 10.646 92.709 14.018 92.709 14.018 L 106.387 57.316 C 107.854 61.456 109.472 67.318 109.472 67.318 C 108.309 69.765 106.144 67.681 106.144 67.681 C 103.584 65.506 95.338 65.398 95.338 65.398 C 93.931 65.353 93.829 64.66 93.829 64.66 C 93.488 63.737 94.431 63.342 94.431 63.342 C 96.409 60.895 94.362 55.482 94.362 55.482 Z M 207.937 34.711 L 205.686 43.426 L 205.053 45.971 L 202.718 54.88 C 201.392 58.914 202.649 59.081 202.649 59.081 L 208.074 62.954 C 209.242 63.809 209.473 61.789 209.473 61.789 L 216.767 39.518 C 217.854 35.556 216.614 34.391 216.614 34.391 L 215.994 33.305 C 214.522 31.37 215.994 31.068 215.994 31.068 L 221.899 28.723 C 224.151 27.56 224.846 29.433 224.846 29.433 C 229.417 35.254 226.863 41.844 226.863 41.844 L 218.404 66.755 C 217.702 69.484 215.674 68.543 215.674 68.543 C 210.014 68.078 205.353 70.718 205.353 70.718 C 202.956 72.504 201.326 70.026 201.326 70.026 C 200.942 69.555 194.727 65.201 194.727 65.201 C 191.858 62.875 189.523 64.581 189.523 64.581 L 186.809 65.911 C 184.396 67.851 183.166 65.523 183.166 65.523 C 180.359 60.863 171.907 57.905 171.907 57.905 C 170.823 57.905 170.653 56.983 170.653 56.983 C 170.428 56.21 171.512 55.669 171.512 55.669 L 172.751 54.575 C 174.066 53.414 173.999 52.169 173.999 52.169 L 177.524 24.795 C 178.576 17.521 176.893 17.279 176.893 17.279 C 175.638 16.724 176.149 15.814 176.149 15.814 C 176.438 15.228 177.202 15.5 177.202 15.5 C 188.196 17.144 188.331 22.934 188.331 22.934 L 183.934 51.709 C 183.389 55.363 185.103 55.426 185.103 55.426 L 189.127 57.995 C 191.771 60.018 192.172 55.74 192.172 55.74 L 197.439 35.088 L 197.574 34.544 C 198.068 30.538 196.034 29.253 196.034 29.253 C 194.241 27.77 196.268 26.908 196.268 26.908 L 200.916 24.204 C 203.104 23.043 203.796 24.284 203.796 24.284 C 209.222 29.45 207.937 34.711 207.937 34.711 Z M 142.012 39.879 C 142.012 39.879 142.893 37.549 144.411 38.154 L 151.439 40.649 L 151.618 51.126 L 147.908 54.295 C 147.908 54.295 146.548 56.236 144.603 53.641 C 144.603 53.641 138.653 48.736 142.012 39.879 Z M 162.601 52.832 L 161.993 26.441 C 161.993 26.441 161.946 21.407 156.056 19.507 L 148.582 16.856 C 148.582 16.856 146.947 15.65 144.563 17.114 C 144.563 17.114 140.926 20.064 138.153 20.016 C 138.153 20.016 136.651 20.079 136.589 20.952 C 136.589 20.952 136.159 21.789 137.272 22.085 L 149.822 26.214 C 149.822 26.214 151.152 26.351 151.187 28.406 C 151.187 28.406 152.103 34.39 151.466 36.717 L 144.099 34.029 C 144.099 34.029 142.391 32.789 140.261 35.656 C 140.261 35.656 124.643 50.837 136.977 61.291 C 136.977 61.291 140.216 65.021 142.929 62.346 L 150.547 56.165 C 150.547 56.165 152.427 55.016 152.782 57.1 C 152.782 57.1 154.777 60.819 155.607 61.759 C 155.607 61.759 157.448 65.506 159.672 63.072 L 166.656 57.009 C 166.656 57.009 168.047 56.326 167.299 55.184 C 167.299 55.184 166.907 54.395 164.922 54.682 C 164.922 54.682 162.721 55.83 162.601 52.832 Z M 276.954 61.527 L 269.319 62.891 C 269.319 62.891 268.004 63.088 268.179 63.854 C 268.179 63.854 268.211 64.627 269.068 64.843 L 269.949 65.432 C 269.949 65.432 271.921 66.366 270.145 68.832 L 260.381 84.927 C 260.381 84.927 255.573 92.426 257.414 98.393 C 258.189 100.934 255.549 104.758 255.476 104.681 C 255.476 104.681 255.116 102.011 248.416 98.984 C 248.416 98.984 246.269 97.593 244.236 99.516 L 241.514 101.779 C 241.514 101.779 240.17 103.082 241.651 103.339 C 241.651 103.339 245.17 104.534 248.981 109.294 C 248.981 109.294 250.464 111.729 253.721 111.471 C 253.721 111.471 259.875 111.108 264.091 103.116 C 264.279 103.006 264.598 103.151 265.091 103.374 C 266.927 104.208 271.169 106.135 279.961 99.998 C 288.893 93.758 295.724 86.092 295.568 74.077 C 295.568 74.077 295.841 70.582 292.754 71.387 L 287.949 71.866 C 287.949 71.866 285.306 71.642 285.645 74.812 C 285.645 74.812 286.691 91.242 268.959 94.662 C 268.959 94.662 265.573 95.721 266.935 92.713 C 266.935 92.713 273.825 80.589 278.428 74.756 C 278.428 74.756 283.966 68.832 280.511 63.118 L 279.771 62.057 C 279.771 62.057 279.349 60.988 276.954 61.527 Z M 62.167 58.417 C 62.167 58.417 62.114 55.937 63.755 55.923 L 71.194 55.606 L 75.274 65.264 L 73.019 69.586 C 73.019 69.586 72.477 71.912 69.704 70.223 C 69.704 70.223 62.366 67.878 62.167 58.417 Z M 86.105 62.756 L 75.136 37.702 C 75.136 37.702 73.432 33.984 67.585 34.272 L 59.68 34.616 C 59.68 34.616 57.704 34.092 56.039 36.354 C 56.039 36.354 53.766 40.436 51.18 41.421 C 51.18 41.421 49.814 42.053 50.082 42.888 C 50.082 42.888 49.979 43.822 51.144 43.669 L 64.306 42.842 C 64.306 42.842 65.609 42.463 66.416 44.368 C 66.416 44.368 69.486 49.568 69.765 51.952 L 61.925 52.228 C 61.925 52.228 59.865 51.697 58.97 55.168 C 58.97 55.168 50.146 75.056 65.482 80.168 C 65.482 80.168 69.884 82.418 71.411 78.909 L 76.164 70.358 C 76.164 70.358 77.471 68.569 78.57 70.386 C 78.57 70.386 81.83 73.096 82.942 73.652 C 82.942 73.652 86.05 76.449 87.209 73.349 L 91.44 65.127 C 91.44 65.127 92.459 63.979 91.341 63.178 C 91.341 63.178 90.677 62.606 88.946 63.629 C 88.946 63.629 87.335 65.489 86.105 62.756 Z" fill="currentColor" fill-rule="evenodd"></path>
</svg>