<svg xmlns="http://www.w3.org/2000/svg" width="306.518" height="63.704" viewBox="0 0 306.518 63.704" fill="currentColor">
  <path d="M 70.429 20.54 C 70.138 20.305 69.773 20.206 69.334 20.243 L 67.514 20.397 C 67.465 20.397 67.446 20.428 67.446 20.478 L 67.675 23.111 C 67.675 23.16 67.706 23.179 67.749 23.179 L 69.569 23.024 C 70.008 22.987 70.348 22.827 70.596 22.555 C 70.837 22.277 70.943 21.937 70.912 21.529 C 70.874 21.108 70.714 20.781 70.423 20.546 L 70.429 20.54 Z" fill="currentColor" fill-rule="nonzero"></path>
  <path d="M 95.522 18.339 L 97.404 18.228 L 97.404 18.234 C 97.806 18.209 98.14 18.314 98.406 18.543 C 98.672 18.772 98.821 19.075 98.839 19.458 C 98.858 19.841 98.747 20.156 98.511 20.41 C 98.276 20.663 97.954 20.799 97.552 20.824 L 95.671 20.935 C 95.621 20.935 95.597 20.917 95.597 20.867 L 95.454 18.413 C 95.454 18.364 95.473 18.339 95.522 18.339 Z" fill="currentColor" fill-rule="nonzero"></path>
  <path d="M 125.232 16.899 C 125.765 16.88 126.198 17.041 126.532 17.368 L 126.538 17.368 C 126.866 17.702 127.039 18.141 127.058 18.697 L 127.151 21.856 C 127.163 22.406 127.015 22.858 126.699 23.204 C 126.383 23.544 125.963 23.723 125.437 23.741 C 124.911 23.76 124.477 23.605 124.149 23.278 C 123.821 22.95 123.648 22.511 123.63 21.955 L 123.537 18.796 C 123.518 18.246 123.667 17.795 123.976 17.443 C 124.286 17.096 124.706 16.917 125.232 16.899 Z" fill="currentColor" fill-rule="nonzero"></path>
  <path d="M 180.321 16.905 L 182.202 16.954 L 182.208 16.954 C 182.61 16.96 182.932 17.09 183.18 17.344 C 183.421 17.597 183.545 17.912 183.532 18.296 C 183.52 18.679 183.384 18.982 183.124 19.217 C 182.864 19.452 182.53 19.563 182.128 19.55 L 180.246 19.501 C 180.203 19.501 180.178 19.476 180.178 19.427 L 180.246 16.973 C 180.246 16.93 180.271 16.905 180.321 16.905 Z" fill="currentColor" fill-rule="nonzero"></path>
  <path d="M 210.544 18.889 C 210.544 18.889 210.507 18.908 210.501 18.939 L 208.997 23.123 C 208.985 23.179 208.997 23.21 209.053 23.21 L 211.578 23.352 C 211.633 23.352 211.652 23.327 211.64 23.272 L 210.588 18.945 C 210.581 18.908 210.569 18.889 210.55 18.889 L 210.544 18.889 Z" fill="currentColor" fill-rule="nonzero"></path>
  <path d="M 281.555 21.677 C 289.884 22.79 298.208 23.983 306.518 25.268 L 306.506 25.268 C 301.265 30.986 296.091 36.76 290.98 42.595 C 294.204 49.598 297.347 56.633 300.417 63.704 C 289.067 61.943 277.693 60.36 266.295 58.938 C 271.332 55.044 276.388 51.187 281.481 47.367 L 281.481 47.169 C 196.194 36.086 110.3 36.154 25.025 47.367 C 30.118 51.193 35.174 55.044 40.212 58.938 C 28.813 60.36 17.445 61.949 6.089 63.704 C 9.159 56.633 12.302 49.598 15.526 42.595 C 10.415 36.76 5.241 30.986 0 25.268 C 8.336 23.976 16.677 22.777 25.032 21.665 L 25.032 8.133 C 110.337 -2.653 196.237 -2.709 281.555 7.954 L 281.555 21.677 Z M 71.599 24.094 C 72.069 23.803 72.415 23.414 72.651 22.932 L 72.651 22.926 C 72.886 22.443 72.972 21.899 72.923 21.3 C 72.867 20.688 72.688 20.162 72.384 19.711 C 72.081 19.26 71.679 18.926 71.178 18.71 C 70.676 18.493 70.113 18.413 69.482 18.469 L 65.441 18.821 C 65.392 18.827 65.355 18.852 65.324 18.883 C 65.293 18.914 65.286 18.957 65.286 19.007 L 66.128 28.693 C 66.134 28.742 66.153 28.779 66.19 28.81 C 66.227 28.841 66.264 28.847 66.314 28.847 L 67.991 28.705 C 68.04 28.699 68.084 28.674 68.108 28.643 C 68.133 28.612 68.145 28.569 68.145 28.52 L 67.83 24.873 C 67.83 24.823 67.848 24.792 67.898 24.792 L 69.934 24.619 C 70.571 24.564 71.128 24.391 71.599 24.094 Z M 99.427 26.443 L 101.191 26.338 L 101.197 26.362 C 101.302 26.356 101.346 26.313 101.346 26.239 C 101.346 26.22 101.339 26.189 101.315 26.152 L 99.124 22.208 C 99.099 22.159 99.112 22.128 99.161 22.103 C 99.73 21.875 100.17 21.522 100.467 21.04 C 100.764 20.558 100.894 19.989 100.857 19.34 C 100.826 18.735 100.665 18.215 100.386 17.77 C 100.102 17.325 99.724 16.991 99.248 16.769 C 98.771 16.546 98.227 16.454 97.614 16.491 L 93.511 16.732 C 93.468 16.732 93.425 16.75 93.394 16.787 C 93.363 16.824 93.35 16.862 93.35 16.911 L 93.914 26.597 C 93.914 26.641 93.932 26.684 93.969 26.715 C 94.006 26.746 94.043 26.758 94.093 26.758 L 95.77 26.659 C 95.813 26.659 95.857 26.641 95.888 26.603 C 95.919 26.566 95.931 26.529 95.931 26.48 L 95.702 22.567 C 95.702 22.524 95.72 22.493 95.77 22.493 L 97.107 22.412 C 97.144 22.406 97.169 22.425 97.193 22.462 L 99.217 26.325 C 99.26 26.412 99.334 26.443 99.427 26.443 Z M 127.466 24.972 C 128.03 24.656 128.463 24.211 128.76 23.649 L 128.772 23.655 C 129.069 23.092 129.212 22.45 129.187 21.733 L 129.094 18.66 C 129.069 17.949 128.896 17.331 128.562 16.794 C 128.228 16.256 127.776 15.848 127.194 15.563 C 126.612 15.279 125.944 15.143 125.189 15.168 C 124.44 15.193 123.791 15.359 123.227 15.681 C 122.664 16.002 122.237 16.441 121.934 16.991 C 121.631 17.542 121.495 18.172 121.513 18.883 L 121.606 21.955 C 121.631 22.672 121.804 23.303 122.138 23.84 C 122.472 24.378 122.93 24.792 123.506 25.083 C 124.081 25.373 124.744 25.509 125.492 25.485 C 126.247 25.46 126.903 25.287 127.466 24.972 Z M 155.499 24.582 C 156.063 24.298 156.496 23.89 156.799 23.352 L 156.793 23.34 C 157.102 22.802 157.251 22.171 157.251 21.442 L 157.251 19.544 C 157.251 19.495 157.232 19.452 157.201 19.421 C 157.164 19.39 157.127 19.377 157.077 19.377 L 153.569 19.377 C 153.519 19.377 153.476 19.396 153.445 19.427 C 153.414 19.464 153.395 19.501 153.395 19.55 L 153.395 20.873 C 153.395 20.923 153.414 20.966 153.445 20.997 C 153.482 21.034 153.519 21.046 153.569 21.046 L 155.178 21.046 C 155.227 21.046 155.252 21.071 155.252 21.121 L 155.252 21.77 C 155.252 22.239 155.103 22.604 154.806 22.87 C 154.509 23.136 154.107 23.266 153.612 23.266 C 153.092 23.266 152.665 23.105 152.331 22.783 C 151.997 22.462 151.824 22.048 151.824 21.529 L 151.824 18.197 C 151.824 17.684 151.978 17.263 152.288 16.942 C 152.597 16.62 153.012 16.46 153.531 16.46 C 154.039 16.46 154.441 16.608 154.751 16.911 C 155.06 17.214 155.215 17.585 155.215 18.024 L 155.215 18.067 C 155.215 18.116 155.233 18.16 155.264 18.191 C 155.301 18.228 155.338 18.24 155.388 18.24 L 157.071 18.24 C 157.121 18.24 157.164 18.221 157.195 18.191 C 157.226 18.154 157.244 18.116 157.244 18.067 L 157.244 17.968 C 157.244 17.362 157.084 16.818 156.774 16.324 C 156.459 15.829 156.025 15.44 155.462 15.156 C 154.905 14.871 154.262 14.729 153.531 14.729 C 152.789 14.729 152.139 14.877 151.576 15.168 C 151.013 15.458 150.574 15.873 150.264 16.41 C 149.955 16.948 149.806 17.566 149.806 18.265 L 149.806 21.479 C 149.806 22.178 149.967 22.79 150.276 23.321 C 150.592 23.853 151.031 24.267 151.595 24.564 C 152.158 24.86 152.814 25.009 153.55 25.009 C 154.293 25.009 154.942 24.867 155.499 24.582 Z M 185.42 25.163 L 183.576 21.046 L 183.563 21.028 C 183.545 20.978 183.557 20.947 183.607 20.929 C 184.201 20.756 184.665 20.434 184.999 19.983 C 185.333 19.532 185.513 18.976 185.531 18.327 C 185.55 17.727 185.438 17.189 185.197 16.726 C 184.956 16.256 184.609 15.891 184.151 15.631 C 183.693 15.372 183.155 15.236 182.542 15.217 L 178.433 15.106 C 178.384 15.106 178.34 15.125 178.309 15.156 C 178.272 15.193 178.254 15.23 178.254 15.279 L 177.988 24.984 C 177.988 25.014 177.992 25.04 178.004 25.064 C 178.012 25.079 178.023 25.093 178.037 25.108 C 178.074 25.145 178.111 25.163 178.161 25.163 L 179.844 25.206 C 179.894 25.206 179.937 25.188 179.968 25.157 C 180.005 25.126 180.024 25.089 180.024 25.04 L 180.129 21.121 C 180.129 21.077 180.154 21.053 180.203 21.053 L 181.54 21.09 C 181.577 21.096 181.608 21.114 181.626 21.151 L 183.316 25.176 C 183.353 25.262 183.421 25.312 183.514 25.312 L 185.284 25.361 C 185.389 25.361 185.445 25.324 185.445 25.25 C 185.445 25.231 185.438 25.2 185.42 25.163 Z M 212.593 26.585 L 214.418 26.69 L 214.412 26.696 C 214.517 26.702 214.579 26.665 214.579 26.579 C 214.579 26.548 214.567 26.505 214.567 26.505 L 212.017 16.639 C 211.992 16.54 211.93 16.485 211.838 16.485 L 209.585 16.355 C 209.492 16.349 209.424 16.392 209.393 16.485 L 205.748 25.998 C 205.717 26.066 205.724 26.121 205.748 26.152 C 205.773 26.183 205.816 26.208 205.872 26.208 L 207.698 26.313 C 207.79 26.319 207.859 26.276 207.889 26.183 L 208.384 24.799 C 208.403 24.761 208.459 24.743 208.459 24.743 L 211.992 24.941 C 212.023 24.941 212.042 24.965 212.06 25.002 L 212.413 26.43 C 212.438 26.529 212.5 26.585 212.593 26.585 Z M 243.429 28.829 C 243.466 28.798 243.491 28.761 243.491 28.711 L 243.491 28.699 L 244.326 19.031 C 244.332 18.988 244.32 18.945 244.289 18.908 C 244.258 18.871 244.221 18.846 244.171 18.846 L 242.494 18.704 C 242.408 18.697 242.34 18.728 242.284 18.803 L 239.833 21.949 C 239.796 22.005 239.772 22.005 239.747 21.943 L 237.884 18.425 C 237.841 18.345 237.779 18.302 237.692 18.296 L 236.015 18.154 C 235.972 18.147 235.929 18.16 235.891 18.191 C 235.854 18.221 235.83 18.259 235.83 18.308 L 234.994 27.976 C 234.988 28.019 235 28.062 235.031 28.099 C 235.062 28.136 235.099 28.161 235.149 28.161 L 236.826 28.303 C 236.869 28.31 236.913 28.297 236.95 28.266 C 236.987 28.235 237.012 28.198 237.012 28.149 L 237.556 21.856 C 237.556 21.819 237.568 21.794 237.587 21.794 C 237.606 21.794 237.643 21.838 237.643 21.838 L 238.955 24.341 C 238.998 24.421 239.06 24.465 239.146 24.471 L 239.994 24.545 C 240.081 24.551 240.149 24.52 240.205 24.446 L 241.925 22.202 C 241.95 22.178 241.962 22.159 241.987 22.165 C 242 22.168 242.006 22.175 242.009 22.186 C 242.012 22.196 242.012 22.209 242.012 22.227 L 241.467 28.538 C 241.461 28.582 241.473 28.625 241.504 28.662 C 241.535 28.699 241.572 28.724 241.622 28.724 L 243.299 28.866 C 243.348 28.872 243.392 28.86 243.429 28.829 Z" fill="currentColor" fill-rule="evenodd"></path>
</svg>