<svg xmlns="http://www.w3.org/2000/svg" width="355.994" height="284.994" viewBox="0 0 355.994 284.994" fill="currentColor">
  <path d="M 323.276 236.087 L 334.36 237.799 L 345.443 239.517 L 340.981 229.238 L 336.519 218.958 C 334.502 214.303 332.423 209.605 330.319 204.932 C 333.648 201.199 337.021 197.459 340.387 193.787 L 348.19 185.269 L 355.994 176.757 L 333.147 173.222 C 328.413 172.486 323.561 171.769 318.666 171.07 L 318.666 157.694 C 320.622 154.943 322.2 151.698 323.437 147.909 C 325.535 141.418 325.943 135.645 324.588 129.847 L 327.682 130.18 L 329.112 125.167 L 330.826 119.153 L 331.129 118.083 C 333.617 109.343 332.738 101.48 328.598 95.336 C 325.851 91.262 320.411 86.175 310.07 85.056 L 309.941 85.044 L 309.811 85.044 L 298.102 84.265 L 298.102 66.852 C 298.102 61.919 295.367 57.475 290.967 55.243 L 184.615 1.403 C 182.802 0.482 180.766 0 178.73 0 C 176.694 0 174.615 0.495 172.783 1.434 L 67.83 55.243 C 63.467 57.481 60.75 61.919 60.75 66.821 L 60.75 83.733 C 59.76 83.628 58.745 83.579 57.706 83.579 C 56.505 83.579 55.255 83.647 53.987 83.783 C 44.704 84.784 37.643 89.389 33.559 97.098 C 30.398 103.06 29.704 109.578 29.29 113.473 L 29.289 113.478 L 26.597 139.551 C 25.595 149.126 27.563 156.73 32.445 162.145 C 33.658 163.492 35.292 164.939 37.396 166.187 L 37.396 171.064 C 32.47 171.763 27.594 172.486 22.847 173.222 L 11.424 174.989 L 0 176.757 L 7.803 185.269 L 15.607 193.787 C 18.967 197.453 22.346 201.192 25.675 204.932 C 23.571 209.593 21.492 214.297 19.475 218.958 L 15.013 229.238 L 10.551 239.517 L 21.634 237.799 L 32.717 236.087 C 43.813 234.368 55.107 232.792 66.289 231.395 L 70.825 230.826 L 82.744 229.219 L 167.709 281.186 C 171.131 283.677 175.166 284.994 179.411 284.994 C 183.656 284.994 187.697 283.677 191.113 281.186 L 275.212 229.751 L 323.252 236.08 L 323.276 236.087 Z M 37.043 158.003 C 34.036 154.69 32.538 150.06 32.538 144.231 C 32.526 142.877 32.6 141.455 32.755 139.966 L 35.44 113.917 C 36.214 106.648 37.829 91.528 54.649 89.711 C 55.701 89.6 56.728 89.538 57.706 89.538 C 61.666 89.538 64.674 90.483 66.939 91.751 L 66.939 66.821 C 66.939 64.262 68.374 61.913 70.652 60.745 L 175.605 6.936 C 176.583 6.435 177.653 6.181 178.73 6.181 C 179.807 6.181 180.847 6.429 181.818 6.917 L 288.176 60.751 C 290.472 61.913 291.926 64.268 291.926 66.846 L 291.926 89.81 L 309.415 90.984 C 317.385 91.85 321.463 95.589 323.474 98.575 C 325.417 101.455 326.37 104.936 326.327 108.842 C 326.321 111.21 325.943 113.738 325.188 116.396 L 324.885 117.465 L 323.171 123.48 L 316.946 122.806 L 315.157 122.614 C 317.998 127.702 319.297 132.171 319.204 136.863 C 319.173 139.762 318.617 142.747 317.565 146.005 C 316.952 147.878 316.253 149.572 315.454 151.111 C 313.654 154.578 310.949 157.515 307.626 159.573 C 306.345 160.364 304.897 161.081 303.468 161.409 C 304.041 161.479 304.615 161.547 305.189 161.615 C 306.035 161.715 306.881 161.815 307.725 161.922 L 312.874 162.565 L 312.874 176.343 C 319.644 177.277 326.346 178.253 332.862 179.261 L 343.716 180.942 L 336.303 189.034 C 331.971 193.756 327.633 198.584 323.369 203.412 C 326.055 209.309 328.71 215.268 331.265 221.165 L 335.498 230.931 L 324.966 229.299 C 313.728 227.562 302.304 225.968 291.017 224.558 L 285.237 223.841 L 286.165 215.842 L 187.678 276.074 C 185.24 277.91 182.338 278.831 179.442 278.831 C 176.546 278.831 173.643 277.91 171.205 276.074 L 71.141 214.878 L 72.174 223.841 L 66.394 224.558 C 55.101 225.968 43.677 227.562 32.445 229.299 L 21.913 230.931 L 26.146 221.165 C 28.707 215.261 31.356 209.309 34.042 203.405 C 29.79 198.59 25.452 193.762 21.108 189.027 L 13.688 180.936 L 24.543 179.255 C 31.096 178.241 37.823 177.258 44.593 176.325 L 44.593 162.744 L 45.762 162.596 C 45.762 162.596 39.382 160.581 37.043 158.003 Z M 192.796 250.056 L 182.585 250.056 L 179.429 240.358 L 176.279 250.056 L 166.069 250.056 L 174.33 256.052 L 171.174 265.745 L 179.429 259.755 L 187.691 265.745 L 184.535 256.052 L 192.796 250.056 Z M 55.453 96.856 C 46.078 97.87 43.924 104.219 42.829 114.474 L 40.143 140.497 C 39.153 149.967 42.006 156.297 51.963 155.221 C 62.994 154.027 64.062 146.207 65.094 138.641 C 65.125 138.415 65.156 138.189 65.187 137.963 L 65.33 136.924 L 56.604 137.87 L 56.344 139.978 C 55.732 145.109 54.909 147.6 52.043 147.909 C 48.708 148.267 48.318 145.35 48.77 140.559 L 51.684 111.877 C 52.204 106.864 52.99 104.497 55.769 104.194 C 58.9 103.854 59.581 106.209 59.11 110.802 L 58.881 113.009 L 67.378 112.087 L 67.483 111.309 C 68.424 104.416 67.471 95.546 55.453 96.844 L 55.453 96.856 Z M 90.046 117.057 L 92.991 94.396 L 101.519 93.71 L 94.148 150.499 L 85.627 151.185 L 88.981 124.945 L 76.568 125.934 L 79.841 127.801 L 76.753 151.902 L 68.3 152.582 L 75.664 95.793 L 84.117 95.113 L 81.178 117.774 L 90.046 117.057 Z M 97.793 150.109 L 106.717 149.64 L 110.473 136.387 L 107.212 134.52 L 111.061 134.316 L 119.446 133.871 L 119.236 148.978 L 127.776 148.527 L 127.906 92.424 L 115.22 93.092 C 114.805 94.382 110.089 109.842 105.665 124.346 L 105.66 124.363 L 105.653 124.383 L 105.65 124.393 C 101.77 137.116 98.117 149.09 97.793 150.103 L 97.793 150.109 Z M 120.102 100.64 C 120.012 103.766 119.931 108.004 119.844 112.536 L 119.844 112.538 L 119.844 112.538 L 119.844 112.538 C 119.759 117.002 119.668 121.751 119.558 126.002 L 113.351 126.329 C 115.721 117.484 118.766 105.684 119.787 100.658 L 120.102 100.64 Z M 165.417 91.509 L 165.419 91.503 L 165.413 91.51 L 165.417 91.509 Z M 165.417 91.509 C 160.986 103.557 154.546 122.418 152.089 130.415 L 152.003 130.415 C 152.634 123.999 153.277 113.47 154.031 101.12 C 154.216 98.087 154.408 94.945 154.608 91.726 L 141.749 91.986 L 130.969 148.224 L 138.859 148.063 L 142.392 128.122 C 143.201 123.64 144.154 118.66 145.054 113.954 L 145.055 113.952 L 145.055 113.951 C 146.096 108.507 147.067 103.43 147.665 99.916 L 147.832 99.916 C 147.429 105.458 146.821 114.83 146.188 124.573 L 146.188 124.585 L 146.187 124.591 C 145.654 132.807 145.103 141.286 144.645 147.952 L 152.572 147.791 C 158.036 131.46 165.283 109.355 168.377 99.57 L 168.464 99.57 C 167.028 106.017 164.813 117.181 162.95 126.737 L 158.94 147.661 L 167.22 147.495 L 178 91.256 L 165.417 91.509 Z M 188.204 123.814 L 190.735 123.845 C 201.614 123.974 205.42 119.499 207.27 110.585 L 208.069 106.747 C 210.049 97.376 206.169 91.794 196.948 91.683 L 186.15 91.553 L 173.563 147.427 L 182.041 147.526 L 186.911 125.785 L 183.848 123.696 L 188.204 123.807 L 188.204 123.814 Z M 193 98.754 L 195.816 98.785 C 200.599 98.841 200.525 102.364 199.516 106.771 L 198.799 110.011 C 197.759 114.504 196.54 116.872 191.843 116.816 L 188.996 116.785 L 193 98.754 Z M 202.586 147.816 L 216.25 92.196 L 224.721 92.461 L 211.064 148.076 L 202.586 147.816 Z M 243.812 92.622 C 235.972 92.214 230.743 96.331 228.273 105.789 L 221.132 133.018 C 218.657 142.556 221.157 149.176 231.145 149.695 C 241.467 150.233 244.759 144.682 247.259 135.255 L 254.184 109.324 C 256.894 99.267 252.872 93.098 243.812 92.628 L 243.812 92.622 Z M 246.015 107.13 L 238.435 135.682 C 237.259 139.978 235.718 142.661 232.438 142.494 C 228.459 142.29 228.304 138.884 229.387 134.915 L 236.968 106.308 C 238.107 101.876 239.908 99.768 242.711 99.916 C 246.473 100.114 247.092 103.069 246.009 107.136 L 246.015 107.13 Z M 280.261 110.672 L 284.507 96.424 L 284.507 96.418 L 292.527 97.067 L 276.115 151.933 L 266.449 151.148 C 266.678 146.955 266.942 141.995 267.207 137.023 L 267.211 136.939 L 267.212 136.932 C 267.846 125.023 268.482 113.067 268.652 111.426 L 268.572 111.426 C 266.913 118.176 264.982 125.557 262.068 135.428 L 257.618 150.437 L 249.524 149.782 L 265.935 94.916 L 275.911 95.725 L 275.662 100.355 C 274.822 115.986 273.948 132.229 273.689 134.619 L 273.782 134.619 C 275.589 127.411 277.594 119.691 280.261 110.672 Z M 308.616 98.13 C 301.549 97.363 296.778 100.862 294.544 108.379 C 292.273 115.957 293.523 119.703 298.746 127.046 C 303.344 133.525 303.653 136.671 302.156 141.573 C 300.813 145.875 299.018 148.001 295.998 147.674 C 292.452 147.291 292.093 144.503 293.331 140.102 L 293.746 138.637 L 285.249 137.716 L 284.977 138.569 C 282.279 147.161 284.692 153.528 294.463 154.585 C 303.102 155.518 307.824 151.475 310.504 143.254 C 313.035 135.41 312.082 130.384 305.547 121.081 C 302.087 116.112 301.698 113.62 302.768 109.763 C 303.684 106.456 305.169 104.911 307.669 105.183 C 311.054 105.548 310.708 108.96 309.563 112.984 L 309.254 114.066 L 317.738 114.987 L 318.041 113.917 C 319.879 107.445 319.594 99.323 308.61 98.136 L 308.616 98.13 Z M 93.561 215.521 C 150.307 207.059 208.49 206.991 265.23 215.558 L 200.853 252.875 C 199.164 253.716 197.685 251.342 199.281 250.217 L 242.445 221.016 C 171.929 207.182 115.22 221.016 115.22 221.016 C 122.731 226.102 130.237 231.191 136.833 235.662 L 136.913 235.716 L 136.919 235.721 C 148.942 243.871 157.921 249.958 158.352 250.217 C 159.899 251.293 158.525 253.734 156.774 252.875 L 93.561 215.521 Z M 77.162 81.154 L 77.243 77.913 L 77.248 77.714 C 77.277 76.363 77.311 74.785 77.793 73.535 C 78.623 71.025 80.478 68.921 82.851 67.778 C 92.359 63.199 102.872 58.04 113.443 52.852 C 124.178 47.584 134.974 42.286 144.841 37.535 C 146.746 36.698 147.951 39.365 146.265 40.314 C 138.703 44.443 128.998 50.094 119.375 55.696 C 109.933 61.193 100.57 66.645 93.386 70.569 C 92.374 71.125 87.166 73.966 86.273 74.453 C 85.73 74.741 85.311 75.284 85.174 75.877 C 85.092 76.178 85.12 76.894 85.141 77.43 C 85.149 77.627 85.155 77.8 85.155 77.919 C 85.195 79.403 85.275 82.538 85.338 85.024 L 85.405 87.636 L 85.405 87.736 L 81.29 88.067 L 77.075 88.41 C 77.037 88.16 77.006 87.91 77.006 87.636 L 77.168 81.16 L 77.162 81.154 Z M 279.769 77.913 L 279.85 81.154 L 279.844 81.154 L 280.006 87.636 C 280.006 87.91 279.975 88.16 279.937 88.41 L 275.722 88.067 L 271.607 87.736 L 271.607 87.636 L 271.637 86.485 L 271.675 84.987 C 271.738 82.507 271.817 79.395 271.857 77.919 C 271.857 77.8 271.864 77.628 271.871 77.431 L 271.871 77.431 L 271.871 77.43 C 271.892 76.894 271.92 76.178 271.838 75.877 C 271.701 75.284 271.282 74.741 270.739 74.453 C 269.846 73.966 264.638 71.125 263.626 70.569 C 256.443 66.645 247.08 61.194 237.638 55.697 L 237.638 55.697 C 228.014 50.094 218.309 44.443 210.747 40.314 C 209.061 39.365 210.266 36.698 212.171 37.535 C 222.038 42.286 232.834 47.584 243.57 52.852 L 243.571 52.853 L 243.576 52.856 C 254.145 58.042 264.655 63.2 274.161 67.778 C 276.534 68.921 278.389 71.025 279.219 73.535 C 279.701 74.785 279.735 76.363 279.764 77.714 L 279.769 77.913 Z M 170.837 26.598 L 157.006 26.598 L 157.006 28.905 L 170.837 28.905 L 170.837 26.598 Z M 170.837 72.699 L 157.006 72.699 L 157.006 75 L 170.837 75 L 170.837 72.699 Z M 161.614 35.82 L 170.837 35.82 L 170.837 38.127 L 161.614 38.127 L 161.614 35.82 Z M 170.837 58.868 L 161.614 58.868 L 161.614 61.175 L 170.837 61.175 L 170.837 58.868 Z M 157.006 49.651 L 170.837 49.651 L 170.837 51.952 L 157.006 51.952 L 157.006 49.651 Z M 170.837 31.206 L 161.614 31.206 L 161.614 33.513 L 170.837 33.513 L 170.837 31.206 Z M 161.614 54.254 L 170.837 54.254 L 170.837 56.561 L 161.614 56.561 L 161.614 54.254 Z M 170.837 40.428 L 161.614 40.428 L 161.614 42.735 L 170.837 42.735 L 170.837 40.428 Z M 161.614 63.476 L 170.837 63.476 L 170.837 65.783 L 161.614 65.783 L 161.614 63.476 Z M 170.837 45.037 L 161.614 45.037 L 161.614 47.344 L 170.837 47.344 L 170.837 45.037 Z M 161.614 68.085 L 170.837 68.085 L 170.837 70.392 L 161.614 70.392 L 161.614 68.085 Z M 180.106 26.598 L 173.144 26.598 L 173.144 35.814 L 175.451 35.814 C 182.361 35.814 183.517 39.508 183.517 42.275 C 183.517 45.043 181.21 48.495 175.451 48.495 L 173.144 48.495 L 173.144 56.561 L 184.674 74.994 L 200.806 74.994 L 185.56 55.186 C 188.459 54.536 190.065 53.736 191.733 52.286 C 194.495 49.893 196.198 46.188 196.198 41.545 C 196.198 35.814 192.74 26.598 180.111 26.598 L 180.106 26.598 Z M 201.525 30.147 C 201.537 31.47 200.472 32.552 199.149 32.564 C 197.826 32.575 196.744 31.511 196.733 30.187 L 196.733 30.141 C 196.733 29.79 196.807 29.445 196.957 29.129 C 197.107 28.807 197.325 28.525 197.596 28.306 C 198.016 27.949 198.551 27.748 199.097 27.754 C 199.442 27.754 199.782 27.823 200.098 27.961 C 200.518 28.145 200.881 28.45 201.122 28.841 C 201.376 29.227 201.514 29.681 201.514 30.147 L 201.525 30.147 Z M 199.115 28.099 C 198.579 28.099 198.073 28.312 197.711 28.703 C 197.325 29.083 197.118 29.606 197.124 30.141 C 197.112 30.688 197.325 31.212 197.711 31.603 C 198.47 32.385 199.719 32.408 200.501 31.655 L 200.547 31.609 C 200.933 31.223 201.145 30.694 201.134 30.147 C 201.134 29.819 201.048 29.497 200.904 29.204 C 200.766 28.916 200.559 28.663 200.3 28.479 C 199.955 28.231 199.54 28.099 199.115 28.105 L 199.115 28.099 Z M 200.265 31.539 L 199.371 30.388 L 199.408 30.377 C 199.569 30.331 199.713 30.228 199.811 30.09 C 199.914 29.946 199.966 29.779 199.966 29.606 C 199.972 29.359 199.862 29.129 199.667 28.979 C 199.414 28.818 199.12 28.749 198.821 28.772 L 198.269 28.772 L 198.269 31.539 L 198.798 31.539 L 198.798 30.441 L 199.621 31.539 L 200.265 31.539 Z M 198.798 29.998 L 198.89 29.998 C 199.27 29.998 199.46 29.865 199.46 29.606 C 199.46 29.365 199.276 29.238 198.907 29.244 L 198.798 29.244 L 198.798 29.998 Z" fill="currentColor" fill-rule="evenodd"></path>
</svg>