<svg xmlns="http://www.w3.org/2000/svg" width="579.003" height="62" viewBox="0 0 579.003 62" fill="currentColor">
  <path d="M 316.756 6.555 L 324.495 12.101 L 312.483 18.826 L 304.761 13.288 L 316.76 6.559 L 316.756 6.555 Z M 317.125 0.004 L 294.46 12.718 L 312.119 25.385 L 334.815 12.682 L 317.121 0 L 317.125 0.004 Z M 380.089 39.199 L 380.009 39.657 C 379.827 41.881 380.267 44.195 382.877 44.195 C 384.789 44.195 385.902 42.964 386.346 40.65 C 386.849 38.004 386.298 36.117 382.857 32.928 C 378.267 28.763 376.766 26.065 377.613 21.298 C 378.445 16.615 381.439 13.596 386.742 13.596 C 394.995 13.596 395.72 19.807 395.272 23.126 L 395.225 23.399 L 389.035 23.399 L 389.094 23.074 C 389.272 21.326 389.181 18.751 386.627 18.751 C 384.991 18.751 384.069 19.752 383.764 21.623 C 383.427 23.652 383.883 25.001 387.106 27.849 C 392.591 32.81 393.791 36.097 392.662 41.354 C 391.633 46.157 388.564 49.322 382.659 49.322 C 374.841 49.322 373.071 44.282 373.808 39.432 L 373.859 39.187 L 380.093 39.187 L 380.089 39.199 Z M 169.388 35.864 L 170.821 29.076 C 173.138 18.256 169.934 13.604 162.933 13.604 C 157.202 13.604 153.091 17.647 151.147 26.647 L 149.666 33.811 C 147.511 43.748 149.812 49.333 157.325 49.333 C 163.756 49.333 167.348 45.409 169.388 35.864 Z M 155.998 34.736 L 157.594 27.121 L 157.594 27.125 C 158.766 21.631 160.279 19.012 162.628 19.012 C 165.8 19.012 165.713 22.584 164.477 28.106 L 162.881 35.721 C 161.515 41.837 160.196 43.981 157.832 43.981 C 154.818 43.981 154.814 40.187 155.998 34.736 Z M 68.698 48.756 L 71.803 40.318 L 78.231 40.318 L 77.894 48.756 L 84.246 48.756 L 84.939 14.178 L 75.823 14.178 L 62.113 48.756 L 68.698 48.756 Z M 79.153 19.49 C 78.928 23.082 78.591 29.388 78.385 34.752 L 73.878 34.752 C 75.918 28.977 78.053 22.667 78.967 19.49 L 79.153 19.49 Z M 0 48.756 L 7.366 14.182 L 14.59 14.182 C 23.552 14.182 25.714 20.218 23.722 29.791 L 22.506 35.468 C 20.661 44.333 17.548 48.76 9.414 48.76 L 0 48.76 L 0 48.756 Z M 7.481 43.649 L 8.843 43.649 C 12.613 43.649 14.613 42.15 15.988 35.31 L 17.374 28.779 C 18.823 21.623 18.007 19.36 13.762 19.36 L 12.641 19.36 L 7.481 43.649 Z M 52.176 14.182 L 44.81 48.76 L 38.402 48.76 L 45.769 14.182 L 52.176 14.182 Z M 124.098 36.619 C 125.314 30.939 126.874 23.901 127.833 19.85 L 127.702 19.85 C 125.393 26.413 120.641 39.353 116.962 48.76 L 111.291 48.76 L 111.486 45.822 L 111.492 45.744 C 112.057 37.236 112.827 25.661 113.299 19.771 L 113.117 19.771 C 112.396 23.814 110.942 31.109 109.699 37.082 L 107.283 48.76 L 101.418 48.76 L 108.784 14.182 L 118.301 14.182 C 117.964 22.279 117.413 31.635 116.875 36.694 L 116.946 36.694 C 118.621 31.69 122.819 21.29 125.793 14.182 L 135.029 14.182 L 127.663 48.76 L 121.512 48.76 L 124.106 36.623 L 124.098 36.619 Z M 185.482 48.756 L 192.848 14.178 L 200.191 14.178 C 201.585 28.13 202.076 36.01 202.131 37.782 L 202.202 37.782 C 202.836 33.498 203.925 27.588 205.105 22.058 L 206.784 14.178 L 212.689 14.178 L 205.323 48.756 L 198.21 48.756 C 196.943 35.397 196.385 25.741 196.298 24.087 L 196.222 24.087 C 195.561 28.288 194.531 34.218 193.244 40.282 L 191.446 48.752 L 185.49 48.752 L 185.482 48.756 Z M 239.607 14.182 L 232.383 14.182 L 225.017 48.76 L 234.427 48.76 C 242.561 48.76 245.674 44.333 247.519 35.468 L 248.735 29.791 C 250.727 20.218 248.569 14.182 239.607 14.182 Z M 233.861 43.653 L 232.498 43.653 L 237.658 19.364 L 238.779 19.364 C 243.025 19.364 243.84 21.627 242.391 28.783 L 241.005 35.314 C 239.631 42.154 237.631 43.653 233.861 43.653 Z M 416.459 14.182 L 416.456 14.182 L 416.46 14.178 L 416.459 14.182 Z M 416.459 14.182 L 424.333 14.182 C 431.528 14.182 434.487 18.549 433.065 25.274 L 432.859 26.318 C 431.532 32.636 427.699 35.065 421.477 35.065 L 418.388 35.065 L 415.497 48.756 L 409.094 48.756 L 416.459 14.182 Z M 421.96 29.851 L 419.529 29.851 L 419.525 29.855 L 421.723 19.415 L 423.798 19.415 C 426.78 19.415 427.469 21.48 426.847 24.582 L 426.653 25.507 C 426.063 28.443 424.808 29.851 421.96 29.851 Z M 470.105 29.076 L 468.671 35.864 C 466.632 45.409 463.04 49.333 456.609 49.333 C 449.096 49.333 446.795 43.748 448.949 33.811 L 450.431 26.647 C 452.375 17.647 456.486 13.604 462.216 13.604 C 469.218 13.604 472.422 18.256 470.105 29.076 Z M 456.878 27.121 L 455.282 34.736 C 454.098 40.187 454.102 43.981 457.115 43.981 C 459.48 43.981 460.798 41.837 462.161 35.721 L 463.757 28.106 C 464.992 22.584 465.079 19.012 461.907 19.012 C 459.559 19.012 458.046 21.631 456.874 27.125 L 456.878 27.121 Z M 491.166 48.756 L 494.29 33.945 L 494.294 33.937 L 496.389 33.937 C 499.344 33.937 499.839 35.314 499.015 39.384 C 498.215 43.344 497.502 46.952 497.518 48.752 L 503.755 48.752 C 503.882 46.79 504.456 43.712 505.248 39.895 C 506.357 34.629 505.129 32.699 503.324 31.639 C 505.419 31.01 507.874 29.598 508.9 24.997 L 509.058 24.23 C 510.377 18.272 507.799 14.178 500.773 14.178 L 492.132 14.178 L 484.766 48.756 L 491.166 48.756 Z M 497.28 28.771 L 495.407 28.771 L 497.403 19.352 L 499.443 19.352 C 502.393 19.352 503.177 21.156 502.603 23.933 L 502.46 24.696 C 501.771 28.043 500.223 28.771 497.28 28.771 Z M 531.968 19.799 L 525.727 19.799 L 526.943 14.178 L 545.821 14.178 L 544.605 19.799 L 538.376 19.799 L 532.226 48.756 L 525.818 48.756 L 531.968 19.799 Z M 563.638 39.657 L 563.717 39.199 L 563.725 39.187 L 557.488 39.187 L 557.436 39.432 C 556.7 44.282 558.47 49.322 566.288 49.322 C 572.192 49.322 575.262 46.157 576.291 41.354 C 577.42 36.097 576.224 32.81 570.735 27.849 C 567.511 25.001 567.056 23.652 567.393 21.623 C 567.698 19.752 568.62 18.751 570.256 18.751 C 572.81 18.751 572.901 21.326 572.723 23.074 L 572.664 23.399 L 578.854 23.399 L 578.901 23.126 C 579.349 19.807 578.624 13.596 570.371 13.596 C 565.068 13.596 562.074 16.615 561.242 21.298 C 560.395 26.065 561.896 28.763 566.486 32.928 C 569.927 36.117 570.478 38.004 569.975 40.65 C 569.527 42.964 568.418 44.195 566.505 44.195 C 563.896 44.195 563.456 41.881 563.638 39.657 Z M 342.963 25.342 L 350.7 30.887 L 338.688 37.612 L 330.966 32.074 L 342.963 25.342 Z M 320.665 31.5 L 343.33 18.786 L 343.334 18.786 L 361.02 31.465 L 338.324 44.167 L 320.665 31.5 Z M 284.849 24.388 L 292.587 29.934 L 280.576 36.659 L 272.853 31.121 L 284.853 24.392 L 284.849 24.388 Z M 285.217 17.837 L 262.552 30.551 L 280.211 43.218 L 302.907 30.515 L 285.221 17.837 L 285.217 17.837 Z M 311.055 43.175 L 299.058 49.907 L 306.781 55.445 L 318.792 48.72 L 311.055 43.175 Z M 288.757 49.333 L 311.422 36.619 L 311.426 36.619 L 329.112 49.298 L 306.416 62 L 288.757 49.333 Z" fill="currentColor" fill-rule="evenodd"></path>
</svg>