<svg xmlns="http://www.w3.org/2000/svg" width="98.468" height="62" viewBox="0 0 98.468 62" fill="currentColor">
  <path d="M 61.942 12.101 L 54.204 6.555 L 54.208 6.559 L 42.208 13.288 L 49.931 18.826 L 61.942 12.101 Z M 31.908 12.718 L 54.572 0.004 L 54.568 0 L 72.263 12.682 L 49.566 25.385 L 31.908 12.718 Z M 80.411 25.342 L 68.413 32.074 L 76.136 37.612 L 88.147 30.887 L 80.411 25.342 Z M 58.113 31.5 L 80.777 18.786 L 80.781 18.786 L 98.468 31.465 L 75.771 44.167 L 58.113 31.5 Z M 22.296 24.388 L 30.035 29.934 L 18.023 36.659 L 10.301 31.121 L 22.3 24.392 L 22.296 24.388 Z M 22.665 17.837 L 0 30.551 L 17.659 43.218 L 40.355 30.515 L 22.668 17.837 L 22.665 17.837 Z M 48.503 43.175 L 36.506 49.907 L 44.228 55.445 L 56.239 48.72 L 48.503 43.175 Z M 26.205 49.333 L 48.869 36.619 L 48.873 36.619 L 66.56 49.298 L 43.864 62 L 26.205 49.333 Z" fill="currentColor" fill-rule="evenodd"></path>
</svg>