<svg xmlns="http://www.w3.org/2000/svg" width="5.010" height="5.074" viewBox="0 0 5.010 5.074" fill="currentColor">
  <path d="M 5.005 2.529 C 5.015 3.923 3.905 5.063 2.523 5.074 C 1.141 5.084 0.01 3.964 0 2.57 C 0 2.555 0 2.539 0 2.524 C 0 2.152 0.077 1.791 0.235 1.455 C 0.394 1.12 0.619 0.821 0.906 0.588 C 1.341 0.206 1.899 0 2.477 0 C 2.835 0 3.193 0.072 3.526 0.222 C 3.966 0.418 4.34 0.738 4.601 1.151 C 4.867 1.559 5.01 2.039 5.01 2.529 L 5.005 2.529 Z M 2.482 0.366 C 1.924 0.361 1.392 0.594 1.013 1.001 C 0.614 1.404 0.389 1.951 0.399 2.519 C 0.389 3.092 0.614 3.649 1.013 4.057 C 1.806 4.883 3.111 4.908 3.93 4.108 C 3.946 4.093 3.961 4.077 3.981 4.057 C 4.381 3.649 4.606 3.092 4.596 2.519 C 4.59 2.173 4.509 1.832 4.355 1.523 C 4.212 1.218 3.992 0.955 3.726 0.759 C 3.362 0.495 2.932 0.356 2.487 0.361 L 2.482 0.366 Z M 2.743 2.772 L 3.685 3.99 L 3.009 3.99 L 2.149 2.834 L 2.149 3.99 L 1.597 3.99 L 1.597 1.074 L 2.175 1.074 C 2.487 1.048 2.794 1.125 3.06 1.29 C 3.26 1.445 3.378 1.693 3.372 1.951 C 3.372 2.132 3.316 2.312 3.209 2.457 C 3.106 2.601 2.958 2.71 2.789 2.756 L 2.748 2.772 L 2.743 2.772 Z M 2.149 2.369 L 2.241 2.369 C 2.636 2.369 2.835 2.23 2.835 1.956 C 2.835 1.698 2.646 1.569 2.262 1.569 L 2.149 1.569 L 2.149 2.369 Z" fill="currentColor" fill-rule="nonzero"></path>
</svg>