<svg xmlns="http://www.w3.org/2000/svg" width="151.000" height="35.638" viewBox="0 0 151.000 35.638" fill="currentColor">
  <path d="M 18.97 6.586 C 16.71 6.586 14.68 7.068 12.94 8.01 L 12.95 7.99 C 11.21 8.932 9.84 10.255 8.86 11.95 C 7.88 13.644 7.38 15.669 7.38 17.804 C 7.38 19.939 7.88 21.874 8.86 23.568 C 9.84 25.263 11.21 26.606 12.95 27.578 C 14.69 28.551 16.7 29.042 18.92 29.042 C 21.3 29.042 23.43 28.541 25.25 27.548 L 25.25 21.964 L 18.51 21.964 L 18.51 15.599 L 32.23 15.599 L 32.23 16.872 L 32.24 16.872 L 32.24 31.067 L 32.03 31.237 C 30.27 32.651 28.18 33.744 25.83 34.496 C 23.49 35.247 21.05 35.628 18.58 35.628 C 15.09 35.628 11.9 34.856 9.09 33.333 C 6.27 31.809 4.03 29.664 2.42 26.967 C 0.81 24.27 0 21.193 0 17.814 C 0 14.436 0.81 11.358 2.42 8.661 C 4.02 5.965 6.28 3.819 9.11 2.296 C 11.94 0.772 15.16 0 18.68 0 C 21.54 0 24.19 0.481 26.54 1.434 C 28.91 2.386 30.93 3.809 32.54 5.654 L 32.89 6.055 L 28.2 10.646 L 27.81 10.255 C 25.38 7.819 22.4 6.586 18.97 6.586 Z M 61.25 0.01 C 64.74 0.01 67.93 0.782 70.74 2.305 C 73.56 3.829 75.8 5.975 77.41 8.671 C 79.01 11.368 79.83 14.446 79.83 17.824 C 79.83 21.202 79.02 24.28 77.41 26.977 C 75.8 29.673 73.56 31.819 70.74 33.342 C 67.94 34.866 64.74 35.638 61.25 35.638 C 57.76 35.638 54.57 34.866 51.76 33.342 C 48.94 31.819 46.7 29.673 45.09 26.957 C 43.48 24.24 42.67 21.172 42.67 17.824 C 42.67 14.476 43.48 11.408 45.09 8.691 C 46.7 5.985 48.94 3.829 51.76 2.305 C 54.56 0.782 57.76 0.01 61.25 0.01 Z M 67 27.628 C 68.69 26.676 70.04 25.323 71 23.618 C 71.97 21.904 72.46 19.959 72.46 17.824 C 72.46 15.689 71.97 13.744 71 12.03 C 70.03 10.325 68.69 8.972 67 8.02 C 65.31 7.057 63.37 6.576 61.25 6.576 C 59.13 6.576 57.19 7.067 55.5 8.02 C 53.81 8.972 52.47 10.325 51.5 12.03 C 50.53 13.744 50.04 15.689 50.04 17.824 C 50.04 19.959 50.53 21.904 51.5 23.618 C 52.47 25.323 53.81 26.676 55.5 27.628 C 57.19 28.591 59.13 29.072 61.25 29.072 C 63.37 29.072 65.3 28.581 67 27.628 Z M 98.39 0.491 L 91.06 0.491 L 91.06 35.167 L 115.89 35.167 L 115.89 28.782 L 98.39 28.782 L 98.39 0.491 Z M 151 0.491 L 151 6.827 L 132.78 6.827 L 132.78 15.93 L 148.94 15.93 L 148.94 22.316 L 132.78 22.316 L 132.78 35.167 L 125.45 35.167 L 125.45 0.491 L 151 0.491 Z" fill="currentColor" fill-rule="evenodd"></path>
</svg>