<svg xmlns="http://www.w3.org/2000/svg" width="150.935" height="35.690" viewBox="0 0 150.935 35.690" fill="currentColor">
  <path d="M 18.963 6.594 C 16.704 6.594 14.675 7.076 12.935 8.019 L 12.945 7.999 C 11.206 8.943 9.836 10.268 8.857 11.964 C 7.877 13.66 7.377 15.688 7.377 17.825 C 7.377 19.963 7.877 21.9 8.857 23.597 C 9.836 25.293 11.206 26.638 12.945 27.611 C 14.685 28.585 16.694 29.077 18.913 29.077 C 21.292 29.077 23.422 28.575 25.241 27.581 L 25.241 21.991 L 18.503 21.991 L 18.503 15.617 L 32.218 15.617 L 32.218 16.892 L 32.228 16.892 L 32.228 31.104 L 32.018 31.275 C 30.259 32.69 28.17 33.784 25.821 34.537 C 23.482 35.289 21.042 35.671 18.573 35.671 C 15.085 35.671 11.896 34.898 9.087 33.372 C 6.268 31.847 4.029 29.699 2.419 26.999 C 0.81 24.299 0 21.218 0 17.835 C 0 14.453 0.81 11.372 2.419 8.672 C 4.019 5.972 6.278 3.824 9.107 2.298 C 11.936 0.773 15.155 0 18.673 0 C 21.532 0 24.181 0.482 26.53 1.435 C 28.9 2.389 30.919 3.814 32.528 5.661 L 32.878 6.062 L 28.19 10.659 L 27.8 10.268 C 25.371 7.829 22.392 6.594 18.963 6.594 Z M 61.228 0.02 C 64.716 0.02 67.905 0.792 70.714 2.318 C 73.533 3.844 75.772 5.991 77.382 8.691 C 78.981 11.391 79.801 14.473 79.801 17.855 C 79.801 21.237 78.991 24.319 77.382 27.019 C 75.772 29.719 73.533 31.866 70.714 33.392 C 67.915 34.918 64.716 35.69 61.228 35.69 C 57.739 35.69 54.55 34.918 51.741 33.392 C 48.922 31.866 46.683 29.719 45.074 26.999 C 43.464 24.279 42.654 21.207 42.654 17.855 C 42.654 14.503 43.464 11.431 45.074 8.711 C 46.683 6.002 48.922 3.844 51.741 2.318 C 54.54 0.792 57.739 0.02 61.228 0.02 Z M 66.976 27.671 C 68.665 26.717 70.015 25.363 70.974 23.656 C 71.944 21.94 72.434 19.993 72.434 17.855 C 72.434 15.717 71.944 13.77 70.974 12.054 C 70.005 10.347 68.665 8.993 66.976 8.039 C 65.286 7.075 63.347 6.594 61.228 6.594 C 59.109 6.594 57.169 7.086 55.48 8.039 C 53.79 8.993 52.451 10.347 51.481 12.054 C 50.512 13.77 50.022 15.717 50.022 17.855 C 50.022 19.993 50.512 21.94 51.481 23.656 C 52.451 25.363 53.79 26.717 55.48 27.671 C 57.169 28.635 59.109 29.116 61.228 29.116 C 63.347 29.116 65.276 28.624 66.976 27.671 Z M 98.344 0.492 L 91.017 0.492 L 91.017 35.209 L 115.848 35.209 L 115.848 28.816 L 98.344 28.816 L 98.344 0.492 Z M 150.935 0.492 L 150.935 6.845 L 132.722 6.845 L 132.722 15.949 L 148.886 15.949 L 148.886 22.352 L 132.722 22.352 L 132.722 35.209 L 125.395 35.209 L 125.395 0.492 L 150.935 0.492 Z" fill="currentColor" fill-rule="evenodd"></path>
</svg>