<svg xmlns="http://www.w3.org/2000/svg" width="381.760" height="54.010" viewBox="0 0 381.760 54.010" fill="currentColor">
  <path d="M 377.76 0.314 L 378.397 0.314 L 378.397 2 L 378.753 2 L 378.753 0.314 L 379.39 0.314 L 379.39 0 L 377.76 0 L 377.76 0.314 Z M 381.42 0.674 L 381.422 2 L 381.76 2 L 381.757 0 L 381.464 0 L 380.714 1.326 L 379.952 0 L 379.658 0 L 379.658 2 L 379.998 2 L 379.998 0.691 L 380.629 1.771 L 380.789 1.771 L 381.42 0.674 Z M 267.049 0.01 L 367.471 0.01 C 372.045 0.01 375.76 3.762 375.76 8.381 L 375.76 45.639 C 375.76 50.258 372.045 54.01 367.471 54.01 L 267.049 54.01 C 262.475 54.01 258.76 50.258 258.76 45.639 L 258.76 8.381 C 258.76 3.762 262.475 0.01 267.049 0.01 Z M 367.471 51.357 C 370.597 51.357 373.134 48.796 373.134 45.639 L 373.134 8.381 C 373.134 5.224 370.597 2.663 367.471 2.663 L 267.049 2.663 C 263.923 2.663 261.386 5.224 261.386 8.381 L 261.386 45.639 C 261.386 48.796 263.923 51.357 267.049 51.357 L 367.471 51.357 Z M 274.76 14.02 L 295.337 14.02 L 295.337 14.01 C 297.787 14.01 299.76 15.98 299.76 18.434 L 299.76 25.897 C 299.76 28.311 297.797 30.281 295.337 30.281 L 277.963 30.281 L 277.963 40.01 L 274.76 40.01 L 274.76 14.02 Z M 277.963 27.272 L 296.527 27.272 L 296.527 17.019 L 277.963 17.019 L 277.963 27.272 Z M 329.258 25.416 C 329.258 28.347 326.51 29.762 324.814 29.762 L 324.824 29.753 L 323.319 29.753 L 329.76 40.01 L 326.259 40.01 L 319.818 29.792 L 308 29.792 L 308 40.01 L 304.76 40.01 L 304.76 14.01 L 324.784 14.01 C 327.262 14.01 329.258 15.98 329.258 18.436 L 329.258 25.416 Z M 307.99 17.02 L 307.99 26.792 L 325.978 26.792 L 325.978 17.02 L 307.99 17.02 Z M 356.349 14.01 L 339.171 14.01 C 336.724 14.01 334.76 15.98 334.76 18.434 L 334.76 35.586 C 334.76 38.04 336.724 40.01 339.171 40.01 L 356.349 40.01 C 358.796 40.01 360.76 38.04 360.76 35.586 L 360.76 18.434 C 360.76 15.98 358.796 14.01 356.349 14.01 Z M 357.533 37.001 L 337.987 37.001 L 337.987 17.019 L 357.533 17.019 L 357.533 37.001 Z M 64.39 0.15 L 64.39 53.55 L 57.83 53.55 L 57.83 6.41 L 35.86 53.55 L 28.54 53.55 L 6.56 6.48 L 6.56 53.55 L 0 53.55 L 0 0.15 L 10.68 0.15 L 32.19 46.3 L 53.7 0.15 L 64.38 0.15 L 64.39 0.15 Z M 116.79 47.38 L 116.79 53.55 L 84.67 53.55 C 79.64 53.55 75.67 49.51 75.67 44.47 L 75.67 0.15 L 82.23 0.15 L 82.23 41.73 C 82.23 45.77 83.91 47.38 87.88 47.38 L 116.79 47.38 Z M 190.1 53.55 L 190.1 0.15 L 179.42 0.15 L 157.91 46.3 L 136.4 0.15 L 125.72 0.15 L 125.72 53.55 L 132.28 53.55 L 132.28 6.48 L 154.25 53.55 L 161.57 53.55 L 183.54 6.41 L 183.54 53.55 L 190.1 53.55 Z" fill="currentColor" fill-rule="evenodd"></path>
</svg>