<svg xmlns="http://www.w3.org/2000/svg" width="189.870" height="123.912" viewBox="0 0 189.870 123.912" fill="currentColor">
  <path d="M 64.312 53.397 L 64.312 0 L 64.302 0 L 53.635 0 L 32.151 46.147 L 10.667 0 L 0 0 L 0 53.397 L 6.552 53.397 L 6.552 6.33 L 28.506 53.387 L 35.817 53.387 L 57.76 6.25 L 57.76 53.397 L 64.312 53.397 Z M 116.649 53.397 L 116.649 47.227 L 87.774 47.227 C 83.809 47.227 82.131 45.617 82.131 41.577 L 82.131 0 L 75.578 0 L 75.578 44.317 C 75.578 49.357 79.544 53.397 84.568 53.397 L 116.649 53.397 Z M 189.87 0 L 189.87 53.397 L 183.318 53.397 L 183.318 6.25 L 161.375 53.387 L 154.064 53.387 L 132.12 6.32 L 132.12 53.387 L 125.568 53.387 L 125.568 0 L 136.235 0 L 157.719 46.147 L 179.203 0 L 189.87 0 Z M 80.902 83.925 L 101.627 83.925 L 101.627 83.915 C 104.094 83.915 106.082 85.904 106.082 88.384 L 106.082 95.924 C 106.082 98.364 104.104 100.354 101.627 100.354 L 84.128 100.354 L 84.128 110.183 L 80.902 110.183 L 80.902 83.925 Z M 84.128 97.314 L 102.826 97.314 L 102.826 86.954 L 84.128 86.954 L 84.128 97.314 Z M 135.326 95.434 C 135.326 98.394 132.59 99.824 130.902 99.824 L 130.912 99.814 L 129.414 99.814 L 135.826 110.173 L 132.34 110.173 L 125.928 99.854 L 114.162 99.854 L 114.162 110.173 L 110.936 110.173 L 110.936 83.915 L 130.872 83.915 C 133.339 83.915 135.326 85.904 135.326 88.384 L 135.326 95.434 Z M 114.152 86.954 L 114.152 96.824 L 132.06 96.824 L 132.06 86.954 L 114.152 86.954 Z M 162.643 83.915 L 145.254 83.915 C 142.777 83.915 140.79 85.904 140.79 88.384 L 140.79 105.713 C 140.79 108.193 142.777 110.183 145.254 110.183 L 162.643 110.183 C 165.12 110.183 167.108 108.193 167.108 105.713 L 167.108 88.384 C 167.108 85.904 165.12 83.915 162.643 83.915 Z M 163.842 107.143 L 144.056 107.143 L 144.056 86.954 L 163.842 86.954 L 163.842 107.143 Z M 174.5 69.915 L 74.199 69.915 C 69.631 69.915 65.92 73.667 65.92 78.286 L 65.92 115.541 C 65.92 120.16 69.631 123.912 74.199 123.912 L 174.5 123.912 C 179.068 123.912 182.779 120.16 182.779 115.541 L 182.779 78.286 C 182.779 73.667 179.068 69.915 174.5 69.915 Z M 180.156 115.541 C 180.156 118.698 177.622 121.26 174.5 121.26 L 74.199 121.26 C 71.077 121.26 68.543 118.698 68.543 115.541 L 68.543 78.286 C 68.543 75.13 71.077 72.568 74.199 72.568 L 174.5 72.568 C 177.622 72.568 180.156 75.13 180.156 78.286 L 180.156 115.541 Z M 184.776 70.23 L 185.412 70.23 L 185.412 71.915 L 185.769 71.915 L 185.769 70.23 L 186.405 70.23 L 186.405 69.915 L 184.776 69.915 L 184.776 70.23 Z M 188.432 70.59 L 188.434 71.915 L 188.772 71.915 L 188.769 69.915 L 188.476 69.915 L 187.727 71.241 L 186.965 69.915 L 186.672 69.915 L 186.672 71.915 L 187.012 71.915 L 187.012 70.607 L 187.642 71.687 L 187.801 71.687 L 188.432 70.59 Z" fill="currentColor" fill-rule="evenodd"></path>
</svg>