<svg xmlns="http://www.w3.org/2000/svg" width="190.100" height="123.920" viewBox="0 0 190.100 123.920" fill="currentColor">
  <path d="M 64.39 53.4 L 64.39 0 L 64.38 0 L 53.7 0 L 32.19 46.15 L 10.68 0 L 0 0 L 0 53.4 L 6.56 53.4 L 6.56 6.33 L 28.54 53.39 L 35.86 53.39 L 57.83 6.25 L 57.83 53.4 L 64.39 53.4 Z M 116.79 53.4 L 116.79 47.23 L 87.88 47.23 C 83.91 47.23 82.23 45.62 82.23 41.58 L 82.23 0 L 75.67 0 L 75.67 44.32 C 75.67 49.36 79.64 53.4 84.67 53.4 L 116.79 53.4 Z M 190.1 0 L 190.1 53.4 L 183.54 53.4 L 183.54 6.25 L 161.57 53.39 L 154.25 53.39 L 132.28 6.32 L 132.28 53.39 L 125.72 53.39 L 125.72 0 L 136.4 0 L 157.91 46.15 L 179.42 0 L 190.1 0 Z M 81 83.92 L 101.75 83.92 L 101.75 83.91 C 104.22 83.91 106.21 85.9 106.21 88.38 L 106.21 95.92 C 106.21 98.36 104.23 100.35 101.75 100.35 L 84.23 100.35 L 84.23 110.18 L 81 110.18 L 81 83.92 Z M 84.23 97.31 L 102.95 97.31 L 102.95 86.95 L 84.23 86.95 L 84.23 97.31 Z M 135.49 95.441 C 135.49 98.401 132.75 99.831 131.06 99.831 L 131.07 99.821 L 129.57 99.821 L 135.99 110.181 L 132.5 110.181 L 126.08 99.861 L 114.3 99.861 L 114.3 110.181 L 111.07 110.181 L 111.07 83.921 L 131.03 83.921 C 133.5 83.921 135.49 85.911 135.49 88.391 L 135.49 95.441 Z M 114.29 86.961 L 114.29 96.831 L 132.22 96.831 L 132.22 86.961 L 114.29 86.961 Z M 162.84 83.921 L 145.43 83.921 C 142.95 83.921 140.96 85.911 140.96 88.391 L 140.96 105.721 C 140.96 108.201 142.95 110.191 145.43 110.191 L 162.84 110.191 C 165.32 110.191 167.31 108.201 167.31 105.721 L 167.31 88.391 C 167.31 85.911 165.32 83.921 162.84 83.921 Z M 164.04 107.151 L 144.23 107.151 L 144.23 86.961 L 164.04 86.961 L 164.04 107.151 Z M 174.711 69.92 L 74.289 69.92 C 69.715 69.92 66 73.672 66 78.291 L 66 115.549 C 66 120.168 69.715 123.92 74.289 123.92 L 174.711 123.92 C 179.285 123.92 183 120.168 183 115.549 L 183 78.291 C 183 73.672 179.285 69.92 174.711 69.92 Z M 180.374 115.549 C 180.374 118.705 177.837 121.267 174.711 121.267 L 74.289 121.267 C 71.163 121.267 68.626 118.705 68.626 115.549 L 68.626 78.291 C 68.626 75.134 71.163 72.573 74.289 72.573 L 174.711 72.573 C 177.837 72.573 180.374 75.134 180.374 78.291 L 180.374 115.549 Z M 185 70.234 L 185.637 70.234 L 185.637 71.92 L 185.993 71.92 L 185.993 70.234 L 186.63 70.234 L 186.63 69.92 L 185 69.92 L 185 70.234 Z M 188.66 70.594 L 188.662 71.92 L 189 71.92 L 188.997 69.92 L 188.704 69.92 L 187.954 71.246 L 187.191 69.92 L 186.898 69.92 L 186.898 71.92 L 187.238 71.92 L 187.238 70.611 L 187.869 71.691 L 188.029 71.691 L 188.66 70.594 Z" fill="currentColor" fill-rule="evenodd"></path>
</svg>