<svg xmlns="http://www.w3.org/2000/svg" width="212.085" height="25.838" viewBox="0 0 212.085 25.838" fill="currentColor">
  <path d="M 38.927 0 C 41.468 0 43.784 0.565 45.831 1.666 L 45.831 1.652 C 47.878 2.753 49.502 4.306 50.674 6.255 C 51.832 8.217 52.425 10.434 52.425 12.891 C 52.425 15.348 51.846 17.578 50.674 19.527 C 49.502 21.49 47.878 23.043 45.831 24.144 C 43.784 25.245 41.454 25.81 38.927 25.81 C 36.399 25.81 34.084 25.245 32.037 24.144 C 29.989 23.029 28.366 21.475 27.194 19.513 C 26.022 17.55 25.429 15.319 25.429 12.905 C 25.429 10.491 26.022 8.26 27.194 6.297 C 28.366 4.335 29.989 2.767 32.037 1.666 C 34.07 0.565 36.385 0 38.927 0 Z M 38.927 21.137 C 40.48 21.137 41.906 20.784 43.148 20.078 C 44.391 19.372 45.379 18.397 46.085 17.141 C 46.805 15.884 47.158 14.458 47.158 12.905 C 47.158 11.352 46.791 9.926 46.085 8.669 C 45.379 7.413 44.391 6.424 43.148 5.732 C 41.906 5.026 40.494 4.673 38.927 4.673 C 37.36 4.673 35.948 5.041 34.705 5.732 C 33.463 6.438 32.474 7.427 31.768 8.669 C 31.048 9.926 30.695 11.352 30.695 12.905 C 30.695 14.458 31.062 15.884 31.768 17.141 C 32.474 18.397 33.463 19.386 34.705 20.078 C 35.948 20.784 37.374 21.137 38.927 21.137 Z M 11.31 10.702 C 13.117 11.126 14.642 11.578 15.814 12.03 L 15.828 12.072 C 17.042 12.552 18.087 13.272 18.948 14.246 C 19.823 15.235 20.275 16.576 20.275 18.242 C 20.275 19.654 19.88 20.953 19.117 22.097 C 18.341 23.24 17.169 24.158 15.63 24.836 C 14.105 25.499 12.227 25.838 10.053 25.838 C 8.133 25.838 6.269 25.556 4.49 25.019 C 2.697 24.469 1.257 23.734 0.198 22.817 L 0 22.647 L 1.864 18.468 L 2.217 18.75 C 3.177 19.513 4.377 20.148 5.789 20.628 C 7.201 21.122 8.627 21.362 10.053 21.362 C 11.79 21.362 13.089 21.08 13.922 20.544 C 14.726 20.021 15.108 19.372 15.108 18.539 C 15.108 17.931 14.896 17.451 14.472 17.07 C 14.006 16.661 13.413 16.322 12.693 16.082 C 11.945 15.828 10.886 15.545 9.587 15.221 C 7.723 14.769 6.184 14.331 5.026 13.879 C 3.826 13.413 2.781 12.679 1.92 11.705 C 1.045 10.702 0.593 9.333 0.593 7.653 C 0.593 6.241 0.988 4.942 1.751 3.784 C 2.513 2.626 3.671 1.694 5.21 1.017 C 6.721 0.353 8.599 0.014 10.773 0.014 C 12.284 0.014 13.78 0.198 15.249 0.579 C 16.731 0.96 18.016 1.511 19.089 2.231 L 19.329 2.386 L 17.635 6.551 L 17.282 6.34 C 16.251 5.732 15.15 5.252 14.02 4.942 C 12.891 4.617 11.79 4.462 10.731 4.462 C 9.022 4.462 7.751 4.744 6.947 5.309 C 6.17 5.845 5.789 6.537 5.789 7.427 C 5.789 8.02 6.001 8.486 6.424 8.867 C 6.89 9.276 7.483 9.601 8.203 9.841 C 8.952 10.095 10.011 10.378 11.31 10.702 Z M 59.075 25.457 L 64.313 25.457 L 64.313 16.124 L 76.103 16.124 L 76.103 11.578 L 64.313 11.578 L 64.313 4.857 L 77.599 4.857 L 77.599 0.353 L 59.075 0.353 L 59.075 25.457 Z M 90.603 4.885 L 82.513 4.885 L 82.513 0.353 L 103.932 0.353 L 103.932 4.885 L 95.841 4.885 L 95.841 25.457 L 90.603 25.457 L 90.603 4.885 Z M 129.587 12.34 C 130.321 11.846 130.928 11.197 131.38 10.434 C 131.973 9.46 132.269 8.316 132.269 7.046 C 132.269 4.956 131.436 3.304 129.784 2.104 C 128.175 0.932 125.859 0.339 122.922 0.339 L 111.133 0.339 L 111.133 25.457 L 123.614 25.457 C 126.791 25.457 129.248 24.85 130.928 23.664 C 132.65 22.45 133.512 20.699 133.512 18.482 C 133.512 16.873 133.088 15.503 132.255 14.416 C 131.563 13.512 130.66 12.82 129.572 12.34 L 129.587 12.34 Z M 125.887 9.841 C 125.097 10.364 123.939 10.632 122.442 10.632 L 116.385 10.632 L 116.385 4.617 L 122.442 4.617 C 123.939 4.617 125.097 4.885 125.887 5.408 C 126.636 5.916 127.003 6.636 127.003 7.639 C 127.003 8.641 126.636 9.333 125.887 9.841 Z M 116.371 14.868 L 123.346 14.868 C 126.65 14.868 128.259 15.898 128.259 18.03 C 128.259 20.162 126.65 21.207 123.346 21.207 L 116.371 21.207 L 116.371 14.868 Z M 136.801 25.471 L 148.097 0.353 L 153.01 0.353 L 164.348 25.471 L 158.827 25.471 L 156.385 19.823 L 144.652 19.823 L 142.251 25.471 L 136.801 25.471 Z M 146.487 15.559 L 154.592 15.559 L 150.525 6.142 L 146.487 15.559 Z M 174.26 0.353 L 169.022 0.353 L 169.022 25.457 L 187.024 25.457 L 187.024 20.925 L 174.26 20.925 L 174.26 0.353 Z M 199.322 0.353 L 199.322 20.925 L 212.085 20.925 L 212.085 25.457 L 194.083 25.457 L 194.083 0.353 L 199.322 0.353 Z" fill="currentColor" fill-rule="evenodd"></path>
</svg>