<svg xmlns="http://www.w3.org/2000/svg" width="213.003" height="25.950" viewBox="0 0 213.003 25.950" fill="currentColor">
  <path d="M 39.095 0 C 41.648 0 43.973 0.567 46.029 1.673 L 46.029 1.659 C 48.085 2.765 49.716 4.325 50.893 6.282 C 52.056 8.253 52.652 10.479 52.652 12.947 C 52.652 15.414 52.07 17.655 50.893 19.611 C 49.716 21.582 48.085 23.142 46.029 24.248 C 43.973 25.354 41.633 25.922 39.095 25.922 C 36.557 25.922 34.231 25.354 32.175 24.248 C 30.119 23.128 28.488 21.568 27.311 19.597 C 26.134 17.626 25.539 15.386 25.539 12.961 C 25.539 10.536 26.134 8.295 27.311 6.324 C 28.488 4.353 30.119 2.779 32.175 1.673 C 34.217 0.567 36.543 0 39.095 0 Z M 39.095 21.228 C 40.655 21.228 42.087 20.873 43.335 20.164 C 44.583 19.455 45.576 18.477 46.285 17.215 C 47.008 15.953 47.362 14.521 47.362 12.961 C 47.362 11.401 46.994 9.969 46.285 8.707 C 45.576 7.445 44.583 6.452 43.335 5.757 C 42.087 5.048 40.669 4.694 39.095 4.694 C 37.521 4.694 36.103 5.062 34.855 5.757 C 33.607 6.466 32.615 7.459 31.906 8.707 C 31.183 9.969 30.828 11.401 30.828 12.961 C 30.828 14.521 31.197 15.953 31.906 17.215 C 32.615 18.477 33.607 19.47 34.855 20.164 C 36.103 20.873 37.535 21.228 39.095 21.228 Z M 11.358 10.749 C 13.174 11.174 14.705 11.628 15.882 12.082 L 15.896 12.124 C 17.116 12.606 18.165 13.33 19.03 14.308 C 19.909 15.301 20.363 16.648 20.363 18.321 C 20.363 19.739 19.966 21.044 19.2 22.192 C 18.42 23.341 17.243 24.263 15.698 24.943 C 14.166 25.61 12.28 25.95 10.096 25.95 C 8.168 25.95 6.296 25.666 4.509 25.128 C 2.708 24.575 1.262 23.837 0.199 22.915 L 0 22.745 L 1.872 18.548 L 2.226 18.831 C 3.191 19.597 4.396 20.235 5.814 20.717 C 7.232 21.214 8.664 21.455 10.096 21.455 C 11.841 21.455 13.145 21.171 13.982 20.632 C 14.79 20.108 15.173 19.455 15.173 18.619 C 15.173 18.009 14.96 17.527 14.535 17.144 C 14.067 16.733 13.471 16.392 12.748 16.151 C 11.997 15.896 10.933 15.613 9.628 15.286 C 7.757 14.833 6.211 14.393 5.048 13.939 C 3.843 13.471 2.794 12.734 1.929 11.755 C 1.049 10.749 0.596 9.373 0.596 7.686 C 0.596 6.268 0.993 4.963 1.758 3.8 C 2.524 2.638 3.687 1.702 5.233 1.021 C 6.75 0.355 8.636 0.014 10.82 0.014 C 12.337 0.014 13.84 0.199 15.315 0.581 C 16.804 0.964 18.094 1.517 19.172 2.24 L 19.413 2.396 L 17.711 6.58 L 17.357 6.367 C 16.322 5.757 15.215 5.275 14.081 4.963 C 12.947 4.637 11.841 4.481 10.777 4.481 C 9.061 4.481 7.785 4.765 6.977 5.332 C 6.197 5.871 5.814 6.565 5.814 7.459 C 5.814 8.054 6.027 8.522 6.452 8.905 C 6.92 9.316 7.516 9.643 8.239 9.884 C 8.99 10.139 10.054 10.423 11.358 10.749 Z M 59.33 25.567 L 64.591 25.567 L 64.591 16.194 L 76.432 16.194 L 76.432 11.628 L 64.591 11.628 L 64.591 4.878 L 77.935 4.878 L 77.935 0.355 L 59.33 0.355 L 59.33 25.567 Z M 90.995 4.906 L 82.87 4.906 L 82.87 0.355 L 104.381 0.355 L 104.381 4.906 L 96.256 4.906 L 96.256 25.567 L 90.995 25.567 L 90.995 4.906 Z M 130.147 12.394 C 130.884 11.897 131.494 11.245 131.948 10.479 C 132.544 9.501 132.841 8.352 132.841 7.076 C 132.841 4.977 132.005 3.318 130.346 2.113 C 128.729 0.936 126.403 0.34 123.454 0.34 L 111.613 0.34 L 111.613 25.567 L 124.149 25.567 C 127.339 25.567 129.807 24.957 131.494 23.766 C 133.224 22.547 134.089 20.788 134.089 18.562 C 134.089 16.945 133.664 15.57 132.827 14.478 C 132.132 13.571 131.225 12.876 130.133 12.394 L 130.147 12.394 Z M 126.432 9.884 C 125.638 10.408 124.475 10.678 122.972 10.678 L 116.888 10.678 L 116.888 4.637 L 122.972 4.637 C 124.475 4.637 125.638 4.906 126.432 5.431 C 127.183 5.942 127.552 6.665 127.552 7.672 C 127.552 8.678 127.183 9.373 126.432 9.884 Z M 116.874 14.932 L 123.879 14.932 C 127.198 14.932 128.814 15.967 128.814 18.108 C 128.814 20.25 127.198 21.299 123.879 21.299 L 116.874 21.299 L 116.874 14.932 Z M 137.393 25.581 L 148.737 0.355 L 153.672 0.355 L 165.059 25.581 L 159.514 25.581 L 157.061 19.909 L 145.277 19.909 L 142.867 25.581 L 137.393 25.581 Z M 147.121 15.627 L 155.26 15.627 L 151.176 6.168 L 147.121 15.627 Z M 175.014 0.355 L 169.753 0.355 L 169.753 25.567 L 187.833 25.567 L 187.833 21.015 L 175.014 21.015 L 175.014 0.355 Z M 200.184 0.355 L 200.184 21.015 L 213.003 21.015 L 213.003 25.567 L 194.923 25.567 L 194.923 0.355 L 200.184 0.355 Z" fill="currentColor" fill-rule="evenodd"></path>
</svg>