<svg xmlns="http://www.w3.org/2000/svg" viewBox="0 0 221 62" fill="currentColor">
  <svg x="0" y="0" width="62.508" height="62.228" viewBox="0 0 62.53 62" preserveAspectRatio="xMinYMid meet">
  <svg x="0" y="0.58" width="15.86" height="55.51" viewBox="0 0 8.52 29.82" preserveAspectRatio="none">
  <path d="M 8.52 0 L 0 0 L 0 1.42 L 8.52 1.42 L 8.52 0 Z M 8.52 28.4 L 0 28.4 L 0 29.82 L 8.52 29.82 L 8.52 28.4 Z M 2.84 5.68 L 8.52 5.68 L 8.52 7.1 L 2.84 7.1 L 2.84 5.68 Z M 8.52 19.88 L 2.84 19.88 L 2.84 21.3 L 8.52 21.3 L 8.52 19.88 Z M 0 14.2 L 8.52 14.2 L 8.52 15.62 L 0 15.62 L 0 14.2 Z M 8.52 2.84 L 2.84 2.84 L 2.84 4.26 L 8.52 4.26 L 8.52 2.84 Z M 2.84 17.04 L 8.52 17.04 L 8.52 18.46 L 2.84 18.46 L 2.84 17.04 Z M 8.52 8.52 L 2.84 8.52 L 2.84 9.94 L 8.52 9.94 L 8.52 8.52 Z M 2.84 22.72 L 8.52 22.72 L 8.52 24.14 L 2.84 24.14 L 2.84 22.72 Z M 8.52 11.36 L 2.84 11.36 L 2.84 12.78 L 8.52 12.78 L 8.52 11.36 Z M 2.84 25.56 L 8.52 25.56 L 8.52 26.98 L 2.84 26.98 L 2.84 25.56 Z" fill="currentColor" fill-rule="evenodd"></path>
</svg>
  <g transform="translate(17.73 0.58) scale(1.861)"><path d="M 4.29 0 L 0 0 L 0 5.68 L 1.42 5.68 C 5.68 5.68 6.39 7.95 6.39 9.66 C 6.39 11.37 4.97 13.49 1.42 13.49 L 0 13.49 L 0 18.46 L 7.1 29.82 L 17.04 29.82 L 7.65 17.62 C 9.44 17.22 10.42 16.73 11.45 15.83 C 13.15 14.36 14.2 12.07 14.2 9.21 C 14.2 5.69 12.07 0 4.29 0 Z" fill-rule="nonzero"></path></g>
  <svg x="52.74" y="0" width="9.79" height="9.83" viewBox="0 0 5.01 5.074" preserveAspectRatio="none">
  <path d="M 5.005 2.529 C 5.015 3.923 3.905 5.063 2.523 5.074 C 1.141 5.084 0.01 3.964 0 2.57 C 0 2.555 0 2.539 0 2.524 C 0 2.152 0.077 1.791 0.235 1.455 C 0.394 1.12 0.619 0.821 0.906 0.588 C 1.341 0.206 1.899 0 2.477 0 C 2.835 0 3.193 0.072 3.526 0.222 C 3.966 0.418 4.34 0.738 4.601 1.151 C 4.867 1.559 5.01 2.039 5.01 2.529 L 5.005 2.529 Z M 2.482 0.366 C 1.924 0.361 1.392 0.594 1.013 1.001 C 0.614 1.404 0.389 1.951 0.399 2.519 C 0.389 3.092 0.614 3.649 1.013 4.057 C 1.806 4.883 3.111 4.908 3.93 4.108 C 3.946 4.093 3.961 4.077 3.981 4.057 C 4.381 3.649 4.606 3.092 4.596 2.519 C 4.59 2.173 4.509 1.832 4.355 1.523 C 4.212 1.218 3.992 0.955 3.726 0.759 C 3.362 0.495 2.932 0.356 2.487 0.361 L 2.482 0.366 Z M 2.743 2.772 L 3.685 3.99 L 3.009 3.99 L 2.149 2.834 L 2.149 3.99 L 1.597 3.99 L 1.597 1.074 L 2.175 1.074 C 2.487 1.048 2.794 1.125 3.06 1.29 C 3.26 1.445 3.378 1.693 3.372 1.951 C 3.372 2.132 3.316 2.312 3.209 2.457 C 3.106 2.601 2.958 2.71 2.789 2.756 L 2.748 2.772 L 2.743 2.772 Z M 2.149 2.369 L 2.241 2.369 C 2.636 2.369 2.835 2.23 2.835 1.956 C 2.835 1.698 2.646 1.569 2.262 1.569 L 2.149 1.569 L 2.149 2.369 Z" fill="currentColor" fill-rule="nonzero"></path>
</svg>
</svg>
  <svg x="69.065" y="14.613" width="150.935" height="35.69" viewBox="0 0 150.935 35.69" preserveAspectRatio="none">
  <path d="M 18.963 6.594 C 16.704 6.594 14.675 7.076 12.935 8.019 L 12.945 7.999 C 11.206 8.943 9.836 10.268 8.857 11.964 C 7.877 13.66 7.377 15.688 7.377 17.825 C 7.377 19.963 7.877 21.9 8.857 23.597 C 9.836 25.293 11.206 26.638 12.945 27.611 C 14.685 28.585 16.694 29.077 18.913 29.077 C 21.292 29.077 23.422 28.575 25.241 27.581 L 25.241 21.991 L 18.503 21.991 L 18.503 15.617 L 32.218 15.617 L 32.218 16.892 L 32.228 16.892 L 32.228 31.104 L 32.018 31.275 C 30.259 32.69 28.17 33.784 25.821 34.537 C 23.482 35.289 21.042 35.671 18.573 35.671 C 15.085 35.671 11.896 34.898 9.087 33.372 C 6.268 31.847 4.029 29.699 2.419 26.999 C 0.81 24.299 0 21.218 0 17.835 C 0 14.453 0.81 11.372 2.419 8.672 C 4.019 5.972 6.278 3.824 9.107 2.298 C 11.936 0.773 15.155 0 18.673 0 C 21.532 0 24.181 0.482 26.53 1.435 C 28.9 2.389 30.919 3.814 32.528 5.661 L 32.878 6.062 L 28.19 10.659 L 27.8 10.268 C 25.371 7.829 22.392 6.594 18.963 6.594 Z M 61.228 0.02 C 64.716 0.02 67.905 0.792 70.714 2.318 C 73.533 3.844 75.772 5.991 77.382 8.691 C 78.981 11.391 79.801 14.473 79.801 17.855 C 79.801 21.237 78.991 24.319 77.382 27.019 C 75.772 29.719 73.533 31.866 70.714 33.392 C 67.915 34.918 64.716 35.69 61.228 35.69 C 57.739 35.69 54.55 34.918 51.741 33.392 C 48.922 31.866 46.683 29.719 45.074 26.999 C 43.464 24.279 42.654 21.207 42.654 17.855 C 42.654 14.503 43.464 11.431 45.074 8.711 C 46.683 6.002 48.922 3.844 51.741 2.318 C 54.54 0.792 57.739 0.02 61.228 0.02 Z M 66.976 27.671 C 68.665 26.717 70.015 25.363 70.974 23.656 C 71.944 21.94 72.434 19.993 72.434 17.855 C 72.434 15.717 71.944 13.77 70.974 12.054 C 70.005 10.347 68.665 8.993 66.976 8.039 C 65.286 7.075 63.347 6.594 61.228 6.594 C 59.109 6.594 57.169 7.086 55.48 8.039 C 53.79 8.993 52.451 10.347 51.481 12.054 C 50.512 13.77 50.022 15.717 50.022 17.855 C 50.022 19.993 50.512 21.94 51.481 23.656 C 52.451 25.363 53.79 26.717 55.48 27.671 C 57.169 28.635 59.109 29.116 61.228 29.116 C 63.347 29.116 65.276 28.624 66.976 27.671 Z M 98.344 0.492 L 91.017 0.492 L 91.017 35.209 L 115.848 35.209 L 115.848 28.816 L 98.344 28.816 L 98.344 0.492 Z M 150.935 0.492 L 150.935 6.845 L 132.722 6.845 L 132.722 15.949 L 148.886 15.949 L 148.886 22.352 L 132.722 22.352 L 132.722 35.209 L 125.395 35.209 L 125.395 0.492 L 150.935 0.492 Z" fill="currentColor" fill-rule="evenodd"></path>
</svg>
</svg>