<svg xmlns="http://www.w3.org/2000/svg" viewBox="0 0 32 32" fill="currentColor">
  <svg x="0" y="0.31" width="8.52" height="29.82" viewBox="0 0 8.52 29.82" preserveAspectRatio="none">
  <path d="M 8.52 0 L 0 0 L 0 1.42 L 8.52 1.42 L 8.52 0 Z M 8.52 28.4 L 0 28.4 L 0 29.82 L 8.52 29.82 L 8.52 28.4 Z M 2.84 5.68 L 8.52 5.68 L 8.52 7.1 L 2.84 7.1 L 2.84 5.68 Z M 8.52 19.88 L 2.84 19.88 L 2.84 21.3 L 8.52 21.3 L 8.52 19.88 Z M 0 14.2 L 8.52 14.2 L 8.52 15.62 L 0 15.62 L 0 14.2 Z M 8.52 2.84 L 2.84 2.84 L 2.84 4.26 L 8.52 4.26 L 8.52 2.84 Z M 2.84 17.04 L 8.52 17.04 L 8.52 18.46 L 2.84 18.46 L 2.84 17.04 Z M 8.52 8.52 L 2.84 8.52 L 2.84 9.94 L 8.52 9.94 L 8.52 8.52 Z M 2.84 22.72 L 8.52 22.72 L 8.52 24.14 L 2.84 24.14 L 2.84 22.72 Z M 8.52 11.36 L 2.84 11.36 L 2.84 12.78 L 8.52 12.78 L 8.52 11.36 Z M 2.84 25.56 L 8.52 25.56 L 8.52 26.98 L 2.84 26.98 L 2.84 25.56 Z" fill="currentColor" fill-rule="evenodd"></path>
</svg>
  <g transform="translate(9.52 0.31)"><path d="M 4.29 0 L 0 0 L 0 5.68 L 1.42 5.68 C 5.68 5.68 6.39 7.95 6.39 9.66 C 6.39 11.37 4.97 13.49 1.42 13.49 L 0 13.49 L 0 18.46 L 7.1 29.82 L 17.04 29.82 L 7.65 17.62 C 9.44 17.22 10.42 16.73 11.45 15.83 C 13.15 14.36 14.2 12.07 14.2 9.21 C 14.2 5.69 12.07 0 4.29 0 Z" fill-rule="nonzero"></path></g>
  <svg x="26.99" y="0" width="5.01" height="5.074" viewBox="0 0 5.01 5.074" preserveAspectRatio="none">
  <path d="M 5.005 2.529 C 5.015 3.923 3.905 5.063 2.523 5.074 C 1.141 5.084 0.01 3.964 0 2.57 C 0 2.555 0 2.539 0 2.524 C 0 2.152 0.077 1.791 0.235 1.455 C 0.394 1.12 0.619 0.821 0.906 0.588 C 1.341 0.206 1.899 0 2.477 0 C 2.835 0 3.193 0.072 3.526 0.222 C 3.966 0.418 4.34 0.738 4.601 1.151 C 4.867 1.559 5.01 2.039 5.01 2.529 L 5.005 2.529 Z M 2.482 0.366 C 1.924 0.361 1.392 0.594 1.013 1.001 C 0.614 1.404 0.389 1.951 0.399 2.519 C 0.389 3.092 0.614 3.649 1.013 4.057 C 1.806 4.883 3.111 4.908 3.93 4.108 C 3.946 4.093 3.961 4.077 3.981 4.057 C 4.381 3.649 4.606 3.092 4.596 2.519 C 4.59 2.173 4.509 1.832 4.355 1.523 C 4.212 1.218 3.992 0.955 3.726 0.759 C 3.362 0.495 2.932 0.356 2.487 0.361 L 2.482 0.366 Z M 2.743 2.772 L 3.685 3.99 L 3.009 3.99 L 2.149 2.834 L 2.149 3.99 L 1.597 3.99 L 1.597 1.074 L 2.175 1.074 C 2.487 1.048 2.794 1.125 3.06 1.29 C 3.26 1.445 3.378 1.693 3.372 1.951 C 3.372 2.132 3.316 2.312 3.209 2.457 C 3.106 2.601 2.958 2.71 2.789 2.756 L 2.748 2.772 L 2.743 2.772 Z M 2.149 2.369 L 2.241 2.369 C 2.636 2.369 2.835 2.23 2.835 1.956 C 2.835 1.698 2.646 1.569 2.262 1.569 L 2.149 1.569 L 2.149 2.369 Z" fill="currentColor" fill-rule="nonzero"></path>
</svg>
</svg>