<svg xmlns="http://www.w3.org/2000/svg" width="395.270" height="62.903" viewBox="0 0 395.270 62.903" fill="none">
  <path d="M 13.613 0 L 0 0 L 0 2.269 L 13.613 2.269 L 13.613 0 Z M 13.613 45.377 L 0 45.377 L 0 47.646 L 13.613 47.646 L 13.613 45.377 Z M 4.538 9.075 L 13.613 9.075 L 13.613 11.344 L 4.538 11.344 L 4.538 9.075 Z M 13.613 31.763 L 4.538 31.763 L 4.538 34.032 L 13.613 34.032 L 13.613 31.763 Z M 0 22.689 L 13.613 22.689 L 13.613 24.957 L 0 24.957 L 0 22.689 Z M 13.613 4.537 L 4.538 4.537 L 4.538 6.806 L 13.613 6.806 L 13.613 4.537 Z M 4.538 27.226 L 13.613 27.226 L 13.613 29.495 L 4.538 29.495 L 4.538 27.226 Z M 13.613 13.612 L 4.538 13.612 L 4.538 15.881 L 13.613 15.881 L 13.613 13.612 Z M 4.538 36.301 L 13.613 36.301 L 13.613 38.57 L 4.538 38.57 L 4.538 36.301 Z M 13.613 18.151 L 4.538 18.151 L 4.538 20.42 L 13.613 20.42 L 13.613 18.151 Z M 4.538 40.838 L 13.613 40.838 L 13.613 43.107 L 4.538 43.107 L 4.538 40.838 Z M 22.736 0 L 15.882 0 L 15.882 9.075 L 18.151 9.075 C 24.957 9.075 26.091 12.702 26.091 15.434 C 26.091 18.167 23.823 21.554 18.151 21.554 L 15.882 21.554 L 15.882 29.495 L 27.226 47.645 L 43.108 47.645 L 28.105 28.153 C 30.965 27.514 32.53 26.731 34.176 25.293 C 36.892 22.944 38.57 19.285 38.57 14.715 C 38.57 9.091 35.167 0 22.736 0 Z" fill="currentColor" fill-rule="nonzero"></path>
  <text x="60" y="38" font-family="Acumin Pro ExtraCondensed, Barlow, sans-serif" font-weight="700" font-style="italic" font-size="40" fill="currentColor" letter-spacing="2">RAPSODO GOLF</text>
</svg>