<svg xmlns="http://www.w3.org/2000/svg" viewBox="0 0 367 62" fill="currentColor">
  <svg x="0" y="0" width="62.53" height="62" viewBox="0 0 62.53 62" preserveAspectRatio="xMinYMid meet">
  <svg x="0" y="0.58" width="15.86" height="55.51" viewBox="0 0 8.52 29.82" preserveAspectRatio="none">
  <path d="M 8.52 0 L 0 0 L 0 1.42 L 8.52 1.42 L 8.52 0 Z M 8.52 28.4 L 0 28.4 L 0 29.82 L 8.52 29.82 L 8.52 28.4 Z M 2.84 5.68 L 8.52 5.68 L 8.52 7.1 L 2.84 7.1 L 2.84 5.68 Z M 8.52 19.88 L 2.84 19.88 L 2.84 21.3 L 8.52 21.3 L 8.52 19.88 Z M 0 14.2 L 8.52 14.2 L 8.52 15.62 L 0 15.62 L 0 14.2 Z M 8.52 2.84 L 2.84 2.84 L 2.84 4.26 L 8.52 4.26 L 8.52 2.84 Z M 2.84 17.04 L 8.52 17.04 L 8.52 18.46 L 2.84 18.46 L 2.84 17.04 Z M 8.52 8.52 L 2.84 8.52 L 2.84 9.94 L 8.52 9.94 L 8.52 8.52 Z M 2.84 22.72 L 8.52 22.72 L 8.52 24.14 L 2.84 24.14 L 2.84 22.72 Z M 8.52 11.36 L 2.84 11.36 L 2.84 12.78 L 8.52 12.78 L 8.52 11.36 Z M 2.84 25.56 L 8.52 25.56 L 8.52 26.98 L 2.84 26.98 L 2.84 25.56 Z" fill="currentColor" fill-rule="evenodd"></path>
</svg>
  <g transform="translate(17.73 0.58) scale(1.861)"><path d="M 4.29 0 L 0 0 L 0 5.68 L 1.42 5.68 C 5.68 5.68 6.39 7.95 6.39 9.66 C 6.39 11.37 4.97 13.49 1.42 13.49 L 0 13.49 L 0 18.46 L 7.1 29.82 L 17.04 29.82 L 7.65 17.62 C 9.44 17.22 10.42 16.73 11.45 15.83 C 13.15 14.36 14.2 12.07 14.2 9.21 C 14.2 5.69 12.07 0 4.29 0 Z" fill-rule="nonzero"></path></g>
  <svg x="52.74" y="0" width="9.79" height="9.83" viewBox="0 0 5.01 5.074" preserveAspectRatio="none">
  <path d="M 5.005 2.529 C 5.015 3.923 3.905 5.063 2.523 5.074 C 1.141 5.084 0.01 3.964 0 2.57 C 0 2.555 0 2.539 0 2.524 C 0 2.152 0.077 1.791 0.235 1.455 C 0.394 1.12 0.619 0.821 0.906 0.588 C 1.341 0.206 1.899 0 2.477 0 C 2.835 0 3.193 0.072 3.526 0.222 C 3.966 0.418 4.34 0.738 4.601 1.151 C 4.867 1.559 5.01 2.039 5.01 2.529 L 5.005 2.529 Z M 2.482 0.366 C 1.924 0.361 1.392 0.594 1.013 1.001 C 0.614 1.404 0.389 1.951 0.399 2.519 C 0.389 3.092 0.614 3.649 1.013 4.057 C 1.806 4.883 3.111 4.908 3.93 4.108 C 3.946 4.093 3.961 4.077 3.981 4.057 C 4.381 3.649 4.606 3.092 4.596 2.519 C 4.59 2.173 4.509 1.832 4.355 1.523 C 4.212 1.218 3.992 0.955 3.726 0.759 C 3.362 0.495 2.932 0.356 2.487 0.361 L 2.482 0.366 Z M 2.743 2.772 L 3.685 3.99 L 3.009 3.99 L 2.149 2.834 L 2.149 3.99 L 1.597 3.99 L 1.597 1.074 L 2.175 1.074 C 2.487 1.048 2.794 1.125 3.06 1.29 C 3.26 1.445 3.378 1.693 3.372 1.951 C 3.372 2.132 3.316 2.312 3.209 2.457 C 3.106 2.601 2.958 2.71 2.789 2.756 L 2.748 2.772 L 2.743 2.772 Z M 2.149 2.369 L 2.241 2.369 C 2.636 2.369 2.835 2.23 2.835 1.956 C 2.835 1.698 2.646 1.569 2.262 1.569 L 2.149 1.569 L 2.149 2.369 Z" fill="currentColor" fill-rule="nonzero"></path>
</svg>
</svg>
  <svg x="74" y="19" width="292.02" height="35.56" viewBox="0 0 292.02 35.56" preserveAspectRatio="none">
  <path d="M 53.632 0 C 57.11 0 60.317 0.77 63.124 2.295 C 65.946 3.82 68.184 5.943 69.795 8.637 C 71.405 11.331 72.217 14.395 72.217 17.773 C 72.217 21.151 71.405 24.215 69.795 26.909 C 68.184 29.588 65.946 31.726 63.124 33.251 C 60.317 34.776 57.124 35.546 53.632 35.546 C 50.14 35.546 46.948 34.776 44.14 33.251 C 41.318 31.726 39.08 29.588 37.47 26.88 C 35.859 24.172 35.047 21.108 35.047 17.773 C 35.047 14.438 35.859 11.373 37.47 8.666 C 39.08 5.958 41.318 3.82 44.14 2.295 C 46.948 0.77 50.155 0 53.632 0 Z M 53.618 29.104 C 55.77 29.104 57.723 28.619 59.433 27.65 C 61.129 26.695 62.497 25.341 63.466 23.616 C 64.436 21.892 64.934 19.925 64.934 17.787 C 64.934 15.649 64.45 13.682 63.466 11.958 C 62.497 10.233 61.143 8.865 59.433 7.91 C 57.723 6.941 55.77 6.456 53.618 6.456 C 51.466 6.456 49.513 6.955 47.803 7.91 C 46.107 8.879 44.739 10.233 43.769 11.958 C 42.8 13.682 42.301 15.649 42.301 17.787 C 42.301 19.925 42.786 21.892 43.769 23.616 C 44.739 25.327 46.093 26.695 47.803 27.65 C 49.513 28.619 51.466 29.104 53.618 29.104 Z M 15.592 14.751 C 18.086 15.336 20.182 15.949 21.792 16.576 L 21.792 16.59 C 23.46 17.246 24.899 18.257 26.082 19.583 C 27.294 20.951 27.906 22.804 27.906 25.084 C 27.906 27.037 27.365 28.819 26.31 30.401 C 25.255 31.983 23.645 33.251 21.521 34.178 C 19.426 35.09 16.832 35.56 13.839 35.56 C 11.217 35.56 8.637 35.175 6.186 34.434 C 3.72 33.693 1.725 32.667 0.271 31.413 L 0 31.17 L 2.565 25.412 L 3.05 25.797 C 4.376 26.837 6.029 27.707 7.967 28.377 C 9.905 29.047 11.887 29.389 13.839 29.389 C 16.234 29.389 18.015 29.004 19.17 28.263 C 20.267 27.55 20.794 26.638 20.794 25.498 C 20.794 24.685 20.509 24.015 19.925 23.488 C 19.284 22.904 18.457 22.448 17.474 22.12 C 16.433 21.778 14.994 21.379 13.198 20.937 C 10.632 20.338 8.523 19.711 6.927 19.098 C 5.273 18.457 3.834 17.459 2.651 16.105 C 1.44 14.723 0.827 12.856 0.827 10.533 C 0.827 8.594 1.368 6.798 2.423 5.202 C 3.478 3.606 5.088 2.323 7.198 1.397 C 9.278 0.485 11.858 0.014 14.851 0.014 C 16.932 0.014 19.013 0.285 21.022 0.798 C 23.061 1.325 24.842 2.095 26.31 3.079 L 26.638 3.292 L 24.315 9.022 L 23.83 8.737 C 22.405 7.896 20.894 7.24 19.341 6.813 C 17.787 6.371 16.262 6.157 14.808 6.157 C 12.457 6.157 10.704 6.556 9.592 7.326 C 8.509 8.067 7.996 9.022 7.996 10.233 C 7.996 11.046 8.281 11.701 8.865 12.214 C 9.506 12.77 10.333 13.226 11.316 13.554 C 12.357 13.91 13.796 14.31 15.592 14.751 Z M 81.353 35.061 L 88.565 35.061 L 88.565 22.191 L 104.799 22.191 L 104.799 15.934 L 88.565 15.934 L 88.565 6.684 L 106.865 6.684 L 106.865 0.485 L 81.353 0.485 L 81.353 35.061 Z M 124.752 6.727 L 113.621 6.727 L 113.621 0.485 L 143.109 0.485 L 143.109 6.727 L 131.964 6.727 L 131.964 35.061 L 124.752 35.061 L 124.752 6.727 Z M 178.427 17.003 C 179.439 16.319 180.266 15.435 180.907 14.381 C 181.719 13.027 182.133 11.459 182.133 9.72 C 182.133 6.841 180.978 4.561 178.712 2.922 C 176.489 1.311 173.31 0.499 169.263 0.499 L 153.029 0.499 L 153.029 35.075 L 170.218 35.075 C 174.593 35.075 177.985 34.249 180.294 32.61 C 182.66 30.942 183.857 28.534 183.857 25.469 C 183.857 23.26 183.273 21.379 182.118 19.868 C 181.164 18.628 179.924 17.673 178.427 17.017 L 178.427 17.003 Z M 173.325 13.554 C 172.242 14.281 170.645 14.652 168.579 14.652 L 160.227 14.652 L 160.227 6.357 L 168.579 6.357 C 170.645 6.357 172.242 6.727 173.325 7.454 C 174.365 8.152 174.864 9.15 174.864 10.533 C 174.864 11.915 174.365 12.87 173.325 13.568 L 173.325 13.554 Z M 160.227 20.467 L 169.819 20.467 C 174.365 20.467 176.574 21.892 176.574 24.828 C 176.574 27.764 174.365 29.189 169.819 29.189 L 160.227 29.189 L 160.227 20.467 Z M 195.858 35.061 L 188.347 35.061 L 203.911 0.485 L 210.681 0.485 L 226.287 35.061 L 218.69 35.061 L 215.327 27.279 L 199.165 27.279 L 195.858 35.061 Z M 201.701 21.422 L 212.847 21.422 L 212.861 21.422 L 207.26 8.452 L 201.701 21.422 Z M 239.927 0.485 L 232.715 0.485 L 232.715 35.061 L 257.5 35.061 L 257.5 28.804 L 239.927 28.804 L 239.927 0.485 Z M 274.446 0.485 L 274.446 28.804 L 292.02 28.804 L 292.02 35.061 L 267.234 35.061 L 267.234 0.485 L 274.446 0.485 Z" fill="currentColor" fill-rule="evenodd"></path>
</svg>
</svg>