<svg xmlns="http://www.w3.org/2000/svg" viewBox="0 0 500 64" fill="currentColor">
  <svg x="0" y="0" width="174" height="40" viewBox="0 0 174 40" preserveAspectRatio="xMinYMid meet">
    <svg x="0" y="0" width="8.52" height="29.82" viewBox="0 0 8.52 29.82" preserveAspectRatio="none">
  <path d="M 8.52 0 L 0 0 L 0 1.42 L 8.52 1.42 L 8.52 0 Z M 8.52 28.4 L 0 28.4 L 0 29.82 L 8.52 29.82 L 8.52 28.4 Z M 2.84 5.68 L 8.52 5.68 L 8.52 7.1 L 2.84 7.1 L 2.84 5.68 Z M 8.52 19.88 L 2.84 19.88 L 2.84 21.3 L 8.52 21.3 L 8.52 19.88 Z M 0 14.2 L 8.52 14.2 L 8.52 15.62 L 0 15.62 L 0 14.2 Z M 8.52 2.84 L 2.84 2.84 L 2.84 4.26 L 8.52 4.26 L 8.52 2.84 Z M 2.84 17.04 L 8.52 17.04 L 8.52 18.46 L 2.84 18.46 L 2.84 17.04 Z M 8.52 8.52 L 2.84 8.52 L 2.84 9.94 L 8.52 9.94 L 8.52 8.52 Z M 2.84 22.72 L 8.52 22.72 L 8.52 24.14 L 2.84 24.14 L 2.84 22.72 Z M 8.52 11.36 L 2.84 11.36 L 2.84 12.78 L 8.52 12.78 L 8.52 11.36 Z M 2.84 25.56 L 8.52 25.56 L 8.52 26.98 L 2.84 26.98 L 2.84 25.56 Z" fill="currentColor" fill-rule="evenodd"></path>
</svg>
    <svg x="9.94" y="0" width="164.06" height="39.37" viewBox="0 0 164.06 39.37" preserveAspectRatio="none">
  <path d="M 4.29 0 L 0 0 L 0 5.68 L 1.42 5.68 C 5.68 5.68 6.39 7.95 6.39 9.66 C 6.39 11.37 4.97 13.49 1.42 13.49 L 0 13.49 L 0 18.46 L 7.1 29.82 L 17.04 29.82 L 7.65 17.62 C 9.44 17.22 10.42 16.73 11.45 15.83 C 13.15 14.36 14.2 12.07 14.2 9.21 C 14.2 5.69 12.07 0 4.29 0 Z M 117.36 19.62 C 117.33 22.17 119.37 24.27 121.92 24.3 C 124.47 24.33 126.57 22.29 126.6 19.74 C 126.63 17.19 124.59 15.09 122.04 15.06 L 121.95 15.06 C 119.43 15.07 117.39 17.1 117.35 19.62 L 117.36 19.62 Z M 133.53 0 L 133.53 29.8 L 126.38 29.8 L 126.38 27.57 C 124.82 29.58 122.86 30.47 120.13 30.47 C 114.36 30.47 109.9 25.74 109.9 19.62 C 109.9 13.5 114.32 8.9 120.09 8.9 C 122.47 8.81 124.77 9.78 126.38 11.54 L 126.38 0 L 133.53 0 Z M 95.96 24.22 C 93.4 24.21 91.35 22.12 91.36 19.57 C 91.39 17.04 93.43 15 95.96 14.97 L 96.01 14.97 C 98.57 14.98 100.62 17.07 100.61 19.62 C 100.6 22.18 98.51 24.23 95.96 24.22 Z M 95.87 30.56 C 103.11 30.56 108.16 26.1 108.16 19.66 C 108.16 13.32 103.11 8.81 95.96 8.81 C 92.7 8.81 89.48 9.87 87.47 11.62 C 85.17 13.59 83.84 16.45 83.81 19.48 C 83.81 26 88.63 30.56 95.87 30.56 Z M 79.53 14.79 L 79.523 14.786 L 81.92 10.16 C 79.86 9.26 77.64 8.81 75.4 8.86 C 69.82 8.86 66.38 11.67 66.38 16.18 C 66.38 19.35 68.03 20.92 72.32 21.81 C 74.74 22.35 75.36 22.7 75.36 23.64 C 75.36 24.58 74.43 25.25 73.13 25.25 C 71.49 25.25 69.3 24.44 67.42 23.19 L 64.83 28.24 C 67.25 29.74 70.05 30.55 72.91 30.56 C 78.76 30.56 82.56 27.57 82.56 22.97 C 82.56 19.7 80.68 17.78 76.67 16.98 C 73.98 16.4 73.45 16.13 73.45 15.24 C 73.45 14.43 74.34 13.81 75.64 13.81 C 76.997 13.83 78.324 14.159 79.523 14.786 L 79.51 14.81 L 79.53 14.79 Z M 52.81 24.31 C 50.26 24.29 48.2 22.21 48.21 19.66 L 48.22 19.66 C 48.24 17.13 50.29 15.08 52.82 15.06 L 52.86 15.06 C 55.41 15.08 57.48 17.16 57.46 19.71 C 57.44 22.26 55.36 24.32 52.81 24.31 Z M 41.3 9.56 L 41.3 39.37 L 41.31 39.36 L 48.46 39.36 L 48.46 27.82 C 50.07 29.58 52.37 30.55 54.75 30.46 C 60.51 30.46 64.93 25.85 64.93 19.74 C 64.93 13.63 60.47 8.89 54.7 8.89 C 51.98 8.89 50.01 9.78 48.45 11.79 L 48.45 9.56 L 41.3 9.56 Z M 27.05 24.31 C 24.5 24.27 22.45 22.17 22.49 19.62 C 22.53 17.1 24.57 15.07 27.09 15.06 L 27.18 15.06 C 29.73 15.1 31.78 17.2 31.74 19.75 C 31.7 22.3 29.6 24.35 27.05 24.31 Z M 38.66 29.8 L 38.66 9.58 L 31.52 9.58 L 31.52 11.54 C 29.91 9.78 27.6 8.81 25.22 8.9 C 19.45 8.9 15.03 13.5 15.03 19.62 C 15.03 25.74 19.5 30.47 25.26 30.47 C 27.98 30.47 29.94 29.58 31.51 27.57 L 31.51 29.8 L 38.66 29.8 Z M 147.52 24.21 C 144.96 24.2 142.91 22.12 142.92 19.57 C 142.95 17.04 144.99 14.99 147.52 14.97 L 147.56 14.97 C 150.12 14.98 152.17 17.06 152.16 19.61 C 152.15 22.17 150.07 24.22 147.52 24.21 Z M 147.42 30.56 C 154.66 30.56 159.71 26.1 159.71 19.66 L 159.7 19.66 C 159.7 13.32 154.66 8.81 147.51 8.81 C 144.25 8.81 141.03 9.87 139.02 11.62 C 136.72 13.59 135.39 16.45 135.36 19.48 C 135.36 26 140.18 30.56 147.42 30.56 Z M 161.398 5.378 C 162.878 5.366 164.066 4.16 164.054 2.68 L 164.06 2.674 C 164.06 2.153 163.908 1.649 163.623 1.213 C 163.351 0.782 162.95 0.437 162.477 0.23 C 162.126 0.073 161.744 0 161.356 0 C 160.737 0 160.143 0.218 159.67 0.618 C 159.367 0.867 159.124 1.182 158.955 1.54 C 158.779 1.892 158.7 2.28 158.7 2.674 L 158.7 2.722 C 158.712 4.202 159.919 5.39 161.398 5.378 Z M 159.791 1.061 C 160.198 0.625 160.768 0.382 161.362 0.388 L 161.368 0.382 C 161.847 0.376 162.308 0.521 162.696 0.8 C 162.981 1.013 163.217 1.292 163.369 1.613 C 163.533 1.94 163.623 2.304 163.623 2.668 C 163.636 3.28 163.399 3.868 162.969 4.299 L 162.914 4.354 C 162.035 5.202 160.64 5.178 159.791 4.299 C 159.361 3.868 159.124 3.28 159.137 2.668 C 159.124 2.068 159.361 1.486 159.791 1.061 Z M 162.647 4.226 L 161.641 2.935 L 161.653 2.941 L 161.695 2.929 C 161.877 2.874 162.035 2.759 162.144 2.607 C 162.259 2.45 162.32 2.262 162.32 2.068 C 162.326 1.795 162.205 1.534 161.986 1.37 C 161.701 1.195 161.374 1.116 161.04 1.14 L 160.422 1.14 L 160.422 4.226 L 161.01 4.226 L 161.01 3.001 L 161.926 4.226 L 162.647 4.226 Z M 161.101 2.504 L 161.004 2.504 L 161.004 1.661 L 161.125 1.661 C 161.532 1.661 161.738 1.795 161.738 2.068 C 161.738 2.359 161.526 2.504 161.101 2.504 Z" fill="currentColor" fill-rule="evenodd"></path>
</svg>
  </svg>
  <svg x="286" y="23" width="213.003" height="25.95" viewBox="0 0 213.003 25.95" preserveAspectRatio="none">
  <path d="M 39.095 0 C 41.648 0 43.973 0.567 46.029 1.673 L 46.029 1.659 C 48.085 2.765 49.716 4.325 50.893 6.282 C 52.056 8.253 52.652 10.479 52.652 12.947 C 52.652 15.414 52.07 17.655 50.893 19.611 C 49.716 21.582 48.085 23.142 46.029 24.248 C 43.973 25.354 41.633 25.922 39.095 25.922 C 36.557 25.922 34.231 25.354 32.175 24.248 C 30.119 23.128 28.488 21.568 27.311 19.597 C 26.134 17.626 25.539 15.386 25.539 12.961 C 25.539 10.536 26.134 8.295 27.311 6.324 C 28.488 4.353 30.119 2.779 32.175 1.673 C 34.217 0.567 36.543 0 39.095 0 Z M 39.095 21.228 C 40.655 21.228 42.087 20.873 43.335 20.164 C 44.583 19.455 45.576 18.477 46.285 17.215 C 47.008 15.953 47.362 14.521 47.362 12.961 C 47.362 11.401 46.994 9.969 46.285 8.707 C 45.576 7.445 44.583 6.452 43.335 5.757 C 42.087 5.048 40.669 4.694 39.095 4.694 C 37.521 4.694 36.103 5.062 34.855 5.757 C 33.607 6.466 32.615 7.459 31.906 8.707 C 31.183 9.969 30.828 11.401 30.828 12.961 C 30.828 14.521 31.197 15.953 31.906 17.215 C 32.615 18.477 33.607 19.47 34.855 20.164 C 36.103 20.873 37.535 21.228 39.095 21.228 Z M 11.358 10.749 C 13.174 11.174 14.705 11.628 15.882 12.082 L 15.896 12.124 C 17.116 12.606 18.165 13.33 19.03 14.308 C 19.909 15.301 20.363 16.648 20.363 18.321 C 20.363 19.739 19.966 21.044 19.2 22.192 C 18.42 23.341 17.243 24.263 15.698 24.943 C 14.166 25.61 12.28 25.95 10.096 25.95 C 8.168 25.95 6.296 25.666 4.509 25.128 C 2.708 24.575 1.262 23.837 0.199 22.915 L 0 22.745 L 1.872 18.548 L 2.226 18.831 C 3.191 19.597 4.396 20.235 5.814 20.717 C 7.232 21.214 8.664 21.455 10.096 21.455 C 11.841 21.455 13.145 21.171 13.982 20.632 C 14.79 20.108 15.173 19.455 15.173 18.619 C 15.173 18.009 14.96 17.527 14.535 17.144 C 14.067 16.733 13.471 16.392 12.748 16.151 C 11.997 15.896 10.933 15.613 9.628 15.286 C 7.757 14.833 6.211 14.393 5.048 13.939 C 3.843 13.471 2.794 12.734 1.929 11.755 C 1.049 10.749 0.596 9.373 0.596 7.686 C 0.596 6.268 0.993 4.963 1.758 3.8 C 2.524 2.638 3.687 1.702 5.233 1.021 C 6.75 0.355 8.636 0.014 10.82 0.014 C 12.337 0.014 13.84 0.199 15.315 0.581 C 16.804 0.964 18.094 1.517 19.172 2.24 L 19.413 2.396 L 17.711 6.58 L 17.357 6.367 C 16.322 5.757 15.215 5.275 14.081 4.963 C 12.947 4.637 11.841 4.481 10.777 4.481 C 9.061 4.481 7.785 4.765 6.977 5.332 C 6.197 5.871 5.814 6.565 5.814 7.459 C 5.814 8.054 6.027 8.522 6.452 8.905 C 6.92 9.316 7.516 9.643 8.239 9.884 C 8.99 10.139 10.054 10.423 11.358 10.749 Z M 59.33 25.567 L 64.591 25.567 L 64.591 16.194 L 76.432 16.194 L 76.432 11.628 L 64.591 11.628 L 64.591 4.878 L 77.935 4.878 L 77.935 0.355 L 59.33 0.355 L 59.33 25.567 Z M 90.995 4.906 L 82.87 4.906 L 82.87 0.355 L 104.381 0.355 L 104.381 4.906 L 96.256 4.906 L 96.256 25.567 L 90.995 25.567 L 90.995 4.906 Z M 130.147 12.394 C 130.884 11.897 131.494 11.245 131.948 10.479 C 132.544 9.501 132.841 8.352 132.841 7.076 C 132.841 4.977 132.005 3.318 130.346 2.113 C 128.729 0.936 126.403 0.34 123.454 0.34 L 111.613 0.34 L 111.613 25.567 L 124.149 25.567 C 127.339 25.567 129.807 24.957 131.494 23.766 C 133.224 22.547 134.089 20.788 134.089 18.562 C 134.089 16.945 133.664 15.57 132.827 14.478 C 132.132 13.571 131.225 12.876 130.133 12.394 L 130.147 12.394 Z M 126.432 9.884 C 125.638 10.408 124.475 10.678 122.972 10.678 L 116.888 10.678 L 116.888 4.637 L 122.972 4.637 C 124.475 4.637 125.638 4.906 126.432 5.431 C 127.183 5.942 127.552 6.665 127.552 7.672 C 127.552 8.678 127.183 9.373 126.432 9.884 Z M 116.874 14.932 L 123.879 14.932 C 127.198 14.932 128.814 15.967 128.814 18.108 C 128.814 20.25 127.198 21.299 123.879 21.299 L 116.874 21.299 L 116.874 14.932 Z M 137.393 25.581 L 148.737 0.355 L 153.672 0.355 L 165.059 25.581 L 159.514 25.581 L 157.061 19.909 L 145.277 19.909 L 142.867 25.581 L 137.393 25.581 Z M 147.121 15.627 L 155.26 15.627 L 151.176 6.168 L 147.121 15.627 Z M 175.014 0.355 L 169.753 0.355 L 169.753 25.567 L 187.833 25.567 L 187.833 21.015 L 175.014 21.015 L 175.014 0.355 Z M 200.184 0.355 L 200.184 21.015 L 213.003 21.015 L 213.003 25.567 L 194.923 25.567 L 194.923 0.355 L 200.184 0.355 Z" fill="currentColor" fill-rule="evenodd"></path>
</svg>
</svg>