<svg xmlns="http://www.w3.org/2000/svg" viewBox="0 0 151 125" fill="currentColor">
  <g transform="translate(47 0.221)"><svg x="0" y="0" width="58" height="57.651" viewBox="0 0 62.53 62" preserveAspectRatio="xMinYMid meet">
  <svg x="0" y="0.58" width="15.86" height="55.51" viewBox="0 0 8.52 29.82" preserveAspectRatio="none">
  <path d="M 8.52 0 L 0 0 L 0 1.42 L 8.52 1.42 L 8.52 0 Z M 8.52 28.4 L 0 28.4 L 0 29.82 L 8.52 29.82 L 8.52 28.4 Z M 2.84 5.68 L 8.52 5.68 L 8.52 7.1 L 2.84 7.1 L 2.84 5.68 Z M 8.52 19.88 L 2.84 19.88 L 2.84 21.3 L 8.52 21.3 L 8.52 19.88 Z M 0 14.2 L 8.52 14.2 L 8.52 15.62 L 0 15.62 L 0 14.2 Z M 8.52 2.84 L 2.84 2.84 L 2.84 4.26 L 8.52 4.26 L 8.52 2.84 Z M 2.84 17.04 L 8.52 17.04 L 8.52 18.46 L 2.84 18.46 L 2.84 17.04 Z M 8.52 8.52 L 2.84 8.52 L 2.84 9.94 L 8.52 9.94 L 8.52 8.52 Z M 2.84 22.72 L 8.52 22.72 L 8.52 24.14 L 2.84 24.14 L 2.84 22.72 Z M 8.52 11.36 L 2.84 11.36 L 2.84 12.78 L 8.52 12.78 L 8.52 11.36 Z M 2.84 25.56 L 8.52 25.56 L 8.52 26.98 L 2.84 26.98 L 2.84 25.56 Z" fill="currentColor" fill-rule="evenodd"></path>
</svg>
  <g transform="translate(17.73 0.58) scale(1.861)"><path d="M 4.29 0 L 0 0 L 0 5.68 L 1.42 5.68 C 5.68 5.68 6.39 7.95 6.39 9.66 C 6.39 11.37 4.97 13.49 1.42 13.49 L 0 13.49 L 0 18.46 L 7.1 29.82 L 17.04 29.82 L 7.65 17.62 C 9.44 17.22 10.42 16.73 11.45 15.83 C 13.15 14.36 14.2 12.07 14.2 9.21 C 14.2 5.69 12.07 0 4.29 0 Z" fill-rule="nonzero"></path></g>
  <svg x="52.74" y="0" width="9.79" height="9.83" viewBox="0 0 5.01 5.074" preserveAspectRatio="none">
  <path d="M 5.005 2.529 C 5.015 3.923 3.905 5.063 2.523 5.074 C 1.141 5.084 0.01 3.964 0 2.57 C 0 2.555 0 2.539 0 2.524 C 0 2.152 0.077 1.791 0.235 1.455 C 0.394 1.12 0.619 0.821 0.906 0.588 C 1.341 0.206 1.899 0 2.477 0 C 2.835 0 3.193 0.072 3.526 0.222 C 3.966 0.418 4.34 0.738 4.601 1.151 C 4.867 1.559 5.01 2.039 5.01 2.529 L 5.005 2.529 Z M 2.482 0.366 C 1.924 0.361 1.392 0.594 1.013 1.001 C 0.614 1.404 0.389 1.951 0.399 2.519 C 0.389 3.092 0.614 3.649 1.013 4.057 C 1.806 4.883 3.111 4.908 3.93 4.108 C 3.946 4.093 3.961 4.077 3.981 4.057 C 4.381 3.649 4.606 3.092 4.596 2.519 C 4.59 2.173 4.509 1.832 4.355 1.523 C 4.212 1.218 3.992 0.955 3.726 0.759 C 3.362 0.495 2.932 0.356 2.487 0.361 L 2.482 0.366 Z M 2.743 2.772 L 3.685 3.99 L 3.009 3.99 L 2.149 2.834 L 2.149 3.99 L 1.597 3.99 L 1.597 1.074 L 2.175 1.074 C 2.487 1.048 2.794 1.125 3.06 1.29 C 3.26 1.445 3.378 1.693 3.372 1.951 C 3.372 2.132 3.316 2.312 3.209 2.457 C 3.106 2.601 2.958 2.71 2.789 2.756 L 2.748 2.772 L 2.743 2.772 Z M 2.149 2.369 L 2.241 2.369 C 2.636 2.369 2.835 2.23 2.835 1.956 C 2.835 1.698 2.646 1.569 2.262 1.569 L 2.149 1.569 L 2.149 2.369 Z" fill="currentColor" fill-rule="nonzero"></path>
</svg>
</svg></g>
  <svg x="0" y="89.351" width="151" height="35.638" viewBox="0 0 151 35.638" preserveAspectRatio="none">
  <path d="M 18.97 6.586 C 16.71 6.586 14.68 7.068 12.94 8.01 L 12.95 7.99 C 11.21 8.932 9.84 10.255 8.86 11.95 C 7.88 13.644 7.38 15.669 7.38 17.804 C 7.38 19.939 7.88 21.874 8.86 23.568 C 9.84 25.263 11.21 26.606 12.95 27.578 C 14.69 28.551 16.7 29.042 18.92 29.042 C 21.3 29.042 23.43 28.541 25.25 27.548 L 25.25 21.964 L 18.51 21.964 L 18.51 15.599 L 32.23 15.599 L 32.23 16.872 L 32.24 16.872 L 32.24 31.067 L 32.03 31.237 C 30.27 32.651 28.18 33.744 25.83 34.496 C 23.49 35.247 21.05 35.628 18.58 35.628 C 15.09 35.628 11.9 34.856 9.09 33.333 C 6.27 31.809 4.03 29.664 2.42 26.967 C 0.81 24.27 0 21.193 0 17.814 C 0 14.436 0.81 11.358 2.42 8.661 C 4.02 5.965 6.28 3.819 9.11 2.296 C 11.94 0.772 15.16 0 18.68 0 C 21.54 0 24.19 0.481 26.54 1.434 C 28.91 2.386 30.93 3.809 32.54 5.654 L 32.89 6.055 L 28.2 10.646 L 27.81 10.255 C 25.38 7.819 22.4 6.586 18.97 6.586 Z M 61.25 0.01 C 64.74 0.01 67.93 0.782 70.74 2.305 C 73.56 3.829 75.8 5.975 77.41 8.671 C 79.01 11.368 79.83 14.446 79.83 17.824 C 79.83 21.202 79.02 24.28 77.41 26.977 C 75.8 29.673 73.56 31.819 70.74 33.342 C 67.94 34.866 64.74 35.638 61.25 35.638 C 57.76 35.638 54.57 34.866 51.76 33.342 C 48.94 31.819 46.7 29.673 45.09 26.957 C 43.48 24.24 42.67 21.172 42.67 17.824 C 42.67 14.476 43.48 11.408 45.09 8.691 C 46.7 5.985 48.94 3.829 51.76 2.305 C 54.56 0.782 57.76 0.01 61.25 0.01 Z M 67 27.628 C 68.69 26.676 70.04 25.323 71 23.618 C 71.97 21.904 72.46 19.959 72.46 17.824 C 72.46 15.689 71.97 13.744 71 12.03 C 70.03 10.325 68.69 8.972 67 8.02 C 65.31 7.057 63.37 6.576 61.25 6.576 C 59.13 6.576 57.19 7.067 55.5 8.02 C 53.81 8.972 52.47 10.325 51.5 12.03 C 50.53 13.744 50.04 15.689 50.04 17.824 C 50.04 19.959 50.53 21.904 51.5 23.618 C 52.47 25.323 53.81 26.676 55.5 27.628 C 57.19 28.591 59.13 29.072 61.25 29.072 C 63.37 29.072 65.3 28.581 67 27.628 Z M 98.39 0.491 L 91.06 0.491 L 91.06 35.167 L 115.89 35.167 L 115.89 28.782 L 98.39 28.782 L 98.39 0.491 Z M 151 0.491 L 151 6.827 L 132.78 6.827 L 132.78 15.93 L 148.94 15.93 L 148.94 22.316 L 132.78 22.316 L 132.78 35.167 L 125.45 35.167 L 125.45 0.491 L 151 0.491 Z" fill="currentColor" fill-rule="evenodd"></path>
</svg>
</svg>