<svg xmlns="http://www.w3.org/2000/svg" viewBox="0 0 366 62" fill="currentColor">
  <svg x="0" y="0" width="62.53" height="62" viewBox="0 0 62.53 62" preserveAspectRatio="xMinYMid meet">
  <svg x="0" y="0.58" width="15.86" height="55.51" viewBox="0 0 8.52 29.82" preserveAspectRatio="none">
  <path d="M 8.52 0 L 0 0 L 0 1.42 L 8.52 1.42 L 8.52 0 Z M 8.52 28.4 L 0 28.4 L 0 29.82 L 8.52 29.82 L 8.52 28.4 Z M 2.84 5.68 L 8.52 5.68 L 8.52 7.1 L 2.84 7.1 L 2.84 5.68 Z M 8.52 19.88 L 2.84 19.88 L 2.84 21.3 L 8.52 21.3 L 8.52 19.88 Z M 0 14.2 L 8.52 14.2 L 8.52 15.62 L 0 15.62 L 0 14.2 Z M 8.52 2.84 L 2.84 2.84 L 2.84 4.26 L 8.52 4.26 L 8.52 2.84 Z M 2.84 17.04 L 8.52 17.04 L 8.52 18.46 L 2.84 18.46 L 2.84 17.04 Z M 8.52 8.52 L 2.84 8.52 L 2.84 9.94 L 8.52 9.94 L 8.52 8.52 Z M 2.84 22.72 L 8.52 22.72 L 8.52 24.14 L 2.84 24.14 L 2.84 22.72 Z M 8.52 11.36 L 2.84 11.36 L 2.84 12.78 L 8.52 12.78 L 8.52 11.36 Z M 2.84 25.56 L 8.52 25.56 L 8.52 26.98 L 2.84 26.98 L 2.84 25.56 Z" fill="currentColor" fill-rule="evenodd"></path>
</svg>
  <g transform="translate(17.73 0.58) scale(1.861)"><path d="M 4.29 0 L 0 0 L 0 5.68 L 1.42 5.68 C 5.68 5.68 6.39 7.95 6.39 9.66 C 6.39 11.37 4.97 13.49 1.42 13.49 L 0 13.49 L 0 18.46 L 7.1 29.82 L 17.04 29.82 L 7.65 17.62 C 9.44 17.22 10.42 16.73 11.45 15.83 C 13.15 14.36 14.2 12.07 14.2 9.21 C 14.2 5.69 12.07 0 4.29 0 Z" fill-rule="nonzero"></path></g>
  <svg x="52.74" y="0" width="9.79" height="9.83" viewBox="0 0 5.01 5.074" preserveAspectRatio="none">
  <path d="M 5.005 2.529 C 5.015 3.923 3.905 5.063 2.523 5.074 C 1.141 5.084 0.01 3.964 0 2.57 C 0 2.555 0 2.539 0 2.524 C 0 2.152 0.077 1.791 0.235 1.455 C 0.394 1.12 0.619 0.821 0.906 0.588 C 1.341 0.206 1.899 0 2.477 0 C 2.835 0 3.193 0.072 3.526 0.222 C 3.966 0.418 4.34 0.738 4.601 1.151 C 4.867 1.559 5.01 2.039 5.01 2.529 L 5.005 2.529 Z M 2.482 0.366 C 1.924 0.361 1.392 0.594 1.013 1.001 C 0.614 1.404 0.389 1.951 0.399 2.519 C 0.389 3.092 0.614 3.649 1.013 4.057 C 1.806 4.883 3.111 4.908 3.93 4.108 C 3.946 4.093 3.961 4.077 3.981 4.057 C 4.381 3.649 4.606 3.092 4.596 2.519 C 4.59 2.173 4.509 1.832 4.355 1.523 C 4.212 1.218 3.992 0.955 3.726 0.759 C 3.362 0.495 2.932 0.356 2.487 0.361 L 2.482 0.366 Z M 2.743 2.772 L 3.685 3.99 L 3.009 3.99 L 2.149 2.834 L 2.149 3.99 L 1.597 3.99 L 1.597 1.074 L 2.175 1.074 C 2.487 1.048 2.794 1.125 3.06 1.29 C 3.26 1.445 3.378 1.693 3.372 1.951 C 3.372 2.132 3.316 2.312 3.209 2.457 C 3.106 2.601 2.958 2.71 2.789 2.756 L 2.748 2.772 L 2.743 2.772 Z M 2.149 2.369 L 2.241 2.369 C 2.636 2.369 2.835 2.23 2.835 1.956 C 2.835 1.698 2.646 1.569 2.262 1.569 L 2.149 1.569 L 2.149 2.369 Z" fill="currentColor" fill-rule="nonzero"></path>
</svg>
</svg>
  <svg x="74" y="14" width="291.743" height="35.56" viewBox="0 0 291.743 35.56" preserveAspectRatio="none">
  <path d="M 100.955 16.591 C 99.346 15.964 97.252 15.352 94.746 14.768 C 92.937 14.327 91.499 13.928 90.459 13.572 C 89.477 13.244 88.651 12.789 88.01 12.233 C 87.426 11.72 87.141 11.065 87.141 10.239 C 87.141 9.015 87.668 8.075 88.736 7.32 C 89.847 6.551 91.599 6.152 93.963 6.152 C 95.415 6.152 96.939 6.366 98.491 6.807 C 100.044 7.234 101.553 7.89 102.992 8.73 L 103.476 9.015 L 105.797 3.275 L 105.469 3.062 C 103.988 2.079 102.208 1.31 100.186 0.783 C 98.164 0.271 96.099 0 94.02 0 C 91.015 0 88.437 0.47 86.358 1.381 C 84.25 2.307 82.641 3.589 81.587 5.184 C 80.533 6.779 79.992 8.573 79.992 10.524 C 79.992 12.845 80.605 14.725 81.815 16.107 C 82.997 17.46 84.435 18.471 86.087 19.097 C 87.682 19.71 89.79 20.336 92.368 20.934 C 94.162 21.376 95.615 21.775 96.654 22.131 C 97.637 22.458 98.463 22.914 99.104 23.498 C 99.688 24.025 99.972 24.694 99.972 25.52 C 99.972 26.674 99.446 27.571 98.349 28.283 C 97.195 29.023 95.415 29.408 93.023 29.408 C 91.072 29.408 89.092 29.066 87.155 28.397 C 85.219 27.727 83.567 26.859 82.228 25.805 L 81.744 25.42 L 79.18 31.174 L 79.451 31.416 C 80.904 32.669 82.897 33.694 85.361 34.435 C 87.811 35.176 90.388 35.56 93.023 35.56 C 96.028 35.56 98.605 35.09 100.713 34.179 C 102.835 33.253 104.458 31.971 105.512 30.405 C 106.566 28.824 107.107 27.044 107.107 25.093 C 107.107 22.8 106.495 20.949 105.284 19.582 C 104.102 18.243 102.65 17.246 100.998 16.591 L 100.955 16.591 Z M 27.884 14.384 C 27.243 15.452 26.417 16.335 25.406 17.018 L 25.42 17.018 C 26.916 17.659 28.155 18.627 29.109 19.866 C 30.262 21.362 30.846 23.256 30.846 25.463 C 30.846 28.539 29.65 30.946 27.286 32.612 C 24.965 34.25 21.575 35.076 17.203 35.076 L 0 35.076 L 0 0.484 L 16.235 0.484 C 20.294 0.484 23.469 1.296 25.691 2.905 C 27.955 4.557 29.109 6.836 29.109 9.712 C 29.109 11.464 28.696 13.031 27.884 14.384 Z M 15.566 14.668 C 17.63 14.668 19.225 14.298 20.308 13.572 C 21.347 12.874 21.846 11.92 21.846 10.538 C 21.846 9.157 21.347 8.16 20.308 7.462 C 19.225 6.736 17.63 6.366 15.566 6.366 L 7.22 6.366 L 7.22 14.668 L 15.566 14.668 Z M 16.804 20.493 L 7.206 20.493 L 7.206 29.223 L 16.804 29.223 C 21.362 29.223 23.569 27.784 23.569 24.851 C 23.569 21.917 21.362 20.493 16.804 20.493 Z M 35.332 35.09 L 50.898 0.498 L 57.676 0.498 L 73.285 35.09 L 65.68 35.09 L 62.319 27.314 L 46.155 27.314 L 42.837 35.09 L 35.332 35.09 Z M 48.69 21.433 L 59.841 21.433 L 54.244 8.459 L 48.69 21.433 Z M 140.246 20.578 L 124.011 20.578 L 124.011 28.881 L 142.981 28.881 L 142.981 35.076 L 116.791 35.076 L 116.791 0.498 L 142.981 0.498 L 142.981 6.693 L 124.011 6.693 L 124.011 14.469 L 140.246 14.469 L 140.246 20.578 Z M 178.113 17.018 C 179.124 16.335 179.95 15.452 180.591 14.384 C 181.403 13.031 181.816 11.464 181.816 9.712 C 181.816 6.836 180.662 4.557 178.398 2.905 C 176.176 1.296 173.001 0.484 168.942 0.484 L 152.707 0.484 L 152.707 35.076 L 169.91 35.076 C 174.282 35.076 177.672 34.25 179.993 32.612 C 182.357 30.946 183.553 28.539 183.553 25.463 C 183.553 23.256 182.97 21.362 181.816 19.866 C 180.862 18.627 179.623 17.659 178.128 17.018 L 178.113 17.018 Z M 173.015 13.572 C 171.933 14.298 170.338 14.668 168.273 14.668 L 159.927 14.668 L 159.927 6.366 L 168.273 6.366 C 170.338 6.366 171.933 6.736 173.015 7.462 C 174.055 8.16 174.553 9.157 174.553 10.538 C 174.553 11.92 174.055 12.874 173.015 13.572 Z M 159.913 20.493 L 169.512 20.493 C 174.069 20.493 176.276 21.917 176.276 24.851 C 176.276 27.784 174.069 29.223 169.512 29.223 L 159.913 29.223 L 159.913 20.493 Z M 188.039 35.09 L 203.605 0.498 L 210.384 0.498 L 225.992 35.09 L 218.387 35.09 L 215.026 27.314 L 198.863 27.314 L 195.544 35.09 L 188.039 35.09 Z M 201.397 21.433 L 212.548 21.433 L 206.952 8.459 L 201.397 21.433 Z M 239.635 0.498 L 232.415 0.498 L 232.415 35.076 L 257.208 35.076 L 257.208 28.824 L 239.635 28.824 L 239.635 0.498 Z M 274.155 0.498 L 274.155 28.824 L 291.743 28.824 L 291.743 35.076 L 266.949 35.076 L 266.949 0.498 L 274.155 0.498 Z" fill="currentColor" fill-rule="evenodd"></path>
</svg>
</svg>