<svg xmlns="http://www.w3.org/2000/svg" width="278.011" height="87.810" viewBox="0 0 278.011 87.810" fill="currentColor">
  <path d="M 13.613 0 L 0 0 L 0 2.269 L 13.613 2.269 L 13.613 0 Z M 13.613 45.377 L 0 45.377 L 0 47.646 L 13.613 47.646 L 13.613 45.377 Z M 4.538 9.075 L 13.613 9.075 L 13.613 11.344 L 4.538 11.344 L 4.538 9.075 Z M 13.613 31.763 L 4.538 31.763 L 4.538 34.032 L 13.613 34.032 L 13.613 31.763 Z M 0 22.689 L 13.613 22.689 L 13.613 24.957 L 0 24.957 L 0 22.689 Z M 13.613 4.537 L 4.538 4.537 L 4.538 6.806 L 13.613 6.806 L 13.613 4.537 Z M 4.538 27.226 L 13.613 27.226 L 13.613 29.495 L 4.538 29.495 L 4.538 27.226 Z M 13.613 13.612 L 4.538 13.612 L 4.538 15.881 L 13.613 15.881 L 13.613 13.612 Z M 4.538 36.301 L 13.613 36.301 L 13.613 38.57 L 4.538 38.57 L 4.538 36.301 Z M 13.613 18.151 L 4.538 18.151 L 4.538 20.42 L 13.613 20.42 L 13.613 18.151 Z M 4.538 40.838 L 13.613 40.838 L 13.613 43.107 L 4.538 43.107 L 4.538 40.838 Z M 22.736 0 L 15.882 0 L 15.882 9.075 L 18.151 9.075 C 24.957 9.075 26.091 12.702 26.091 15.434 C 26.091 18.167 23.823 21.554 18.151 21.554 L 15.882 21.554 L 15.882 29.495 L 27.226 47.645 L 43.108 47.645 L 28.105 28.153 C 30.965 27.514 32.53 26.731 34.176 25.293 C 36.892 22.944 38.57 19.285 38.57 14.715 C 38.57 9.091 35.167 0 22.736 0 Z M 203.396 31.348 C 203.348 35.422 206.607 38.778 210.682 38.826 C 214.756 38.874 218.111 35.614 218.159 31.54 C 218.207 27.466 214.948 24.11 210.873 24.062 L 210.729 24.062 C 206.703 24.078 203.444 27.322 203.38 31.348 L 203.396 31.348 Z M 229.232 0 L 229.232 47.613 L 217.808 47.613 L 217.808 44.05 C 215.315 47.262 212.183 48.684 207.822 48.684 C 198.602 48.684 191.476 41.126 191.476 31.348 C 191.476 21.57 198.538 14.22 207.758 14.22 C 211.56 14.076 215.235 15.626 217.808 18.438 L 217.808 0 L 229.232 0 Z M 169.203 38.697 C 165.113 38.681 161.838 35.342 161.854 31.268 C 161.902 27.225 165.161 23.966 169.203 23.918 L 169.283 23.918 C 173.374 23.934 176.649 27.273 176.633 31.347 C 176.617 35.438 173.278 38.713 169.203 38.697 Z M 169.06 48.827 C 180.627 48.827 188.696 41.701 188.696 31.411 C 188.696 21.282 180.627 14.076 169.203 14.076 C 163.995 14.076 158.85 15.769 155.638 18.565 C 151.963 21.713 149.838 26.283 149.791 31.124 C 149.791 41.541 157.492 48.827 169.06 48.827 Z M 142.952 23.631 L 142.94 23.625 L 146.771 16.234 C 143.479 14.796 139.932 14.077 136.353 14.157 C 127.438 14.157 121.941 18.646 121.941 25.852 C 121.941 30.917 124.578 33.426 131.432 34.848 C 135.299 35.71 136.289 36.27 136.289 37.771 C 136.289 39.273 134.804 40.344 132.726 40.344 C 130.106 40.344 126.607 39.05 123.603 37.053 L 119.465 45.121 C 123.332 47.518 127.805 48.812 132.375 48.828 C 141.722 48.828 147.793 44.051 147.793 36.701 C 147.793 31.476 144.79 28.409 138.383 27.13 C 134.085 26.204 133.238 25.772 133.238 24.35 C 133.238 23.056 134.66 22.065 136.737 22.065 C 138.905 22.097 141.026 22.622 142.94 23.625 L 142.92 23.663 L 142.952 23.631 Z M 100.26 38.841 C 96.185 38.809 92.894 35.486 92.91 31.412 L 92.926 31.412 C 92.958 27.369 96.233 24.094 100.276 24.062 L 100.34 24.062 C 104.414 24.094 107.721 27.417 107.689 31.491 C 107.657 35.566 104.334 38.857 100.26 38.841 Z M 81.869 15.274 L 81.869 62.903 L 81.885 62.887 L 93.309 62.887 L 93.309 44.449 C 95.882 47.261 99.557 48.811 103.359 48.667 C 112.563 48.667 119.625 41.302 119.625 31.539 C 119.625 21.777 112.499 14.204 103.28 14.204 C 98.934 14.204 95.786 15.626 93.294 18.837 L 93.294 15.274 L 81.869 15.274 Z M 59.101 38.842 C 55.027 38.778 51.752 35.423 51.815 31.349 C 51.879 27.322 55.139 24.079 59.165 24.063 L 59.309 24.063 C 63.383 24.127 66.659 27.482 66.595 31.556 C 66.531 35.631 63.176 38.906 59.101 38.842 Z M 77.651 47.614 L 77.651 15.307 L 66.243 15.307 L 66.243 18.439 C 63.671 15.627 59.98 14.077 56.177 14.221 C 46.958 14.221 39.896 21.57 39.896 31.349 C 39.896 41.127 47.038 48.684 56.241 48.684 C 60.587 48.684 63.719 47.262 66.227 44.051 L 66.227 47.614 L 77.651 47.614 Z M 251.584 38.681 C 247.494 38.665 244.219 35.342 244.234 31.268 C 244.282 27.225 247.542 23.95 251.584 23.918 L 251.648 23.918 C 255.738 23.934 259.014 27.257 258.998 31.331 C 258.982 35.422 255.659 38.697 251.584 38.681 Z M 251.424 48.827 C 262.992 48.827 271.061 41.701 271.061 31.411 L 271.045 31.411 C 271.045 21.282 262.992 14.076 251.568 14.076 C 246.36 14.076 241.215 15.769 238.003 18.565 C 234.328 21.713 232.203 26.283 232.155 31.124 C 232.155 41.541 239.857 48.827 251.424 48.827 Z M 273.758 8.593 C 276.122 8.574 278.021 6.646 278.001 4.282 L 278.011 4.272 C 278.011 3.439 277.769 2.635 277.314 1.938 C 276.878 1.25 276.238 0.698 275.483 0.368 C 274.921 0.116 274.31 0 273.69 0 C 272.702 0 271.753 0.349 270.997 0.988 C 270.513 1.385 270.125 1.889 269.854 2.461 C 269.573 3.023 269.447 3.643 269.447 4.272 L 269.447 4.35 C 269.466 6.714 271.394 8.613 273.758 8.593 Z M 271.191 1.695 C 271.84 0.998 272.751 0.61 273.7 0.62 L 273.71 0.61 C 274.475 0.601 275.211 0.833 275.831 1.279 C 276.287 1.618 276.665 2.064 276.907 2.577 C 277.168 3.1 277.314 3.681 277.314 4.263 C 277.333 5.241 276.955 6.181 276.267 6.869 L 276.18 6.956 C 274.775 8.312 272.547 8.274 271.191 6.869 C 270.503 6.181 270.125 5.241 270.145 4.263 C 270.125 3.304 270.503 2.374 271.191 1.695 Z M 275.754 6.753 L 274.146 4.689 L 274.165 4.699 L 274.233 4.679 C 274.523 4.592 274.775 4.408 274.95 4.166 C 275.134 3.914 275.231 3.614 275.231 3.304 C 275.24 2.868 275.047 2.451 274.698 2.189 C 274.243 1.909 273.719 1.783 273.187 1.821 L 272.198 1.821 L 272.198 6.753 L 273.138 6.753 L 273.138 4.796 L 274.601 6.753 L 275.754 6.753 Z M 273.283 4.001 L 273.128 4.001 L 273.128 2.655 L 273.322 2.655 C 273.971 2.655 274.301 2.868 274.301 3.304 C 274.301 3.769 273.962 4.001 273.283 4.001 Z M 170.39 67.8 C 171.66 67.12 173.13 66.77 174.77 66.77 C 177.26 66.77 179.42 67.66 181.19 69.43 L 181.47 69.71 L 184.88 66.39 L 184.63 66.1 C 183.46 64.76 181.99 63.73 180.28 63.04 C 178.57 62.35 176.65 62 174.57 62 C 172.01 62 169.67 62.56 167.62 63.66 C 165.56 64.77 163.93 66.32 162.76 68.27 C 161.59 70.22 161 72.46 161 74.9 C 161 77.34 161.59 79.58 162.76 81.53 C 163.93 83.48 165.56 85.03 167.6 86.14 C 169.64 87.24 171.96 87.8 174.49 87.8 C 176.28 87.8 178.05 87.52 179.75 86.98 C 181.46 86.44 182.97 85.64 184.25 84.62 L 184.4 84.5 L 184.4 74.21 L 184.39 74.21 L 184.39 73.29 L 174.43 73.29 L 174.43 77.9 L 179.33 77.9 L 179.33 81.94 C 178.01 82.66 176.46 83.02 174.73 83.02 C 173.12 83.02 171.66 82.66 170.39 81.96 C 169.13 81.26 168.13 80.28 167.42 79.05 C 166.71 77.82 166.35 76.42 166.35 74.88 C 166.35 73.34 166.71 71.87 167.42 70.64 C 168.13 69.42 169.13 68.45 170.39 67.77 L 170.39 67.8 Z M 212.36 63.67 C 210.32 62.57 208 62.01 205.47 62.01 C 202.94 62.01 200.61 62.57 198.58 63.67 C 196.53 64.77 194.9 66.33 193.74 68.3 C 192.58 70.27 191.98 72.49 191.98 74.91 C 191.98 77.33 192.57 79.56 193.74 81.52 C 194.91 83.48 196.54 85.04 198.58 86.15 C 200.62 87.25 202.94 87.81 205.47 87.81 C 208 87.81 210.32 87.25 212.36 86.15 C 214.41 85.04 216.03 83.49 217.2 81.54 C 218.37 79.59 218.96 77.36 218.96 74.91 C 218.96 72.46 218.37 70.23 217.2 68.28 C 216.03 66.33 214.4 64.78 212.36 63.67 Z M 212.55 79.11 C 211.85 80.35 210.87 81.32 209.65 82.01 C 208.42 82.7 207.01 83.05 205.47 83.05 C 203.93 83.05 202.52 82.7 201.29 82.01 C 200.06 81.32 199.09 80.34 198.39 79.11 C 197.69 77.87 197.33 76.46 197.33 74.92 C 197.33 73.38 197.69 71.97 198.39 70.73 C 199.09 69.49 200.07 68.52 201.29 67.83 C 202.52 67.14 203.93 66.79 205.47 66.79 C 207.01 66.79 208.42 67.14 209.65 67.83 C 210.87 68.52 211.85 69.5 212.55 70.73 C 213.25 71.97 213.61 73.38 213.61 74.92 C 213.61 76.46 213.25 77.87 212.55 79.11 Z M 227.11 62.35 L 232.43 62.35 L 232.43 82.84 L 245.14 82.84 L 245.14 87.47 L 227.11 87.47 L 227.11 62.35 Z M 270.64 66.94 L 270.64 62.35 L 252.08 62.35 L 252.08 87.47 L 257.4 87.47 L 257.4 78.16 L 269.14 78.16 L 269.14 73.54 L 257.4 73.54 L 257.4 66.94 L 270.64 66.94 Z" fill="currentColor" fill-rule="evenodd"></path>
</svg>