<svg xmlns="http://www.w3.org/2000/svg" viewBox="0 0 499 64" fill="currentColor">
  <svg x="0" y="0" width="174" height="40" viewBox="0 0 174 40" preserveAspectRatio="xMinYMid meet">
    <svg x="0" y="0" width="8.52" height="29.82" viewBox="0 0 8.52 29.82" preserveAspectRatio="none">
  <path d="M 8.52 0 L 0 0 L 0 1.42 L 8.52 1.42 L 8.52 0 Z M 8.52 28.4 L 0 28.4 L 0 29.82 L 8.52 29.82 L 8.52 28.4 Z M 2.84 5.68 L 8.52 5.68 L 8.52 7.1 L 2.84 7.1 L 2.84 5.68 Z M 8.52 19.88 L 2.84 19.88 L 2.84 21.3 L 8.52 21.3 L 8.52 19.88 Z M 0 14.2 L 8.52 14.2 L 8.52 15.62 L 0 15.62 L 0 14.2 Z M 8.52 2.84 L 2.84 2.84 L 2.84 4.26 L 8.52 4.26 L 8.52 2.84 Z M 2.84 17.04 L 8.52 17.04 L 8.52 18.46 L 2.84 18.46 L 2.84 17.04 Z M 8.52 8.52 L 2.84 8.52 L 2.84 9.94 L 8.52 9.94 L 8.52 8.52 Z M 2.84 22.72 L 8.52 22.72 L 8.52 24.14 L 2.84 24.14 L 2.84 22.72 Z M 8.52 11.36 L 2.84 11.36 L 2.84 12.78 L 8.52 12.78 L 8.52 11.36 Z M 2.84 25.56 L 8.52 25.56 L 8.52 26.98 L 2.84 26.98 L 2.84 25.56 Z" fill="currentColor" fill-rule="evenodd"></path>
</svg>
    <svg x="9.94" y="0" width="164.06" height="39.37" viewBox="0 0 164.06 39.37" preserveAspectRatio="none">
  <path d="M 4.29 0 L 0 0 L 0 5.68 L 1.42 5.68 C 5.68 5.68 6.39 7.95 6.39 9.66 C 6.39 11.37 4.97 13.49 1.42 13.49 L 0 13.49 L 0 18.46 L 7.1 29.82 L 17.04 29.82 L 7.65 17.62 C 9.44 17.22 10.42 16.73 11.45 15.83 C 13.15 14.36 14.2 12.07 14.2 9.21 C 14.2 5.69 12.07 0 4.29 0 Z M 117.36 19.62 C 117.33 22.17 119.37 24.27 121.92 24.3 C 124.47 24.33 126.57 22.29 126.6 19.74 C 126.63 17.19 124.59 15.09 122.04 15.06 L 121.95 15.06 C 119.43 15.07 117.39 17.1 117.35 19.62 L 117.36 19.62 Z M 133.53 0 L 133.53 29.8 L 126.38 29.8 L 126.38 27.57 C 124.82 29.58 122.86 30.47 120.13 30.47 C 114.36 30.47 109.9 25.74 109.9 19.62 C 109.9 13.5 114.32 8.9 120.09 8.9 C 122.47 8.81 124.77 9.78 126.38 11.54 L 126.38 0 L 133.53 0 Z M 95.96 24.22 C 93.4 24.21 91.35 22.12 91.36 19.57 C 91.39 17.04 93.43 15 95.96 14.97 L 96.01 14.97 C 98.57 14.98 100.62 17.07 100.61 19.62 C 100.6 22.18 98.51 24.23 95.96 24.22 Z M 95.87 30.56 C 103.11 30.56 108.16 26.1 108.16 19.66 C 108.16 13.32 103.11 8.81 95.96 8.81 C 92.7 8.81 89.48 9.87 87.47 11.62 C 85.17 13.59 83.84 16.45 83.81 19.48 C 83.81 26 88.63 30.56 95.87 30.56 Z M 79.53 14.79 L 79.523 14.786 L 81.92 10.16 C 79.86 9.26 77.64 8.81 75.4 8.86 C 69.82 8.86 66.38 11.67 66.38 16.18 C 66.38 19.35 68.03 20.92 72.32 21.81 C 74.74 22.35 75.36 22.7 75.36 23.64 C 75.36 24.58 74.43 25.25 73.13 25.25 C 71.49 25.25 69.3 24.44 67.42 23.19 L 64.83 28.24 C 67.25 29.74 70.05 30.55 72.91 30.56 C 78.76 30.56 82.56 27.57 82.56 22.97 C 82.56 19.7 80.68 17.78 76.67 16.98 C 73.98 16.4 73.45 16.13 73.45 15.24 C 73.45 14.43 74.34 13.81 75.64 13.81 C 76.997 13.83 78.324 14.159 79.523 14.786 L 79.51 14.81 L 79.53 14.79 Z M 52.81 24.31 C 50.26 24.29 48.2 22.21 48.21 19.66 L 48.22 19.66 C 48.24 17.13 50.29 15.08 52.82 15.06 L 52.86 15.06 C 55.41 15.08 57.48 17.16 57.46 19.71 C 57.44 22.26 55.36 24.32 52.81 24.31 Z M 41.3 9.56 L 41.3 39.37 L 41.31 39.36 L 48.46 39.36 L 48.46 27.82 C 50.07 29.58 52.37 30.55 54.75 30.46 C 60.51 30.46 64.93 25.85 64.93 19.74 C 64.93 13.63 60.47 8.89 54.7 8.89 C 51.98 8.89 50.01 9.78 48.45 11.79 L 48.45 9.56 L 41.3 9.56 Z M 27.05 24.31 C 24.5 24.27 22.45 22.17 22.49 19.62 C 22.53 17.1 24.57 15.07 27.09 15.06 L 27.18 15.06 C 29.73 15.1 31.78 17.2 31.74 19.75 C 31.7 22.3 29.6 24.35 27.05 24.31 Z M 38.66 29.8 L 38.66 9.58 L 31.52 9.58 L 31.52 11.54 C 29.91 9.78 27.6 8.81 25.22 8.9 C 19.45 8.9 15.03 13.5 15.03 19.62 C 15.03 25.74 19.5 30.47 25.26 30.47 C 27.98 30.47 29.94 29.58 31.51 27.57 L 31.51 29.8 L 38.66 29.8 Z M 147.52 24.21 C 144.96 24.2 142.91 22.12 142.92 19.57 C 142.95 17.04 144.99 14.99 147.52 14.97 L 147.56 14.97 C 150.12 14.98 152.17 17.06 152.16 19.61 C 152.15 22.17 150.07 24.22 147.52 24.21 Z M 147.42 30.56 C 154.66 30.56 159.71 26.1 159.71 19.66 L 159.7 19.66 C 159.7 13.32 154.66 8.81 147.51 8.81 C 144.25 8.81 141.03 9.87 139.02 11.62 C 136.72 13.59 135.39 16.45 135.36 19.48 C 135.36 26 140.18 30.56 147.42 30.56 Z M 161.398 5.378 C 162.878 5.366 164.066 4.16 164.054 2.68 L 164.06 2.674 C 164.06 2.153 163.908 1.649 163.623 1.213 C 163.351 0.782 162.95 0.437 162.477 0.23 C 162.126 0.073 161.744 0 161.356 0 C 160.737 0 160.143 0.218 159.67 0.618 C 159.367 0.867 159.124 1.182 158.955 1.54 C 158.779 1.892 158.7 2.28 158.7 2.674 L 158.7 2.722 C 158.712 4.202 159.919 5.39 161.398 5.378 Z M 159.791 1.061 C 160.198 0.625 160.768 0.382 161.362 0.388 L 161.368 0.382 C 161.847 0.376 162.308 0.521 162.696 0.8 C 162.981 1.013 163.217 1.292 163.369 1.613 C 163.533 1.94 163.623 2.304 163.623 2.668 C 163.636 3.28 163.399 3.868 162.969 4.299 L 162.914 4.354 C 162.035 5.202 160.64 5.178 159.791 4.299 C 159.361 3.868 159.124 3.28 159.137 2.668 C 159.124 2.068 159.361 1.486 159.791 1.061 Z M 162.647 4.226 L 161.641 2.935 L 161.653 2.941 L 161.695 2.929 C 161.877 2.874 162.035 2.759 162.144 2.607 C 162.259 2.45 162.32 2.262 162.32 2.068 C 162.326 1.795 162.205 1.534 161.986 1.37 C 161.701 1.195 161.374 1.116 161.04 1.14 L 160.422 1.14 L 160.422 4.226 L 161.01 4.226 L 161.01 3.001 L 161.926 4.226 L 162.647 4.226 Z M 161.101 2.504 L 161.004 2.504 L 161.004 1.661 L 161.125 1.661 C 161.532 1.661 161.738 1.795 161.738 2.068 C 161.738 2.359 161.526 2.504 161.101 2.504 Z" fill="currentColor" fill-rule="evenodd"></path>
</svg>
  </svg>
  <svg x="286" y="23" width="212.355" height="25.952" viewBox="0 0 212.355 25.952" preserveAspectRatio="none">
  <path d="M 73.117 12.075 C 71.939 11.621 70.407 11.167 68.591 10.741 C 67.271 10.415 66.221 10.131 65.469 9.876 C 64.745 9.634 64.149 9.308 63.681 8.897 C 63.255 8.514 63.043 8.045 63.043 7.449 C 63.043 6.555 63.426 5.86 64.206 5.321 C 65.015 4.753 66.306 4.47 68.023 4.47 C 69.087 4.47 70.194 4.626 71.329 4.952 C 72.464 5.264 73.557 5.747 74.607 6.357 L 74.962 6.57 L 76.664 2.384 L 76.423 2.228 C 75.345 1.504 74.053 0.951 72.564 0.568 C 71.088 0.184 69.57 0 68.066 0 C 65.88 0 63.993 0.341 62.475 1.007 C 60.943 1.689 59.765 2.625 58.999 3.789 C 58.232 4.952 57.835 6.257 57.835 7.676 C 57.835 9.365 58.289 10.741 59.169 11.749 C 60.034 12.742 61.084 13.466 62.291 13.934 C 63.454 14.388 65.001 14.828 66.874 15.282 C 68.193 15.608 69.243 15.892 69.995 16.147 C 70.719 16.389 71.315 16.729 71.783 17.141 C 72.209 17.524 72.422 18.006 72.422 18.616 C 72.422 19.453 72.039 20.106 71.23 20.631 C 70.393 21.17 69.087 21.454 67.342 21.454 C 65.909 21.454 64.476 21.213 63.057 20.716 C 61.638 20.234 60.432 19.595 59.467 18.829 L 59.112 18.545 L 57.239 22.745 L 57.438 22.916 C 58.502 23.838 59.949 24.576 61.751 25.129 C 63.539 25.668 65.426 25.952 67.342 25.952 C 69.527 25.952 71.414 25.611 72.947 24.945 C 74.493 24.264 75.671 23.341 76.451 22.192 C 77.218 21.043 77.615 19.737 77.615 18.318 C 77.615 16.644 77.161 15.296 76.281 14.303 C 75.416 13.324 74.366 12.6 73.145 12.118 L 73.117 12.075 Z M 20.347 10.472 C 19.893 11.238 19.283 11.891 18.545 12.387 L 18.531 12.387 C 19.624 12.87 20.532 13.565 21.227 14.473 C 22.064 15.566 22.49 16.942 22.49 18.559 C 22.49 20.787 21.624 22.547 19.893 23.767 C 18.205 24.959 15.736 25.569 12.543 25.569 L 0 25.569 L 0 0.326 L 11.848 0.326 C 14.799 0.326 17.126 0.922 18.744 2.1 C 20.404 3.306 21.241 4.966 21.241 7.066 C 21.241 8.343 20.943 9.493 20.347 10.472 Z M 11.366 10.67 C 12.87 10.67 14.033 10.401 14.828 9.876 L 14.828 9.861 C 15.58 9.351 15.949 8.655 15.949 7.648 C 15.949 6.641 15.58 5.917 14.828 5.406 C 14.033 4.881 12.87 4.611 11.366 4.611 L 5.278 4.611 L 5.278 10.67 L 11.366 10.67 Z M 12.274 14.927 L 5.264 14.927 L 5.264 21.298 L 12.274 21.298 C 15.594 21.298 17.211 20.248 17.211 18.105 C 17.211 15.963 15.594 14.927 12.274 14.927 Z M 25.796 25.569 L 37.147 0.326 L 42.085 0.326 L 53.479 25.569 L 47.931 25.569 L 45.476 19.893 L 33.685 19.893 L 31.273 25.569 L 25.796 25.569 Z M 35.53 15.608 L 43.674 15.608 L 39.588 6.144 L 35.53 15.608 Z M 101.793 14.984 L 89.959 14.984 L 89.959 21.043 L 103.794 21.043 L 103.794 25.569 L 84.681 25.569 L 84.681 0.326 L 103.794 0.326 L 103.794 4.853 L 89.959 4.853 L 89.959 10.528 L 101.793 10.528 L 101.793 14.984 Z M 129.434 12.387 C 130.172 11.891 130.782 11.238 131.236 10.472 C 131.832 9.493 132.13 8.343 132.13 7.066 C 132.13 4.966 131.293 3.306 129.632 2.1 C 128.015 0.922 125.688 0.326 122.737 0.326 L 110.889 0.326 L 110.889 25.569 L 123.432 25.569 C 126.624 25.569 129.093 24.959 130.782 23.767 C 132.513 22.547 133.378 20.787 133.378 18.559 C 133.378 16.942 132.953 15.566 132.116 14.473 C 131.42 13.565 130.512 12.87 129.42 12.387 L 129.434 12.387 Z M 125.716 9.876 C 124.922 10.401 123.758 10.67 122.254 10.67 L 116.167 10.67 L 116.167 4.611 L 122.254 4.611 C 123.758 4.611 124.922 4.881 125.716 5.406 C 126.468 5.917 126.837 6.641 126.837 7.648 C 126.837 8.655 126.468 9.351 125.716 9.861 L 125.716 9.876 Z M 116.153 14.927 L 123.162 14.927 C 126.482 14.927 128.1 15.963 128.1 18.105 C 128.1 20.248 126.482 21.298 123.162 21.298 L 116.153 21.298 L 116.153 14.927 Z M 136.684 25.569 L 148.036 0.326 L 152.974 0.326 L 164.368 25.569 L 158.82 25.569 L 156.365 19.893 L 144.574 19.893 L 142.161 25.569 L 136.684 25.569 Z M 146.418 15.608 L 154.563 15.608 L 150.476 6.144 L 146.418 15.608 Z M 174.328 0.326 L 169.064 0.326 L 169.064 25.569 L 187.155 25.569 L 187.155 21 L 174.328 21 L 174.328 0.326 Z M 199.528 0.326 L 199.528 21 L 212.355 21 L 212.355 25.569 L 194.264 25.569 L 194.264 0.326 L 199.528 0.326 Z" fill="currentColor" fill-rule="evenodd"></path>
</svg>
</svg>