<svg xmlns="http://www.w3.org/2000/svg" width="24" height="24" viewBox="0 0 24 24" fill="none">
  <g transform="translate(2.000 3.080) scale(1.19048) translate(0.000 0.000)"><path d="M 16.8 4.667 L 17.164 5.322 C 17.402 5.19 17.55 4.939 17.55 4.667 C 17.55 4.394 17.402 4.143 17.164 4.011 L 16.8 4.667 Z M 8.4 9.333 L 8.036 9.989 C 8.262 10.115 8.538 10.115 8.764 9.989 L 8.4 9.333 Z M 0 4.667 L -0.364 4.011 C -0.602 4.143 -0.75 4.394 -0.75 4.667 C -0.75 4.939 -0.602 5.19 -0.364 5.322 L 0 4.667 Z M 8.4 0 L 8.764 -0.656 C 8.538 -0.781 8.262 -0.781 8.036 -0.656 L 8.4 0 Z M 4.667 7.933 L 4.302 7.278 C 4.064 7.41 3.917 7.661 3.917 7.933 L 4.667 7.933 Z M 3.917 14.933 C 3.917 15.347 4.252 15.683 4.667 15.683 C 5.081 15.683 5.417 15.347 5.417 14.933 L 4.667 14.933 L 3.917 14.933 Z M 8.764 6.515 C 9.126 6.314 9.257 5.857 9.056 5.495 C 8.854 5.133 8.398 5.002 8.036 5.204 L 8.4 5.859 L 8.764 6.515 Z M 14.148 6.14 L 14.846 5.863 C 14.766 5.663 14.604 5.506 14.401 5.433 C 14.198 5.361 13.973 5.379 13.784 5.484 L 14.148 6.14 Z M 14.769 12.186 L 14.842 12.933 C 15.178 12.9 15.451 12.647 15.508 12.314 L 14.769 12.186 Z M 8.4 14.985 L 7.9 15.544 C 8.185 15.799 8.615 15.799 8.9 15.544 L 8.4 14.985 Z M 2.031 12.186 L 1.292 12.314 C 1.349 12.647 1.622 12.9 1.958 12.933 L 2.031 12.186 Z M 2.651 6.14 L 3.016 5.484 C 2.827 5.379 2.602 5.361 2.399 5.433 C 2.196 5.506 2.034 5.663 1.954 5.863 L 2.651 6.14 Z M 16.8 4.667 L 16.436 4.011 L 8.036 8.678 L 8.4 9.333 L 8.764 9.989 L 17.164 5.322 L 16.8 4.667 Z M 8.4 9.333 L 8.764 8.678 L 0.364 4.011 L 0 4.667 L -0.364 5.322 L 8.036 9.989 L 8.4 9.333 Z M 0 4.667 L 0.364 5.322 L 8.764 0.656 L 8.4 0 L 8.036 -0.656 L -0.364 4.011 L 0 4.667 Z M 8.4 0 L 8.036 0.656 L 16.436 5.322 L 16.8 4.667 L 17.164 4.011 L 8.764 -0.656 L 8.4 0 Z M 4.667 7.933 L 3.917 7.933 L 3.917 14.933 L 4.667 14.933 L 5.417 14.933 L 5.417 7.933 L 4.667 7.933 Z M 8.4 5.859 L 8.036 5.204 L 4.302 7.278 L 4.667 7.933 L 5.031 8.589 L 8.764 6.515 L 8.4 5.859 Z M 14.148 6.14 L 13.784 5.484 L 8.036 8.678 L 8.4 9.333 L 8.764 9.989 L 14.513 6.795 L 14.148 6.14 Z M 14.933 10.267 L 15.683 10.267 C 15.683 8.713 15.386 7.227 14.846 5.863 L 14.148 6.14 L 13.451 6.416 C 13.923 7.607 14.183 8.905 14.183 10.267 L 14.933 10.267 Z M 14.769 12.186 L 15.508 12.314 C 15.623 11.648 15.683 10.964 15.683 10.267 L 14.933 10.267 L 14.183 10.267 C 14.183 10.878 14.131 11.477 14.03 12.059 L 14.769 12.186 Z M 8.4 14.985 L 8.9 15.544 C 10.511 14.102 12.57 13.154 14.842 12.933 L 14.769 12.186 L 14.697 11.44 C 12.097 11.693 9.74 12.779 7.9 14.426 L 8.4 14.985 Z M 2.031 12.186 L 1.958 12.933 C 4.23 13.154 6.289 14.102 7.9 15.544 L 8.4 14.985 L 8.9 14.426 C 7.06 12.779 4.703 11.693 2.103 11.44 L 2.031 12.186 Z M 1.867 10.267 L 1.117 10.267 C 1.117 10.964 1.177 11.648 1.292 12.314 L 2.031 12.186 L 2.77 12.059 C 2.669 11.477 2.617 10.878 2.617 10.267 L 1.867 10.267 Z M 2.651 6.14 L 1.954 5.863 C 1.414 7.227 1.117 8.713 1.117 10.267 L 1.867 10.267 L 2.617 10.267 C 2.617 8.905 2.877 7.607 3.349 6.416 L 2.651 6.14 Z M 8.4 9.333 L 8.764 8.678 L 3.016 5.484 L 2.651 6.14 L 2.287 6.795 L 8.036 9.989 L 8.4 9.333 Z" fill="currentColor" fill-rule="nonzero"></path></g>
</svg>