<svg xmlns="http://www.w3.org/2000/svg" width="24" height="24" viewBox="0 0 24 24" fill="none">
  <g transform="translate(2.000 4.222) scale(1.19048) translate(0.000 0.000)"><path d="M 6.003 13.597 C 6.296 13.89 6.771 13.89 7.064 13.597 C 7.357 13.304 7.357 12.829 7.064 12.536 L 6.533 13.067 L 6.003 13.597 Z M 0 6.533 L -0.53 6.003 C -0.823 6.296 -0.823 6.771 -0.53 7.064 L 0 6.533 Z M 7.064 0.53 C 7.357 0.237 7.357 -0.237 7.064 -0.53 C 6.771 -0.823 6.296 -0.823 6.003 -0.53 L 6.533 0 L 7.064 0.53 Z M 16.8 7.283 C 17.214 7.283 17.55 6.948 17.55 6.533 C 17.55 6.119 17.214 5.783 16.8 5.783 L 16.8 6.533 L 16.8 7.283 Z M 6.533 13.067 L 7.064 12.536 L 0.53 6.003 L 0 6.533 L -0.53 7.064 L 6.003 13.597 L 6.533 13.067 Z M 0 6.533 L 0.53 7.064 L 7.064 0.53 L 6.533 0 L 6.003 -0.53 L -0.53 6.003 L 0 6.533 Z M 0 6.533 L 0 7.283 L 16.8 7.283 L 16.8 6.533 L 16.8 5.783 L 0 5.783 L 0 6.533 Z" fill="currentColor" fill-rule="nonzero"></path></g>
</svg>