<svg xmlns="http://www.w3.org/2000/svg" width="24" height="24" viewBox="0 0 24 24" fill="none">
  <g transform="translate(4.222 2.000) scale(1.19048) translate(0.000 0.000)"><path d="M -0.53 6.003 C -0.823 6.296 -0.823 6.771 -0.53 7.064 C -0.237 7.357 0.237 7.357 0.53 7.064 L 0 6.533 L -0.53 6.003 Z M 6.533 0 L 7.064 -0.53 C 6.771 -0.823 6.296 -0.823 6.003 -0.53 L 6.533 0 Z M 12.536 7.064 C 12.829 7.357 13.304 7.357 13.597 7.064 C 13.89 6.771 13.89 6.296 13.597 6.003 L 13.067 6.533 L 12.536 7.064 Z M 5.783 16.8 C 5.783 17.214 6.119 17.55 6.533 17.55 C 6.948 17.55 7.283 17.214 7.283 16.8 L 6.533 16.8 L 5.783 16.8 Z M 0 6.533 L 0.53 7.064 L 7.064 0.53 L 6.533 0 L 6.003 -0.53 L -0.53 6.003 L 0 6.533 Z M 6.533 0 L 6.003 0.53 L 12.536 7.064 L 13.067 6.533 L 13.597 6.003 L 7.064 -0.53 L 6.533 0 Z M 6.533 0 L 5.783 0 L 5.783 16.8 L 6.533 16.8 L 7.283 16.8 L 7.283 0 L 6.533 0 Z" fill="currentColor" fill-rule="nonzero"></path></g>
</svg>