<svg xmlns="http://www.w3.org/2000/svg" width="24" height="24" viewBox="0 0 24 24" fill="none">
  <g transform="translate(2.000 4.222) scale(1.19048) translate(0.000 0.000)"><path d="M 10.797 -0.53 C 10.504 -0.823 10.029 -0.823 9.736 -0.53 C 9.443 -0.237 9.443 0.237 9.736 0.53 L 10.267 0 L 10.797 -0.53 Z M 16.8 6.533 L 17.33 7.064 C 17.471 6.923 17.55 6.732 17.55 6.533 C 17.55 6.334 17.471 6.144 17.33 6.003 L 16.8 6.533 Z M 9.736 12.536 C 9.443 12.829 9.443 13.304 9.736 13.597 C 10.029 13.89 10.504 13.89 10.797 13.597 L 10.267 13.067 L 9.736 12.536 Z M 0 5.783 C -0.414 5.783 -0.75 6.119 -0.75 6.533 C -0.75 6.948 -0.414 7.283 0 7.283 L 0 6.533 L 0 5.783 Z M 10.267 0 L 9.736 0.53 L 16.27 7.064 L 16.8 6.533 L 17.33 6.003 L 10.797 -0.53 L 10.267 0 Z M 16.8 6.533 L 16.27 6.003 L 9.736 12.536 L 10.267 13.067 L 10.797 13.597 L 17.33 7.064 L 16.8 6.533 Z M 16.8 6.533 L 16.8 5.783 L 0 5.783 L 0 6.533 L 0 7.283 L 16.8 7.283 L 16.8 6.533 Z" fill="currentColor" fill-rule="nonzero"></path></g>
</svg>