<svg xmlns="http://www.w3.org/2000/svg" width="24" height="24" viewBox="0 0 24 24" fill="none">
  <g transform="translate(4.222 2.000) scale(1.19048) translate(0.000 0.000)"><path d="M 13.597 10.797 C 13.89 10.504 13.89 10.029 13.597 9.736 C 13.304 9.443 12.829 9.443 12.536 9.736 L 13.067 10.267 L 13.597 10.797 Z M 6.533 16.8 L 6.003 17.33 C 6.144 17.471 6.334 17.55 6.533 17.55 C 6.732 17.55 6.923 17.471 7.064 17.33 L 6.533 16.8 Z M 0.53 9.736 C 0.237 9.443 -0.237 9.443 -0.53 9.736 C -0.823 10.029 -0.823 10.504 -0.53 10.797 L 0 10.267 L 0.53 9.736 Z M 7.283 0 C 7.283 -0.414 6.948 -0.75 6.533 -0.75 C 6.119 -0.75 5.783 -0.414 5.783 0 L 6.533 0 L 7.283 0 Z M 13.067 10.267 L 12.536 9.736 L 6.003 16.27 L 6.533 16.8 L 7.064 17.33 L 13.597 10.797 L 13.067 10.267 Z M 6.533 16.8 L 7.064 16.27 L 0.53 9.736 L 0 10.267 L -0.53 10.797 L 6.003 17.33 L 6.533 16.8 Z M 6.533 16.8 L 7.283 16.8 L 7.283 0 L 6.533 0 L 5.783 0 L 5.783 16.8 L 6.533 16.8 Z" fill="currentColor" fill-rule="nonzero"></path></g>
</svg>