<svg xmlns="http://www.w3.org/2000/svg" width="24" height="24" viewBox="0 0 24 24" fill="none">
  <g transform="translate(3.111 2.000) scale(1.19048) translate(0.000 0.000)"><path d="M 14.933 13.067 L 14.933 13.817 C 15.237 13.817 15.51 13.634 15.626 13.354 C 15.742 13.073 15.678 12.751 15.464 12.536 L 14.933 13.067 Z M 0 13.067 L -0.53 12.536 C -0.745 12.751 -0.809 13.073 -0.693 13.354 C -0.577 13.634 -0.303 13.817 0 13.817 L 0 13.067 Z M 1.311 11.755 L 1.842 12.286 L 1.842 12.286 L 1.311 11.755 Z M 5.6 2.185 L 5.85 2.892 C 6.15 2.787 6.35 2.503 6.35 2.185 L 5.6 2.185 Z M 9.333 2.185 L 8.583 2.185 C 8.583 2.503 8.784 2.787 9.083 2.892 L 9.333 2.185 Z M 0 13.067 L 0.53 13.597 L 1.842 12.286 L 1.311 11.755 L 0.781 11.225 L -0.53 12.536 L 0 13.067 Z M 1.867 10.415 L 2.617 10.415 L 2.617 7.467 L 1.867 7.467 L 1.117 7.467 L 1.117 10.415 L 1.867 10.415 Z M 13.067 7.467 L 12.317 7.467 L 12.317 10.415 L 13.067 10.415 L 13.817 10.415 L 13.817 7.467 L 13.067 7.467 Z M 13.622 11.755 L 13.092 12.286 L 14.403 13.597 L 14.933 13.067 L 15.464 12.536 L 14.152 11.225 L 13.622 11.755 Z M 1.311 11.755 L 1.842 12.286 C 2.338 11.789 2.617 11.116 2.617 10.415 L 1.867 10.415 L 1.117 10.415 C 1.117 10.719 0.996 11.01 0.781 11.225 L 1.311 11.755 Z M 13.067 10.415 L 12.317 10.415 C 12.317 11.116 12.595 11.789 13.092 12.286 L 13.622 11.755 L 14.152 11.225 C 13.937 11.01 13.817 10.719 13.817 10.415 L 13.067 10.415 Z M 5.6 2.185 L 5.35 1.478 C 2.885 2.35 1.117 4.701 1.117 7.467 L 1.867 7.467 L 2.617 7.467 C 2.617 5.356 3.965 3.559 5.85 2.892 L 5.6 2.185 Z M 9.333 2.185 L 9.083 2.892 C 10.968 3.559 12.317 5.356 12.317 7.467 L 13.067 7.467 L 13.817 7.467 C 13.817 4.701 12.049 2.35 9.583 1.478 L 9.333 2.185 Z M 9.333 2.185 L 10.083 2.185 L 10.083 1.867 L 9.333 1.867 L 8.583 1.867 L 8.583 2.185 L 9.333 2.185 Z M 5.6 1.867 L 4.85 1.867 L 4.85 2.185 L 5.6 2.185 L 6.35 2.185 L 6.35 1.867 L 5.6 1.867 Z M 7.467 0 L 7.467 -0.75 C 6.022 -0.75 4.85 0.422 4.85 1.867 L 5.6 1.867 L 6.35 1.867 C 6.35 1.25 6.85 0.75 7.467 0.75 L 7.467 0 Z M 9.333 1.867 L 10.083 1.867 C 10.083 0.422 8.912 -0.75 7.467 -0.75 L 7.467 0 L 7.467 0.75 C 8.083 0.75 8.583 1.25 8.583 1.867 L 9.333 1.867 Z M 10.267 14 L 9.517 14 C 9.517 15.132 8.599 16.05 7.467 16.05 L 7.467 16.8 L 7.467 17.55 C 9.427 17.55 11.017 15.961 11.017 14 L 10.267 14 Z M 7.467 16.8 L 7.467 16.05 C 6.334 16.05 5.417 15.132 5.417 14 L 4.667 14 L 3.917 14 C 3.917 15.961 5.506 17.55 7.467 17.55 L 7.467 16.8 Z M 14.933 13.067 L 14.933 12.317 L 10.267 12.317 L 10.267 13.067 L 10.267 13.817 L 14.933 13.817 L 14.933 13.067 Z M 10.267 14 L 11.017 14 L 11.017 13.067 L 10.267 13.067 L 9.517 13.067 L 9.517 14 L 10.267 14 Z M 10.267 13.067 L 10.267 12.317 L 4.667 12.317 L 4.667 13.067 L 4.667 13.817 L 10.267 13.817 L 10.267 13.067 Z M 4.667 13.067 L 4.667 12.317 L 0 12.317 L 0 13.067 L 0 13.817 L 4.667 13.817 L 4.667 13.067 Z M 4.667 14 L 5.417 14 L 5.417 13.067 L 4.667 13.067 L 3.917 13.067 L 3.917 14 L 4.667 14 Z" fill="currentColor" fill-rule="nonzero"></path></g>
</svg>