<svg xmlns="http://www.w3.org/2000/svg" width="24" height="24" viewBox="0 0 24 24" fill="none">
  <g transform="translate(4.222 2.000) scale(1.19048) translate(0.000 0.000)"><path d="M 13.067 16.8 L 12.731 17.471 C 12.964 17.587 13.24 17.575 13.461 17.438 C 13.682 17.301 13.817 17.06 13.817 16.8 L 13.067 16.8 Z M 0 16.8 L -0.75 16.8 C -0.75 17.06 -0.615 17.301 -0.394 17.438 C -0.173 17.575 0.103 17.587 0.335 17.471 L 0 16.8 Z M 6.533 13.533 L 6.869 12.863 C 6.658 12.757 6.409 12.757 6.198 12.863 L 6.533 13.533 Z M 1.867 0 L 1.867 0.75 L 11.2 0.75 L 11.2 0 L 11.2 -0.75 L 1.867 -0.75 L 1.867 0 Z M 13.067 1.867 L 12.317 1.867 L 12.317 16.8 L 13.067 16.8 L 13.817 16.8 L 13.817 1.867 L 13.067 1.867 Z M 0 16.8 L 0.75 16.8 L 0.75 1.867 L 0 1.867 L -0.75 1.867 L -0.75 16.8 L 0 16.8 Z M 13.067 16.8 L 13.402 16.129 L 6.869 12.863 L 6.533 13.533 L 6.198 14.204 L 12.731 17.471 L 13.067 16.8 Z M 6.533 13.533 L 6.198 12.863 L -0.335 16.129 L 0 16.8 L 0.335 17.471 L 6.869 14.204 L 6.533 13.533 Z M 11.2 0 L 11.2 0.75 C 11.817 0.75 12.317 1.25 12.317 1.867 L 13.067 1.867 L 13.817 1.867 C 13.817 0.422 12.645 -0.75 11.2 -0.75 L 11.2 0 Z M 1.867 0 L 1.867 -0.75 C 0.422 -0.75 -0.75 0.422 -0.75 1.867 L 0 1.867 L 0.75 1.867 C 0.75 1.25 1.25 0.75 1.867 0.75 L 1.867 0 Z" fill="currentColor" fill-rule="nonzero"></path></g>
</svg>