<svg xmlns="http://www.w3.org/2000/svg" width="24" height="24" viewBox="0 0 24 24" fill="none">
  <g transform="translate(2.000 2.000) scale(1.19048) translate(0.000 0.000)"><path d="M 17.081 11.2 C 17.465 11.045 17.651 10.608 17.495 10.224 C 17.34 9.84 16.903 9.654 16.519 9.81 L 16.8 10.505 L 17.081 11.2 Z M 0.281 9.81 C -0.103 9.654 -0.54 9.84 -0.695 10.224 C -0.851 10.608 -0.665 11.045 -0.281 11.2 L 0 10.505 L 0.281 9.81 Z M 11.383 3.733 C 11.383 4.148 11.719 4.483 12.133 4.483 C 12.548 4.483 12.883 4.148 12.883 3.733 L 12.133 3.733 L 11.383 3.733 Z M 3.917 3.733 C 3.917 4.148 4.252 4.483 4.667 4.483 C 5.081 4.483 5.417 4.148 5.417 3.733 L 4.667 3.733 L 3.917 3.733 Z M 8.4 8.583 C 7.986 8.583 7.65 8.919 7.65 9.333 C 7.65 9.748 7.986 10.083 8.4 10.083 L 8.4 9.333 L 8.4 8.583 Z M 8.409 10.083 C 8.824 10.083 9.159 9.748 9.159 9.333 C 9.159 8.919 8.824 8.583 8.409 8.583 L 8.409 9.333 L 8.409 10.083 Z M 1.867 3.733 L 1.867 4.483 L 14.933 4.483 L 14.933 3.733 L 14.933 2.983 L 1.867 2.983 L 1.867 3.733 Z M 16.8 5.6 L 16.05 5.6 L 16.05 14.933 L 16.8 14.933 L 17.55 14.933 L 17.55 5.6 L 16.8 5.6 Z M 14.933 16.8 L 14.933 16.05 L 1.867 16.05 L 1.867 16.8 L 1.867 17.55 L 14.933 17.55 L 14.933 16.8 Z M 0 14.933 L 0.75 14.933 L 0.75 5.6 L 0 5.6 L -0.75 5.6 L -0.75 14.933 L 0 14.933 Z M 1.867 16.8 L 1.867 16.05 C 1.25 16.05 0.75 15.55 0.75 14.933 L 0 14.933 L -0.75 14.933 C -0.75 16.378 0.422 17.55 1.867 17.55 L 1.867 16.8 Z M 16.8 14.933 L 16.05 14.933 C 16.05 15.55 15.55 16.05 14.933 16.05 L 14.933 16.8 L 14.933 17.55 C 16.378 17.55 17.55 16.378 17.55 14.933 L 16.8 14.933 Z M 14.933 3.733 L 14.933 4.483 C 15.55 4.483 16.05 4.983 16.05 5.6 L 16.8 5.6 L 17.55 5.6 C 17.55 4.155 16.378 2.983 14.933 2.983 L 14.933 3.733 Z M 1.867 3.733 L 1.867 2.983 C 0.422 2.983 -0.75 4.155 -0.75 5.6 L 0 5.6 L 0.75 5.6 C 0.75 4.983 1.25 4.483 1.867 4.483 L 1.867 3.733 Z M 16.8 10.505 L 16.519 9.81 C 14.012 10.824 11.272 11.383 8.4 11.383 L 8.4 12.133 L 8.4 12.883 C 11.469 12.883 14.4 12.286 17.081 11.2 L 16.8 10.505 Z M 8.4 12.133 L 8.4 11.383 C 5.528 11.383 2.788 10.824 0.281 9.81 L 0 10.505 L -0.281 11.2 C 2.4 12.286 5.331 12.883 8.4 12.883 L 8.4 12.133 Z M 6.533 0 L 6.533 0.75 L 10.267 0.75 L 10.267 0 L 10.267 -0.75 L 6.533 -0.75 L 6.533 0 Z M 12.133 1.867 L 11.383 1.867 L 11.383 3.733 L 12.133 3.733 L 12.883 3.733 L 12.883 1.867 L 12.133 1.867 Z M 4.667 3.733 L 5.417 3.733 L 5.417 1.867 L 4.667 1.867 L 3.917 1.867 L 3.917 3.733 L 4.667 3.733 Z M 10.267 0 L 10.267 0.75 C 10.883 0.75 11.383 1.25 11.383 1.867 L 12.133 1.867 L 12.883 1.867 C 12.883 0.422 11.712 -0.75 10.267 -0.75 L 10.267 0 Z M 6.533 0 L 6.533 -0.75 C 5.088 -0.75 3.917 0.422 3.917 1.867 L 4.667 1.867 L 5.417 1.867 C 5.417 1.25 5.917 0.75 6.533 0.75 L 6.533 0 Z M 8.4 9.333 L 8.4 10.083 L 8.409 10.083 L 8.409 9.333 L 8.409 8.583 L 8.4 8.583 L 8.4 9.333 Z" fill="currentColor" fill-rule="nonzero"></path></g>
</svg>