<svg xmlns="http://www.w3.org/2000/svg" width="24" height="24" viewBox="0 0 24 24" fill="none">
  <g transform="translate(2.000 2.000) scale(1.19048) translate(0.000 0.000)"><path d="M 3.917 3.733 C 3.917 4.148 4.252 4.483 4.667 4.483 C 5.081 4.483 5.417 4.148 5.417 3.733 L 4.667 3.733 L 3.917 3.733 Z M 5.417 0 C 5.417 -0.414 5.081 -0.75 4.667 -0.75 C 4.252 -0.75 3.917 -0.414 3.917 0 L 4.667 0 L 5.417 0 Z M 11.383 3.733 C 11.383 4.148 11.719 4.483 12.133 4.483 C 12.548 4.483 12.883 4.148 12.883 3.733 L 12.133 3.733 L 11.383 3.733 Z M 12.883 0 C 12.883 -0.414 12.548 -0.75 12.133 -0.75 C 11.719 -0.75 11.383 -0.414 11.383 0 L 12.133 0 L 12.883 0 Z M 3.733 6.717 C 3.319 6.717 2.983 7.052 2.983 7.467 C 2.983 7.881 3.319 8.217 3.733 8.217 L 3.733 7.467 L 3.733 6.717 Z M 13.067 8.217 C 13.481 8.217 13.817 7.881 13.817 7.467 C 13.817 7.052 13.481 6.717 13.067 6.717 L 13.067 7.467 L 13.067 8.217 Z M 1.867 1.867 L 1.867 2.617 L 14.933 2.617 L 14.933 1.867 L 14.933 1.117 L 1.867 1.117 L 1.867 1.867 Z M 16.8 3.733 L 16.05 3.733 L 16.05 14.933 L 16.8 14.933 L 17.55 14.933 L 17.55 3.733 L 16.8 3.733 Z M 14.933 16.8 L 14.933 16.05 L 1.867 16.05 L 1.867 16.8 L 1.867 17.55 L 14.933 17.55 L 14.933 16.8 Z M 0 14.933 L 0.75 14.933 L 0.75 3.733 L 0 3.733 L -0.75 3.733 L -0.75 14.933 L 0 14.933 Z M 1.867 16.8 L 1.867 16.05 C 1.25 16.05 0.75 15.55 0.75 14.933 L 0 14.933 L -0.75 14.933 C -0.75 16.378 0.422 17.55 1.867 17.55 L 1.867 16.8 Z M 16.8 14.933 L 16.05 14.933 C 16.05 15.55 15.55 16.05 14.933 16.05 L 14.933 16.8 L 14.933 17.55 C 16.378 17.55 17.55 16.378 17.55 14.933 L 16.8 14.933 Z M 14.933 1.867 L 14.933 2.617 C 15.55 2.617 16.05 3.117 16.05 3.733 L 16.8 3.733 L 17.55 3.733 C 17.55 2.288 16.378 1.117 14.933 1.117 L 14.933 1.867 Z M 1.867 1.867 L 1.867 1.117 C 0.422 1.117 -0.75 2.288 -0.75 3.733 L 0 3.733 L 0.75 3.733 C 0.75 3.117 1.25 2.617 1.867 2.617 L 1.867 1.867 Z M 4.667 3.733 L 5.417 3.733 L 5.417 0 L 4.667 0 L 3.917 0 L 3.917 3.733 L 4.667 3.733 Z M 12.133 3.733 L 12.883 3.733 L 12.883 0 L 12.133 0 L 11.383 0 L 11.383 3.733 L 12.133 3.733 Z M 3.733 7.467 L 3.733 8.217 L 13.067 8.217 L 13.067 7.467 L 13.067 6.717 L 3.733 6.717 L 3.733 7.467 Z" fill="currentColor" fill-rule="nonzero"></path></g>
</svg>