<svg xmlns="http://www.w3.org/2000/svg" width="24" height="24" viewBox="0 0 24 24" fill="none">
  <g transform="translate(2.000 3.111) scale(1.19048) translate(0.000 0.000)"><path d="M 11.754 0.831 L 11.13 1.247 L 11.13 1.247 L 11.754 0.831 Z M 5.046 0.831 L 5.67 1.247 L 5.67 1.247 L 5.046 0.831 Z M 12.513 1.969 L 13.137 1.553 L 13.137 1.553 L 12.513 1.969 Z M 4.287 1.969 L 3.663 1.553 L 3.663 1.553 L 4.287 1.969 Z M 16.8 4.667 L 16.05 4.667 L 16.05 13.067 L 16.8 13.067 L 17.55 13.067 L 17.55 4.667 L 16.8 4.667 Z M 14.933 14.933 L 14.933 14.183 L 1.867 14.183 L 1.867 14.933 L 1.867 15.683 L 14.933 15.683 L 14.933 14.933 Z M 0 13.067 L 0.75 13.067 L 0.75 4.667 L 0 4.667 L -0.75 4.667 L -0.75 13.067 L 0 13.067 Z M 1.867 2.8 L 1.867 3.55 L 2.734 3.55 L 2.734 2.8 L 2.734 2.05 L 1.867 2.05 L 1.867 2.8 Z M 14.066 2.8 L 14.066 3.55 L 14.933 3.55 L 14.933 2.8 L 14.933 2.05 L 14.066 2.05 L 14.066 2.8 Z M 4.287 1.969 L 4.912 2.385 L 5.67 1.247 L 5.046 0.831 L 4.422 0.415 L 3.663 1.553 L 4.287 1.969 Z M 6.599 0 L 6.599 0.75 L 10.201 0.75 L 10.201 0 L 10.201 -0.75 L 6.599 -0.75 L 6.599 0 Z M 11.754 0.831 L 11.13 1.247 L 11.888 2.385 L 12.513 1.969 L 13.137 1.553 L 12.378 0.415 L 11.754 0.831 Z M 10.201 0 L 10.201 0.75 C 10.574 0.75 10.923 0.937 11.13 1.247 L 11.754 0.831 L 12.378 0.415 C 11.893 -0.313 11.076 -0.75 10.201 -0.75 L 10.201 0 Z M 5.046 0.831 L 5.67 1.247 C 5.877 0.937 6.226 0.75 6.599 0.75 L 6.599 0 L 6.599 -0.75 C 5.724 -0.75 4.907 -0.313 4.422 0.415 L 5.046 0.831 Z M 14.066 2.8 L 14.066 2.05 C 13.692 2.05 13.344 1.863 13.137 1.553 L 12.513 1.969 L 11.888 2.385 C 12.374 3.113 13.191 3.55 14.066 3.55 L 14.066 2.8 Z M 2.734 2.8 L 2.734 3.55 C 3.609 3.55 4.426 3.113 4.912 2.385 L 4.287 1.969 L 3.663 1.553 C 3.456 1.863 3.108 2.05 2.734 2.05 L 2.734 2.8 Z M 1.867 14.933 L 1.867 14.183 C 1.25 14.183 0.75 13.683 0.75 13.067 L 0 13.067 L -0.75 13.067 C -0.75 14.512 0.422 15.683 1.867 15.683 L 1.867 14.933 Z M 16.8 13.067 L 16.05 13.067 C 16.05 13.683 15.55 14.183 14.933 14.183 L 14.933 14.933 L 14.933 15.683 C 16.378 15.683 17.55 14.512 17.55 13.067 L 16.8 13.067 Z M 16.8 4.667 L 17.55 4.667 C 17.55 3.222 16.378 2.05 14.933 2.05 L 14.933 2.8 L 14.933 3.55 C 15.55 3.55 16.05 4.05 16.05 4.667 L 16.8 4.667 Z M 0 4.667 L 0.75 4.667 C 0.75 4.05 1.25 3.55 1.867 3.55 L 1.867 2.8 L 1.867 2.05 C 0.422 2.05 -0.75 3.222 -0.75 4.667 L 0 4.667 Z M 11.2 8.4 L 10.45 8.4 C 10.45 9.532 9.532 10.45 8.4 10.45 L 8.4 11.2 L 8.4 11.95 C 10.361 11.95 11.95 10.361 11.95 8.4 L 11.2 8.4 Z M 8.4 11.2 L 8.4 10.45 C 7.268 10.45 6.35 9.532 6.35 8.4 L 5.6 8.4 L 4.85 8.4 C 4.85 10.361 6.439 11.95 8.4 11.95 L 8.4 11.2 Z M 5.6 8.4 L 6.35 8.4 C 6.35 7.268 7.268 6.35 8.4 6.35 L 8.4 5.6 L 8.4 4.85 C 6.439 4.85 4.85 6.439 4.85 8.4 L 5.6 8.4 Z M 8.4 5.6 L 8.4 6.35 C 9.532 6.35 10.45 7.268 10.45 8.4 L 11.2 8.4 L 11.95 8.4 C 11.95 6.439 10.361 4.85 8.4 4.85 L 8.4 5.6 Z" fill="currentColor" fill-rule="nonzero"></path></g>
</svg>