<svg xmlns="http://www.w3.org/2000/svg" width="24" height="24" viewBox="0 0 24 24" fill="none">
  <g transform="translate(2.000 4.222) scale(1.19048) translate(0.000 0.000)"><path d="M 12.317 3.733 C 12.317 4.148 12.652 4.483 13.067 4.483 C 13.481 4.483 13.817 4.148 13.817 3.733 L 13.067 3.733 L 12.317 3.733 Z M 3.733 10.083 C 4.148 10.083 4.483 9.748 4.483 9.333 C 4.483 8.919 4.148 8.583 3.733 8.583 L 3.733 9.333 L 3.733 10.083 Z M 5.6 3.733 L 5.6 4.483 L 14.933 4.483 L 14.933 3.733 L 14.933 2.983 L 5.6 2.983 L 5.6 3.733 Z M 16.8 5.6 L 16.05 5.6 L 16.05 11.2 L 16.8 11.2 L 17.55 11.2 L 17.55 5.6 L 16.8 5.6 Z M 14.933 13.067 L 14.933 12.317 L 5.6 12.317 L 5.6 13.067 L 5.6 13.817 L 14.933 13.817 L 14.933 13.067 Z M 3.733 11.2 L 4.483 11.2 L 4.483 5.6 L 3.733 5.6 L 2.983 5.6 L 2.983 11.2 L 3.733 11.2 Z M 5.6 13.067 L 5.6 12.317 C 4.983 12.317 4.483 11.817 4.483 11.2 L 3.733 11.2 L 2.983 11.2 C 2.983 12.645 4.155 13.817 5.6 13.817 L 5.6 13.067 Z M 16.8 11.2 L 16.05 11.2 C 16.05 11.817 15.55 12.317 14.933 12.317 L 14.933 13.067 L 14.933 13.817 C 16.378 13.817 17.55 12.645 17.55 11.2 L 16.8 11.2 Z M 14.933 3.733 L 14.933 4.483 C 15.55 4.483 16.05 4.983 16.05 5.6 L 16.8 5.6 L 17.55 5.6 C 17.55 4.155 16.378 2.983 14.933 2.983 L 14.933 3.733 Z M 5.6 3.733 L 5.6 2.983 C 4.155 2.983 2.983 4.155 2.983 5.6 L 3.733 5.6 L 4.483 5.6 C 4.483 4.983 4.983 4.483 5.6 4.483 L 5.6 3.733 Z M 1.867 0 L 1.867 0.75 L 11.2 0.75 L 11.2 0 L 11.2 -0.75 L 1.867 -0.75 L 1.867 0 Z M 0 7.467 L 0.75 7.467 L 0.75 1.867 L 0 1.867 L -0.75 1.867 L -0.75 7.467 L 0 7.467 Z M 1.867 9.333 L 1.867 8.583 C 1.25 8.583 0.75 8.083 0.75 7.467 L 0 7.467 L -0.75 7.467 C -0.75 8.912 0.422 10.083 1.867 10.083 L 1.867 9.333 Z M 11.2 0 L 11.2 0.75 C 11.817 0.75 12.317 1.25 12.317 1.867 L 13.067 1.867 L 13.817 1.867 C 13.817 0.422 12.645 -0.75 11.2 -0.75 L 11.2 0 Z M 1.867 0 L 1.867 -0.75 C 0.422 -0.75 -0.75 0.422 -0.75 1.867 L 0 1.867 L 0.75 1.867 C 0.75 1.25 1.25 0.75 1.867 0.75 L 1.867 0 Z M 13.067 1.867 L 12.317 1.867 L 12.317 3.733 L 13.067 3.733 L 13.817 3.733 L 13.817 1.867 L 13.067 1.867 Z M 3.733 9.333 L 3.733 8.583 L 1.867 8.583 L 1.867 9.333 L 1.867 10.083 L 3.733 10.083 L 3.733 9.333 Z M 12.133 8.4 L 11.383 8.4 C 11.383 9.017 10.883 9.517 10.267 9.517 L 10.267 10.267 L 10.267 11.017 C 11.712 11.017 12.883 9.845 12.883 8.4 L 12.133 8.4 Z M 10.267 10.267 L 10.267 9.517 C 9.65 9.517 9.15 9.017 9.15 8.4 L 8.4 8.4 L 7.65 8.4 C 7.65 9.845 8.822 11.017 10.267 11.017 L 10.267 10.267 Z M 8.4 8.4 L 9.15 8.4 C 9.15 7.783 9.65 7.283 10.267 7.283 L 10.267 6.533 L 10.267 5.783 C 8.822 5.783 7.65 6.955 7.65 8.4 L 8.4 8.4 Z M 10.267 6.533 L 10.267 7.283 C 10.883 7.283 11.383 7.783 11.383 8.4 L 12.133 8.4 L 12.883 8.4 C 12.883 6.955 11.712 5.783 10.267 5.783 L 10.267 6.533 Z" fill="currentColor" fill-rule="nonzero"></path></g>
</svg>