<svg xmlns="http://www.w3.org/2000/svg" width="24" height="24" viewBox="0 0 24 24" fill="none">
  <g transform="translate(2.000 2.000) scale(1.19048) translate(0.000 0.000)"><path d="M 7.49 0 L 8.24 0 C 8.24 -0.213 8.149 -0.416 7.99 -0.559 C 7.831 -0.701 7.619 -0.769 7.407 -0.745 L 7.49 0 Z M 16.8 9.31 L 17.545 9.393 C 17.569 9.181 17.501 8.969 17.359 8.81 C 17.216 8.651 17.013 8.56 16.8 8.56 L 16.8 9.31 Z M 7.49 9.31 L 6.74 9.31 C 6.74 9.725 7.075 10.06 7.49 10.06 L 7.49 9.31 Z M 16.372 5.566 L 16.372 6.316 C 16.615 6.316 16.844 6.198 16.984 5.999 C 17.125 5.8 17.16 5.545 17.079 5.316 L 16.372 5.566 Z M 11.234 5.566 L 10.484 5.566 C 10.484 5.98 10.82 6.316 11.234 6.316 L 11.234 5.566 Z M 11.234 0.428 L 11.484 -0.279 C 11.255 -0.36 11 -0.325 10.801 -0.184 C 10.602 -0.044 10.484 0.185 10.484 0.428 L 11.234 0.428 Z M 0 8.374 L 0.75 8.374 C 0.75 4.424 3.735 1.17 7.572 0.745 L 7.49 0 L 7.407 -0.745 C 2.819 -0.238 -0.75 3.651 -0.75 8.374 L 0 8.374 Z M 8.426 16.8 L 8.426 16.05 C 4.187 16.05 0.75 12.613 0.75 8.374 L 0 8.374 L -0.75 8.374 C -0.75 13.442 3.358 17.55 8.426 17.55 L 8.426 16.8 Z M 16.8 9.31 L 16.055 9.228 C 15.63 13.065 12.376 16.05 8.426 16.05 L 8.426 16.8 L 8.426 17.55 C 13.149 17.55 17.038 13.981 17.545 9.393 L 16.8 9.31 Z M 16.8 9.31 L 16.8 8.56 L 7.49 8.56 L 7.49 9.31 L 7.49 10.06 L 16.8 10.06 L 16.8 9.31 Z M 7.49 9.31 L 8.24 9.31 L 8.24 0 L 7.49 0 L 6.74 0 L 6.74 9.31 L 7.49 9.31 Z M 16.372 5.566 L 16.372 4.816 L 11.234 4.816 L 11.234 5.566 L 11.234 6.316 L 16.372 6.316 L 16.372 5.566 Z M 11.234 5.566 L 11.984 5.566 L 11.984 0.428 L 11.234 0.428 L 10.484 0.428 L 10.484 5.566 L 11.234 5.566 Z M 11.234 0.428 L 10.984 1.135 C 13.165 1.906 14.894 3.635 15.665 5.816 L 16.372 5.566 L 17.079 5.316 C 16.157 2.708 14.092 0.643 11.484 -0.279 L 11.234 0.428 Z" fill="currentColor" fill-rule="nonzero"></path></g>
</svg>