<svg xmlns="http://www.w3.org/2000/svg" width="24" height="24" viewBox="0 0 24 24" fill="none">
  <g transform="translate(2.000 2.000) scale(1.19048) translate(0.000 0.000)"><path d="M 13.35 4.2 C 13.35 3.786 13.014 3.45 12.6 3.45 C 12.186 3.45 11.85 3.786 11.85 4.2 L 12.6 4.2 L 13.35 4.2 Z M 11.85 12.6 C 11.85 13.014 12.186 13.35 12.6 13.35 C 13.014 13.35 13.35 13.014 13.35 12.6 L 12.6 12.6 L 11.85 12.6 Z M 9.15 7.35 C 9.15 6.936 8.814 6.6 8.4 6.6 C 7.986 6.6 7.65 6.936 7.65 7.35 L 8.4 7.35 L 9.15 7.35 Z M 7.65 12.6 C 7.65 13.014 7.986 13.35 8.4 13.35 C 8.814 13.35 9.15 13.014 9.15 12.6 L 8.4 12.6 L 7.65 12.6 Z M 4.95 10.5 C 4.95 10.086 4.614 9.75 4.2 9.75 C 3.786 9.75 3.45 10.086 3.45 10.5 L 4.2 10.5 L 4.95 10.5 Z M 3.45 12.6 C 3.45 13.014 3.786 13.35 4.2 13.35 C 4.614 13.35 4.95 13.014 4.95 12.6 L 4.2 12.6 L 3.45 12.6 Z M 2.1 0 L 2.1 0.75 L 14.7 0.75 L 14.7 0 L 14.7 -0.75 L 2.1 -0.75 L 2.1 0 Z M 16.8 2.1 L 16.05 2.1 L 16.05 14.7 L 16.8 14.7 L 17.55 14.7 L 17.55 2.1 L 16.8 2.1 Z M 14.7 16.8 L 14.7 16.05 L 2.1 16.05 L 2.1 16.8 L 2.1 17.55 L 14.7 17.55 L 14.7 16.8 Z M 0 14.7 L 0.75 14.7 L 0.75 2.1 L 0 2.1 L -0.75 2.1 L -0.75 14.7 L 0 14.7 Z M 2.1 16.8 L 2.1 16.05 C 1.354 16.05 0.75 15.446 0.75 14.7 L 0 14.7 L -0.75 14.7 C -0.75 16.274 0.526 17.55 2.1 17.55 L 2.1 16.8 Z M 16.8 14.7 L 16.05 14.7 C 16.05 15.446 15.446 16.05 14.7 16.05 L 14.7 16.8 L 14.7 17.55 C 16.274 17.55 17.55 16.274 17.55 14.7 L 16.8 14.7 Z M 14.7 0 L 14.7 0.75 C 15.446 0.75 16.05 1.354 16.05 2.1 L 16.8 2.1 L 17.55 2.1 C 17.55 0.526 16.274 -0.75 14.7 -0.75 L 14.7 0 Z M 2.1 0 L 2.1 -0.75 C 0.526 -0.75 -0.75 0.526 -0.75 2.1 L 0 2.1 L 0.75 2.1 C 0.75 1.354 1.354 0.75 2.1 0.75 L 2.1 0 Z M 12.6 4.2 L 11.85 4.2 L 11.85 12.6 L 12.6 12.6 L 13.35 12.6 L 13.35 4.2 L 12.6 4.2 Z M 8.4 7.35 L 7.65 7.35 L 7.65 12.6 L 8.4 12.6 L 9.15 12.6 L 9.15 7.35 L 8.4 7.35 Z M 4.2 10.5 L 3.45 10.5 L 3.45 12.6 L 4.2 12.6 L 4.95 12.6 L 4.95 10.5 L 4.2 10.5 Z" fill="currentColor" fill-rule="nonzero"></path></g>
</svg>