<svg xmlns="http://www.w3.org/2000/svg" width="24" height="24" viewBox="0 0 24 24" fill="none">
  <g transform="translate(2.000 2.000) scale(1.19048) translate(0.000 0.000)"><path d="M 1.867 7.467 L 1.867 8.217 L 3.733 8.217 L 3.733 7.467 L 3.733 6.717 L 1.867 6.717 L 1.867 7.467 Z M 5.6 9.333 L 4.85 9.333 L 4.85 14.933 L 5.6 14.933 L 6.35 14.933 L 6.35 9.333 L 5.6 9.333 Z M 3.733 16.8 L 3.733 16.05 L 1.867 16.05 L 1.867 16.8 L 1.867 17.55 L 3.733 17.55 L 3.733 16.8 Z M 0 14.933 L 0.75 14.933 L 0.75 9.333 L 0 9.333 L -0.75 9.333 L -0.75 14.933 L 0 14.933 Z M 1.867 16.8 L 1.867 16.05 C 1.25 16.05 0.75 15.55 0.75 14.933 L 0 14.933 L -0.75 14.933 C -0.75 16.378 0.422 17.55 1.867 17.55 L 1.867 16.8 Z M 5.6 14.933 L 4.85 14.933 C 4.85 15.55 4.35 16.05 3.733 16.05 L 3.733 16.8 L 3.733 17.55 C 5.178 17.55 6.35 16.378 6.35 14.933 L 5.6 14.933 Z M 3.733 7.467 L 3.733 8.217 C 4.35 8.217 4.85 8.717 4.85 9.333 L 5.6 9.333 L 6.35 9.333 C 6.35 7.888 5.178 6.717 3.733 6.717 L 3.733 7.467 Z M 1.867 7.467 L 1.867 6.717 C 0.422 6.717 -0.75 7.888 -0.75 9.333 L 0 9.333 L 0.75 9.333 C 0.75 8.717 1.25 8.217 1.867 8.217 L 1.867 7.467 Z M 7.467 3.733 L 7.467 4.483 L 9.333 4.483 L 9.333 3.733 L 9.333 2.983 L 7.467 2.983 L 7.467 3.733 Z M 11.2 5.6 L 10.45 5.6 L 10.45 14.933 L 11.2 14.933 L 11.95 14.933 L 11.95 5.6 L 11.2 5.6 Z M 9.333 16.8 L 9.333 16.05 L 7.467 16.05 L 7.467 16.8 L 7.467 17.55 L 9.333 17.55 L 9.333 16.8 Z M 5.6 14.933 L 6.35 14.933 L 6.35 5.6 L 5.6 5.6 L 4.85 5.6 L 4.85 14.933 L 5.6 14.933 Z M 7.467 16.8 L 7.467 16.05 C 6.85 16.05 6.35 15.55 6.35 14.933 L 5.6 14.933 L 4.85 14.933 C 4.85 16.378 6.022 17.55 7.467 17.55 L 7.467 16.8 Z M 11.2 14.933 L 10.45 14.933 C 10.45 15.55 9.95 16.05 9.333 16.05 L 9.333 16.8 L 9.333 17.55 C 10.778 17.55 11.95 16.378 11.95 14.933 L 11.2 14.933 Z M 9.333 3.733 L 9.333 4.483 C 9.95 4.483 10.45 4.983 10.45 5.6 L 11.2 5.6 L 11.95 5.6 C 11.95 4.155 10.778 2.983 9.333 2.983 L 9.333 3.733 Z M 7.467 3.733 L 7.467 2.983 C 6.022 2.983 4.85 4.155 4.85 5.6 L 5.6 5.6 L 6.35 5.6 C 6.35 4.983 6.85 4.483 7.467 4.483 L 7.467 3.733 Z M 13.067 0 L 13.067 0.75 L 14.933 0.75 L 14.933 0 L 14.933 -0.75 L 13.067 -0.75 L 13.067 0 Z M 16.8 1.867 L 16.05 1.867 L 16.05 14.933 L 16.8 14.933 L 17.55 14.933 L 17.55 1.867 L 16.8 1.867 Z M 14.933 16.8 L 14.933 16.05 L 13.067 16.05 L 13.067 16.8 L 13.067 17.55 L 14.933 17.55 L 14.933 16.8 Z M 11.2 14.933 L 11.95 14.933 L 11.95 1.867 L 11.2 1.867 L 10.45 1.867 L 10.45 14.933 L 11.2 14.933 Z M 13.067 16.8 L 13.067 16.05 C 12.45 16.05 11.95 15.55 11.95 14.933 L 11.2 14.933 L 10.45 14.933 C 10.45 16.378 11.622 17.55 13.067 17.55 L 13.067 16.8 Z M 16.8 14.933 L 16.05 14.933 C 16.05 15.55 15.55 16.05 14.933 16.05 L 14.933 16.8 L 14.933 17.55 C 16.378 17.55 17.55 16.378 17.55 14.933 L 16.8 14.933 Z M 14.933 0 L 14.933 0.75 C 15.55 0.75 16.05 1.25 16.05 1.867 L 16.8 1.867 L 17.55 1.867 C 17.55 0.422 16.378 -0.75 14.933 -0.75 L 14.933 0 Z M 13.067 0 L 13.067 -0.75 C 11.622 -0.75 10.45 0.422 10.45 1.867 L 11.2 1.867 L 11.95 1.867 C 11.95 1.25 12.45 0.75 13.067 0.75 L 13.067 0 Z" fill="currentColor" fill-rule="nonzero"></path></g>
</svg>