<svg xmlns="http://www.w3.org/2000/svg" width="24" height="24" viewBox="0 0 24 24" fill="none">
  <g transform="translate(2.000 3.111) scale(1.19048) translate(0.000 0.000)"><path d="M 1.302 11.461 L 2.004 11.725 C 2.092 11.491 2.057 11.229 1.912 11.026 L 1.302 11.461 Z M 0 14.933 L -0.702 14.67 C -0.798 14.925 -0.748 15.212 -0.571 15.419 C -0.395 15.627 -0.12 15.722 0.147 15.669 L 0 14.933 Z M 4.428 14.048 L 4.752 13.371 C 4.605 13.301 4.44 13.28 4.281 13.312 L 4.428 14.048 Z M 4.667 6.717 C 4.252 6.717 3.917 7.052 3.917 7.467 C 3.917 7.881 4.252 8.217 4.667 8.217 L 4.667 7.467 L 4.667 6.717 Z M 4.676 8.217 C 5.09 8.217 5.426 7.881 5.426 7.467 C 5.426 7.052 5.09 6.717 4.676 6.717 L 4.676 7.467 L 4.676 8.217 Z M 8.4 6.717 C 7.986 6.717 7.65 7.052 7.65 7.467 C 7.65 7.881 7.986 8.217 8.4 8.217 L 8.4 7.467 L 8.4 6.717 Z M 8.409 8.217 C 8.824 8.217 9.159 7.881 9.159 7.467 C 9.159 7.052 8.824 6.717 8.409 6.717 L 8.409 7.467 L 8.409 8.217 Z M 12.133 6.717 C 11.719 6.717 11.383 7.052 11.383 7.467 C 11.383 7.881 11.719 8.217 12.133 8.217 L 12.133 7.467 L 12.133 6.717 Z M 12.143 8.217 C 12.557 8.217 12.893 7.881 12.893 7.467 C 12.893 7.052 12.557 6.717 12.143 6.717 L 12.143 7.467 L 12.143 8.217 Z M 16.8 7.467 L 16.05 7.467 C 16.05 11.096 12.71 14.183 8.4 14.183 L 8.4 14.933 L 8.4 15.683 C 13.368 15.683 17.55 12.085 17.55 7.467 L 16.8 7.467 Z M 8.4 0 L 8.4 0.75 C 12.71 0.75 16.05 3.838 16.05 7.467 L 16.8 7.467 L 17.55 7.467 C 17.55 2.848 13.368 -0.75 8.4 -0.75 L 8.4 0 Z M 0 7.467 L 0.75 7.467 C 0.75 3.838 4.09 0.75 8.4 0.75 L 8.4 0 L 8.4 -0.75 C 3.432 -0.75 -0.75 2.848 -0.75 7.467 L 0 7.467 Z M 1.302 11.461 L 1.912 11.026 C 1.172 9.989 0.75 8.769 0.75 7.467 L 0 7.467 L -0.75 7.467 C -0.75 9.103 -0.217 10.624 0.692 11.897 L 1.302 11.461 Z M 0 14.933 L 0.702 15.197 L 2.004 11.725 L 1.302 11.461 L 0.6 11.198 L -0.702 14.67 L 0 14.933 Z M 4.428 14.048 L 4.281 13.312 L -0.147 14.198 L 0 14.933 L 0.147 15.669 L 4.575 14.783 L 4.428 14.048 Z M 8.4 14.933 L 8.4 14.183 C 7.075 14.183 5.833 13.888 4.752 13.371 L 4.428 14.048 L 4.105 14.724 C 5.389 15.338 6.852 15.683 8.4 15.683 L 8.4 14.933 Z M 4.667 7.467 L 4.667 8.217 L 4.676 8.217 L 4.676 7.467 L 4.676 6.717 L 4.667 6.717 L 4.667 7.467 Z M 8.4 7.467 L 8.4 8.217 L 8.409 8.217 L 8.409 7.467 L 8.409 6.717 L 8.4 6.717 L 8.4 7.467 Z M 12.133 7.467 L 12.133 8.217 L 12.143 8.217 L 12.143 7.467 L 12.143 6.717 L 12.133 6.717 L 12.133 7.467 Z" fill="currentColor" fill-rule="nonzero"></path></g>
</svg>