<svg xmlns="http://www.w3.org/2000/svg" width="24" height="24" viewBox="0 0 24 24" fill="none">
  <g transform="translate(2.000 2.555) scale(1.19048) translate(0.000 0.000)"><path d="M 5.6 11.2 L 6.35 11.2 C 6.35 10.786 6.014 10.45 5.6 10.45 L 5.6 11.2 Z M 5.6 15.867 L 4.85 15.867 C 4.85 16.17 5.033 16.443 5.313 16.56 C 5.593 16.676 5.916 16.611 6.13 16.397 L 5.6 15.867 Z M 10.267 11.2 L 10.267 10.45 C 10.068 10.45 9.877 10.529 9.736 10.67 L 10.267 11.2 Z M 4.667 4.85 C 4.252 4.85 3.917 5.186 3.917 5.6 C 3.917 6.014 4.252 6.35 4.667 6.35 L 4.667 5.6 L 4.667 4.85 Z M 4.676 6.35 C 5.09 6.35 5.426 6.014 5.426 5.6 C 5.426 5.186 5.09 4.85 4.676 4.85 L 4.676 5.6 L 4.676 6.35 Z M 8.4 4.85 C 7.986 4.85 7.65 5.186 7.65 5.6 C 7.65 6.014 7.986 6.35 8.4 6.35 L 8.4 5.6 L 8.4 4.85 Z M 8.409 6.35 C 8.824 6.35 9.159 6.014 9.159 5.6 C 9.159 5.186 8.824 4.85 8.409 4.85 L 8.409 5.6 L 8.409 6.35 Z M 12.133 4.85 C 11.719 4.85 11.383 5.186 11.383 5.6 C 11.383 6.014 11.719 6.35 12.133 6.35 L 12.133 5.6 L 12.133 4.85 Z M 12.143 6.35 C 12.557 6.35 12.893 6.014 12.893 5.6 C 12.893 5.186 12.557 4.85 12.143 4.85 L 12.143 5.6 L 12.143 6.35 Z M 1.867 0 L 1.867 0.75 L 14.933 0.75 L 14.933 0 L 14.933 -0.75 L 1.867 -0.75 L 1.867 0 Z M 16.8 1.867 L 16.05 1.867 L 16.05 9.333 L 16.8 9.333 L 17.55 9.333 L 17.55 1.867 L 16.8 1.867 Z M 0 9.333 L 0.75 9.333 L 0.75 1.867 L 0 1.867 L -0.75 1.867 L -0.75 9.333 L 0 9.333 Z M 5.6 11.2 L 5.6 10.45 L 1.867 10.45 L 1.867 11.2 L 1.867 11.95 L 5.6 11.95 L 5.6 11.2 Z M 5.6 15.867 L 6.35 15.867 L 6.35 11.2 L 5.6 11.2 L 4.85 11.2 L 4.85 15.867 L 5.6 15.867 Z M 14.933 11.2 L 14.933 10.45 L 10.267 10.45 L 10.267 11.2 L 10.267 11.95 L 14.933 11.95 L 14.933 11.2 Z M 10.267 11.2 L 9.736 10.67 L 5.07 15.336 L 5.6 15.867 L 6.13 16.397 L 10.797 11.73 L 10.267 11.2 Z M 0 9.333 L -0.75 9.333 C -0.75 10.778 0.422 11.95 1.867 11.95 L 1.867 11.2 L 1.867 10.45 C 1.25 10.45 0.75 9.95 0.75 9.333 L 0 9.333 Z M 16.8 9.333 L 16.05 9.333 C 16.05 9.95 15.55 10.45 14.933 10.45 L 14.933 11.2 L 14.933 11.95 C 16.378 11.95 17.55 10.778 17.55 9.333 L 16.8 9.333 Z M 14.933 0 L 14.933 0.75 C 15.55 0.75 16.05 1.25 16.05 1.867 L 16.8 1.867 L 17.55 1.867 C 17.55 0.422 16.378 -0.75 14.933 -0.75 L 14.933 0 Z M 1.867 0 L 1.867 -0.75 C 0.422 -0.75 -0.75 0.422 -0.75 1.867 L 0 1.867 L 0.75 1.867 C 0.75 1.25 1.25 0.75 1.867 0.75 L 1.867 0 Z M 4.667 5.6 L 4.667 6.35 L 4.676 6.35 L 4.676 5.6 L 4.676 4.85 L 4.667 4.85 L 4.667 5.6 Z M 8.4 5.6 L 8.4 6.35 L 8.409 6.35 L 8.409 5.6 L 8.409 4.85 L 8.4 4.85 L 8.4 5.6 Z M 12.133 5.6 L 12.133 6.35 L 12.143 6.35 L 12.143 5.6 L 12.143 4.85 L 12.133 4.85 L 12.133 5.6 Z" fill="currentColor" fill-rule="nonzero"></path></g>
</svg>