<svg xmlns="http://www.w3.org/2000/svg" width="24" height="24" viewBox="0 0 24 24" fill="none">
  <g transform="translate(2.000 2.000) scale(1.19048) translate(0.000 0.000)"><path d="M 6.13 7.87 C 5.837 7.577 5.363 7.577 5.07 7.87 C 4.777 8.163 4.777 8.637 5.07 8.93 L 5.6 8.4 L 6.13 7.87 Z M 7.467 10.267 L 6.936 10.797 C 7.077 10.938 7.268 11.017 7.467 11.017 C 7.666 11.017 7.856 10.938 7.997 10.797 L 7.467 10.267 Z M 11.73 7.064 C 12.023 6.771 12.023 6.296 11.73 6.003 C 11.437 5.71 10.963 5.71 10.67 6.003 L 11.2 6.533 L 11.73 7.064 Z M 16.8 8.4 L 16.05 8.4 C 16.05 12.625 12.625 16.05 8.4 16.05 L 8.4 16.8 L 8.4 17.55 C 13.453 17.55 17.55 13.453 17.55 8.4 L 16.8 8.4 Z M 8.4 16.8 L 8.4 16.05 C 4.175 16.05 0.75 12.625 0.75 8.4 L 0 8.4 L -0.75 8.4 C -0.75 13.453 3.347 17.55 8.4 17.55 L 8.4 16.8 Z M 0 8.4 L 0.75 8.4 C 0.75 4.175 4.175 0.75 8.4 0.75 L 8.4 0 L 8.4 -0.75 C 3.347 -0.75 -0.75 3.347 -0.75 8.4 L 0 8.4 Z M 8.4 0 L 8.4 0.75 C 12.625 0.75 16.05 4.175 16.05 8.4 L 16.8 8.4 L 17.55 8.4 C 17.55 3.347 13.453 -0.75 8.4 -0.75 L 8.4 0 Z M 5.6 8.4 L 5.07 8.93 L 6.936 10.797 L 7.467 10.267 L 7.997 9.736 L 6.13 7.87 L 5.6 8.4 Z M 7.467 10.267 L 7.997 10.797 L 11.73 7.064 L 11.2 6.533 L 10.67 6.003 L 6.936 9.736 L 7.467 10.267 Z" fill="currentColor" fill-rule="nonzero"></path></g>
</svg>