<svg xmlns="http://www.w3.org/2000/svg" width="24" height="24" viewBox="0 0 24 24" fill="none">
  <g transform="translate(4.222 2.000) scale(1.19048) translate(0.000 0.000)"><path d="M 13.067 3.733 L 12.317 3.733 L 12.317 14.933 L 13.067 14.933 L 13.817 14.933 L 13.817 3.733 L 13.067 3.733 Z M 11.2 16.8 L 11.2 16.05 L 1.867 16.05 L 1.867 16.8 L 1.867 17.55 L 11.2 17.55 L 11.2 16.8 Z M 0 14.933 L 0.75 14.933 L 0.75 3.733 L 0 3.733 L -0.75 3.733 L -0.75 14.933 L 0 14.933 Z M 1.867 1.867 L 1.867 2.617 L 3.733 2.617 L 3.733 1.867 L 3.733 1.117 L 1.867 1.117 L 1.867 1.867 Z M 9.333 1.867 L 9.333 2.617 L 11.2 2.617 L 11.2 1.867 L 11.2 1.117 L 9.333 1.117 L 9.333 1.867 Z M 1.867 16.8 L 1.867 16.05 C 1.25 16.05 0.75 15.55 0.75 14.933 L 0 14.933 L -0.75 14.933 C -0.75 16.378 0.422 17.55 1.867 17.55 L 1.867 16.8 Z M 13.067 14.933 L 12.317 14.933 C 12.317 15.55 11.817 16.05 11.2 16.05 L 11.2 16.8 L 11.2 17.55 C 12.645 17.55 13.817 16.378 13.817 14.933 L 13.067 14.933 Z M 13.067 3.733 L 13.817 3.733 C 13.817 2.288 12.645 1.117 11.2 1.117 L 11.2 1.867 L 11.2 2.617 C 11.817 2.617 12.317 3.117 12.317 3.733 L 13.067 3.733 Z M 0 3.733 L 0.75 3.733 C 0.75 3.117 1.25 2.617 1.867 2.617 L 1.867 1.867 L 1.867 1.117 C 0.422 1.117 -0.75 2.288 -0.75 3.733 L 0 3.733 Z M 5.6 0 L 5.6 0.75 L 7.467 0.75 L 7.467 0 L 7.467 -0.75 L 5.6 -0.75 L 5.6 0 Z M 7.467 3.733 L 7.467 2.983 L 5.6 2.983 L 5.6 3.733 L 5.6 4.483 L 7.467 4.483 L 7.467 3.733 Z M 5.6 3.733 L 5.6 2.983 C 4.983 2.983 4.483 2.483 4.483 1.867 L 3.733 1.867 L 2.983 1.867 C 2.983 3.312 4.155 4.483 5.6 4.483 L 5.6 3.733 Z M 9.333 1.867 L 8.583 1.867 C 8.583 2.483 8.083 2.983 7.467 2.983 L 7.467 3.733 L 7.467 4.483 C 8.912 4.483 10.083 3.312 10.083 1.867 L 9.333 1.867 Z M 7.467 0 L 7.467 0.75 C 8.083 0.75 8.583 1.25 8.583 1.867 L 9.333 1.867 L 10.083 1.867 C 10.083 0.422 8.912 -0.75 7.467 -0.75 L 7.467 0 Z M 5.6 0 L 5.6 -0.75 C 4.155 -0.75 2.983 0.422 2.983 1.867 L 3.733 1.867 L 4.483 1.867 C 4.483 1.25 4.983 0.75 5.6 0.75 L 5.6 0 Z" fill="currentColor" fill-rule="nonzero"></path></g>
</svg>