<svg xmlns="http://www.w3.org/2000/svg" width="24" height="24" viewBox="0 0 24 24" fill="none">
  <g transform="translate(2.000 2.000) scale(1.19048) translate(0.000 0.000)"><path d="M 9.15 4.667 C 9.15 4.252 8.814 3.917 8.4 3.917 C 7.986 3.917 7.65 4.252 7.65 4.667 L 8.4 4.667 L 9.15 4.667 Z M 8.4 8.4 L 7.65 8.4 C 7.65 8.599 7.729 8.79 7.87 8.93 L 8.4 8.4 Z M 10.67 11.73 C 10.963 12.023 11.437 12.023 11.73 11.73 C 12.023 11.437 12.023 10.963 11.73 10.67 L 11.2 11.2 L 10.67 11.73 Z M 16.8 8.4 L 16.05 8.4 C 16.05 12.625 12.625 16.05 8.4 16.05 L 8.4 16.8 L 8.4 17.55 C 13.453 17.55 17.55 13.453 17.55 8.4 L 16.8 8.4 Z M 8.4 16.8 L 8.4 16.05 C 4.175 16.05 0.75 12.625 0.75 8.4 L 0 8.4 L -0.75 8.4 C -0.75 13.453 3.347 17.55 8.4 17.55 L 8.4 16.8 Z M 0 8.4 L 0.75 8.4 C 0.75 4.175 4.175 0.75 8.4 0.75 L 8.4 0 L 8.4 -0.75 C 3.347 -0.75 -0.75 3.347 -0.75 8.4 L 0 8.4 Z M 8.4 0 L 8.4 0.75 C 12.625 0.75 16.05 4.175 16.05 8.4 L 16.8 8.4 L 17.55 8.4 C 17.55 3.347 13.453 -0.75 8.4 -0.75 L 8.4 0 Z M 8.4 4.667 L 7.65 4.667 L 7.65 8.4 L 8.4 8.4 L 9.15 8.4 L 9.15 4.667 L 8.4 4.667 Z M 8.4 8.4 L 7.87 8.93 L 10.67 11.73 L 11.2 11.2 L 11.73 10.67 L 8.93 7.87 L 8.4 8.4 Z" fill="currentColor" fill-rule="nonzero"></path></g>
</svg>