<svg xmlns="http://www.w3.org/2000/svg" width="24" height="24" viewBox="0 0 24 24" fill="none">
  <g transform="translate(2.000 4.000) scale(1.19048) translate(0.000 0.000)"><path d="M 5.992 13.258 C 5.892 13.66 6.136 14.067 6.538 14.168 C 6.94 14.268 7.347 14.024 7.448 13.622 L 6.72 13.44 L 5.992 13.258 Z M 10.808 0.182 C 10.908 -0.22 10.664 -0.627 10.262 -0.728 C 9.86 -0.828 9.453 -0.584 9.352 -0.182 L 10.08 0 L 10.808 0.182 Z M 13.97 2.83 C 13.677 2.537 13.203 2.537 12.91 2.83 C 12.617 3.123 12.617 3.597 12.91 3.89 L 13.44 3.36 L 13.97 2.83 Z M 16.8 6.72 L 17.33 7.25 C 17.623 6.957 17.623 6.483 17.33 6.19 L 16.8 6.72 Z M 12.91 9.55 C 12.617 9.843 12.617 10.317 12.91 10.61 C 13.203 10.903 13.677 10.903 13.97 10.61 L 13.44 10.08 L 12.91 9.55 Z M 2.83 10.61 C 3.123 10.903 3.597 10.903 3.89 10.61 C 4.183 10.317 4.183 9.843 3.89 9.55 L 3.36 10.08 L 2.83 10.61 Z M 0 6.72 L -0.53 6.19 C -0.823 6.483 -0.823 6.957 -0.53 7.25 L 0 6.72 Z M 3.89 3.89 C 4.183 3.597 4.183 3.123 3.89 2.83 C 3.597 2.537 3.123 2.537 2.83 2.83 L 3.36 3.36 L 3.89 3.89 Z M 6.72 13.44 L 7.448 13.622 L 10.808 0.182 L 10.08 0 L 9.352 -0.182 L 5.992 13.258 L 6.72 13.44 Z M 13.44 3.36 L 12.91 3.89 L 16.27 7.25 L 16.8 6.72 L 17.33 6.19 L 13.97 2.83 L 13.44 3.36 Z M 16.8 6.72 L 16.27 6.19 L 12.91 9.55 L 13.44 10.08 L 13.97 10.61 L 17.33 7.25 L 16.8 6.72 Z M 3.36 10.08 L 3.89 9.55 L 0.53 6.19 L 0 6.72 L -0.53 7.25 L 2.83 10.61 L 3.36 10.08 Z M 0 6.72 L 0.53 7.25 L 3.89 3.89 L 3.36 3.36 L 2.83 2.83 L -0.53 6.19 L 0 6.72 Z" fill="currentColor" fill-rule="nonzero"></path></g>
</svg>