<svg xmlns="http://www.w3.org/2000/svg" width="24" height="24" viewBox="0 0 24 24" fill="none">
  <g transform="translate(2.000 2.000) scale(1.19048) translate(0.000 0.000)"><path d="M 4.435 2.224 L 4.826 1.584 L 4.826 1.584 L 4.435 2.224 Z M 6.836 1.229 L 6.107 1.053 L 6.836 1.229 Z M 2.224 4.435 L 1.584 4.826 L 1.584 4.826 L 2.224 4.435 Z M 1.229 6.836 L 1.053 6.107 L 1.229 6.836 Z M 1.229 9.964 L 1.406 9.235 L 1.406 9.235 L 1.229 9.964 Z M 2.224 12.365 L 1.584 11.974 L 1.584 11.974 L 2.224 12.365 Z M 4.435 14.576 L 4.826 15.216 L 4.826 15.216 L 4.435 14.576 Z M 6.836 15.571 L 7.565 15.394 L 6.836 15.571 Z M 9.964 15.571 L 10.693 15.747 L 10.693 15.747 L 9.964 15.571 Z M 12.365 14.576 L 11.974 15.216 L 11.974 15.216 L 12.365 14.576 Z M 14.576 12.365 L 15.216 11.974 L 15.216 11.974 L 14.576 12.365 Z M 15.571 9.964 L 15.747 10.693 L 15.747 10.693 L 15.571 9.964 Z M 15.571 6.836 L 15.394 7.565 L 15.571 6.836 Z M 14.576 4.435 L 15.216 4.826 L 15.216 4.826 L 14.576 4.435 Z M 12.365 2.224 L 11.974 1.584 L 11.974 1.584 L 12.365 2.224 Z M 9.964 1.229 L 9.235 1.406 L 9.235 1.406 L 9.964 1.229 Z M 4.435 2.224 L 4.045 2.864 C 5.409 3.696 7.188 2.959 7.565 1.406 L 6.836 1.229 L 6.107 1.053 C 5.97 1.618 5.322 1.886 4.826 1.584 L 4.435 2.224 Z M 2.224 4.435 L 2.864 4.045 C 2.396 3.276 3.276 2.396 4.045 2.864 L 4.435 2.224 L 4.826 1.584 C 2.714 0.297 0.297 2.714 1.584 4.826 L 2.224 4.435 Z M 1.229 6.836 L 1.406 7.565 C 2.959 7.188 3.696 5.409 2.864 4.045 L 2.224 4.435 L 1.584 4.826 C 1.886 5.322 1.618 5.97 1.053 6.107 L 1.229 6.836 Z M 1.229 9.964 L 1.406 9.235 C 0.531 9.022 0.531 7.778 1.406 7.565 L 1.229 6.836 L 1.053 6.107 C -1.351 6.691 -1.351 10.109 1.053 10.693 L 1.229 9.964 Z M 2.224 12.365 L 2.864 12.755 C 3.696 11.391 2.959 9.612 1.406 9.235 L 1.229 9.964 L 1.053 10.693 C 1.618 10.83 1.886 11.478 1.584 11.974 L 2.224 12.365 Z M 4.435 14.576 L 4.045 13.936 C 3.276 14.404 2.396 13.524 2.864 12.755 L 2.224 12.365 L 1.584 11.974 C 0.297 14.086 2.714 16.503 4.826 15.216 L 4.435 14.576 Z M 6.836 15.571 L 7.565 15.394 C 7.188 13.841 5.409 13.104 4.045 13.936 L 4.435 14.576 L 4.826 15.216 C 5.322 14.914 5.97 15.182 6.107 15.747 L 6.836 15.571 Z M 9.964 15.571 L 9.235 15.394 C 9.022 16.269 7.778 16.269 7.565 15.394 L 6.836 15.571 L 6.107 15.747 C 6.691 18.151 10.109 18.151 10.693 15.747 L 9.964 15.571 Z M 12.365 14.576 L 12.755 13.936 C 11.391 13.104 9.612 13.841 9.235 15.394 L 9.964 15.571 L 10.693 15.747 C 10.83 15.182 11.478 14.914 11.974 15.216 L 12.365 14.576 Z M 14.576 12.365 L 13.936 12.755 C 14.404 13.524 13.524 14.404 12.755 13.936 L 12.365 14.576 L 11.974 15.216 C 14.086 16.503 16.503 14.086 15.216 11.974 L 14.576 12.365 Z M 15.571 9.964 L 15.394 9.235 C 13.841 9.612 13.104 11.391 13.936 12.755 L 14.576 12.365 L 15.216 11.974 C 14.914 11.478 15.182 10.83 15.747 10.693 L 15.571 9.964 Z M 15.571 6.836 L 15.394 7.565 C 16.269 7.778 16.269 9.022 15.394 9.235 L 15.571 9.964 L 15.747 10.693 C 18.151 10.109 18.151 6.691 15.747 6.107 L 15.571 6.836 Z M 14.576 4.435 L 13.936 4.045 C 13.104 5.409 13.841 7.188 15.394 7.565 L 15.571 6.836 L 15.747 6.107 C 15.182 5.97 14.914 5.322 15.216 4.826 L 14.576 4.435 Z M 12.365 2.224 L 12.755 2.864 C 13.524 2.396 14.404 3.276 13.936 4.045 L 14.576 4.435 L 15.216 4.826 C 16.503 2.714 14.086 0.297 11.974 1.584 L 12.365 2.224 Z M 9.964 1.229 L 9.235 1.406 C 9.612 2.959 11.391 3.696 12.755 2.864 L 12.365 2.224 L 11.974 1.584 C 11.478 1.886 10.83 1.618 10.693 1.053 L 9.964 1.229 Z M 9.964 1.229 L 10.693 1.053 C 10.109 -1.351 6.691 -1.351 6.107 1.053 L 6.836 1.229 L 7.565 1.406 C 7.778 0.531 9.022 0.531 9.235 1.406 L 9.964 1.229 Z M 11.2 8.4 L 10.45 8.4 C 10.45 9.532 9.532 10.45 8.4 10.45 L 8.4 11.2 L 8.4 11.95 C 10.361 11.95 11.95 10.361 11.95 8.4 L 11.2 8.4 Z M 8.4 11.2 L 8.4 10.45 C 7.268 10.45 6.35 9.532 6.35 8.4 L 5.6 8.4 L 4.85 8.4 C 4.85 10.361 6.439 11.95 8.4 11.95 L 8.4 11.2 Z M 5.6 8.4 L 6.35 8.4 C 6.35 7.268 7.268 6.35 8.4 6.35 L 8.4 5.6 L 8.4 4.85 C 6.439 4.85 4.85 6.439 4.85 8.4 L 5.6 8.4 Z M 8.4 5.6 L 8.4 6.35 C 9.532 6.35 10.45 7.268 10.45 8.4 L 11.2 8.4 L 11.95 8.4 C 11.95 6.439 10.361 4.85 8.4 4.85 L 8.4 5.6 Z" fill="currentColor" fill-rule="nonzero"></path></g>
</svg>