<svg xmlns="http://www.w3.org/2000/svg" width="24" height="24" viewBox="0 0 24 24" fill="none">
  <g transform="translate(2.000 4.222) scale(1.19048) translate(0.000 0.000)"><path d="M 0 3.917 C -0.414 3.917 -0.75 4.252 -0.75 4.667 C -0.75 5.081 -0.414 5.417 0 5.417 L 0 4.667 L 0 3.917 Z M 16.8 5.417 C 17.214 5.417 17.55 5.081 17.55 4.667 C 17.55 4.252 17.214 3.917 16.8 3.917 L 16.8 4.667 L 16.8 5.417 Z M 3.733 8.583 C 3.319 8.583 2.983 8.919 2.983 9.333 C 2.983 9.748 3.319 10.083 3.733 10.083 L 3.733 9.333 L 3.733 8.583 Z M 4.667 10.083 C 5.081 10.083 5.417 9.748 5.417 9.333 C 5.417 8.919 5.081 8.583 4.667 8.583 L 4.667 9.333 L 4.667 10.083 Z M 8.4 8.583 C 7.986 8.583 7.65 8.919 7.65 9.333 C 7.65 9.748 7.986 10.083 8.4 10.083 L 8.4 9.333 L 8.4 8.583 Z M 9.333 10.083 C 9.748 10.083 10.083 9.748 10.083 9.333 C 10.083 8.919 9.748 8.583 9.333 8.583 L 9.333 9.333 L 9.333 10.083 Z M 2.8 0 L 2.8 0.75 L 14 0.75 L 14 0 L 14 -0.75 L 2.8 -0.75 L 2.8 0 Z M 16.8 2.8 L 16.05 2.8 L 16.05 10.267 L 16.8 10.267 L 17.55 10.267 L 17.55 2.8 L 16.8 2.8 Z M 14 13.067 L 14 12.317 L 2.8 12.317 L 2.8 13.067 L 2.8 13.817 L 14 13.817 L 14 13.067 Z M 0 10.267 L 0.75 10.267 L 0.75 2.8 L 0 2.8 L -0.75 2.8 L -0.75 10.267 L 0 10.267 Z M 2.8 13.067 L 2.8 12.317 C 1.668 12.317 0.75 11.399 0.75 10.267 L 0 10.267 L -0.75 10.267 C -0.75 12.227 0.839 13.817 2.8 13.817 L 2.8 13.067 Z M 16.8 10.267 L 16.05 10.267 C 16.05 11.399 15.132 12.317 14 12.317 L 14 13.067 L 14 13.817 C 15.961 13.817 17.55 12.227 17.55 10.267 L 16.8 10.267 Z M 14 0 L 14 0.75 C 15.132 0.75 16.05 1.668 16.05 2.8 L 16.8 2.8 L 17.55 2.8 C 17.55 0.839 15.961 -0.75 14 -0.75 L 14 0 Z M 2.8 0 L 2.8 -0.75 C 0.839 -0.75 -0.75 0.839 -0.75 2.8 L 0 2.8 L 0.75 2.8 C 0.75 1.668 1.668 0.75 2.8 0.75 L 2.8 0 Z M 0 4.667 L 0 5.417 L 16.8 5.417 L 16.8 4.667 L 16.8 3.917 L 0 3.917 L 0 4.667 Z M 3.733 9.333 L 3.733 10.083 L 4.667 10.083 L 4.667 9.333 L 4.667 8.583 L 3.733 8.583 L 3.733 9.333 Z M 8.4 9.333 L 8.4 10.083 L 9.333 10.083 L 9.333 9.333 L 9.333 8.583 L 8.4 8.583 L 8.4 9.333 Z" fill="currentColor" fill-rule="nonzero"></path></g>
</svg>