<svg xmlns="http://www.w3.org/2000/svg" width="24" height="24" viewBox="0 0 24 24" fill="none">
  <g transform="translate(2.000 2.000) scale(1.19048) translate(0.000 0.000)"><path d="M 10.259 6.092 C 10.53 6.404 11.004 6.438 11.317 6.166 C 11.63 5.895 11.663 5.421 11.392 5.108 L 10.825 5.6 L 10.259 6.092 Z M 6.541 10.708 C 6.27 10.396 5.796 10.362 5.483 10.634 C 5.17 10.905 5.137 11.379 5.408 11.692 L 5.975 11.2 L 6.541 10.708 Z M 9.15 3.733 C 9.15 3.319 8.814 2.983 8.4 2.983 C 7.986 2.983 7.65 3.319 7.65 3.733 L 8.4 3.733 L 9.15 3.733 Z M 7.65 13.067 C 7.65 13.481 7.986 13.817 8.4 13.817 C 8.814 13.817 9.15 13.481 9.15 13.067 L 8.4 13.067 L 7.65 13.067 Z M 16.8 8.4 L 16.05 8.4 C 16.05 12.625 12.625 16.05 8.4 16.05 L 8.4 16.8 L 8.4 17.55 C 13.453 17.55 17.55 13.453 17.55 8.4 L 16.8 8.4 Z M 8.4 16.8 L 8.4 16.05 C 4.175 16.05 0.75 12.625 0.75 8.4 L 0 8.4 L -0.75 8.4 C -0.75 13.453 3.347 17.55 8.4 17.55 L 8.4 16.8 Z M 0 8.4 L 0.75 8.4 C 0.75 4.175 4.175 0.75 8.4 0.75 L 8.4 0 L 8.4 -0.75 C 3.347 -0.75 -0.75 3.347 -0.75 8.4 L 0 8.4 Z M 8.4 0 L 8.4 0.75 C 12.625 0.75 16.05 4.175 16.05 8.4 L 16.8 8.4 L 17.55 8.4 C 17.55 3.347 13.453 -0.75 8.4 -0.75 L 8.4 0 Z M 8.4 8.4 L 8.4 7.65 C 7.754 7.65 7.203 7.474 6.836 7.229 C 6.464 6.981 6.35 6.72 6.35 6.533 L 5.6 6.533 L 4.85 6.533 C 4.85 7.378 5.363 8.05 6.004 8.477 C 6.65 8.908 7.499 9.15 8.4 9.15 L 8.4 8.4 Z M 5.6 6.533 L 6.35 6.533 C 6.35 6.347 6.464 6.086 6.836 5.837 C 7.203 5.593 7.754 5.417 8.4 5.417 L 8.4 4.667 L 8.4 3.917 C 7.499 3.917 6.65 4.159 6.004 4.589 C 5.363 5.017 4.85 5.689 4.85 6.533 L 5.6 6.533 Z M 8.4 4.667 L 8.4 5.417 C 9.281 5.417 9.954 5.74 10.259 6.092 L 10.825 5.6 L 11.392 5.108 C 10.729 4.344 9.591 3.917 8.4 3.917 L 8.4 4.667 Z M 8.4 8.4 L 8.4 9.15 C 9.046 9.15 9.597 9.326 9.964 9.571 C 10.337 9.819 10.45 10.08 10.45 10.267 L 11.2 10.267 L 11.95 10.267 C 11.95 9.422 11.437 8.75 10.796 8.323 C 10.15 7.892 9.301 7.65 8.4 7.65 L 8.4 8.4 Z M 8.4 3.733 L 7.65 3.733 L 7.65 4.667 L 8.4 4.667 L 9.15 4.667 L 9.15 3.733 L 8.4 3.733 Z M 8.4 12.133 L 7.65 12.133 L 7.65 13.067 L 8.4 13.067 L 9.15 13.067 L 9.15 12.133 L 8.4 12.133 Z M 8.4 12.133 L 8.4 11.383 C 7.519 11.383 6.846 11.06 6.541 10.708 L 5.975 11.2 L 5.408 11.692 C 6.071 12.456 7.209 12.883 8.4 12.883 L 8.4 12.133 Z M 11.2 10.267 L 10.45 10.267 C 10.45 10.453 10.337 10.714 9.964 10.963 C 9.597 11.207 9.046 11.383 8.4 11.383 L 8.4 12.133 L 8.4 12.883 C 9.301 12.883 10.15 12.641 10.796 12.211 C 11.437 11.783 11.95 11.111 11.95 10.267 L 11.2 10.267 Z M 8.4 4.667 L 7.65 4.667 L 7.65 12.133 L 8.4 12.133 L 9.15 12.133 L 9.15 4.667 L 8.4 4.667 Z" fill="currentColor" fill-rule="nonzero"></path></g>
</svg>