<svg xmlns="http://www.w3.org/2000/svg" width="24" height="24" viewBox="0 0 24 24" fill="none">
  <g transform="translate(2.000 2.000) scale(1.19048) translate(0.000 0.000)"><path d="M 5.6 15.867 L 6.13 16.397 C 6.226 16.301 6.295 16.18 6.328 16.049 L 5.6 15.867 Z M 4.667 16.8 L 4.136 16.27 C 3.922 16.484 3.858 16.807 3.974 17.087 C 4.09 17.367 4.363 17.55 4.667 17.55 L 4.667 16.8 Z M 12.133 16.8 L 12.133 17.55 C 12.437 17.55 12.71 17.367 12.826 17.087 C 12.942 16.807 12.878 16.484 12.664 16.27 L 12.133 16.8 Z M 11.2 15.867 L 10.472 16.049 C 10.505 16.18 10.574 16.301 10.67 16.397 L 11.2 15.867 Z M 7.028 13.249 C 7.128 12.847 6.884 12.44 6.482 12.339 C 6.08 12.239 5.673 12.483 5.572 12.885 L 6.3 13.067 L 7.028 13.249 Z M 11.228 12.885 C 11.127 12.483 10.72 12.239 10.318 12.339 C 9.916 12.44 9.672 12.847 9.772 13.249 L 10.5 13.067 L 11.228 12.885 Z M 0 8.583 C -0.414 8.583 -0.75 8.919 -0.75 9.333 C -0.75 9.748 -0.414 10.083 0 10.083 L 0 9.333 L 0 8.583 Z M 16.8 10.083 C 17.214 10.083 17.55 9.748 17.55 9.333 C 17.55 8.919 17.214 8.583 16.8 8.583 L 16.8 9.333 L 16.8 10.083 Z M 1.867 0 L 1.867 0.75 L 14.933 0.75 L 14.933 0 L 14.933 -0.75 L 1.867 -0.75 L 1.867 0 Z M 16.8 1.867 L 16.05 1.867 L 16.05 11.2 L 16.8 11.2 L 17.55 11.2 L 17.55 1.867 L 16.8 1.867 Z M 14.933 13.067 L 14.933 12.317 L 1.867 12.317 L 1.867 13.067 L 1.867 13.817 L 14.933 13.817 L 14.933 13.067 Z M 0 11.2 L 0.75 11.2 L 0.75 1.867 L 0 1.867 L -0.75 1.867 L -0.75 11.2 L 0 11.2 Z M 1.867 13.067 L 1.867 12.317 C 1.25 12.317 0.75 11.817 0.75 11.2 L 0 11.2 L -0.75 11.2 C -0.75 12.645 0.422 13.817 1.867 13.817 L 1.867 13.067 Z M 16.8 11.2 L 16.05 11.2 C 16.05 11.817 15.55 12.317 14.933 12.317 L 14.933 13.067 L 14.933 13.817 C 16.378 13.817 17.55 12.645 17.55 11.2 L 16.8 11.2 Z M 14.933 0 L 14.933 0.75 C 15.55 0.75 16.05 1.25 16.05 1.867 L 16.8 1.867 L 17.55 1.867 C 17.55 0.422 16.378 -0.75 14.933 -0.75 L 14.933 0 Z M 1.867 0 L 1.867 -0.75 C 0.422 -0.75 -0.75 0.422 -0.75 1.867 L 0 1.867 L 0.75 1.867 C 0.75 1.25 1.25 0.75 1.867 0.75 L 1.867 0 Z M 5.6 15.867 L 5.07 15.336 L 4.136 16.27 L 4.667 16.8 L 5.197 17.33 L 6.13 16.397 L 5.6 15.867 Z M 4.667 16.8 L 4.667 17.55 L 12.133 17.55 L 12.133 16.8 L 12.133 16.05 L 4.667 16.05 L 4.667 16.8 Z M 12.133 16.8 L 12.664 16.27 L 11.73 15.336 L 11.2 15.867 L 10.67 16.397 L 11.603 17.33 L 12.133 16.8 Z M 6.3 13.067 L 5.572 12.885 L 4.872 15.685 L 5.6 15.867 L 6.328 16.049 L 7.028 13.249 L 6.3 13.067 Z M 11.2 15.867 L 11.928 15.685 L 11.228 12.885 L 10.5 13.067 L 9.772 13.249 L 10.472 16.049 L 11.2 15.867 Z M 0 9.333 L 0 10.083 L 16.8 10.083 L 16.8 9.333 L 16.8 8.583 L 0 8.583 L 0 9.333 Z" fill="currentColor" fill-rule="nonzero"></path></g>
</svg>