<svg xmlns="http://www.w3.org/2000/svg" width="24" height="24" viewBox="0 0 24 24" fill="none">
  <g transform="translate(4.222 2.000) scale(1.19048) translate(0.000 0.000)"><path d="M 6.533 13.25 C 6.119 13.25 5.783 13.586 5.783 14 C 5.783 14.414 6.119 14.75 6.533 14.75 L 6.533 14 L 6.533 13.25 Z M 6.543 14.75 C 6.957 14.75 7.293 14.414 7.293 14 C 7.293 13.586 6.957 13.25 6.543 13.25 L 6.543 14 L 6.543 14.75 Z M 1.867 0 L 1.867 0.75 L 11.2 0.75 L 11.2 0 L 11.2 -0.75 L 1.867 -0.75 L 1.867 0 Z M 13.067 1.867 L 12.317 1.867 L 12.317 14.933 L 13.067 14.933 L 13.817 14.933 L 13.817 1.867 L 13.067 1.867 Z M 11.2 16.8 L 11.2 16.05 L 1.867 16.05 L 1.867 16.8 L 1.867 17.55 L 11.2 17.55 L 11.2 16.8 Z M 0 14.933 L 0.75 14.933 L 0.75 1.867 L 0 1.867 L -0.75 1.867 L -0.75 14.933 L 0 14.933 Z M 1.867 16.8 L 1.867 16.05 C 1.25 16.05 0.75 15.55 0.75 14.933 L 0 14.933 L -0.75 14.933 C -0.75 16.378 0.422 17.55 1.867 17.55 L 1.867 16.8 Z M 13.067 14.933 L 12.317 14.933 C 12.317 15.55 11.817 16.05 11.2 16.05 L 11.2 16.8 L 11.2 17.55 C 12.645 17.55 13.817 16.378 13.817 14.933 L 13.067 14.933 Z M 11.2 0 L 11.2 0.75 C 11.817 0.75 12.317 1.25 12.317 1.867 L 13.067 1.867 L 13.817 1.867 C 13.817 0.422 12.645 -0.75 11.2 -0.75 L 11.2 0 Z M 1.867 0 L 1.867 -0.75 C 0.422 -0.75 -0.75 0.422 -0.75 1.867 L 0 1.867 L 0.75 1.867 C 0.75 1.25 1.25 0.75 1.867 0.75 L 1.867 0 Z M 6.533 14 L 6.533 14.75 L 6.543 14.75 L 6.543 14 L 6.543 13.25 L 6.533 13.25 L 6.533 14 Z" fill="currentColor" fill-rule="nonzero"></path></g>
</svg>