<svg xmlns="http://www.w3.org/2000/svg" width="24" height="24" viewBox="0 0 24 24" fill="none">
  <g transform="translate(3.111 2.000) scale(1.19048) translate(0.000 0.000)"><path d="M 10.54 0.273 L 11.07 -0.257 L 11.07 -0.257 L 10.54 0.273 Z M 14.66 4.393 L 15.19 3.863 L 15.19 3.863 L 14.66 4.393 Z M 5.6 0 L 5.6 0.75 L 9.88 0.75 L 9.88 0 L 9.88 -0.75 L 5.6 -0.75 L 5.6 0 Z M 14.933 5.053 L 14.183 5.053 L 14.183 11.2 L 14.933 11.2 L 15.683 11.2 L 15.683 5.053 L 14.933 5.053 Z M 10.54 0.273 L 10.01 0.804 L 14.13 4.924 L 14.66 4.393 L 15.19 3.863 L 11.07 -0.257 L 10.54 0.273 Z M 14.933 5.053 L 15.683 5.053 C 15.683 4.607 15.506 4.179 15.19 3.863 L 14.66 4.393 L 14.13 4.924 C 14.164 4.958 14.183 5.005 14.183 5.053 L 14.933 5.053 Z M 9.88 0 L 9.88 0.75 C 9.929 0.75 9.975 0.769 10.01 0.804 L 10.54 0.273 L 11.07 -0.257 C 10.755 -0.573 10.327 -0.75 9.88 -0.75 L 9.88 0 Z M 5.6 13.067 L 5.6 12.317 C 4.983 12.317 4.483 11.817 4.483 11.2 L 3.733 11.2 L 2.983 11.2 C 2.983 12.645 4.155 13.817 5.6 13.817 L 5.6 13.067 Z M 13.067 13.067 L 13.067 13.817 C 14.512 13.817 15.683 12.645 15.683 11.2 L 14.933 11.2 L 14.183 11.2 C 14.183 11.817 13.683 12.317 13.067 12.317 L 13.067 13.067 Z M 3.733 1.867 L 4.483 1.867 C 4.483 1.25 4.983 0.75 5.6 0.75 L 5.6 0 L 5.6 -0.75 C 4.155 -0.75 2.983 0.422 2.983 1.867 L 3.733 1.867 Z M 1.867 16.8 L 1.867 17.55 L 9.2 17.55 L 9.2 16.8 L 9.2 16.05 L 1.867 16.05 L 1.867 16.8 Z M 0 5.733 L -0.75 5.733 L -0.75 14.933 L 0 14.933 L 0.75 14.933 L 0.75 5.733 L 0 5.733 Z M 1.867 16.8 L 1.867 16.05 C 1.25 16.05 0.75 15.55 0.75 14.933 L 0 14.933 L -0.75 14.933 C -0.75 16.378 0.422 17.55 1.867 17.55 L 1.867 16.8 Z M 3.733 11.2 L 4.483 11.2 L 4.483 3.733 L 3.733 3.733 L 2.983 3.733 L 2.983 11.2 L 3.733 11.2 Z M 3.733 3.733 L 4.483 3.733 L 4.483 1.867 L 3.733 1.867 L 2.983 1.867 L 2.983 3.733 L 3.733 3.733 Z M 2 3.733 L 2 4.483 L 3.733 4.483 L 3.733 3.733 L 3.733 2.983 L 2 2.983 L 2 3.733 Z M 13.067 13.067 L 13.067 12.317 L 11.2 12.317 L 11.2 13.067 L 11.2 13.817 L 13.067 13.817 L 13.067 13.067 Z M 11.2 13.067 L 11.2 12.317 L 5.6 12.317 L 5.6 13.067 L 5.6 13.817 L 11.2 13.817 L 11.2 13.067 Z M 11.2 14.8 L 11.95 14.8 L 11.95 13.067 L 11.2 13.067 L 10.45 13.067 L 10.45 14.8 L 11.2 14.8 Z M 0 5.733 L 0.75 5.733 C 0.75 5.043 1.31 4.483 2 4.483 L 2 3.733 L 2 2.983 C 0.481 2.983 -0.75 4.215 -0.75 5.733 L 0 5.733 Z M 9.2 16.8 L 9.2 17.55 C 10.719 17.55 11.95 16.319 11.95 14.8 L 11.2 14.8 L 10.45 14.8 C 10.45 15.49 9.89 16.05 9.2 16.05 L 9.2 16.8 Z" fill="currentColor" fill-rule="nonzero"></path></g>
</svg>