<svg xmlns="http://www.w3.org/2000/svg" width="24" height="24" viewBox="0 0 24 24" fill="none">
  <g transform="translate(4.222 2.000) scale(1.19048) translate(0.000 0.000)"><path d="M 7.74 0.273 L 7.21 0.804 L 7.21 0.804 L 7.74 0.273 Z M 12.793 5.327 L 13.324 4.796 L 13.324 4.796 L 12.793 5.327 Z M 11.2 16.8 L 11.2 16.05 L 1.867 16.05 L 1.867 16.8 L 1.867 17.55 L 11.2 17.55 L 11.2 16.8 Z M 0 14.933 L 0.75 14.933 L 0.75 1.867 L 0 1.867 L -0.75 1.867 L -0.75 14.933 L 0 14.933 Z M 1.867 0 L 1.867 0.75 L 7.08 0.75 L 7.08 0 L 7.08 -0.75 L 1.867 -0.75 L 1.867 0 Z M 13.067 5.987 L 12.317 5.987 L 12.317 14.933 L 13.067 14.933 L 13.817 14.933 L 13.817 5.987 L 13.067 5.987 Z M 7.74 0.273 L 7.21 0.804 L 12.263 5.857 L 12.793 5.327 L 13.324 4.796 L 8.27 -0.257 L 7.74 0.273 Z M 13.067 5.987 L 13.817 5.987 C 13.817 5.54 13.639 5.112 13.324 4.796 L 12.793 5.327 L 12.263 5.857 C 12.297 5.891 12.317 5.938 12.317 5.987 L 13.067 5.987 Z M 7.08 0 L 7.08 0.75 C 7.129 0.75 7.175 0.769 7.21 0.804 L 7.74 0.273 L 8.27 -0.257 C 7.955 -0.573 7.527 -0.75 7.08 -0.75 L 7.08 0 Z M 1.867 16.8 L 1.867 16.05 C 1.25 16.05 0.75 15.55 0.75 14.933 L 0 14.933 L -0.75 14.933 C -0.75 16.378 0.422 17.55 1.867 17.55 L 1.867 16.8 Z M 11.2 16.8 L 11.2 17.55 C 12.645 17.55 13.817 16.378 13.817 14.933 L 13.067 14.933 L 12.317 14.933 C 12.317 15.55 11.817 16.05 11.2 16.05 L 11.2 16.8 Z M 0 1.867 L 0.75 1.867 C 0.75 1.25 1.25 0.75 1.867 0.75 L 1.867 0 L 1.867 -0.75 C 0.422 -0.75 -0.75 0.422 -0.75 1.867 L 0 1.867 Z" fill="currentColor" fill-rule="nonzero"></path></g>
</svg>