<svg xmlns="http://www.w3.org/2000/svg" width="24" height="24" viewBox="0 0 24 24" fill="none">
  <g transform="translate(2.000 10.750) scale(1.19048) translate(0.000 0.000)"><path d="M 1.05 0.3 C 0.636 0.3 0.3 0.636 0.3 1.05 C 0.3 1.464 0.636 1.8 1.05 1.8 L 1.05 1.05 L 1.05 0.3 Z M 1.061 1.8 C 1.475 1.8 1.811 1.464 1.811 1.05 C 1.811 0.636 1.475 0.3 1.061 0.3 L 1.061 1.05 L 1.061 1.8 Z M 8.4 0.3 C 7.986 0.3 7.65 0.636 7.65 1.05 C 7.65 1.464 7.986 1.8 8.4 1.8 L 8.4 1.05 L 8.4 0.3 Z M 8.41 1.8 C 8.825 1.8 9.16 1.464 9.16 1.05 C 9.16 0.636 8.825 0.3 8.41 0.3 L 8.41 1.05 L 8.41 1.8 Z M 15.75 0.3 C 15.336 0.3 15 0.636 15 1.05 C 15 1.464 15.336 1.8 15.75 1.8 L 15.75 1.05 L 15.75 0.3 Z M 15.76 1.8 C 16.175 1.8 16.51 1.464 16.51 1.05 C 16.51 0.636 16.175 0.3 15.76 0.3 L 15.76 1.05 L 15.76 1.8 Z M 2.1 1.05 L 1.35 1.05 C 1.35 1.216 1.216 1.35 1.05 1.35 L 1.05 2.1 L 1.05 2.85 C 2.044 2.85 2.85 2.044 2.85 1.05 L 2.1 1.05 Z M 1.05 2.1 L 1.05 1.35 C 0.884 1.35 0.75 1.216 0.75 1.05 L 0 1.05 L -0.75 1.05 C -0.75 2.044 0.056 2.85 1.05 2.85 L 1.05 2.1 Z M 0 1.05 L 0.75 1.05 C 0.75 0.884 0.884 0.75 1.05 0.75 L 1.05 0 L 1.05 -0.75 C 0.056 -0.75 -0.75 0.056 -0.75 1.05 L 0 1.05 Z M 1.05 0 L 1.05 0.75 C 1.216 0.75 1.35 0.884 1.35 1.05 L 2.1 1.05 L 2.85 1.05 C 2.85 0.056 2.044 -0.75 1.05 -0.75 L 1.05 0 Z M 9.45 1.05 L 8.7 1.05 C 8.7 1.216 8.566 1.35 8.4 1.35 L 8.4 2.1 L 8.4 2.85 C 9.394 2.85 10.2 2.044 10.2 1.05 L 9.45 1.05 Z M 8.4 2.1 L 8.4 1.35 C 8.234 1.35 8.1 1.216 8.1 1.05 L 7.35 1.05 L 6.6 1.05 C 6.6 2.044 7.406 2.85 8.4 2.85 L 8.4 2.1 Z M 7.35 1.05 L 8.1 1.05 C 8.1 0.884 8.234 0.75 8.4 0.75 L 8.4 0 L 8.4 -0.75 C 7.406 -0.75 6.6 0.056 6.6 1.05 L 7.35 1.05 Z M 8.4 0 L 8.4 0.75 C 8.566 0.75 8.7 0.884 8.7 1.05 L 9.45 1.05 L 10.2 1.05 C 10.2 0.056 9.394 -0.75 8.4 -0.75 L 8.4 0 Z M 16.8 1.05 L 16.05 1.05 C 16.05 1.216 15.916 1.35 15.75 1.35 L 15.75 2.1 L 15.75 2.85 C 16.744 2.85 17.55 2.044 17.55 1.05 L 16.8 1.05 Z M 15.75 2.1 L 15.75 1.35 C 15.584 1.35 15.45 1.216 15.45 1.05 L 14.7 1.05 L 13.95 1.05 C 13.95 2.044 14.756 2.85 15.75 2.85 L 15.75 2.1 Z M 14.7 1.05 L 15.45 1.05 C 15.45 0.884 15.584 0.75 15.75 0.75 L 15.75 0 L 15.75 -0.75 C 14.756 -0.75 13.95 0.056 13.95 1.05 L 14.7 1.05 Z M 15.75 0 L 15.75 0.75 C 15.916 0.75 16.05 0.884 16.05 1.05 L 16.8 1.05 L 17.55 1.05 C 17.55 0.056 16.744 -0.75 15.75 -0.75 L 15.75 0 Z M 1.05 1.05 L 1.05 1.8 L 1.061 1.8 L 1.061 1.05 L 1.061 0.3 L 1.05 0.3 L 1.05 1.05 Z M 8.4 1.05 L 8.4 1.8 L 8.41 1.8 L 8.41 1.05 L 8.41 0.3 L 8.4 0.3 L 8.4 1.05 Z M 15.75 1.05 L 15.75 1.8 L 15.76 1.8 L 15.76 1.05 L 15.76 0.3 L 15.75 0.3 L 15.75 1.05 Z" fill="currentColor" fill-rule="nonzero"></path></g>
</svg>