<svg xmlns="http://www.w3.org/2000/svg" width="24" height="24" viewBox="0 0 24 24" fill="none">
  <g transform="translate(2.000 2.000) scale(1.19048) translate(0.000 0.000)"><path d="M 4.2 0.75 C 4.614 0.75 4.95 0.414 4.95 0 C 4.95 -0.414 4.614 -0.75 4.2 -0.75 L 4.2 0 L 4.2 0.75 Z M 4.2 17.55 C 4.614 17.55 4.95 17.214 4.95 16.8 C 4.95 16.386 4.614 16.05 4.2 16.05 L 4.2 16.8 L 4.2 17.55 Z M 7.87 13.13 C 8.163 13.423 8.637 13.423 8.93 13.13 C 9.223 12.837 9.223 12.363 8.93 12.07 L 8.4 12.6 L 7.87 13.13 Z M 4.2 8.4 L 3.67 7.87 C 3.377 8.163 3.377 8.637 3.67 8.93 L 4.2 8.4 Z M 8.93 4.73 C 9.223 4.437 9.223 3.963 8.93 3.67 C 8.637 3.377 8.163 3.377 7.87 3.67 L 8.4 4.2 L 8.93 4.73 Z M 16.8 9.15 C 17.214 9.15 17.55 8.814 17.55 8.4 C 17.55 7.986 17.214 7.65 16.8 7.65 L 16.8 8.4 L 16.8 9.15 Z M 0 13.65 L 0.75 13.65 L 0.75 3.15 L 0 3.15 L -0.75 3.15 L -0.75 13.65 L 0 13.65 Z M 3.15 0 L 3.15 0.75 L 4.2 0.75 L 4.2 0 L 4.2 -0.75 L 3.15 -0.75 L 3.15 0 Z M 4.2 16.8 L 4.2 16.05 L 3.15 16.05 L 3.15 16.8 L 3.15 17.55 L 4.2 17.55 L 4.2 16.8 Z M 0 13.65 L -0.75 13.65 C -0.75 15.804 0.996 17.55 3.15 17.55 L 3.15 16.8 L 3.15 16.05 C 1.825 16.05 0.75 14.975 0.75 13.65 L 0 13.65 Z M 0 3.15 L 0.75 3.15 C 0.75 1.825 1.825 0.75 3.15 0.75 L 3.15 0 L 3.15 -0.75 C 0.996 -0.75 -0.75 0.996 -0.75 3.15 L 0 3.15 Z M 8.4 12.6 L 8.93 12.07 L 4.73 7.87 L 4.2 8.4 L 3.67 8.93 L 7.87 13.13 L 8.4 12.6 Z M 4.2 8.4 L 4.73 8.93 L 8.93 4.73 L 8.4 4.2 L 7.87 3.67 L 3.67 7.87 L 4.2 8.4 Z M 4.2 8.4 L 4.2 9.15 L 16.8 9.15 L 16.8 8.4 L 16.8 7.65 L 4.2 7.65 L 4.2 8.4 Z" fill="currentColor" fill-rule="nonzero"></path></g>
</svg>