<svg xmlns="http://www.w3.org/2000/svg" width="24" height="24" viewBox="0 0 24 24" fill="none">
  <g transform="translate(2.000 3.043) scale(1.19048) translate(0.000 0.000)"><path d="M 0.255 12.227 L -0.395 11.852 L -0.395 11.852 L 0.255 12.227 Z M 16.545 12.227 L 17.195 11.852 L 17.195 11.852 L 16.545 12.227 Z M 10.029 0.941 L 9.38 1.316 L 9.38 1.316 L 10.029 0.941 Z M 6.771 0.941 L 7.42 1.316 L 6.771 0.941 Z M 9.15 5.643 C 9.15 5.229 8.814 4.893 8.4 4.893 C 7.986 4.893 7.65 5.229 7.65 5.643 L 8.4 5.643 L 9.15 5.643 Z M 7.65 7.524 C 7.65 7.938 7.986 8.274 8.4 8.274 C 8.814 8.274 9.15 7.938 9.15 7.524 L 8.4 7.524 L 7.65 7.524 Z M 8.4 10.536 C 7.986 10.536 7.65 10.872 7.65 11.286 C 7.65 11.701 7.986 12.036 8.4 12.036 L 8.4 11.286 L 8.4 10.536 Z M 8.409 12.036 C 8.824 12.036 9.159 11.701 9.159 11.286 C 9.159 10.872 8.824 10.536 8.409 10.536 L 8.409 11.286 L 8.409 12.036 Z M 10.029 0.941 L 9.38 1.316 L 15.896 12.602 L 16.545 12.227 L 17.195 11.852 L 10.679 0.566 L 10.029 0.941 Z M 14.916 15.048 L 14.916 14.298 L 1.884 14.298 L 1.884 15.048 L 1.884 15.798 L 14.916 15.798 L 14.916 15.048 Z M 0.255 12.227 L 0.904 12.602 L 7.42 1.316 L 6.771 0.941 L 6.121 0.566 L -0.395 11.852 L 0.255 12.227 Z M 1.884 15.048 L 1.884 14.298 C 1.013 14.298 0.469 13.356 0.904 12.602 L 0.255 12.227 L -0.395 11.852 C -1.407 13.606 -0.142 15.798 1.884 15.798 L 1.884 15.048 Z M 16.545 12.227 L 15.896 12.602 C 16.331 13.356 15.787 14.298 14.916 14.298 L 14.916 15.048 L 14.916 15.798 C 16.942 15.798 18.207 13.606 17.195 11.852 L 16.545 12.227 Z M 10.029 0.941 L 10.679 0.566 C 9.666 -1.189 7.134 -1.189 6.121 0.566 L 6.771 0.941 L 7.42 1.316 C 7.856 0.561 8.944 0.561 9.38 1.316 L 10.029 0.941 Z M 8.4 5.643 L 7.65 5.643 L 7.65 7.524 L 8.4 7.524 L 9.15 7.524 L 9.15 5.643 L 8.4 5.643 Z M 8.4 11.286 L 8.4 12.036 L 8.409 12.036 L 8.409 11.286 L 8.409 10.536 L 8.4 10.536 L 8.4 11.286 Z" fill="currentColor" fill-rule="nonzero"></path></g>
</svg>