<svg xmlns="http://www.w3.org/2000/svg" width="24" height="24" viewBox="0 0 24 24" fill="none">
  <g transform="translate(2.000 2.000) scale(1.19048) translate(0.000 0.000)"><path d="M 9.15 4.667 C 9.15 4.252 8.814 3.917 8.4 3.917 C 7.986 3.917 7.65 4.252 7.65 4.667 L 8.4 4.667 L 9.15 4.667 Z M 7.65 8.4 C 7.65 8.814 7.986 9.15 8.4 9.15 C 8.814 9.15 9.15 8.814 9.15 8.4 L 8.4 8.4 L 7.65 8.4 Z M 8.4 11.383 C 7.986 11.383 7.65 11.719 7.65 12.133 C 7.65 12.548 7.986 12.883 8.4 12.883 L 8.4 12.133 L 8.4 11.383 Z M 8.409 12.883 C 8.824 12.883 9.159 12.548 9.159 12.133 C 9.159 11.719 8.824 11.383 8.409 11.383 L 8.409 12.133 L 8.409 12.883 Z M 16.8 8.4 L 16.05 8.4 C 16.05 12.625 12.625 16.05 8.4 16.05 L 8.4 16.8 L 8.4 17.55 C 13.453 17.55 17.55 13.453 17.55 8.4 L 16.8 8.4 Z M 8.4 16.8 L 8.4 16.05 C 4.175 16.05 0.75 12.625 0.75 8.4 L 0 8.4 L -0.75 8.4 C -0.75 13.453 3.347 17.55 8.4 17.55 L 8.4 16.8 Z M 0 8.4 L 0.75 8.4 C 0.75 4.175 4.175 0.75 8.4 0.75 L 8.4 0 L 8.4 -0.75 C 3.347 -0.75 -0.75 3.347 -0.75 8.4 L 0 8.4 Z M 8.4 0 L 8.4 0.75 C 12.625 0.75 16.05 4.175 16.05 8.4 L 16.8 8.4 L 17.55 8.4 C 17.55 3.347 13.453 -0.75 8.4 -0.75 L 8.4 0 Z M 8.4 4.667 L 7.65 4.667 L 7.65 8.4 L 8.4 8.4 L 9.15 8.4 L 9.15 4.667 L 8.4 4.667 Z M 8.4 12.133 L 8.4 12.883 L 8.409 12.883 L 8.409 12.133 L 8.409 11.383 L 8.4 11.383 L 8.4 12.133 Z" fill="currentColor" fill-rule="nonzero"></path></g>
</svg>