<svg xmlns="http://www.w3.org/2000/svg" width="24" height="24" viewBox="0 0 24 24" fill="none">
  <g transform="translate(2.000 2.000) scale(1.19048) translate(0.000 0.000)"><path d="M 6.3 2.85 C 6.714 2.85 7.05 2.514 7.05 2.1 C 7.05 1.686 6.714 1.35 6.3 1.35 L 6.3 2.1 L 6.3 2.85 Z M 15.45 10.5 C 15.45 10.086 15.114 9.75 14.7 9.75 C 14.286 9.75 13.95 10.086 13.95 10.5 L 14.7 10.5 L 15.45 10.5 Z M 10.5 -0.75 C 10.086 -0.75 9.75 -0.414 9.75 0 C 9.75 0.414 10.086 0.75 10.5 0.75 L 10.5 0 L 10.5 -0.75 Z M 16.8 0 L 17.55 0 C 17.55 -0.414 17.214 -0.75 16.8 -0.75 L 16.8 0 Z M 16.05 6.3 C 16.05 6.714 16.386 7.05 16.8 7.05 C 17.214 7.05 17.55 6.714 17.55 6.3 L 16.8 6.3 L 16.05 6.3 Z M 5.77 9.97 C 5.477 10.263 5.477 10.737 5.77 11.03 C 6.063 11.323 6.537 11.323 6.83 11.03 L 6.3 10.5 L 5.77 9.97 Z M 12.6 16.8 L 12.6 16.05 L 2.1 16.05 L 2.1 16.8 L 2.1 17.55 L 12.6 17.55 L 12.6 16.8 Z M 0 14.7 L 0.75 14.7 L 0.75 4.2 L 0 4.2 L -0.75 4.2 L -0.75 14.7 L 0 14.7 Z M 2.1 2.1 L 2.1 2.85 L 6.3 2.85 L 6.3 2.1 L 6.3 1.35 L 2.1 1.35 L 2.1 2.1 Z M 14.7 10.5 L 13.95 10.5 L 13.95 14.7 L 14.7 14.7 L 15.45 14.7 L 15.45 10.5 L 14.7 10.5 Z M 2.1 16.8 L 2.1 16.05 C 1.354 16.05 0.75 15.446 0.75 14.7 L 0 14.7 L -0.75 14.7 C -0.75 16.274 0.526 17.55 2.1 17.55 L 2.1 16.8 Z M 12.6 16.8 L 12.6 17.55 C 14.174 17.55 15.45 16.274 15.45 14.7 L 14.7 14.7 L 13.95 14.7 C 13.95 15.446 13.346 16.05 12.6 16.05 L 12.6 16.8 Z M 0 4.2 L 0.75 4.2 C 0.75 3.454 1.354 2.85 2.1 2.85 L 2.1 2.1 L 2.1 1.35 C 0.526 1.35 -0.75 2.626 -0.75 4.2 L 0 4.2 Z M 10.5 0 L 10.5 0.75 L 16.8 0.75 L 16.8 0 L 16.8 -0.75 L 10.5 -0.75 L 10.5 0 Z M 16.8 0 L 16.05 0 L 16.05 6.3 L 16.8 6.3 L 17.55 6.3 L 17.55 0 L 16.8 0 Z M 16.8 0 L 16.27 -0.53 L 5.77 9.97 L 6.3 10.5 L 6.83 11.03 L 17.33 0.53 L 16.8 0 Z" fill="currentColor" fill-rule="nonzero"></path></g>
</svg>