<svg xmlns="http://www.w3.org/2000/svg" width="24" height="24" viewBox="0 0 24 24" fill="none">
  <g transform="translate(2.000 2.568) scale(1.19048) translate(0.000 0.000)"><path d="M 1.007 -0.53 C 0.714 -0.823 0.239 -0.823 -0.053 -0.53 C -0.346 -0.237 -0.346 0.237 -0.053 0.53 L 0.477 0 L 1.007 -0.53 Z M 15.792 16.376 C 16.085 16.669 16.56 16.669 16.853 16.376 C 17.146 16.083 17.146 15.608 16.853 15.315 L 16.322 15.845 L 15.792 16.376 Z M 0 7.923 L -0.716 7.698 C -0.761 7.844 -0.761 8.001 -0.716 8.147 L 0 7.923 Z M 16.8 7.923 L 17.516 8.147 C 17.561 8.001 17.561 7.844 17.516 7.698 L 16.8 7.923 Z M 10.19 14.667 C 10.597 14.59 10.864 14.198 10.787 13.791 C 10.71 13.384 10.317 13.116 9.91 13.194 L 10.05 13.93 L 10.19 14.667 Z M 1.974 5.709 C 2.224 5.379 2.159 4.908 1.829 4.658 C 1.498 4.408 1.028 4.474 0.778 4.804 L 1.376 5.256 L 1.974 5.709 Z M 6.532 6.055 L 6.002 6.586 L 6.002 6.586 L 6.532 6.055 Z M 10.267 9.79 L 9.737 10.32 L 9.737 10.32 L 10.267 9.79 Z M 8.4 5.282 L 8.4 6.032 C 9.444 6.032 10.291 6.878 10.291 7.923 L 11.041 7.923 L 11.791 7.923 C 11.791 6.05 10.272 4.532 8.4 4.532 L 8.4 5.282 Z M 8.4 1.761 L 8.4 2.511 C 12.005 2.511 15.058 4.88 16.084 8.147 L 16.8 7.923 L 17.516 7.698 C 16.298 3.823 12.679 1.011 8.4 1.011 L 8.4 1.761 Z M 8.4 14.085 L 8.4 13.335 C 4.795 13.335 1.742 10.966 0.716 7.698 L 0 7.923 L -0.716 8.147 C 0.502 12.023 4.121 14.835 8.4 14.835 L 8.4 14.085 Z M 10.05 13.93 L 9.91 13.194 C 9.422 13.286 8.917 13.335 8.4 13.335 L 8.4 14.085 L 8.4 14.835 C 9.011 14.835 9.609 14.777 10.19 14.667 L 10.05 13.93 Z M 0 7.923 L 0.716 8.147 C 0.995 7.259 1.424 6.436 1.974 5.709 L 1.376 5.256 L 0.778 4.804 C 0.126 5.666 -0.384 6.642 -0.716 7.698 L 0 7.923 Z M 6.532 6.055 L 7.063 6.586 C 7.406 6.243 7.877 6.032 8.4 6.032 L 8.4 5.282 L 8.4 4.532 C 7.463 4.532 6.615 4.912 6.002 5.525 L 6.532 6.055 Z M 6.532 6.055 L 6.002 6.586 L 9.737 10.32 L 10.267 9.79 L 10.797 9.26 L 7.063 5.525 L 6.532 6.055 Z M 11.041 7.923 L 10.291 7.923 C 10.291 8.445 10.08 8.917 9.737 9.26 L 10.267 9.79 L 10.797 10.32 C 11.41 9.708 11.791 8.859 11.791 7.923 L 11.041 7.923 Z M 0.477 0 L -0.053 0.53 L 3.106 3.69 L 3.636 3.16 L 4.167 2.629 L 1.007 -0.53 L 0.477 0 Z M 3.636 3.16 L 3.106 3.69 L 6.002 6.586 L 6.532 6.055 L 7.063 5.525 L 4.167 2.629 L 3.636 3.16 Z M 3.636 3.16 L 4.043 3.79 C 5.298 2.98 6.793 2.511 8.4 2.511 L 8.4 1.761 L 8.4 1.011 C 6.496 1.011 4.721 1.568 3.23 2.529 L 3.636 3.16 Z M 10.267 9.79 L 10.797 9.26 L 4.167 2.629 L 3.636 3.16 L 3.106 3.69 L 9.737 10.32 L 10.267 9.79 Z M 10.267 9.79 L 9.737 10.32 L 12.633 13.217 L 13.163 12.686 L 13.693 12.156 L 10.797 9.26 L 10.267 9.79 Z M 13.163 12.686 L 12.633 13.217 L 15.792 16.376 L 16.322 15.845 L 16.853 15.315 L 13.693 12.156 L 13.163 12.686 Z M 16.8 7.923 L 16.084 7.698 C 15.516 9.509 14.323 11.046 12.757 12.056 L 13.163 12.686 L 13.569 13.317 C 15.425 12.121 16.84 10.299 17.516 8.147 L 16.8 7.923 Z" fill="currentColor" fill-rule="nonzero"></path></g>
</svg>