<svg xmlns="http://www.w3.org/2000/svg" width="24" height="24" viewBox="0 0 24 24" fill="none">
  <g transform="translate(2.000 4.664) scale(1.19048) translate(0.000 0.000)"><path d="M 0 6.162 L -0.716 5.937 C -0.761 6.084 -0.761 6.241 -0.716 6.387 L 0 6.162 Z M 16.8 6.162 L 17.516 6.387 C 17.561 6.241 17.561 6.084 17.516 5.937 L 16.8 6.162 Z M 11.041 6.162 L 10.291 6.162 C 10.291 7.206 9.444 8.053 8.4 8.053 L 8.4 8.803 L 8.4 9.553 C 10.272 9.553 11.791 8.035 11.791 6.162 L 11.041 6.162 Z M 8.4 8.803 L 8.4 8.053 C 7.355 8.053 6.509 7.206 6.509 6.162 L 5.759 6.162 L 5.009 6.162 C 5.009 8.035 6.527 9.553 8.4 9.553 L 8.4 8.803 Z M 5.759 6.162 L 6.509 6.162 C 6.509 5.118 7.355 4.271 8.4 4.271 L 8.4 3.521 L 8.4 2.771 C 6.527 2.771 5.009 4.289 5.009 6.162 L 5.759 6.162 Z M 8.4 3.521 L 8.4 4.271 C 9.444 4.271 10.291 5.118 10.291 6.162 L 11.041 6.162 L 11.791 6.162 C 11.791 4.289 10.272 2.771 8.4 2.771 L 8.4 3.521 Z M 0 6.162 L 0.716 6.387 C 1.742 3.119 4.795 0.75 8.4 0.75 L 8.4 0 L 8.4 -0.75 C 4.121 -0.75 0.502 2.062 -0.716 5.937 L 0 6.162 Z M 8.4 0 L 8.4 0.75 C 12.005 0.75 15.058 3.119 16.084 6.387 L 16.8 6.162 L 17.516 5.937 C 16.298 2.062 12.679 -0.75 8.4 -0.75 L 8.4 0 Z M 16.8 6.162 L 16.084 5.937 C 15.058 9.205 12.005 11.574 8.4 11.574 L 8.4 12.324 L 8.4 13.074 C 12.679 13.074 16.298 10.262 17.516 6.387 L 16.8 6.162 Z M 8.4 12.324 L 8.4 11.574 C 4.795 11.574 1.742 9.205 0.716 5.937 L 0 6.162 L -0.716 6.387 C 0.502 10.262 4.121 13.074 8.4 13.074 L 8.4 12.324 Z" fill="currentColor" fill-rule="nonzero"></path></g>
</svg>