<svg xmlns="http://www.w3.org/2000/svg" width="24" height="24" viewBox="0 0 24 24" fill="none">
  <g transform="translate(2.000 2.000) scale(1.19048) translate(0.000 0.000)"><path d="M 6.533 16.8 L 5.783 16.8 C 5.783 17.103 5.966 17.377 6.246 17.493 C 6.527 17.609 6.849 17.545 7.064 17.33 L 6.533 16.8 Z M 10.267 13.067 L 10.797 13.597 C 10.938 13.456 11.017 13.266 11.017 13.067 L 10.267 13.067 Z M 6.24 9.974 L 5.71 10.504 L 6.24 9.974 Z M 0.293 4.026 L -0.237 4.557 L 0.293 4.026 Z M 16.507 4.026 L 17.037 4.557 L 16.507 4.026 Z M 1 0 L 1 0.75 L 15.8 0.75 L 15.8 0 L 15.8 -0.75 L 1 -0.75 L 1 0 Z M 16.8 1 L 16.05 1 L 16.05 3.319 L 16.8 3.319 L 17.55 3.319 L 17.55 1 L 16.8 1 Z M 0 3.319 L 0.75 3.319 L 0.75 1 L 0 1 L -0.75 1 L -0.75 3.319 L 0 3.319 Z M 6.24 9.974 L 6.771 9.443 L 0.823 3.496 L 0.293 4.026 L -0.237 4.557 L 5.71 10.504 L 6.24 9.974 Z M 16.507 4.026 L 15.977 3.496 L 10.029 9.443 L 10.56 9.974 L 11.09 10.504 L 17.037 4.557 L 16.507 4.026 Z M 6.533 16.8 L 7.283 16.8 L 7.283 10.681 L 6.533 10.681 L 5.783 10.681 L 5.783 16.8 L 6.533 16.8 Z M 10.267 10.681 L 9.517 10.681 L 9.517 13.067 L 10.267 13.067 L 11.017 13.067 L 11.017 10.681 L 10.267 10.681 Z M 10.267 13.067 L 9.736 12.536 L 6.003 16.27 L 6.533 16.8 L 7.064 17.33 L 10.797 13.597 L 10.267 13.067 Z M 10.56 9.974 L 10.029 9.443 C 9.701 9.772 9.517 10.217 9.517 10.681 L 10.267 10.681 L 11.017 10.681 C 11.017 10.615 11.043 10.551 11.09 10.504 L 10.56 9.974 Z M 6.24 9.974 L 5.71 10.504 C 5.757 10.551 5.783 10.615 5.783 10.681 L 6.533 10.681 L 7.283 10.681 C 7.283 10.217 7.099 9.772 6.771 9.443 L 6.24 9.974 Z M 0 3.319 L -0.75 3.319 C -0.75 3.783 -0.566 4.228 -0.237 4.557 L 0.293 4.026 L 0.823 3.496 C 0.776 3.449 0.75 3.385 0.75 3.319 L 0 3.319 Z M 16.8 3.319 L 16.05 3.319 C 16.05 3.385 16.024 3.449 15.977 3.496 L 16.507 4.026 L 17.037 4.557 C 17.366 4.228 17.55 3.783 17.55 3.319 L 16.8 3.319 Z M 15.8 0 L 15.8 0.75 C 15.938 0.75 16.05 0.862 16.05 1 L 16.8 1 L 17.55 1 C 17.55 0.034 16.766 -0.75 15.8 -0.75 L 15.8 0 Z M 1 0 L 1 -0.75 C 0.034 -0.75 -0.75 0.034 -0.75 1 L 0 1 L 0.75 1 C 0.75 0.862 0.862 0.75 1 0.75 L 1 0 Z" fill="currentColor" fill-rule="nonzero"></path></g>
</svg>