<svg xmlns="http://www.w3.org/2000/svg" width="24" height="24" viewBox="0 0 24 24" fill="none">
  <g transform="translate(3.111 2.000) scale(1.19048) translate(0.000 0.000)"><path d="M 2.187 4.054 L 2.884 3.777 C 2.791 3.542 2.586 3.37 2.339 3.319 C 2.092 3.268 1.835 3.345 1.657 3.523 L 2.187 4.054 Z M 0 9.333 L -0.75 9.333 L 0 9.333 Z M 14.933 9.333 L 15.683 9.333 L 14.933 9.333 Z M 7.453 0 L 7.982 -0.532 C 7.711 -0.801 7.281 -0.824 6.983 -0.584 L 7.453 0 Z M 4.667 6.533 L 4.331 7.204 C 4.564 7.32 4.84 7.308 5.061 7.171 C 5.282 7.035 5.417 6.793 5.417 6.533 L 4.667 6.533 Z M 7.48 7.467 L 7.484 6.717 C 7.161 6.715 6.873 6.92 6.77 7.226 L 7.48 7.467 Z M 10.267 10.267 L 11.017 10.267 L 11.017 10.267 L 10.267 10.267 Z M 6.533 10.267 L 6.533 11.017 C 6.855 11.017 7.141 10.812 7.244 10.507 L 6.533 10.267 Z M 4.667 10.267 L 4.667 9.517 C 4.252 9.517 3.917 9.852 3.917 10.267 L 4.667 10.267 Z M 12.746 14.613 L 12.216 14.083 C 9.593 16.706 5.34 16.706 2.717 14.083 L 2.187 14.613 L 1.657 15.143 C 4.865 18.352 10.068 18.352 13.277 15.143 L 12.746 14.613 Z M 2.187 14.613 L 2.717 14.083 C 1.406 12.771 0.75 11.053 0.75 9.333 L 0 9.333 L -0.75 9.333 C -0.75 11.435 0.052 13.539 1.657 15.143 L 2.187 14.613 Z M 0 9.333 L 0.75 9.333 C 0.75 7.613 1.406 5.896 2.717 4.584 L 2.187 4.054 L 1.657 3.523 C 0.052 5.128 -0.75 7.232 -0.75 9.333 L 0 9.333 Z M 12.746 4.054 L 12.216 4.584 C 13.528 5.896 14.183 7.613 14.183 9.333 L 14.933 9.333 L 15.683 9.333 C 15.683 7.232 14.881 5.128 13.277 3.523 L 12.746 4.054 Z M 14.933 9.333 L 14.183 9.333 C 14.183 11.053 13.528 12.771 12.216 14.083 L 12.746 14.613 L 13.277 15.143 C 14.881 13.539 15.683 11.435 15.683 9.333 L 14.933 9.333 Z M 7.453 0 L 6.925 0.532 C 7.922 1.522 8.935 2.205 9.844 2.805 C 10.769 3.415 11.55 3.918 12.216 4.584 L 12.746 4.054 L 13.277 3.523 C 12.481 2.728 11.556 2.137 10.67 1.553 C 9.768 0.958 8.865 0.344 7.982 -0.532 L 7.453 0 Z M 2.187 4.054 C 1.49 4.33 1.49 4.33 1.49 4.331 C 1.49 4.331 1.49 4.331 1.49 4.331 C 1.49 4.332 1.491 4.332 1.491 4.333 C 1.491 4.334 1.492 4.335 1.492 4.336 C 1.493 4.338 1.494 4.341 1.495 4.344 C 1.498 4.35 1.501 4.357 1.505 4.366 C 1.512 4.384 1.523 4.408 1.536 4.437 C 1.563 4.494 1.601 4.573 1.653 4.668 C 1.756 4.857 1.912 5.113 2.132 5.4 C 2.573 5.974 3.277 6.677 4.331 7.204 L 4.667 6.533 L 5.002 5.862 C 4.19 5.456 3.654 4.919 3.322 4.487 C 3.155 4.27 3.041 4.082 2.971 3.952 C 2.936 3.887 2.912 3.837 2.898 3.807 C 2.891 3.792 2.886 3.781 2.884 3.776 C 2.883 3.773 2.882 3.772 2.882 3.772 C 2.882 3.772 2.882 3.773 2.883 3.774 C 2.883 3.774 2.883 3.775 2.883 3.775 C 2.883 3.775 2.884 3.776 2.884 3.776 C 2.884 3.776 2.884 3.777 2.884 3.777 C 2.884 3.777 2.884 3.777 2.187 4.054 Z M 4.667 6.533 L 5.417 6.533 C 5.417 4.756 5.865 2.24 7.924 0.584 L 7.453 0 L 6.983 -0.584 C 4.402 1.493 3.917 4.577 3.917 6.533 L 4.667 6.533 Z M 9.447 12.247 L 8.916 11.716 C 8.116 12.517 6.818 12.517 6.017 11.716 L 5.487 12.247 L 4.956 12.777 C 6.343 14.163 8.591 14.163 9.977 12.777 L 9.447 12.247 Z M 7.48 7.467 L 7.477 8.217 C 7.999 8.219 8.518 8.419 8.916 8.817 L 9.447 8.287 L 9.977 7.756 C 9.288 7.068 8.386 6.721 7.484 6.717 L 7.48 7.467 Z M 9.447 8.287 L 8.916 8.817 C 9.317 9.218 9.517 9.741 9.517 10.267 L 10.267 10.267 L 11.017 10.267 C 11.017 9.359 10.67 8.449 9.977 7.756 L 9.447 8.287 Z M 10.267 10.267 L 9.517 10.267 C 9.517 10.792 9.317 11.316 8.916 11.716 L 9.447 12.247 L 9.977 12.777 C 10.67 12.084 11.017 11.174 11.017 10.267 L 10.267 10.267 Z M 6.533 10.267 L 7.244 10.507 L 8.191 7.707 L 7.48 7.467 L 6.77 7.226 L 5.823 10.026 L 6.533 10.267 Z M 5.487 12.247 L 6.017 11.716 C 5.617 11.316 5.417 10.792 5.417 10.267 L 4.667 10.267 L 3.917 10.267 C 3.917 11.174 4.263 12.084 4.956 12.777 L 5.487 12.247 Z M 6.533 10.267 L 6.533 9.517 L 4.667 9.517 L 4.667 10.267 L 4.667 11.017 L 6.533 11.017 L 6.533 10.267 Z" fill="currentColor" fill-rule="nonzero"></path></g>
</svg>