<svg xmlns="http://www.w3.org/2000/svg" width="24" height="24" viewBox="0 0 24 24" fill="none">
  <g transform="translate(2.000 4.222) scale(1.19048) translate(0.000 0.000)"><path d="M 7.467 0 L 7.997 -0.53 C 7.856 -0.671 7.666 -0.75 7.467 -0.75 L 7.467 0 Z M 9.333 1.867 L 8.803 2.397 C 8.944 2.538 9.134 2.617 9.333 2.617 L 9.333 1.867 Z M 0 11.2 L 0.75 11.2 L 0.75 1.867 L 0 1.867 L -0.75 1.867 L -0.75 11.2 L 0 11.2 Z M 1.867 0 L 1.867 0.75 L 7.467 0.75 L 7.467 0 L 7.467 -0.75 L 1.867 -0.75 L 1.867 0 Z M 7.467 0 L 6.936 0.53 L 8.803 2.397 L 9.333 1.867 L 9.864 1.336 L 7.997 -0.53 L 7.467 0 Z M 9.333 1.867 L 9.333 2.617 L 14.933 2.617 L 14.933 1.867 L 14.933 1.117 L 9.333 1.117 L 9.333 1.867 Z M 16.8 3.733 L 16.05 3.733 L 16.05 11.2 L 16.8 11.2 L 17.55 11.2 L 17.55 3.733 L 16.8 3.733 Z M 14.933 13.067 L 14.933 12.317 L 1.867 12.317 L 1.867 13.067 L 1.867 13.817 L 14.933 13.817 L 14.933 13.067 Z M 14.933 1.867 L 14.933 2.617 C 15.55 2.617 16.05 3.117 16.05 3.733 L 16.8 3.733 L 17.55 3.733 C 17.55 2.288 16.378 1.117 14.933 1.117 L 14.933 1.867 Z M 0 1.867 L 0.75 1.867 C 0.75 1.25 1.25 0.75 1.867 0.75 L 1.867 0 L 1.867 -0.75 C 0.422 -0.75 -0.75 0.422 -0.75 1.867 L 0 1.867 Z M 16.8 11.2 L 16.05 11.2 C 16.05 11.817 15.55 12.317 14.933 12.317 L 14.933 13.067 L 14.933 13.817 C 16.378 13.817 17.55 12.645 17.55 11.2 L 16.8 11.2 Z M 0 11.2 L -0.75 11.2 C -0.75 12.645 0.422 13.817 1.867 13.817 L 1.867 13.067 L 1.867 12.317 C 1.25 12.317 0.75 11.817 0.75 11.2 L 0 11.2 Z" fill="currentColor" fill-rule="nonzero"></path></g>
</svg>