<svg xmlns="http://www.w3.org/2000/svg" width="24" height="24" viewBox="0 0 24 24" fill="none">
  <g transform="translate(2.000 2.000) scale(1.19048) translate(0.000 0.000)"><path d="M 16.8 8.4 L 16.05 8.4 C 16.05 12.625 12.625 16.05 8.4 16.05 L 8.4 16.8 L 8.4 17.55 C 13.453 17.55 17.55 13.453 17.55 8.4 L 16.8 8.4 Z M 8.4 16.8 L 8.4 16.05 C 4.175 16.05 0.75 12.625 0.75 8.4 L 0 8.4 L -0.75 8.4 C -0.75 13.453 3.347 17.55 8.4 17.55 L 8.4 16.8 Z M 0 8.4 L 0.75 8.4 C 0.75 4.175 4.175 0.75 8.4 0.75 L 8.4 0 L 8.4 -0.75 C 3.347 -0.75 -0.75 3.347 -0.75 8.4 L 0 8.4 Z M 8.4 0 L 8.4 0.75 C 12.625 0.75 16.05 4.175 16.05 8.4 L 16.8 8.4 L 17.55 8.4 C 17.55 3.347 13.453 -0.75 8.4 -0.75 L 8.4 0 Z M 11.2 8.4 L 10.45 8.4 C 10.45 10.661 10.143 12.678 9.668 14.103 C 9.43 14.819 9.162 15.345 8.901 15.676 C 8.633 16.015 8.458 16.05 8.4 16.05 L 8.4 16.8 L 8.4 17.55 C 9.115 17.55 9.677 17.115 10.079 16.604 C 10.488 16.085 10.824 15.381 11.091 14.577 C 11.63 12.962 11.95 10.778 11.95 8.4 L 11.2 8.4 Z M 8.4 16.8 L 8.4 16.05 C 8.342 16.05 8.167 16.015 7.899 15.676 C 7.638 15.345 7.37 14.819 7.132 14.103 C 6.657 12.678 6.35 10.661 6.35 8.4 L 5.6 8.4 L 4.85 8.4 C 4.85 10.778 5.17 12.962 5.709 14.577 C 5.976 15.381 6.312 16.085 6.721 16.604 C 7.123 17.115 7.685 17.55 8.4 17.55 L 8.4 16.8 Z M 5.6 8.4 L 6.35 8.4 C 6.35 6.139 6.657 4.122 7.132 2.697 C 7.37 1.981 7.638 1.455 7.899 1.124 C 8.167 0.785 8.342 0.75 8.4 0.75 L 8.4 0 L 8.4 -0.75 C 7.685 -0.75 7.123 -0.315 6.721 0.196 C 6.312 0.715 5.976 1.419 5.709 2.223 C 5.17 3.838 4.85 6.022 4.85 8.4 L 5.6 8.4 Z M 8.4 0 L 8.4 0.75 C 8.458 0.75 8.633 0.785 8.901 1.124 C 9.162 1.455 9.43 1.981 9.668 2.697 C 10.143 4.122 10.45 6.139 10.45 8.4 L 11.2 8.4 L 11.95 8.4 C 11.95 6.022 11.63 3.838 11.091 2.223 C 10.824 1.419 10.488 0.715 10.079 0.196 C 9.677 -0.315 9.115 -0.75 8.4 -0.75 L 8.4 0 Z M 0 8.4 L 0 9.15 L 16.8 9.15 L 16.8 8.4 L 16.8 7.65 L 0 7.65 L 0 8.4 Z" fill="currentColor" fill-rule="nonzero"></path></g>
</svg>