<svg xmlns="http://www.w3.org/2000/svg" width="24" height="24" viewBox="0 0 24 24" fill="none">
  <g transform="translate(2.000 2.000) scale(1.19048) translate(0.000 0.000)"><path d="M 0.051 6.717 C -0.363 6.717 -0.699 7.052 -0.699 7.467 C -0.699 7.881 -0.363 8.217 0.051 8.217 L 0.051 7.467 L 0.051 6.717 Z M 6.717 16.749 C 6.717 17.163 7.052 17.499 7.467 17.499 C 7.881 17.499 8.217 17.163 8.217 16.749 L 7.467 16.749 L 6.717 16.749 Z M 5.417 0.873 C 5.417 0.459 5.081 0.123 4.667 0.123 C 4.252 0.123 3.917 0.459 3.917 0.873 L 4.667 0.873 L 5.417 0.873 Z M 14.933 4.667 L 14.933 5.417 L 14.933 5.417 L 14.933 4.667 Z M 15.927 5.417 C 16.341 5.417 16.677 5.081 16.677 4.667 C 16.677 4.252 16.341 3.917 15.927 3.917 L 15.927 4.667 L 15.927 5.417 Z M 10.45 16.322 C 10.45 16.736 10.786 17.072 11.2 17.072 C 11.614 17.072 11.95 16.736 11.95 16.322 L 11.2 16.322 L 10.45 16.322 Z M 15.927 12.883 C 16.341 12.883 16.677 12.548 16.677 12.133 C 16.677 11.719 16.341 11.383 15.927 11.383 L 15.927 12.133 L 15.927 12.883 Z M 16.8 8.4 L 16.05 8.4 C 16.05 12.625 12.625 16.05 8.4 16.05 L 8.4 16.8 L 8.4 17.55 C 13.453 17.55 17.55 13.453 17.55 8.4 L 16.8 8.4 Z M 8.4 16.8 L 8.4 16.05 C 4.175 16.05 0.75 12.625 0.75 8.4 L 0 8.4 L -0.75 8.4 C -0.75 13.453 3.347 17.55 8.4 17.55 L 8.4 16.8 Z M 0 8.4 L 0.75 8.4 C 0.75 4.175 4.175 0.75 8.4 0.75 L 8.4 0 L 8.4 -0.75 C 3.347 -0.75 -0.75 3.347 -0.75 8.4 L 0 8.4 Z M 8.4 0 L 8.4 0.75 C 12.625 0.75 16.05 4.175 16.05 8.4 L 16.8 8.4 L 17.55 8.4 C 17.55 3.347 13.453 -0.75 8.4 -0.75 L 8.4 0 Z M 0.051 7.467 L 0.051 8.217 L 1.867 8.217 L 1.867 7.467 L 1.867 6.717 L 0.051 6.717 L 0.051 7.467 Z M 3.733 9.333 L 2.983 9.333 L 2.983 10.267 L 3.733 10.267 L 4.483 10.267 L 4.483 9.333 L 3.733 9.333 Z M 7.467 14 L 6.717 14 L 6.717 16.749 L 7.467 16.749 L 8.217 16.749 L 8.217 14 L 7.467 14 Z M 5.6 12.133 L 5.6 12.883 C 6.217 12.883 6.717 13.383 6.717 14 L 7.467 14 L 8.217 14 C 8.217 12.555 7.045 11.383 5.6 11.383 L 5.6 12.133 Z M 3.733 10.267 L 2.983 10.267 C 2.983 11.712 4.155 12.883 5.6 12.883 L 5.6 12.133 L 5.6 11.383 C 4.983 11.383 4.483 10.883 4.483 10.267 L 3.733 10.267 Z M 1.867 7.467 L 1.867 8.217 C 2.483 8.217 2.983 8.717 2.983 9.333 L 3.733 9.333 L 4.483 9.333 C 4.483 7.888 3.312 6.717 1.867 6.717 L 1.867 7.467 Z M 4.667 0.873 L 3.917 0.873 L 3.917 2.333 L 4.667 2.333 L 5.417 2.333 L 5.417 0.873 L 4.667 0.873 Z M 7 4.667 L 7 5.417 L 7.467 5.417 L 7.467 4.667 L 7.467 3.917 L 7 3.917 L 7 4.667 Z M 14.933 4.667 L 14.933 5.417 L 15.927 5.417 L 15.927 4.667 L 15.927 3.917 L 14.933 3.917 L 14.933 4.667 Z M 13.067 6.533 L 13.817 6.533 C 13.817 5.917 14.317 5.417 14.933 5.417 L 14.933 4.667 L 14.933 3.917 C 13.488 3.917 12.317 5.088 12.317 6.533 L 13.067 6.533 Z M 11.2 8.4 L 11.2 9.15 C 12.645 9.15 13.817 7.978 13.817 6.533 L 13.067 6.533 L 12.317 6.533 C 12.317 7.15 11.817 7.65 11.2 7.65 L 11.2 8.4 Z M 9.333 6.533 L 8.583 6.533 C 8.583 7.978 9.755 9.15 11.2 9.15 L 11.2 8.4 L 11.2 7.65 C 10.583 7.65 10.083 7.15 10.083 6.533 L 9.333 6.533 Z M 7.467 4.667 L 7.467 5.417 C 8.083 5.417 8.583 5.917 8.583 6.533 L 9.333 6.533 L 10.083 6.533 C 10.083 5.088 8.912 3.917 7.467 3.917 L 7.467 4.667 Z M 4.667 2.333 L 3.917 2.333 C 3.917 4.036 5.297 5.417 7 5.417 L 7 4.667 L 7 3.917 C 6.126 3.917 5.417 3.208 5.417 2.333 L 4.667 2.333 Z M 11.2 16.322 L 11.95 16.322 L 11.95 14 L 11.2 14 L 10.45 14 L 10.45 16.322 L 11.2 16.322 Z M 13.067 12.133 L 13.067 12.883 L 15.927 12.883 L 15.927 12.133 L 15.927 11.383 L 13.067 11.383 L 13.067 12.133 Z M 11.2 14 L 11.95 14 C 11.95 13.383 12.45 12.883 13.067 12.883 L 13.067 12.133 L 13.067 11.383 C 11.622 11.383 10.45 12.555 10.45 14 L 11.2 14 Z" fill="currentColor" fill-rule="nonzero"></path></g>
</svg>