<svg xmlns="http://www.w3.org/2000/svg" width="24" height="24" viewBox="0 0 24 24" fill="none">
  <g transform="translate(2.000 3.464) scale(1.19048) translate(0.000 0.000)"><path d="M 1.23 7.17 L 1.76 6.64 L 1.23 7.17 Z M 7.17 1.23 L 7.7 0.7 L 7.7 0.7 L 7.17 1.23 Z M 8.4 2.46 L 7.87 2.991 C 8.01 3.131 8.201 3.21 8.4 3.21 C 8.599 3.21 8.79 3.131 8.93 2.991 L 8.4 2.46 Z M 8.4 14.34 L 7.87 14.87 C 8.01 15.011 8.201 15.09 8.4 15.09 C 8.599 15.09 8.79 15.011 8.93 14.87 L 8.4 14.34 Z M 15.57 7.17 L 15.04 6.64 L 15.04 6.64 L 15.57 7.17 Z M 9.63 1.23 L 9.1 0.7 L 9.1 0.7 L 9.63 1.23 Z M 1.23 7.17 L 1.76 6.64 C 0.413 5.292 0.413 3.108 1.76 1.76 L 1.23 1.23 L 0.7 0.7 C -1.233 2.633 -1.233 5.767 0.7 7.7 L 1.23 7.17 Z M 1.23 1.23 L 1.76 1.76 C 3.108 0.413 5.292 0.413 6.64 1.76 L 7.17 1.23 L 7.7 0.7 C 5.767 -1.233 2.633 -1.233 0.7 0.7 L 1.23 1.23 Z M 7.17 1.23 L 6.64 1.76 L 7.87 2.991 L 8.4 2.46 L 8.93 1.93 L 7.7 0.7 L 7.17 1.23 Z M 1.23 7.17 L 0.7 7.7 L 7.87 14.87 L 8.4 14.34 L 8.93 13.809 L 1.76 6.64 L 1.23 7.17 Z M 15.57 1.23 L 15.04 1.76 C 16.387 3.108 16.387 5.292 15.04 6.64 L 15.57 7.17 L 16.1 7.7 C 18.033 5.767 18.033 2.633 16.1 0.7 L 15.57 1.23 Z M 9.63 1.23 L 10.16 1.76 C 11.508 0.413 13.692 0.413 15.04 1.76 L 15.57 1.23 L 16.1 0.7 C 14.167 -1.233 11.033 -1.233 9.1 0.7 L 9.63 1.23 Z M 15.57 7.17 L 15.04 6.64 L 7.87 13.809 L 8.4 14.34 L 8.93 14.87 L 16.1 7.7 L 15.57 7.17 Z M 9.63 1.23 L 9.1 0.7 L 7.87 1.93 L 8.4 2.46 L 8.93 2.991 L 10.161 1.76 L 9.63 1.23 Z" fill="currentColor" fill-rule="nonzero"></path></g>
</svg>