<svg xmlns="http://www.w3.org/2000/svg" width="24" height="24" viewBox="0 0 24 24" fill="none">
  <g transform="translate(2.000 2.000) scale(1.19048) translate(0.000 0.000)"><path d="M -0.53 7.87 C -0.823 8.163 -0.823 8.637 -0.53 8.93 C -0.237 9.223 0.237 9.223 0.53 8.93 L 0 8.4 L -0.53 7.87 Z M 8.4 0 L 8.93 -0.53 C 8.637 -0.823 8.163 -0.823 7.87 -0.53 L 8.4 0 Z M 16.27 8.93 C 16.563 9.223 17.037 9.223 17.33 8.93 C 17.623 8.637 17.623 8.163 17.33 7.87 L 16.8 8.4 L 16.27 8.93 Z M 0 8.4 L 0.53 8.93 L 2.397 7.064 L 1.867 6.533 L 1.336 6.003 L -0.53 7.87 L 0 8.4 Z M 1.867 6.533 L 2.397 7.064 L 8.93 0.53 L 8.4 0 L 7.87 -0.53 L 1.336 6.003 L 1.867 6.533 Z M 8.4 0 L 7.87 0.53 L 14.403 7.064 L 14.933 6.533 L 15.464 6.003 L 8.93 -0.53 L 8.4 0 Z M 14.933 6.533 L 14.403 7.064 L 16.27 8.93 L 16.8 8.4 L 17.33 7.87 L 15.464 6.003 L 14.933 6.533 Z M 1.867 6.533 L 1.117 6.533 L 1.117 15.867 L 1.867 15.867 L 2.617 15.867 L 2.617 6.533 L 1.867 6.533 Z M 2.8 16.8 L 2.8 17.55 L 5.6 17.55 L 5.6 16.8 L 5.6 16.05 L 2.8 16.05 L 2.8 16.8 Z M 6.533 15.867 L 7.283 15.867 L 7.283 12.133 L 6.533 12.133 L 5.783 12.133 L 5.783 15.867 L 6.533 15.867 Z M 7.467 11.2 L 7.467 11.95 L 9.333 11.95 L 9.333 11.2 L 9.333 10.45 L 7.467 10.45 L 7.467 11.2 Z M 10.267 12.133 L 9.517 12.133 L 9.517 15.867 L 10.267 15.867 L 11.017 15.867 L 11.017 12.133 L 10.267 12.133 Z M 11.2 16.8 L 11.2 17.55 L 14 17.55 L 14 16.8 L 14 16.05 L 11.2 16.05 L 11.2 16.8 Z M 14.933 15.867 L 15.683 15.867 L 15.683 6.533 L 14.933 6.533 L 14.183 6.533 L 14.183 15.867 L 14.933 15.867 Z M 14 16.8 L 14 17.55 C 14.93 17.55 15.683 16.796 15.683 15.867 L 14.933 15.867 L 14.183 15.867 C 14.183 15.968 14.101 16.05 14 16.05 L 14 16.8 Z M 10.267 15.867 L 9.517 15.867 C 9.517 16.796 10.27 17.55 11.2 17.55 L 11.2 16.8 L 11.2 16.05 C 11.099 16.05 11.017 15.968 11.017 15.867 L 10.267 15.867 Z M 9.333 11.2 L 9.333 11.95 C 9.435 11.95 9.517 12.032 9.517 12.133 L 10.267 12.133 L 11.017 12.133 C 11.017 11.204 10.263 10.45 9.333 10.45 L 9.333 11.2 Z M 6.533 12.133 L 7.283 12.133 C 7.283 12.032 7.365 11.95 7.467 11.95 L 7.467 11.2 L 7.467 10.45 C 6.537 10.45 5.783 11.204 5.783 12.133 L 6.533 12.133 Z M 5.6 16.8 L 5.6 17.55 C 6.53 17.55 7.283 16.796 7.283 15.867 L 6.533 15.867 L 5.783 15.867 C 5.783 15.968 5.701 16.05 5.6 16.05 L 5.6 16.8 Z M 1.867 15.867 L 1.117 15.867 C 1.117 16.796 1.87 17.55 2.8 17.55 L 2.8 16.8 L 2.8 16.05 C 2.699 16.05 2.617 15.968 2.617 15.867 L 1.867 15.867 Z M 5.6 16.8 L 5.6 17.55 L 11.2 17.55 L 11.2 16.8 L 11.2 16.05 L 5.6 16.05 L 5.6 16.8 Z" fill="currentColor" fill-rule="nonzero"></path></g>
</svg>