<svg xmlns="http://www.w3.org/2000/svg" width="24" height="24" viewBox="0 0 24 24" fill="none">
  <g transform="translate(2.000 2.000) scale(1.19048) translate(0.000 0.000)"><path d="M 8.4 8.4 L 9.15 8.4 C 9.15 7.986 8.814 7.65 8.4 7.65 L 8.4 8.4 Z M 8.4 12.133 L 7.65 12.133 C 7.65 12.548 7.986 12.883 8.4 12.883 L 8.4 12.133 Z M 9.333 12.883 C 9.748 12.883 10.083 12.548 10.083 12.133 C 10.083 11.719 9.748 11.383 9.333 11.383 L 9.333 12.133 L 9.333 12.883 Z M 7.467 7.65 C 7.052 7.65 6.717 7.986 6.717 8.4 C 6.717 8.814 7.052 9.15 7.467 9.15 L 7.467 8.4 L 7.467 7.65 Z M 8.4 3.917 C 7.986 3.917 7.65 4.252 7.65 4.667 C 7.65 5.081 7.986 5.417 8.4 5.417 L 8.4 4.667 L 8.4 3.917 Z M 8.409 5.417 C 8.824 5.417 9.159 5.081 9.159 4.667 C 9.159 4.252 8.824 3.917 8.409 3.917 L 8.409 4.667 L 8.409 5.417 Z M 8.4 8.4 L 7.65 8.4 L 7.65 12.133 L 8.4 12.133 L 9.15 12.133 L 9.15 8.4 L 8.4 8.4 Z M 8.4 12.133 L 8.4 12.883 L 9.333 12.883 L 9.333 12.133 L 9.333 11.383 L 8.4 11.383 L 8.4 12.133 Z M 8.4 8.4 L 8.4 7.65 L 7.467 7.65 L 7.467 8.4 L 7.467 9.15 L 8.4 9.15 L 8.4 8.4 Z M 16.8 8.4 L 16.05 8.4 C 16.05 12.625 12.625 16.05 8.4 16.05 L 8.4 16.8 L 8.4 17.55 C 13.453 17.55 17.55 13.453 17.55 8.4 L 16.8 8.4 Z M 8.4 16.8 L 8.4 16.05 C 4.175 16.05 0.75 12.625 0.75 8.4 L 0 8.4 L -0.75 8.4 C -0.75 13.453 3.347 17.55 8.4 17.55 L 8.4 16.8 Z M 0 8.4 L 0.75 8.4 C 0.75 4.175 4.175 0.75 8.4 0.75 L 8.4 0 L 8.4 -0.75 C 3.347 -0.75 -0.75 3.347 -0.75 8.4 L 0 8.4 Z M 8.4 0 L 8.4 0.75 C 12.625 0.75 16.05 4.175 16.05 8.4 L 16.8 8.4 L 17.55 8.4 C 17.55 3.347 13.453 -0.75 8.4 -0.75 L 8.4 0 Z M 8.4 4.667 L 8.4 5.417 L 8.409 5.417 L 8.409 4.667 L 8.409 3.917 L 8.4 3.917 L 8.4 4.667 Z" fill="currentColor" fill-rule="nonzero"></path></g>
</svg>