<svg xmlns="http://www.w3.org/2000/svg" width="24" height="24" viewBox="0 0 24 24" fill="none"><g transform="translate(2.000 2.000) scale(1.19048) translate(0.000 0.000)"><path d="M 5.84 7.227 L 6.37 7.757 C 6.566 7.561 6.638 7.274 6.558 7.009 L 5.84 7.227 Z M 3.733 16.8 L 3.733 17.55 C 4.148 17.55 4.483 17.214 4.483 16.8 L 3.733 16.8 Z M 3.733 14.933 L 3.733 14.183 C 3.319 14.183 2.983 14.519 2.983 14.933 L 3.733 14.933 Z M 5.6 14.933 L 5.6 15.683 C 6.014 15.683 6.35 15.348 6.35 14.933 L 5.6 14.933 Z M 5.6 13.067 L 5.6 12.317 C 5.186 12.317 4.85 12.652 4.85 13.067 L 5.6 13.067 Z M 7.467 13.067 L 7.467 13.817 C 7.666 13.817 7.856 13.738 7.997 13.597 L 7.467 13.067 Z M 9.573 10.96 L 9.791 10.242 C 9.526 10.162 9.239 10.234 9.043 10.43 L 9.573 10.96 Z M 0.273 12.793 L 0.804 13.324 L 0.273 12.793 Z M 11.2 2.983 C 10.786 2.983 10.45 3.319 10.45 3.733 C 10.45 4.148 10.786 4.483 11.2 4.483 L 11.2 3.733 L 11.2 2.983 Z M 12.317 5.6 C 12.317 6.014 12.652 6.35 13.067 6.35 C 13.481 6.35 13.817 6.014 13.817 5.6 L 13.067 5.6 L 12.317 5.6 Z M 16.8 5.6 L 16.05 5.6 C 16.05 8.279 13.879 10.45 11.2 10.45 L 11.2 11.2 L 11.2 11.95 C 14.707 11.95 17.55 9.107 17.55 5.6 L 16.8 5.6 Z M 11.2 0 L 11.2 0.75 C 13.879 0.75 16.05 2.921 16.05 5.6 L 16.8 5.6 L 17.55 5.6 C 17.55 2.093 14.707 -0.75 11.2 -0.75 L 11.2 0 Z M 5.6 5.6 L 6.35 5.6 C 6.35 2.921 8.521 0.75 11.2 0.75 L 11.2 0 L 11.2 -0.75 C 7.693 -0.75 4.85 2.093 4.85 5.6 L 5.6 5.6 Z M 5.84 7.227 L 6.558 7.009 C 6.423 6.564 6.35 6.091 6.35 5.6 L 5.6 5.6 L 4.85 5.6 C 4.85 6.24 4.945 6.86 5.122 7.444 L 5.84 7.227 Z M 5.84 7.227 L 5.31 6.696 L -0.257 12.263 L 0.273 12.793 L 0.804 13.324 L 6.37 7.757 L 5.84 7.227 Z M 0 13.453 L -0.75 13.453 L -0.75 15.867 L 0 15.867 L 0.75 15.867 L 0.75 13.453 L 0 13.453 Z M 0.933 16.8 L 0.933 17.55 L 3.733 17.55 L 3.733 16.8 L 3.733 16.05 L 0.933 16.05 L 0.933 16.8 Z M 3.733 16.8 L 4.483 16.8 L 4.483 14.933 L 3.733 14.933 L 2.983 14.933 L 2.983 16.8 L 3.733 16.8 Z M 3.733 14.933 L 3.733 15.683 L 5.6 15.683 L 5.6 14.933 L 5.6 14.183 L 3.733 14.183 L 3.733 14.933 Z M 5.6 14.933 L 6.35 14.933 L 6.35 13.067 L 5.6 13.067 L 4.85 13.067 L 4.85 14.933 L 5.6 14.933 Z M 5.6 13.067 L 5.6 13.817 L 7.467 13.817 L 7.467 13.067 L 7.467 12.317 L 5.6 12.317 L 5.6 13.067 Z M 7.467 13.067 L 7.997 13.597 L 10.104 11.49 L 9.573 10.96 L 9.043 10.43 L 6.936 12.536 L 7.467 13.067 Z M 11.2 11.2 L 11.2 10.45 C 10.709 10.45 10.236 10.377 9.791 10.242 L 9.573 10.96 L 9.356 11.678 C 9.94 11.855 10.56 11.95 11.2 11.95 L 11.2 11.2 Z M 0 15.867 L -0.75 15.867 C -0.75 16.796 0.004 17.55 0.933 17.55 L 0.933 16.8 L 0.933 16.05 C 0.832 16.05 0.75 15.968 0.75 15.867 L 0 15.867 Z M 0.273 12.793 L -0.257 12.263 C -0.573 12.579 -0.75 13.007 -0.75 13.453 L 0 13.453 L 0.75 13.453 C 0.75 13.405 0.769 13.358 0.804 13.324 L 0.273 12.793 Z M 11.2 3.733 L 11.2 4.483 C 11.817 4.483 12.317 4.983 12.317 5.6 L 13.067 5.6 L 13.817 5.6 C 13.817 4.155 12.645 2.983 11.2 2.983 L 11.2 3.733 Z" fill="currentColor" fill-rule="nonzero"></path></g></svg>