<svg xmlns="http://www.w3.org/2000/svg" width="24" height="24" viewBox="0 0 24 24" fill="none"><g transform="translate(2.000 2.000) scale(1.19048) translate(0.000 0.000)"><path d="M 5.1 11.7 L 4.57 12.23 L 4.57 12.23 L 5.1 11.7 Z M 11.7 11.7 L 12.23 12.23 L 12.23 12.23 L 11.7 11.7 Z M 5.611 12.21 L 6.141 11.68 L 6.141 11.68 L 5.611 12.21 Z M 6.533 14.438 L 5.783 14.438 L 5.783 14.438 L 6.533 14.438 Z M 11.189 12.21 L 10.659 11.68 L 10.659 11.68 L 11.189 12.21 Z M 10.267 14.438 L 11.017 14.438 L 11.017 14.438 L 10.267 14.438 Z M 8.4 16.8 L 8.4 16.05 L 8.4 16.05 L 8.4 16.8 Z M 6.219 12.317 C 5.805 12.317 5.469 12.652 5.469 13.067 C 5.469 13.481 5.805 13.817 6.219 13.817 L 6.219 13.067 L 6.219 12.317 Z M 10.581 13.817 C 10.995 13.817 11.331 13.481 11.331 13.067 C 11.331 12.652 10.995 12.317 10.581 12.317 L 10.581 13.067 L 10.581 13.817 Z M 9.15 0 C 9.15 -0.414 8.814 -0.75 8.4 -0.75 C 7.986 -0.75 7.65 -0.414 7.65 0 L 8.4 0 L 9.15 0 Z M 7.65 0.933 C 7.65 1.348 7.986 1.683 8.4 1.683 C 8.814 1.683 9.15 1.348 9.15 0.933 L 8.4 0.933 L 7.65 0.933 Z M 14.87 2.991 C 15.163 2.698 15.163 2.223 14.87 1.93 C 14.577 1.637 14.102 1.637 13.809 1.93 L 14.34 2.46 L 14.87 2.991 Z M 13.149 2.59 C 12.856 2.883 12.856 3.358 13.149 3.651 C 13.442 3.943 13.917 3.943 14.21 3.651 L 13.68 3.12 L 13.149 2.59 Z M 16.8 9.15 C 17.214 9.15 17.55 8.814 17.55 8.4 C 17.55 7.986 17.214 7.65 16.8 7.65 L 16.8 8.4 L 16.8 9.15 Z M 15.867 7.65 C 15.452 7.65 15.117 7.986 15.117 8.4 C 15.117 8.814 15.452 9.15 15.867 9.15 L 15.867 8.4 L 15.867 7.65 Z M 0.933 9.15 C 1.348 9.15 1.683 8.814 1.683 8.4 C 1.683 7.986 1.348 7.65 0.933 7.65 L 0.933 8.4 L 0.933 9.15 Z M 0 7.65 C -0.414 7.65 -0.75 7.986 -0.75 8.4 C -0.75 8.814 -0.414 9.15 0 9.15 L 0 8.4 L 0 7.65 Z M 2.59 3.651 C 2.883 3.943 3.358 3.943 3.651 3.651 C 3.943 3.358 3.943 2.883 3.651 2.59 L 3.12 3.12 L 2.59 3.651 Z M 2.991 1.93 C 2.698 1.637 2.223 1.637 1.93 1.93 C 1.637 2.223 1.637 2.698 1.93 2.991 L 2.46 2.46 L 2.991 1.93 Z M 5.1 11.7 L 5.63 11.17 C 4.101 9.64 4.101 7.16 5.63 5.631 L 5.1 5.1 L 4.57 4.57 C 2.454 6.685 2.454 10.115 4.57 12.23 L 5.1 11.7 Z M 5.1 5.1 L 5.63 5.631 C 7.16 4.101 9.64 4.101 11.169 5.631 L 11.7 5.1 L 12.23 4.57 C 10.115 2.455 6.685 2.455 4.57 4.57 L 5.1 5.1 Z M 11.7 5.1 L 11.169 5.631 C 12.699 7.16 12.699 9.64 11.169 11.17 L 11.7 11.7 L 12.23 12.23 C 14.345 10.115 14.345 6.685 12.23 4.57 L 11.7 5.1 Z M 5.1 11.7 L 4.57 12.23 L 5.08 12.741 L 5.611 12.21 L 6.141 11.68 L 5.63 11.17 L 5.1 11.7 Z M 6.533 14.438 L 5.783 14.438 L 5.783 14.933 L 6.533 14.933 L 7.283 14.933 L 7.283 14.438 L 6.533 14.438 Z M 11.7 11.7 L 11.169 11.17 L 10.659 11.68 L 11.189 12.21 L 11.719 12.741 L 12.23 12.23 L 11.7 11.7 Z M 10.267 14.438 L 9.517 14.438 L 9.517 14.933 L 10.267 14.933 L 11.017 14.933 L 11.017 14.438 L 10.267 14.438 Z M 10.267 14.933 L 9.517 14.933 C 9.517 15.55 9.017 16.05 8.4 16.05 L 8.4 16.8 L 8.4 17.55 C 9.845 17.55 11.017 16.378 11.017 14.933 L 10.267 14.933 Z M 11.189 12.21 L 10.659 11.68 C 9.927 12.411 9.517 13.403 9.517 14.438 L 10.267 14.438 L 11.017 14.438 C 11.017 13.801 11.269 13.191 11.719 12.741 L 11.189 12.21 Z M 6.533 14.933 L 5.783 14.933 C 5.783 16.378 6.955 17.55 8.4 17.55 L 8.4 16.8 L 8.4 16.05 C 7.783 16.05 7.283 15.55 7.283 14.933 L 6.533 14.933 Z M 5.611 12.21 L 5.08 12.741 C 5.53 13.191 5.783 13.801 5.783 14.438 L 6.533 14.438 L 7.283 14.438 C 7.283 13.403 6.872 12.411 6.141 11.68 L 5.611 12.21 Z M 6.219 13.067 L 6.219 13.817 L 10.581 13.817 L 10.581 13.067 L 10.581 12.317 L 6.219 12.317 L 6.219 13.067 Z M 8.4 0 L 7.65 0 L 7.65 0.933 L 8.4 0.933 L 9.15 0.933 L 9.15 0 L 8.4 0 Z M 14.34 2.46 L 13.809 1.93 L 13.149 2.59 L 13.68 3.12 L 14.21 3.651 L 14.87 2.991 L 14.34 2.46 Z M 16.8 8.4 L 16.8 7.65 L 15.867 7.65 L 15.867 8.4 L 15.867 9.15 L 16.8 9.15 L 16.8 8.4 Z M 0.933 8.4 L 0.933 7.65 L 0 7.65 L 0 8.4 L 0 9.15 L 0.933 9.15 L 0.933 8.4 Z M 3.12 3.12 L 3.651 2.59 L 2.991 1.93 L 2.46 2.46 L 1.93 2.991 L 2.59 3.651 L 3.12 3.12 Z" fill="currentColor" fill-rule="nonzero"></path></g></svg>