<svg xmlns="http://www.w3.org/2000/svg" width="24" height="24" viewBox="0 0 24 24" fill="none"><g transform="translate(3.111 2.000) scale(1.19048) translate(0.000 0.000)"><path d="M 8.4 6.533 L 7.65 6.533 C 7.65 6.948 7.986 7.283 8.4 7.283 L 8.4 6.533 Z M 8.4 0 L 9.15 0 C 9.15 -0.317 8.951 -0.6 8.652 -0.706 C 8.354 -0.813 8.02 -0.72 7.82 -0.475 L 8.4 0 Z M 0 10.267 L -0.58 9.792 C -0.764 10.016 -0.802 10.326 -0.678 10.588 C -0.554 10.85 -0.29 11.017 0 11.017 L 0 10.267 Z M 6.533 10.267 L 7.283 10.267 C 7.283 10.068 7.204 9.877 7.064 9.736 C 6.923 9.596 6.732 9.517 6.533 9.517 L 6.533 10.267 Z M 6.533 16.8 L 5.783 16.8 C 5.783 17.117 5.983 17.4 6.281 17.506 C 6.58 17.613 6.913 17.52 7.114 17.275 L 6.533 16.8 Z M 14.933 6.533 L 15.514 7.008 C 15.697 6.784 15.735 6.474 15.611 6.212 C 15.487 5.95 15.223 5.783 14.933 5.783 L 14.933 6.533 Z M 8.4 6.533 L 9.15 6.533 L 9.15 0 L 8.4 0 L 7.65 0 L 7.65 6.533 L 8.4 6.533 Z M 8.4 0 L 7.82 -0.475 L -0.58 9.792 L 0 10.267 L 0.58 10.742 L 8.98 0.475 L 8.4 0 Z M 0 10.267 L 0 11.017 L 6.533 11.017 L 6.533 10.267 L 6.533 9.517 L 0 9.517 L 0 10.267 Z M 6.533 10.267 L 5.783 10.267 L 5.783 16.8 L 6.533 16.8 L 7.283 16.8 L 7.283 10.267 L 6.533 10.267 Z M 6.533 16.8 L 7.114 17.275 L 15.514 7.008 L 14.933 6.533 L 14.353 6.058 L 5.953 16.325 L 6.533 16.8 Z M 14.933 6.533 L 14.933 5.783 L 8.4 5.783 L 8.4 6.533 L 8.4 7.283 L 14.933 7.283 L 14.933 6.533 Z" fill="currentColor" fill-rule="nonzero"></path></g></svg>