<svg xmlns="http://www.w3.org/2000/svg" width="24" height="24" viewBox="0 0 24 24" fill="none"><g transform="translate(2.000 2.000) scale(1.19048) translate(0.000 0.000)"><path d="M 4.827 6.693 L 5.357 7.224 L 5.357 7.224 L 4.827 6.693 Z M 9.576 7.224 C 9.869 7.517 10.344 7.517 10.637 7.224 C 10.93 6.931 10.93 6.456 10.637 6.163 L 10.107 6.693 L 9.576 7.224 Z M 6.373 15.707 L 5.843 15.176 L 5.843 15.176 L 6.373 15.707 Z M 1.093 15.707 L 0.563 16.237 L 0.563 16.237 L 1.093 15.707 Z M 1.093 10.427 L 1.624 10.957 L 1.093 10.427 Z M 7.932 15.209 C 8.225 14.916 8.225 14.441 7.932 14.148 C 7.639 13.855 7.164 13.855 6.871 14.148 L 7.401 14.678 L 7.932 15.209 Z M 10.427 1.093 L 9.896 0.563 L 9.896 0.563 L 10.427 1.093 Z M 15.707 1.093 L 15.176 1.624 L 15.176 1.624 L 15.707 1.093 Z M 15.707 6.373 L 15.176 5.843 L 15.176 5.843 L 15.707 6.373 Z M 11.973 10.107 L 11.443 9.576 L 11.443 9.576 L 11.973 10.107 Z M 7.224 9.576 C 6.931 9.283 6.456 9.283 6.163 9.576 C 5.87 9.869 5.87 10.344 6.163 10.637 L 6.693 10.107 L 7.224 9.576 Z M 8.87 1.589 C 8.577 1.882 8.577 2.357 8.87 2.65 C 9.163 2.943 9.638 2.943 9.931 2.65 L 9.4 2.12 L 8.87 1.589 Z M 4.827 6.693 L 5.357 7.224 C 6.522 6.059 8.411 6.059 9.576 7.224 L 10.107 6.693 L 10.637 6.163 C 8.886 4.412 6.047 4.412 4.296 6.163 L 4.827 6.693 Z M 6.373 15.707 L 5.843 15.176 C 4.678 16.341 2.789 16.341 1.624 15.176 L 1.093 15.707 L 0.563 16.237 C 2.314 17.988 5.153 17.988 6.904 16.237 L 6.373 15.707 Z M 1.093 15.707 L 1.624 15.176 C 0.459 14.011 0.459 12.122 1.624 10.957 L 1.093 10.427 L 0.563 9.896 C -1.188 11.647 -1.188 14.486 0.563 16.237 L 1.093 15.707 Z M 1.093 10.427 L 1.624 10.957 L 5.357 7.224 L 4.827 6.693 L 4.296 6.163 L 0.563 9.896 L 1.093 10.427 Z M 7.401 14.678 L 6.871 14.148 L 5.843 15.176 L 6.373 15.707 L 6.904 16.237 L 7.932 15.209 L 7.401 14.678 Z M 10.427 1.093 L 10.957 1.624 C 12.122 0.459 14.011 0.459 15.176 1.624 L 15.707 1.093 L 16.237 0.563 C 14.486 -1.188 11.647 -1.188 9.896 0.563 L 10.427 1.093 Z M 15.707 1.093 L 15.176 1.624 C 16.341 2.789 16.341 4.678 15.176 5.843 L 15.707 6.373 L 16.237 6.904 C 17.988 5.153 17.988 2.314 16.237 0.563 L 15.707 1.093 Z M 11.973 10.107 L 11.443 9.576 C 10.278 10.741 8.389 10.741 7.224 9.576 L 6.693 10.107 L 6.163 10.637 C 7.914 12.388 10.753 12.388 12.504 10.637 L 11.973 10.107 Z M 15.707 6.373 L 15.176 5.843 L 11.443 9.576 L 11.973 10.107 L 12.504 10.637 L 16.237 6.904 L 15.707 6.373 Z M 9.4 2.12 L 9.931 2.65 L 10.957 1.624 L 10.427 1.093 L 9.896 0.563 L 8.87 1.589 L 9.4 2.12 Z" fill="currentColor" fill-rule="nonzero"></path></g></svg>