<svg xmlns="http://www.w3.org/2000/svg" width="24" height="24" viewBox="0 0 24 24" fill="none"><g transform="translate(3.715 2.000) scale(1.19048) translate(0.000 0.000)"><path d="M 11.879 11.879 L 11.349 11.349 L 11.879 11.879 Z M 8.373 15.386 L 7.842 14.856 L 8.373 15.386 Z M 5.545 15.386 L 5.015 15.917 L 5.545 15.386 Z M 2.038 11.879 L 2.569 11.349 C 0.144 8.924 0.144 4.993 2.569 2.569 L 2.038 2.038 L 1.508 1.508 C -1.503 4.518 -1.503 9.399 1.508 12.41 L 2.038 11.879 Z M 2.038 2.038 L 2.569 2.569 C 4.993 0.144 8.924 0.144 11.349 2.569 L 11.879 2.038 L 12.41 1.508 C 9.399 -1.503 4.518 -1.503 1.508 1.508 L 2.038 2.038 Z M 11.879 2.038 L 11.349 2.569 C 13.774 4.993 13.774 8.924 11.349 11.349 L 11.879 11.879 L 12.41 12.41 C 15.42 9.399 15.42 4.518 12.41 1.508 L 11.879 2.038 Z M 11.879 11.879 L 11.349 11.349 C 11.328 11.37 11.222 11.476 11.195 11.503 C 11.144 11.554 11.164 11.534 11.112 11.587 C 11.097 11.601 11.083 11.615 11.068 11.63 C 11.021 11.677 11.071 11.627 11.024 11.674 C 11.009 11.689 10.994 11.704 10.979 11.719 C 10.97 11.728 10.976 11.722 10.967 11.731 C 10.965 11.733 10.958 11.74 10.956 11.742 C 10.952 11.746 10.948 11.75 10.944 11.754 C 10.942 11.756 10.94 11.758 10.939 11.76 C 10.937 11.762 10.935 11.763 10.933 11.765 C 10.924 11.774 10.929 11.769 10.921 11.777 C 10.919 11.779 10.917 11.781 10.915 11.783 C 10.913 11.785 10.911 11.787 10.909 11.789 C 10.904 11.794 10.891 11.807 10.886 11.812 C 10.884 11.814 10.882 11.816 10.88 11.818 C 10.878 11.82 10.876 11.822 10.874 11.824 C 10.872 11.826 10.87 11.828 10.868 11.83 C 10.866 11.832 10.864 11.834 10.862 11.836 C 10.827 11.871 10.872 11.826 10.838 11.86 C 10.836 11.862 10.834 11.864 10.832 11.866 C 10.83 11.868 10.828 11.87 10.826 11.872 C 10.824 11.874 10.822 11.876 10.82 11.878 C 10.818 11.88 10.816 11.883 10.814 11.885 C 10.807 11.891 10.808 11.89 10.801 11.897 C 10.771 11.927 10.819 11.879 10.789 11.909 C 10.753 11.945 10.813 11.885 10.777 11.921 C 10.775 11.923 10.773 11.925 10.771 11.927 C 10.769 11.93 10.767 11.932 10.764 11.934 C 10.76 11.938 10.756 11.942 10.752 11.946 C 10.733 11.965 10.758 11.94 10.74 11.959 C 10.674 12.025 10.705 11.993 10.638 12.06 C 10.598 12.1 10.471 12.228 10.427 12.271 C 10.374 12.325 10.426 12.272 10.373 12.326 C 10.339 12.359 10.392 12.306 10.359 12.339 C 10.357 12.342 10.354 12.344 10.352 12.346 C 10.35 12.348 10.347 12.351 10.345 12.353 C 10.338 12.36 10.324 12.374 10.317 12.381 C 10.294 12.404 10.23 12.468 10.206 12.492 C 10.196 12.502 10.187 12.511 10.178 12.521 C 10.175 12.523 10.173 12.525 10.17 12.528 C 10.168 12.53 10.166 12.532 10.163 12.535 C 10.161 12.537 10.159 12.539 10.156 12.542 C 10.154 12.544 10.152 12.547 10.149 12.549 C 10.142 12.556 10.128 12.57 10.121 12.577 C 10.095 12.603 10.132 12.566 10.106 12.592 C 10.064 12.635 10.135 12.563 10.092 12.606 C 10.033 12.665 10.094 12.605 10.035 12.664 C 10.02 12.678 10.02 12.678 10.006 12.693 C 9.981 12.717 10.016 12.682 9.991 12.707 C 9.953 12.745 10.015 12.683 9.977 12.722 C 9.959 12.74 9.965 12.733 9.947 12.751 C 9.93 12.768 9.935 12.763 9.918 12.78 C 9.911 12.788 9.911 12.787 9.904 12.795 C 9.901 12.797 9.899 12.799 9.896 12.802 C 9.894 12.804 9.891 12.807 9.889 12.809 C 9.886 12.812 9.884 12.814 9.882 12.817 C 9.879 12.819 9.877 12.822 9.874 12.824 C 9.872 12.826 9.869 12.829 9.867 12.831 C 9.864 12.834 9.862 12.836 9.859 12.839 C 9.849 12.849 9.811 12.887 9.8 12.898 C 9.793 12.905 9.778 12.92 9.771 12.927 C 9.768 12.93 9.766 12.932 9.763 12.935 C 9.761 12.937 9.758 12.94 9.756 12.942 C 9.753 12.945 9.751 12.947 9.748 12.95 C 9.746 12.952 9.743 12.955 9.741 12.957 C 9.729 12.969 9.694 13.005 9.681 13.017 C 9.672 13.026 9.676 13.022 9.666 13.032 C 9.664 13.034 9.661 13.037 9.659 13.039 C 9.656 13.042 9.654 13.044 9.651 13.047 C 9.641 13.057 9.631 13.067 9.621 13.077 C 9.619 13.079 9.616 13.082 9.614 13.084 C 9.611 13.087 9.609 13.089 9.606 13.092 C 9.604 13.094 9.601 13.097 9.599 13.099 C 9.596 13.102 9.594 13.104 9.591 13.107 C 9.584 13.114 9.584 13.114 9.576 13.122 C 9.574 13.124 9.571 13.127 9.569 13.129 C 9.566 13.132 9.564 13.134 9.561 13.137 C 9.523 13.175 9.539 13.159 9.501 13.197 C 9.498 13.2 9.496 13.202 9.493 13.205 C 9.491 13.207 9.488 13.21 9.486 13.212 C 9.483 13.215 9.481 13.217 9.478 13.22 C 9.476 13.222 9.473 13.225 9.471 13.228 C 9.448 13.25 9.478 13.22 9.455 13.243 C 9.44 13.258 9.455 13.243 9.44 13.258 C 9.383 13.315 9.437 13.261 9.38 13.318 C 9.309 13.389 9.329 13.369 9.258 13.44 C 9.195 13.503 9.199 13.499 9.136 13.562 C 9.102 13.596 9.109 13.589 9.075 13.623 C 9.072 13.626 9.063 13.635 9.06 13.638 C 9.037 13.661 9.067 13.631 9.045 13.654 C 9.025 13.673 9.034 13.664 9.014 13.684 C 9.013 13.685 9 13.698 8.999 13.699 C 8.996 13.702 8.994 13.704 8.991 13.707 C 8.989 13.709 8.986 13.712 8.984 13.714 C 8.974 13.725 8.963 13.735 8.953 13.745 C 8.951 13.747 8.948 13.75 8.946 13.752 C 8.943 13.755 8.941 13.758 8.938 13.76 C 8.935 13.763 8.933 13.765 8.93 13.768 C 8.928 13.77 8.925 13.773 8.923 13.775 C 8.92 13.778 8.918 13.78 8.915 13.783 C 8.913 13.785 8.91 13.788 8.908 13.791 C 8.894 13.804 8.906 13.792 8.892 13.806 C 8.841 13.857 8.913 13.785 8.862 13.836 C 8.86 13.839 8.857 13.841 8.854 13.844 C 8.852 13.846 8.849 13.849 8.847 13.851 C 8.844 13.854 8.842 13.856 8.839 13.859 C 8.837 13.861 8.834 13.864 8.832 13.866 C 8.83 13.868 8.818 13.88 8.817 13.882 C 8.798 13.9 8.82 13.878 8.801 13.897 C 8.78 13.918 8.808 13.89 8.786 13.912 C 8.753 13.945 8.804 13.894 8.771 13.927 C 8.752 13.946 8.76 13.938 8.741 13.957 C 8.709 13.989 8.743 13.956 8.711 13.987 C 8.691 14.008 8.67 14.028 8.65 14.048 C 8.648 14.05 8.645 14.053 8.643 14.055 C 8.64 14.058 8.638 14.06 8.635 14.063 C 8.622 14.076 8.633 14.065 8.62 14.078 C 8.605 14.094 8.606 14.092 8.59 14.108 C 8.589 14.11 8.577 14.121 8.575 14.123 C 8.573 14.125 8.57 14.128 8.568 14.13 C 8.565 14.133 8.563 14.135 8.56 14.138 C 8.535 14.164 8.556 14.142 8.531 14.168 C 8.528 14.17 8.526 14.172 8.523 14.175 C 8.521 14.177 8.518 14.18 8.516 14.182 C 8.474 14.224 8.543 14.155 8.501 14.197 C 8.498 14.2 8.496 14.202 8.493 14.205 C 8.491 14.207 8.488 14.21 8.486 14.212 C 8.447 14.251 8.51 14.188 8.471 14.227 C 8.451 14.247 8.432 14.267 8.412 14.286 C 8.367 14.331 8.398 14.3 8.353 14.345 C 8.315 14.383 8.333 14.366 8.294 14.404 C 8.258 14.44 8.272 14.426 8.236 14.462 C 8.227 14.472 8.232 14.467 8.222 14.476 C 8.219 14.479 8.217 14.481 8.215 14.484 C 8.212 14.486 8.21 14.488 8.207 14.491 C 8.205 14.493 8.203 14.496 8.2 14.498 C 8.198 14.5 8.195 14.503 8.193 14.505 C 8.172 14.526 8.199 14.499 8.179 14.52 C 8.14 14.558 8.102 14.596 8.064 14.634 C 8.062 14.636 8.06 14.638 8.057 14.641 C 8.055 14.643 8.053 14.645 8.05 14.648 C 8.037 14.661 8.049 14.649 8.036 14.662 C 8.033 14.666 8.026 14.672 8.022 14.676 C 8.02 14.678 8.017 14.681 8.015 14.683 C 8.013 14.685 8.01 14.688 8.008 14.69 C 8.003 14.695 7.999 14.699 7.994 14.704 C 7.989 14.709 7.985 14.713 7.98 14.718 C 7.978 14.72 7.975 14.723 7.973 14.725 C 7.971 14.727 7.968 14.73 7.966 14.732 C 7.964 14.734 7.962 14.737 7.959 14.739 C 7.957 14.741 7.955 14.744 7.952 14.746 C 7.95 14.748 7.948 14.75 7.945 14.753 C 7.943 14.755 7.941 14.757 7.938 14.76 C 7.936 14.762 7.934 14.764 7.931 14.767 C 7.929 14.769 7.927 14.771 7.925 14.774 C 7.909 14.789 7.912 14.786 7.897 14.801 C 7.896 14.802 7.871 14.827 7.87 14.829 C 7.867 14.831 7.865 14.833 7.863 14.835 C 7.86 14.838 7.858 14.84 7.856 14.842 C 7.825 14.873 7.873 14.825 7.842 14.856 L 8.373 15.386 L 8.903 15.916 C 8.921 15.898 8.912 15.908 8.93 15.889 C 8.978 15.841 8.909 15.91 8.958 15.862 C 8.981 15.838 8.962 15.858 8.985 15.834 C 8.997 15.823 9.001 15.818 9.013 15.807 C 9.015 15.804 9.018 15.802 9.02 15.8 C 9.022 15.797 9.025 15.795 9.027 15.793 C 9.029 15.79 9.031 15.788 9.034 15.786 C 9.036 15.783 9.038 15.781 9.041 15.779 C 9.043 15.777 9.067 15.753 9.069 15.751 C 9.087 15.732 9.106 15.713 9.125 15.694 C 9.144 15.675 9.163 15.657 9.182 15.638 C 9.2 15.62 9.193 15.627 9.211 15.609 C 9.213 15.607 9.215 15.604 9.218 15.602 C 9.22 15.599 9.222 15.597 9.225 15.595 C 9.227 15.592 9.23 15.59 9.232 15.587 C 9.234 15.585 9.237 15.583 9.239 15.58 C 9.277 15.543 9.23 15.589 9.268 15.551 C 9.27 15.549 9.273 15.547 9.275 15.544 C 9.278 15.542 9.28 15.539 9.282 15.537 C 9.292 15.527 9.287 15.532 9.297 15.522 C 9.333 15.487 9.319 15.5 9.355 15.464 C 9.393 15.426 9.375 15.444 9.414 15.406 C 9.458 15.361 9.428 15.392 9.473 15.347 C 9.492 15.327 9.512 15.307 9.532 15.288 C 9.534 15.285 9.537 15.283 9.539 15.28 C 9.542 15.278 9.544 15.275 9.547 15.273 C 9.549 15.27 9.552 15.268 9.554 15.265 C 9.557 15.263 9.559 15.26 9.561 15.258 C 9.609 15.211 9.544 15.275 9.591 15.228 C 9.6 15.22 9.598 15.222 9.606 15.213 C 9.613 15.206 9.614 15.205 9.621 15.198 C 9.624 15.196 9.626 15.193 9.629 15.191 C 9.631 15.188 9.634 15.186 9.636 15.183 C 9.638 15.182 9.649 15.17 9.651 15.168 C 9.667 15.153 9.665 15.154 9.681 15.138 C 9.694 15.125 9.683 15.136 9.696 15.123 C 9.716 15.103 9.691 15.128 9.711 15.108 C 9.73 15.09 9.723 15.097 9.741 15.078 C 9.761 15.058 9.751 15.068 9.771 15.048 C 9.783 15.037 9.82 14.999 9.832 14.988 C 9.865 14.954 9.814 15.006 9.847 14.973 C 9.868 14.951 9.84 14.979 9.862 14.957 C 9.881 14.939 9.858 14.961 9.877 14.942 C 9.879 14.941 9.891 14.929 9.892 14.927 C 9.895 14.925 9.897 14.922 9.9 14.92 C 9.902 14.917 9.905 14.914 9.908 14.912 C 9.91 14.909 9.913 14.907 9.915 14.904 C 9.918 14.902 9.92 14.899 9.923 14.897 C 9.937 14.882 9.938 14.881 9.953 14.866 C 9.956 14.864 9.958 14.861 9.961 14.859 C 9.963 14.856 9.966 14.854 9.968 14.851 C 9.971 14.849 9.973 14.846 9.976 14.844 C 9.978 14.841 9.981 14.839 9.983 14.836 C 9.986 14.833 9.989 14.831 9.991 14.828 C 9.994 14.826 9.996 14.823 9.999 14.821 C 10.001 14.818 10.004 14.816 10.006 14.813 C 10.009 14.811 10.011 14.808 10.014 14.806 C 10.016 14.803 10.019 14.8 10.022 14.798 C 10.024 14.795 10.027 14.793 10.029 14.79 C 10.032 14.788 10.034 14.785 10.037 14.783 C 10.039 14.78 10.042 14.778 10.044 14.775 C 10.049 14.77 10.054 14.765 10.06 14.76 C 10.061 14.759 10.073 14.746 10.075 14.745 C 10.077 14.742 10.08 14.74 10.082 14.737 C 10.085 14.734 10.088 14.732 10.09 14.729 C 10.093 14.727 10.095 14.724 10.098 14.722 C 10.1 14.719 10.103 14.717 10.105 14.714 C 10.108 14.712 10.11 14.709 10.113 14.707 C 10.115 14.704 10.118 14.701 10.121 14.699 C 10.123 14.696 10.126 14.694 10.128 14.691 C 10.131 14.689 10.133 14.686 10.136 14.684 C 10.138 14.681 10.141 14.679 10.143 14.676 C 10.146 14.674 10.148 14.671 10.151 14.668 C 10.154 14.666 10.156 14.663 10.159 14.661 C 10.161 14.658 10.164 14.656 10.166 14.653 C 10.194 14.625 10.169 14.651 10.197 14.623 C 10.241 14.578 10.213 14.606 10.258 14.562 C 10.276 14.543 10.269 14.55 10.288 14.531 C 10.305 14.514 10.286 14.533 10.303 14.516 C 10.315 14.505 10.308 14.512 10.319 14.501 C 10.329 14.49 10.43 14.389 10.44 14.379 C 10.443 14.377 10.445 14.374 10.448 14.372 C 10.45 14.369 10.453 14.366 10.456 14.364 C 10.458 14.361 10.461 14.359 10.463 14.356 C 10.466 14.354 10.468 14.351 10.471 14.349 C 10.471 14.348 10.485 14.334 10.486 14.334 C 10.532 14.288 10.455 14.364 10.501 14.318 C 10.504 14.316 10.506 14.313 10.509 14.311 C 10.511 14.308 10.514 14.306 10.516 14.303 C 10.519 14.301 10.521 14.298 10.524 14.296 C 10.526 14.293 10.529 14.291 10.531 14.288 C 10.534 14.286 10.536 14.283 10.539 14.281 C 10.541 14.278 10.544 14.276 10.546 14.273 C 10.574 14.246 10.534 14.285 10.562 14.258 C 10.612 14.208 10.542 14.278 10.592 14.228 C 10.635 14.184 10.578 14.241 10.622 14.198 C 10.622 14.197 10.652 14.168 10.652 14.167 C 10.654 14.165 10.657 14.162 10.66 14.16 C 10.662 14.157 10.665 14.155 10.667 14.152 C 10.693 14.126 10.656 14.163 10.682 14.137 C 10.685 14.135 10.687 14.132 10.69 14.13 C 10.692 14.127 10.695 14.125 10.697 14.122 C 10.7 14.12 10.702 14.117 10.705 14.115 C 10.707 14.112 10.71 14.11 10.712 14.107 C 10.724 14.096 10.715 14.104 10.727 14.092 C 10.729 14.09 10.732 14.087 10.734 14.085 C 10.737 14.082 10.739 14.08 10.742 14.077 C 10.754 14.065 10.789 14.03 10.802 14.018 C 10.881 13.938 10.96 13.86 11.037 13.782 C 11.097 13.723 11.209 13.61 11.266 13.553 C 11.29 13.529 11.355 13.465 11.378 13.441 C 11.415 13.404 11.451 13.368 11.488 13.332 C 11.536 13.283 11.547 13.273 11.595 13.225 C 11.63 13.19 11.665 13.155 11.699 13.121 C 11.701 13.118 11.722 13.097 11.724 13.095 C 11.727 13.093 11.729 13.091 11.731 13.089 C 11.733 13.086 11.735 13.084 11.737 13.082 C 11.75 13.069 11.737 13.083 11.75 13.07 C 11.787 13.032 11.763 13.056 11.8 13.019 C 11.849 12.971 11.802 13.018 11.85 12.97 C 11.88 12.939 11.832 12.988 11.862 12.957 C 11.868 12.951 11.868 12.952 11.874 12.945 C 11.911 12.909 11.862 12.957 11.899 12.921 C 11.934 12.885 11.959 12.861 11.993 12.826 C 12.008 12.811 11.99 12.829 12.005 12.814 C 12.009 12.811 12.013 12.807 12.017 12.803 C 12.018 12.801 12.02 12.799 12.022 12.797 C 12.024 12.795 12.026 12.793 12.028 12.791 C 12.03 12.789 12.032 12.788 12.034 12.786 C 12.036 12.784 12.038 12.782 12.04 12.78 C 12.055 12.765 12.07 12.75 12.085 12.735 C 12.132 12.687 12.082 12.738 12.129 12.69 C 12.15 12.669 12.119 12.701 12.14 12.68 C 12.145 12.674 12.145 12.674 12.151 12.669 C 12.19 12.629 12.133 12.687 12.172 12.647 C 12.174 12.645 12.176 12.644 12.178 12.642 C 12.179 12.64 12.181 12.638 12.183 12.637 C 12.185 12.635 12.186 12.633 12.188 12.631 C 12.19 12.629 12.192 12.628 12.193 12.626 C 12.195 12.624 12.197 12.622 12.199 12.621 C 12.201 12.619 12.202 12.617 12.204 12.615 C 12.208 12.612 12.211 12.608 12.214 12.605 C 12.248 12.571 12.223 12.597 12.256 12.564 C 12.322 12.497 12.27 12.549 12.335 12.484 C 12.345 12.474 12.344 12.476 12.354 12.465 C 12.368 12.451 12.359 12.46 12.373 12.447 C 12.416 12.404 12.367 12.452 12.41 12.41 L 11.879 11.879 Z M 5.545 15.386 L 6.076 14.856 C 4.936 13.716 3.392 12.172 2.569 11.349 L 2.038 11.879 L 1.508 12.41 C 2.331 13.233 3.875 14.777 5.015 15.917 L 5.545 15.386 Z M 9.568 6.959 L 8.818 6.959 C 8.818 7.986 7.986 8.818 6.959 8.818 L 6.959 9.568 L 6.959 10.318 C 8.814 10.318 10.318 8.814 10.318 6.959 L 9.568 6.959 Z M 6.959 9.568 L 6.959 8.818 C 5.932 8.818 5.099 7.986 5.099 6.959 L 4.349 6.959 L 3.599 6.959 C 3.599 8.814 5.103 10.318 6.959 10.318 L 6.959 9.568 Z M 4.349 6.959 L 5.099 6.959 C 5.099 5.932 5.932 5.099 6.959 5.099 L 6.959 4.349 L 6.959 3.599 C 5.103 3.599 3.599 5.103 3.599 6.959 L 4.349 6.959 Z M 6.959 4.349 L 6.959 5.099 C 7.986 5.099 8.818 5.932 8.818 6.959 L 9.568 6.959 L 10.318 6.959 C 10.318 5.103 8.814 3.599 6.959 3.599 L 6.959 4.349 Z M 8.373 15.386 L 7.842 14.856 C 7.354 15.344 6.564 15.344 6.076 14.856 L 5.545 15.386 L 5.015 15.917 C 6.089 16.991 7.829 16.99 8.903 15.916 L 8.373 15.386 Z" fill="currentColor" fill-rule="nonzero"></path></g></svg>