<svg xmlns="http://www.w3.org/2000/svg" width="24" height="24" viewBox="0 0 24 24" fill="none"><g transform="translate(3.111 2.000) scale(1.19048) translate(0.000 0.000)"><path d="M 11.2 7.467 L 11.2 8.217 L 11.95 8.217 L 11.95 7.467 L 11.2 7.467 Z M 3.733 7.467 L 2.983 7.467 L 2.983 8.217 L 3.733 8.217 L 3.733 7.467 Z M 8.217 11.2 C 8.217 10.786 7.881 10.45 7.467 10.45 C 7.052 10.45 6.717 10.786 6.717 11.2 L 7.467 11.2 L 8.217 11.2 Z M 6.717 13.067 C 6.717 13.481 7.052 13.817 7.467 13.817 C 7.881 13.817 8.217 13.481 8.217 13.067 L 7.467 13.067 L 6.717 13.067 Z M 1.867 7.467 L 1.867 8.217 L 13.067 8.217 L 13.067 7.467 L 13.067 6.717 L 1.867 6.717 L 1.867 7.467 Z M 14.933 9.333 L 14.183 9.333 L 14.183 14.933 L 14.933 14.933 L 15.683 14.933 L 15.683 9.333 L 14.933 9.333 Z M 13.067 16.8 L 13.067 16.05 L 1.867 16.05 L 1.867 16.8 L 1.867 17.55 L 13.067 17.55 L 13.067 16.8 Z M 0 14.933 L 0.75 14.933 L 0.75 9.333 L 0 9.333 L -0.75 9.333 L -0.75 14.933 L 0 14.933 Z M 1.867 16.8 L 1.867 16.05 C 1.25 16.05 0.75 15.55 0.75 14.933 L 0 14.933 L -0.75 14.933 C -0.75 16.378 0.422 17.55 1.867 17.55 L 1.867 16.8 Z M 14.933 14.933 L 14.183 14.933 C 14.183 15.55 13.683 16.05 13.067 16.05 L 13.067 16.8 L 13.067 17.55 C 14.512 17.55 15.683 16.378 15.683 14.933 L 14.933 14.933 Z M 13.067 7.467 L 13.067 8.217 C 13.683 8.217 14.183 8.717 14.183 9.333 L 14.933 9.333 L 15.683 9.333 C 15.683 7.888 14.512 6.717 13.067 6.717 L 13.067 7.467 Z M 1.867 7.467 L 1.867 6.717 C 0.422 6.717 -0.75 7.888 -0.75 9.333 L 0 9.333 L 0.75 9.333 C 0.75 8.717 1.25 8.217 1.867 8.217 L 1.867 7.467 Z M 11.2 3.733 L 10.45 3.733 L 10.45 7.467 L 11.2 7.467 L 11.95 7.467 L 11.95 3.733 L 11.2 3.733 Z M 11.2 7.467 L 11.2 6.717 L 3.733 6.717 L 3.733 7.467 L 3.733 8.217 L 11.2 8.217 L 11.2 7.467 Z M 3.733 7.467 L 4.483 7.467 L 4.483 3.733 L 3.733 3.733 L 2.983 3.733 L 2.983 7.467 L 3.733 7.467 Z M 7.467 0 L 7.467 0.75 C 9.114 0.75 10.45 2.086 10.45 3.733 L 11.2 3.733 L 11.95 3.733 C 11.95 1.257 9.943 -0.75 7.467 -0.75 L 7.467 0 Z M 7.467 0 L 7.467 -0.75 C 4.991 -0.75 2.983 1.257 2.983 3.733 L 3.733 3.733 L 4.483 3.733 C 4.483 2.086 5.819 0.75 7.467 0.75 L 7.467 0 Z M 7.467 11.2 L 6.717 11.2 L 6.717 13.067 L 7.467 13.067 L 8.217 13.067 L 8.217 11.2 L 7.467 11.2 Z" fill="currentColor" fill-rule="nonzero"></path></g></svg>