<svg xmlns="http://www.w3.org/2000/svg" width="24" height="24" viewBox="0 0 24 24" fill="none"><g transform="translate(2.000 4.222) scale(1.19048) translate(0.000 0.000)"><path d="M 0.416 2.176 C 0.071 1.946 -0.394 2.039 -0.624 2.384 C -0.854 2.729 -0.761 3.194 -0.416 3.424 L 0 2.8 L 0.416 2.176 Z M 7.365 7.71 L 6.949 8.334 L 6.949 8.334 L 7.365 7.71 Z M 9.435 7.71 L 9.019 7.086 L 9.019 7.086 L 9.435 7.71 Z M 17.216 3.424 C 17.561 3.194 17.654 2.729 17.424 2.384 C 17.194 2.039 16.729 1.946 16.384 2.176 L 16.8 2.8 L 17.216 3.424 Z M 1.867 0 L 1.867 0.75 L 14.933 0.75 L 14.933 0 L 14.933 -0.75 L 1.867 -0.75 L 1.867 0 Z M 16.8 1.867 L 16.05 1.867 L 16.05 11.2 L 16.8 11.2 L 17.55 11.2 L 17.55 1.867 L 16.8 1.867 Z M 14.933 13.067 L 14.933 12.317 L 1.867 12.317 L 1.867 13.067 L 1.867 13.817 L 14.933 13.817 L 14.933 13.067 Z M 0 11.2 L 0.75 11.2 L 0.75 1.867 L 0 1.867 L -0.75 1.867 L -0.75 11.2 L 0 11.2 Z M 1.867 13.067 L 1.867 12.317 C 1.25 12.317 0.75 11.817 0.75 11.2 L 0 11.2 L -0.75 11.2 C -0.75 12.645 0.422 13.817 1.867 13.817 L 1.867 13.067 Z M 16.8 11.2 L 16.05 11.2 C 16.05 11.817 15.55 12.317 14.933 12.317 L 14.933 13.067 L 14.933 13.817 C 16.378 13.817 17.55 12.645 17.55 11.2 L 16.8 11.2 Z M 14.933 0 L 14.933 0.75 C 15.55 0.75 16.05 1.25 16.05 1.867 L 16.8 1.867 L 17.55 1.867 C 17.55 0.422 16.378 -0.75 14.933 -0.75 L 14.933 0 Z M 1.867 0 L 1.867 -0.75 C 0.422 -0.75 -0.75 0.422 -0.75 1.867 L 0 1.867 L 0.75 1.867 C 0.75 1.25 1.25 0.75 1.867 0.75 L 1.867 0 Z M 0 2.8 L -0.416 3.424 L 6.949 8.334 L 7.365 7.71 L 7.781 7.086 L 0.416 2.176 L 0 2.8 Z M 9.435 7.71 L 9.851 8.334 L 17.216 3.424 L 16.8 2.8 L 16.384 2.176 L 9.019 7.086 L 9.435 7.71 Z M 7.365 7.71 L 6.949 8.334 C 7.827 8.92 8.973 8.92 9.851 8.334 L 9.435 7.71 L 9.019 7.086 C 8.644 7.336 8.156 7.336 7.781 7.086 L 7.365 7.71 Z" fill="currentColor" fill-rule="nonzero"></path></g></svg>