<svg xmlns="http://www.w3.org/2000/svg" width="24" height="24" viewBox="0 0 24 24" fill="none"><g transform="translate(2.000 3.111) scale(1.19048) translate(0.000 0.000)"><path d="M 5.6 14.933 L 5.265 15.604 C 5.476 15.71 5.724 15.71 5.935 15.604 L 5.6 14.933 Z M 11.2 0 L 11.535 -0.671 C 11.324 -0.776 11.076 -0.776 10.865 -0.671 L 11.2 0 Z M 0.516 12.391 L 0.851 11.72 L 0.851 11.72 L 0.516 12.391 Z M 16.284 2.542 L 16.619 1.871 L 16.619 1.871 L 16.284 2.542 Z M 0 1.51 L -0.75 1.51 L -0.75 11.557 L 0 11.557 L 0.75 11.557 L 0.75 1.51 L 0 1.51 Z M 0.516 12.391 L 0.181 13.062 L 5.265 15.604 L 5.6 14.933 L 5.935 14.263 L 0.851 11.72 L 0.516 12.391 Z M 5.6 14.933 L 5.935 15.604 L 11.535 12.804 L 11.2 12.133 L 10.865 11.463 L 5.265 14.263 L 5.6 14.933 Z M 11.2 12.133 L 10.865 12.804 L 15.114 14.929 L 15.449 14.258 L 15.785 13.587 L 11.535 11.463 L 11.2 12.133 Z M 16.8 13.423 L 17.55 13.423 L 17.55 3.377 L 16.8 3.377 L 16.05 3.377 L 16.05 13.423 L 16.8 13.423 Z M 16.284 2.542 L 16.619 1.871 L 11.535 -0.671 L 11.2 0 L 10.865 0.671 L 15.949 3.213 L 16.284 2.542 Z M 11.2 0 L 10.865 -0.671 L 5.265 2.129 L 5.6 2.8 L 5.935 3.471 L 11.535 0.671 L 11.2 0 Z M 5.6 2.8 L 5.935 2.129 L 1.686 0.005 L 1.351 0.675 L 1.015 1.346 L 5.265 3.471 L 5.6 2.8 Z M 5.6 2.8 L 4.85 2.8 L 4.85 14.933 L 5.6 14.933 L 6.35 14.933 L 6.35 2.8 L 5.6 2.8 Z M 11.2 0 L 10.45 0 L 10.45 12.133 L 11.2 12.133 L 11.95 12.133 L 11.95 0 L 11.2 0 Z M 15.449 14.258 L 15.114 14.929 C 16.233 15.488 17.55 14.675 17.55 13.423 L 16.8 13.423 L 16.05 13.423 C 16.05 13.559 15.907 13.648 15.785 13.587 L 15.449 14.258 Z M 0 11.557 L -0.75 11.557 C -0.75 12.194 -0.39 12.777 0.181 13.062 L 0.516 12.391 L 0.851 11.72 C 0.789 11.689 0.75 11.626 0.75 11.557 L 0 11.557 Z M 16.8 3.377 L 17.55 3.377 C 17.55 2.739 17.19 2.156 16.619 1.871 L 16.284 2.542 L 15.949 3.213 C 16.011 3.244 16.05 3.307 16.05 3.377 L 16.8 3.377 Z M 0 1.51 L 0.75 1.51 C 0.75 1.374 0.893 1.285 1.015 1.346 L 1.351 0.675 L 1.686 0.005 C 0.567 -0.555 -0.75 0.259 -0.75 1.51 L 0 1.51 Z" fill="currentColor" fill-rule="nonzero"></path></g></svg>