<svg xmlns="http://www.w3.org/2000/svg" width="24" height="24" viewBox="0 0 24 24" fill="none"><g transform="translate(2.000 4.500) scale(1.19048) translate(0.000 0.000)"><path d="M 0 -0.75 C -0.414 -0.75 -0.75 -0.414 -0.75 0 C -0.75 0.414 -0.414 0.75 0 0.75 L 0 0 L 0 -0.75 Z M 16.8 0.75 C 17.214 0.75 17.55 0.414 17.55 0 C 17.55 -0.414 17.214 -0.75 16.8 -0.75 L 16.8 0 L 16.8 0.75 Z M 0 5.55 C -0.414 5.55 -0.75 5.886 -0.75 6.3 C -0.75 6.714 -0.414 7.05 0 7.05 L 0 6.3 L 0 5.55 Z M 16.8 7.05 C 17.214 7.05 17.55 6.714 17.55 6.3 C 17.55 5.886 17.214 5.55 16.8 5.55 L 16.8 6.3 L 16.8 7.05 Z M 0 11.85 C -0.414 11.85 -0.75 12.186 -0.75 12.6 C -0.75 13.014 -0.414 13.35 0 13.35 L 0 12.6 L 0 11.85 Z M 16.8 13.35 C 17.214 13.35 17.55 13.014 17.55 12.6 C 17.55 12.186 17.214 11.85 16.8 11.85 L 16.8 12.6 L 16.8 13.35 Z M 0 0 L 0 0.75 L 16.8 0.75 L 16.8 0 L 16.8 -0.75 L 0 -0.75 L 0 0 Z M 0 6.3 L 0 7.05 L 16.8 7.05 L 16.8 6.3 L 16.8 5.55 L 0 5.55 L 0 6.3 Z M 0 12.6 L 0 13.35 L 16.8 13.35 L 16.8 12.6 L 16.8 11.85 L 0 11.85 L 0 12.6 Z" fill="currentColor" fill-rule="nonzero"></path></g></svg>