<svg xmlns="http://www.w3.org/2000/svg" width="24" height="24" viewBox="0 0 24 24" fill="none"><g transform="translate(5.000 2.000) scale(1.19048) translate(0.000 0.000)"><path d="M 12.51 7.56 C 12.51 7.146 12.174 6.81 11.76 6.81 C 11.346 6.81 11.01 7.146 11.01 7.56 L 11.76 7.56 L 12.51 7.56 Z M 0.75 7.56 C 0.75 7.146 0.414 6.81 0 6.81 C -0.414 6.81 -0.75 7.146 -0.75 7.56 L 0 7.56 L 0.75 7.56 Z M 2.52 16.05 C 2.106 16.05 1.77 16.386 1.77 16.8 C 1.77 17.214 2.106 17.55 2.52 17.55 L 2.52 16.8 L 2.52 16.05 Z M 9.24 17.55 C 9.654 17.55 9.99 17.214 9.99 16.8 C 9.99 16.386 9.654 16.05 9.24 16.05 L 9.24 16.8 L 9.24 17.55 Z M 8.4 2.52 L 7.65 2.52 L 7.65 7.56 L 8.4 7.56 L 9.15 7.56 L 9.15 2.52 L 8.4 2.52 Z M 3.36 7.56 L 4.11 7.56 L 4.11 2.52 L 3.36 2.52 L 2.61 2.52 L 2.61 7.56 L 3.36 7.56 Z M 5.88 10.08 L 5.88 9.33 C 4.902 9.33 4.11 8.538 4.11 7.56 L 3.36 7.56 L 2.61 7.56 C 2.61 9.366 4.074 10.83 5.88 10.83 L 5.88 10.08 Z M 8.4 7.56 L 7.65 7.56 C 7.65 8.538 6.858 9.33 5.88 9.33 L 5.88 10.08 L 5.88 10.83 C 7.686 10.83 9.15 9.366 9.15 7.56 L 8.4 7.56 Z M 5.88 0 L 5.88 0.75 C 6.858 0.75 7.65 1.542 7.65 2.52 L 8.4 2.52 L 9.15 2.52 C 9.15 0.714 7.686 -0.75 5.88 -0.75 L 5.88 0 Z M 5.88 0 L 5.88 -0.75 C 4.074 -0.75 2.61 0.714 2.61 2.52 L 3.36 2.52 L 4.11 2.52 C 4.11 1.542 4.902 0.75 5.88 0.75 L 5.88 0 Z M 11.76 7.56 L 11.01 7.56 C 11.01 10.393 8.713 12.69 5.88 12.69 L 5.88 13.44 L 5.88 14.19 C 9.542 14.19 12.51 11.222 12.51 7.56 L 11.76 7.56 Z M 5.88 13.44 L 5.88 12.69 C 3.047 12.69 0.75 10.393 0.75 7.56 L 0 7.56 L -0.75 7.56 C -0.75 11.222 2.218 14.19 5.88 14.19 L 5.88 13.44 Z M 5.88 13.44 L 5.13 13.44 L 5.13 16.8 L 5.88 16.8 L 6.63 16.8 L 6.63 13.44 L 5.88 13.44 Z M 2.52 16.8 L 2.52 17.55 L 5.88 17.55 L 5.88 16.8 L 5.88 16.05 L 2.52 16.05 L 2.52 16.8 Z M 5.88 16.8 L 5.88 17.55 L 9.24 17.55 L 9.24 16.8 L 9.24 16.05 L 5.88 16.05 L 5.88 16.8 Z" fill="currentColor" fill-rule="nonzero"></path></g></svg>