<svg xmlns="http://www.w3.org/2000/svg" width="24" height="24" viewBox="0 0 24 24" fill="none"><g transform="translate(2.000 2.000) scale(1.19048) translate(0.000 0.000)"><path d="M 11.2 9.15 C 11.614 9.15 11.95 8.814 11.95 8.4 C 11.95 7.986 11.614 7.65 11.2 7.65 L 11.2 8.4 L 11.2 9.15 Z M 5.6 7.65 C 5.186 7.65 4.85 7.986 4.85 8.4 C 4.85 8.814 5.186 9.15 5.6 9.15 L 5.6 8.4 L 5.6 7.65 Z M 16.8 8.4 L 16.05 8.4 C 16.05 12.625 12.625 16.05 8.4 16.05 L 8.4 16.8 L 8.4 17.55 C 13.453 17.55 17.55 13.453 17.55 8.4 L 16.8 8.4 Z M 8.4 16.8 L 8.4 16.05 C 4.175 16.05 0.75 12.625 0.75 8.4 L 0 8.4 L -0.75 8.4 C -0.75 13.453 3.347 17.55 8.4 17.55 L 8.4 16.8 Z M 0 8.4 L 0.75 8.4 C 0.75 4.175 4.175 0.75 8.4 0.75 L 8.4 0 L 8.4 -0.75 C 3.347 -0.75 -0.75 3.347 -0.75 8.4 L 0 8.4 Z M 8.4 0 L 8.4 0.75 C 12.625 0.75 16.05 4.175 16.05 8.4 L 16.8 8.4 L 17.55 8.4 C 17.55 3.347 13.453 -0.75 8.4 -0.75 L 8.4 0 Z M 11.2 8.4 L 11.2 7.65 L 5.6 7.65 L 5.6 8.4 L 5.6 9.15 L 11.2 9.15 L 11.2 8.4 Z" fill="currentColor" fill-rule="nonzero"></path></g></svg>