<svg xmlns="http://www.w3.org/2000/svg" width="24" height="24" viewBox="0 0 24 24" fill="none"><g transform="translate(2.000 2.000) scale(1.19048) translate(0.000 0.000)"><path d="M 16.8 11.334 L 17.496 11.614 C 17.608 11.335 17.543 11.017 17.33 10.804 C 17.118 10.592 16.799 10.527 16.52 10.639 L 16.8 11.334 Z M 5.466 0 L 6.161 0.28 C 6.273 0.001 6.208 -0.318 5.996 -0.53 C 5.783 -0.743 5.465 -0.808 5.186 -0.696 L 5.466 0 Z M 16.8 11.334 L 16.52 10.639 C 15.604 11.007 14.603 11.21 13.553 11.21 L 13.553 11.96 L 13.553 12.71 C 14.798 12.71 15.989 12.469 17.08 12.03 L 16.8 11.334 Z M 13.553 11.96 L 13.553 11.21 C 9.155 11.21 5.59 7.645 5.59 3.247 L 4.84 3.247 L 4.09 3.247 C 4.09 8.473 8.327 12.71 13.553 12.71 L 13.553 11.96 Z M 4.84 3.247 L 5.59 3.247 C 5.59 2.197 5.793 1.196 6.161 0.28 L 5.466 0 L 4.77 -0.28 C 4.331 0.811 4.09 2.002 4.09 3.247 L 4.84 3.247 Z M 0 8.087 L 0.75 8.087 C 0.75 4.74 2.816 1.873 5.745 0.696 L 5.466 0 L 5.186 -0.696 C 1.708 0.702 -0.75 4.107 -0.75 8.087 L 0 8.087 Z M 8.713 16.8 L 8.713 16.05 C 4.315 16.05 0.75 12.485 0.75 8.087 L 0 8.087 L -0.75 8.087 C -0.75 13.313 3.487 17.55 8.713 17.55 L 8.713 16.8 Z M 16.8 11.334 L 16.104 11.055 C 14.927 13.984 12.06 16.05 8.713 16.05 L 8.713 16.8 L 8.713 17.55 C 12.693 17.55 16.098 15.092 17.496 11.614 L 16.8 11.334 Z" fill="currentColor" fill-rule="nonzero"></path></g></svg>