<svg xmlns="http://www.w3.org/2000/svg" width="24" height="24" viewBox="0 0 24 24" fill="none"><g transform="translate(2.000 2.000) scale(1.19048) translate(0.000 0.000)"><path d="M 14.933 16.8 L 14.933 17.55 L 14.933 17.55 L 14.933 16.8 Z M 1.867 16.8 L 1.867 17.55 L 1.867 17.55 L 1.867 16.8 Z M 0 16.05 C -0.414 16.05 -0.75 16.386 -0.75 16.8 C -0.75 17.214 -0.414 17.55 0 17.55 L 0 16.8 L 0 16.05 Z M 5.6 2.983 C 5.186 2.983 4.85 3.319 4.85 3.733 C 4.85 4.148 5.186 4.483 5.6 4.483 L 5.6 3.733 L 5.6 2.983 Z M 6.533 4.483 C 6.948 4.483 7.283 4.148 7.283 3.733 C 7.283 3.319 6.948 2.983 6.533 2.983 L 6.533 3.733 L 6.533 4.483 Z M 5.6 6.717 C 5.186 6.717 4.85 7.052 4.85 7.467 C 4.85 7.881 5.186 8.217 5.6 8.217 L 5.6 7.467 L 5.6 6.717 Z M 6.533 8.217 C 6.948 8.217 7.283 7.881 7.283 7.467 C 7.283 7.052 6.948 6.717 6.533 6.717 L 6.533 7.467 L 6.533 8.217 Z M 10.267 2.983 C 9.852 2.983 9.517 3.319 9.517 3.733 C 9.517 4.148 9.852 4.483 10.267 4.483 L 10.267 3.733 L 10.267 2.983 Z M 11.2 4.483 C 11.614 4.483 11.95 4.148 11.95 3.733 C 11.95 3.319 11.614 2.983 11.2 2.983 L 11.2 3.733 L 11.2 4.483 Z M 10.267 6.717 C 9.852 6.717 9.517 7.052 9.517 7.467 C 9.517 7.881 9.852 8.217 10.267 8.217 L 10.267 7.467 L 10.267 6.717 Z M 11.2 8.217 C 11.614 8.217 11.95 7.881 11.95 7.467 C 11.95 7.052 11.614 6.717 11.2 6.717 L 11.2 7.467 L 11.2 8.217 Z M 16.8 17.55 C 17.214 17.55 17.55 17.214 17.55 16.8 C 17.55 16.386 17.214 16.05 16.8 16.05 L 16.8 16.8 L 16.8 17.55 Z M 3.733 0 L 3.733 0.75 L 13.067 0.75 L 13.067 0 L 13.067 -0.75 L 3.733 -0.75 L 3.733 0 Z M 14.933 1.867 L 14.183 1.867 L 14.183 16.8 L 14.933 16.8 L 15.683 16.8 L 15.683 1.867 L 14.933 1.867 Z M 1.867 16.8 L 2.617 16.8 L 2.617 1.867 L 1.867 1.867 L 1.117 1.867 L 1.117 16.8 L 1.867 16.8 Z M 13.067 0 L 13.067 0.75 C 13.683 0.75 14.183 1.25 14.183 1.867 L 14.933 1.867 L 15.683 1.867 C 15.683 0.422 14.512 -0.75 13.067 -0.75 L 13.067 0 Z M 3.733 0 L 3.733 -0.75 C 2.288 -0.75 1.117 0.422 1.117 1.867 L 1.867 1.867 L 2.617 1.867 C 2.617 1.25 3.117 0.75 3.733 0.75 L 3.733 0 Z M 0 16.8 L 0 17.55 L 1.867 17.55 L 1.867 16.8 L 1.867 16.05 L 0 16.05 L 0 16.8 Z M 7.467 11.2 L 7.467 11.95 L 9.333 11.95 L 9.333 11.2 L 9.333 10.45 L 7.467 10.45 L 7.467 11.2 Z M 5.6 3.733 L 5.6 4.483 L 6.533 4.483 L 6.533 3.733 L 6.533 2.983 L 5.6 2.983 L 5.6 3.733 Z M 5.6 7.467 L 5.6 8.217 L 6.533 8.217 L 6.533 7.467 L 6.533 6.717 L 5.6 6.717 L 5.6 7.467 Z M 10.267 3.733 L 10.267 4.483 L 11.2 4.483 L 11.2 3.733 L 11.2 2.983 L 10.267 2.983 L 10.267 3.733 Z M 10.267 7.467 L 10.267 8.217 L 11.2 8.217 L 11.2 7.467 L 11.2 6.717 L 10.267 6.717 L 10.267 7.467 Z M 9.333 11.2 L 9.333 11.95 C 9.435 11.95 9.517 12.032 9.517 12.133 L 10.267 12.133 L 11.017 12.133 C 11.017 11.204 10.263 10.45 9.333 10.45 L 9.333 11.2 Z M 6.533 12.133 L 7.283 12.133 C 7.283 12.032 7.365 11.95 7.467 11.95 L 7.467 11.2 L 7.467 10.45 C 6.537 10.45 5.783 11.204 5.783 12.133 L 6.533 12.133 Z M 6.533 16.8 L 6.533 16.05 L 1.867 16.05 L 1.867 16.8 L 1.867 17.55 L 6.533 17.55 L 6.533 16.8 Z M 6.533 12.133 L 5.783 12.133 L 5.783 16.8 L 6.533 16.8 L 7.283 16.8 L 7.283 12.133 L 6.533 12.133 Z M 14.933 16.8 L 14.933 17.55 L 16.8 17.55 L 16.8 16.8 L 16.8 16.05 L 14.933 16.05 L 14.933 16.8 Z M 14.933 16.8 L 14.933 16.05 L 10.267 16.05 L 10.267 16.8 L 10.267 17.55 L 14.933 17.55 L 14.933 16.8 Z M 10.267 16.8 L 10.267 16.05 L 6.533 16.05 L 6.533 16.8 L 6.533 17.55 L 10.267 17.55 L 10.267 16.8 Z M 10.267 12.133 L 9.517 12.133 L 9.517 16.8 L 10.267 16.8 L 11.017 16.8 L 11.017 12.133 L 10.267 12.133 Z" fill="currentColor" fill-rule="nonzero"></path></g></svg>