<svg xmlns="http://www.w3.org/2000/svg" width="24" height="24" viewBox="0 0 24 24" fill="none"><g transform="translate(2.000 2.000) scale(1.19048) translate(0.000 0.000)"><path d="M 7.283 5.6 C 7.283 5.186 6.948 4.85 6.533 4.85 C 6.119 4.85 5.783 5.186 5.783 5.6 L 6.533 5.6 L 7.283 5.6 Z M 5.783 11.2 C 5.783 11.614 6.119 11.95 6.533 11.95 C 6.948 11.95 7.283 11.614 7.283 11.2 L 6.533 11.2 L 5.783 11.2 Z M 11.017 5.6 C 11.017 5.186 10.681 4.85 10.267 4.85 C 9.852 4.85 9.517 5.186 9.517 5.6 L 10.267 5.6 L 11.017 5.6 Z M 9.517 11.2 C 9.517 11.614 9.852 11.95 10.267 11.95 C 10.681 11.95 11.017 11.614 11.017 11.2 L 10.267 11.2 L 9.517 11.2 Z M 16.8 8.4 L 16.05 8.4 C 16.05 12.625 12.625 16.05 8.4 16.05 L 8.4 16.8 L 8.4 17.55 C 13.453 17.55 17.55 13.453 17.55 8.4 L 16.8 8.4 Z M 8.4 16.8 L 8.4 16.05 C 4.175 16.05 0.75 12.625 0.75 8.4 L 0 8.4 L -0.75 8.4 C -0.75 13.453 3.347 17.55 8.4 17.55 L 8.4 16.8 Z M 0 8.4 L 0.75 8.4 C 0.75 4.175 4.175 0.75 8.4 0.75 L 8.4 0 L 8.4 -0.75 C 3.347 -0.75 -0.75 3.347 -0.75 8.4 L 0 8.4 Z M 8.4 0 L 8.4 0.75 C 12.625 0.75 16.05 4.175 16.05 8.4 L 16.8 8.4 L 17.55 8.4 C 17.55 3.347 13.453 -0.75 8.4 -0.75 L 8.4 0 Z M 6.533 5.6 L 5.783 5.6 L 5.783 11.2 L 6.533 11.2 L 7.283 11.2 L 7.283 5.6 L 6.533 5.6 Z M 10.267 5.6 L 9.517 5.6 L 9.517 11.2 L 10.267 11.2 L 11.017 11.2 L 11.017 5.6 L 10.267 5.6 Z" fill="currentColor" fill-rule="nonzero"></path></g></svg>