<svg xmlns="http://www.w3.org/2000/svg" width="24" height="24" viewBox="0 0 24 24" fill="none"><g transform="translate(2.000 2.000) scale(1.19048) translate(0.000 0.000)"><path d="M 6.918 2.726 C 7.332 2.726 7.668 2.391 7.668 1.976 C 7.668 1.562 7.332 1.226 6.918 1.226 L 6.918 1.976 L 6.918 2.726 Z M 15.574 9.882 C 15.574 9.468 15.238 9.132 14.824 9.132 C 14.409 9.132 14.074 9.468 14.074 9.882 L 14.824 9.882 L 15.574 9.882 Z M 13.426 0.579 L 13.956 1.109 L 13.956 1.109 L 13.426 0.579 Z M 16.221 3.374 L 15.691 2.844 L 16.221 3.374 Z M 4.941 9.064 L 4.411 8.533 C 4.27 8.674 4.191 8.865 4.191 9.064 L 4.941 9.064 Z M 4.941 11.859 L 4.191 11.859 C 4.191 12.273 4.527 12.609 4.941 12.609 L 4.941 11.859 Z M 7.736 11.859 L 7.736 12.609 C 7.935 12.609 8.126 12.53 8.267 12.389 L 7.736 11.859 Z M 12.847 16.8 L 12.847 16.05 L 1.976 16.05 L 1.976 16.8 L 1.976 17.55 L 12.847 17.55 L 12.847 16.8 Z M 0 14.824 L 0.75 14.824 L 0.75 3.953 L 0 3.953 L -0.75 3.953 L -0.75 14.824 L 0 14.824 Z M 1.976 1.976 L 1.976 2.726 L 6.918 2.726 L 6.918 1.976 L 6.918 1.226 L 1.976 1.226 L 1.976 1.976 Z M 14.824 9.882 L 14.074 9.882 L 14.074 14.824 L 14.824 14.824 L 15.574 14.824 L 15.574 9.882 L 14.824 9.882 Z M 1.976 16.8 L 1.976 16.05 C 1.299 16.05 0.75 15.501 0.75 14.824 L 0 14.824 L -0.75 14.824 C -0.75 16.329 0.471 17.55 1.976 17.55 L 1.976 16.8 Z M 12.847 16.8 L 12.847 17.55 C 14.353 17.55 15.574 16.329 15.574 14.824 L 14.824 14.824 L 14.074 14.824 C 14.074 15.501 13.524 16.05 12.847 16.05 L 12.847 16.8 Z M 0 3.953 L 0.75 3.953 C 0.75 3.276 1.299 2.726 1.976 2.726 L 1.976 1.976 L 1.976 1.226 C 0.471 1.226 -0.75 2.447 -0.75 3.953 L 0 3.953 Z M 13.426 0.579 L 13.956 1.109 C 14.435 0.63 15.212 0.63 15.691 1.109 L 16.221 0.579 L 16.751 0.049 C 15.687 -1.016 13.96 -1.016 12.896 0.049 L 13.426 0.579 Z M 16.221 0.579 L 15.691 1.109 C 16.17 1.588 16.17 2.365 15.691 2.844 L 16.221 3.374 L 16.751 3.904 C 17.816 2.84 17.816 1.113 16.751 0.049 L 16.221 0.579 Z M 13.426 0.579 L 12.896 0.049 L 4.411 8.533 L 4.941 9.064 L 5.472 9.594 L 13.956 1.109 L 13.426 0.579 Z M 4.941 9.064 L 4.191 9.064 L 4.191 11.859 L 4.941 11.859 L 5.691 11.859 L 5.691 9.064 L 4.941 9.064 Z M 16.221 3.374 L 15.691 2.844 L 7.206 11.328 L 7.736 11.859 L 8.267 12.389 L 16.751 3.904 L 16.221 3.374 Z M 7.736 11.859 L 7.736 11.109 L 4.941 11.109 L 4.941 11.859 L 4.941 12.609 L 7.736 12.609 L 7.736 11.859 Z" fill="currentColor" fill-rule="nonzero"></path></g></svg>