<svg xmlns="http://www.w3.org/2000/svg" width="24" height="24" viewBox="0 0 24 24" fill="none"><g transform="translate(2.020 2.000) scale(1.19048) translate(0.000 0.000)"><path d="M 16.085 0.682 L 16.615 0.152 L 16.615 0.152 L 16.085 0.682 Z M 3.26 16.8 L 3.26 17.55 C 3.459 17.55 3.65 17.471 3.791 17.33 L 3.26 16.8 Z M 0 16.8 L -0.75 16.8 C -0.75 17.214 -0.414 17.55 0 17.55 L 0 16.8 Z M 0 13.474 L -0.53 12.943 C -0.671 13.084 -0.75 13.275 -0.75 13.474 L 0 13.474 Z M 11.925 1.549 C 11.632 1.256 11.157 1.256 10.864 1.549 C 10.571 1.842 10.571 2.317 10.864 2.61 L 11.394 2.079 L 11.925 1.549 Z M 14.157 5.903 C 14.45 6.196 14.925 6.196 15.218 5.903 C 15.511 5.61 15.511 5.135 15.218 4.842 L 14.688 5.373 L 14.157 5.903 Z M 12.791 0.682 L 13.322 1.212 C 13.938 0.596 14.938 0.596 15.554 1.212 L 16.085 0.682 L 16.615 0.152 C 15.413 -1.051 13.463 -1.051 12.261 0.152 L 12.791 0.682 Z M 16.085 0.682 L 15.554 1.212 C 16.171 1.829 16.171 2.829 15.554 3.445 L 16.085 3.975 L 16.615 4.506 C 17.817 3.303 17.817 1.354 16.615 0.152 L 16.085 0.682 Z M 16.085 3.975 L 15.554 3.445 L 2.73 16.27 L 3.26 16.8 L 3.791 17.33 L 16.615 4.506 L 16.085 3.975 Z M 3.26 16.8 L 3.26 16.05 L 0 16.05 L 0 16.8 L 0 17.55 L 3.26 17.55 L 3.26 16.8 Z M 12.791 0.682 L 12.261 0.152 L -0.53 12.943 L 0 13.474 L 0.53 14.004 L 13.322 1.212 L 12.791 0.682 Z M 0 13.474 L -0.75 13.474 L -0.75 16.8 L 0 16.8 L 0.75 16.8 L 0.75 13.474 L 0 13.474 Z M 11.394 2.079 L 10.864 2.61 L 14.157 5.903 L 14.688 5.373 L 15.218 4.842 L 11.925 1.549 L 11.394 2.079 Z" fill="currentColor" fill-rule="nonzero"></path></g></svg>