<svg xmlns="http://www.w3.org/2000/svg" width="24" height="24" viewBox="0 0 24 24" fill="none"><g transform="translate(2.000 2.000) scale(1.19048) translate(0.000 0.000)"><path d="M 5.813 0.638 L 5.101 0.875 L 5.101 0.875 L 5.813 0.638 Z M 7.211 4.832 L 6.499 5.069 L 6.499 5.069 L 7.211 4.832 Z M 6.743 5.962 L 7.078 6.633 L 7.078 6.633 L 6.743 5.962 Z M 4.636 7.015 L 4.3 6.345 C 3.94 6.525 3.787 6.957 3.952 7.324 L 4.636 7.015 Z M 9.785 12.164 L 9.476 12.848 C 9.843 13.013 10.275 12.86 10.455 12.5 L 9.785 12.164 Z M 10.838 10.057 L 10.167 9.722 L 10.167 9.722 L 10.838 10.057 Z M 11.968 9.589 L 11.731 10.301 L 11.731 10.301 L 11.968 9.589 Z M 16.162 10.987 L 16.399 10.276 L 16.399 10.276 L 16.162 10.987 Z M 1.867 0 L 1.867 -0.75 C 0.422 -0.75 -0.75 0.422 -0.75 1.867 L 0 1.867 L 0.75 1.867 C 0.75 1.25 1.25 0.75 1.867 0.75 L 1.867 0 Z M 4.927 0 L 4.927 -0.75 L 1.867 -0.75 L 1.867 0 L 1.867 0.75 L 4.927 0.75 L 4.927 0 Z M 5.813 0.638 L 6.524 0.401 C 6.295 -0.286 5.652 -0.75 4.927 -0.75 L 4.927 0 L 4.927 0.75 C 5.006 0.75 5.076 0.8 5.101 0.875 L 5.813 0.638 Z M 7.211 4.832 L 7.922 4.595 L 6.524 0.401 L 5.813 0.638 L 5.101 0.875 L 6.499 5.069 L 7.211 4.832 Z M 6.743 5.962 L 7.078 6.633 C 7.827 6.258 8.187 5.39 7.922 4.595 L 7.211 4.832 L 6.499 5.069 C 6.528 5.156 6.489 5.25 6.407 5.291 L 6.743 5.962 Z M 4.636 7.015 L 4.971 7.686 L 7.078 6.633 L 6.743 5.962 L 6.407 5.291 L 4.3 6.345 L 4.636 7.015 Z M 9.785 12.164 L 10.093 11.48 C 7.978 10.527 6.273 8.822 5.32 6.707 L 4.636 7.015 L 3.952 7.324 C 5.056 9.772 7.028 11.744 9.476 12.848 L 9.785 12.164 Z M 10.838 10.057 L 10.167 9.722 L 9.114 11.829 L 9.785 12.164 L 10.455 12.5 L 11.509 10.393 L 10.838 10.057 Z M 11.968 9.589 L 12.205 8.878 C 11.41 8.613 10.542 8.973 10.167 9.722 L 10.838 10.057 L 11.509 10.393 C 11.55 10.311 11.644 10.272 11.731 10.301 L 11.968 9.589 Z M 16.162 10.987 L 16.399 10.276 L 12.205 8.878 L 11.968 9.589 L 11.731 10.301 L 15.925 11.699 L 16.162 10.987 Z M 16.8 11.873 L 17.55 11.873 C 17.55 11.148 17.086 10.505 16.399 10.276 L 16.162 10.987 L 15.925 11.699 C 16 11.724 16.05 11.794 16.05 11.873 L 16.8 11.873 Z M 16.8 14.933 L 17.55 14.933 L 17.55 11.873 L 16.8 11.873 L 16.05 11.873 L 16.05 14.933 L 16.8 14.933 Z M 14.933 16.8 L 14.933 17.55 C 16.378 17.55 17.55 16.378 17.55 14.933 L 16.8 14.933 L 16.05 14.933 C 16.05 15.55 15.55 16.05 14.933 16.05 L 14.933 16.8 Z M 14 16.8 L 14 17.55 L 14.933 17.55 L 14.933 16.8 L 14.933 16.05 L 14 16.05 L 14 16.8 Z M 0 2.8 L -0.75 2.8 C -0.75 10.946 5.854 17.55 14 17.55 L 14 16.8 L 14 16.05 C 6.682 16.05 0.75 10.118 0.75 2.8 L 0 2.8 Z M 0 1.867 L -0.75 1.867 L -0.75 2.8 L 0 2.8 L 0.75 2.8 L 0.75 1.867 L 0 1.867 Z" fill="currentColor" fill-rule="nonzero"></path></g></svg>