<svg xmlns="http://www.w3.org/2000/svg" width="24" height="24" viewBox="0 0 24 24" fill="none"><g transform="translate(2.000 2.000) scale(1.19048) translate(0.000 0.000)"><path d="M -0.53 12.07 C -0.823 12.363 -0.823 12.837 -0.53 13.13 C -0.237 13.423 0.237 13.423 0.53 13.13 L 0 12.6 L -0.53 12.07 Z M 4.815 7.785 L 5.345 8.315 L 5.345 8.315 L 4.815 7.785 Z M 7.785 7.785 L 8.315 7.255 L 8.315 7.255 L 7.785 7.785 Z M 12.07 13.13 C 12.363 13.423 12.837 13.423 13.13 13.13 C 13.423 12.837 13.423 12.363 13.13 12.07 L 12.6 12.6 L 12.07 13.13 Z M 9.97 9.97 C 9.677 10.263 9.677 10.737 9.97 11.03 C 10.263 11.323 10.737 11.323 11.03 11.03 L 10.5 10.5 L 9.97 9.97 Z M 15.135 8.835 L 14.605 9.365 L 14.605 9.365 L 15.135 8.835 Z M 16.27 11.03 C 16.563 11.323 17.037 11.323 17.33 11.03 C 17.623 10.737 17.623 10.263 17.33 9.97 L 16.8 10.5 L 16.27 11.03 Z M 10.5 3.45 C 10.086 3.45 9.75 3.786 9.75 4.2 C 9.75 4.614 10.086 4.95 10.5 4.95 L 10.5 4.2 L 10.5 3.45 Z M 10.51 4.95 C 10.925 4.95 11.26 4.614 11.26 4.2 C 11.26 3.786 10.925 3.45 10.51 3.45 L 10.51 4.2 L 10.51 4.95 Z M 2.1 0 L 2.1 0.75 L 14.7 0.75 L 14.7 0 L 14.7 -0.75 L 2.1 -0.75 L 2.1 0 Z M 16.8 2.1 L 16.05 2.1 L 16.05 14.7 L 16.8 14.7 L 17.55 14.7 L 17.55 2.1 L 16.8 2.1 Z M 14.7 16.8 L 14.7 16.05 L 2.1 16.05 L 2.1 16.8 L 2.1 17.55 L 14.7 17.55 L 14.7 16.8 Z M 0 14.7 L 0.75 14.7 L 0.75 2.1 L 0 2.1 L -0.75 2.1 L -0.75 14.7 L 0 14.7 Z M 2.1 16.8 L 2.1 16.05 C 1.354 16.05 0.75 15.446 0.75 14.7 L 0 14.7 L -0.75 14.7 C -0.75 16.274 0.526 17.55 2.1 17.55 L 2.1 16.8 Z M 16.8 14.7 L 16.05 14.7 C 16.05 15.446 15.446 16.05 14.7 16.05 L 14.7 16.8 L 14.7 17.55 C 16.274 17.55 17.55 16.274 17.55 14.7 L 16.8 14.7 Z M 14.7 0 L 14.7 0.75 C 15.446 0.75 16.05 1.354 16.05 2.1 L 16.8 2.1 L 17.55 2.1 C 17.55 0.526 16.274 -0.75 14.7 -0.75 L 14.7 0 Z M 2.1 0 L 2.1 -0.75 C 0.526 -0.75 -0.75 0.526 -0.75 2.1 L 0 2.1 L 0.75 2.1 C 0.75 1.354 1.354 0.75 2.1 0.75 L 2.1 0 Z M 0 12.6 L 0.53 13.13 L 5.345 8.315 L 4.815 7.785 L 4.285 7.255 L -0.53 12.07 L 0 12.6 Z M 7.785 7.785 L 7.255 8.315 L 12.07 13.13 L 12.6 12.6 L 13.13 12.07 L 8.315 7.255 L 7.785 7.785 Z M 4.815 7.785 L 5.345 8.315 C 5.873 7.788 6.727 7.788 7.255 8.315 L 7.785 7.785 L 8.315 7.255 C 7.202 6.142 5.398 6.142 4.285 7.255 L 4.815 7.785 Z M 10.5 10.5 L 11.03 11.03 L 12.695 9.365 L 12.165 8.835 L 11.635 8.305 L 9.97 9.97 L 10.5 10.5 Z M 15.135 8.835 L 14.605 9.365 L 16.27 11.03 L 16.8 10.5 L 17.33 9.97 L 15.665 8.305 L 15.135 8.835 Z M 12.165 8.835 L 12.695 9.365 C 13.223 8.838 14.077 8.838 14.605 9.365 L 15.135 8.835 L 15.665 8.305 C 14.552 7.192 12.748 7.192 11.635 8.305 L 12.165 8.835 Z M 10.5 4.2 L 10.5 4.95 L 10.51 4.95 L 10.51 4.2 L 10.51 3.45 L 10.5 3.45 L 10.5 4.2 Z" fill="currentColor" fill-rule="nonzero"></path></g></svg>