<svg xmlns="http://www.w3.org/2000/svg" width="24" height="24" viewBox="0 0 24 24" fill="none"><g transform="translate(2.000 2.000) scale(1.19048) translate(0.000 0.000)"><path d="M 7.984 5.634 L 8.4 5.01 L 8.4 5.01 L 7.984 5.634 Z M 10.968 7.623 L 11.384 6.999 L 11.384 6.999 L 10.968 7.623 Z M 10.968 9.177 L 10.552 8.553 L 10.552 8.553 L 10.968 9.177 Z M 7.984 11.166 L 8.4 11.79 L 8.4 11.79 L 7.984 11.166 Z M 7.984 5.634 L 7.568 6.258 L 10.552 8.247 L 10.968 7.623 L 11.384 6.999 L 8.4 5.01 L 7.984 5.634 Z M 10.968 9.177 L 10.552 8.553 L 7.568 10.542 L 7.984 11.166 L 8.4 11.79 L 11.384 9.801 L 10.968 9.177 Z M 6.533 10.389 L 7.283 10.389 L 7.283 6.411 L 6.533 6.411 L 5.783 6.411 L 5.783 10.389 L 6.533 10.389 Z M 7.984 11.166 L 7.568 10.542 C 7.447 10.623 7.283 10.536 7.283 10.389 L 6.533 10.389 L 5.783 10.389 C 5.783 11.734 7.282 12.536 8.4 11.79 L 7.984 11.166 Z M 10.968 7.623 L 10.552 8.247 C 10.661 8.32 10.661 8.48 10.552 8.553 L 10.968 9.177 L 11.384 9.801 C 12.384 9.134 12.384 7.666 11.384 6.999 L 10.968 7.623 Z M 7.984 5.634 L 8.4 5.01 C 7.282 4.264 5.783 5.066 5.783 6.411 L 6.533 6.411 L 7.283 6.411 C 7.283 6.264 7.447 6.177 7.568 6.258 L 7.984 5.634 Z M 16.8 8.4 L 16.05 8.4 C 16.05 12.625 12.625 16.05 8.4 16.05 L 8.4 16.8 L 8.4 17.55 C 13.453 17.55 17.55 13.453 17.55 8.4 L 16.8 8.4 Z M 8.4 16.8 L 8.4 16.05 C 4.175 16.05 0.75 12.625 0.75 8.4 L 0 8.4 L -0.75 8.4 C -0.75 13.453 3.347 17.55 8.4 17.55 L 8.4 16.8 Z M 0 8.4 L 0.75 8.4 C 0.75 4.175 4.175 0.75 8.4 0.75 L 8.4 0 L 8.4 -0.75 C 3.347 -0.75 -0.75 3.347 -0.75 8.4 L 0 8.4 Z M 8.4 0 L 8.4 0.75 C 12.625 0.75 16.05 4.175 16.05 8.4 L 16.8 8.4 L 17.55 8.4 C 17.55 3.347 13.453 -0.75 8.4 -0.75 L 8.4 0 Z" fill="currentColor" fill-rule="nonzero"></path></g></svg>