<svg xmlns="http://www.w3.org/2000/svg" width="24" height="24" viewBox="0 0 24 24" fill="none"><g transform="translate(2.000 2.000) scale(1.66667) translate(0.000 0.000)"><path d="M 6.75 0 C 6.75 -0.414 6.414 -0.75 6 -0.75 C 5.586 -0.75 5.25 -0.414 5.25 0 L 6 0 L 6.75 0 Z M 5.25 12 C 5.25 12.414 5.586 12.75 6 12.75 C 6.414 12.75 6.75 12.414 6.75 12 L 6 12 L 5.25 12 Z M 12 6.75 C 12.414 6.75 12.75 6.414 12.75 6 C 12.75 5.586 12.414 5.25 12 5.25 L 12 6 L 12 6.75 Z M 0 5.25 C -0.414 5.25 -0.75 5.586 -0.75 6 C -0.75 6.414 -0.414 6.75 0 6.75 L 0 6 L 0 5.25 Z M 6 0 L 5.25 0 L 5.25 12 L 6 12 L 6.75 12 L 6.75 0 L 6 0 Z M 12 6 L 12 5.25 L 0 5.25 L 0 6 L 0 6.75 L 12 6.75 L 12 6 Z" fill="currentColor" fill-rule="nonzero"></path></g></svg>