<svg xmlns="http://www.w3.org/2000/svg" width="24" height="24" viewBox="0 0 24 24" fill="none"><g transform="translate(2.000 2.000) scale(1.19048) translate(0.000 0.000)"><path d="M 9.328 9.246 L 9.187 8.51 L 9.187 8.51 L 9.328 9.246 Z M 4.201 5.28 C 4.024 5.655 4.185 6.102 4.559 6.278 C 4.934 6.455 5.381 6.294 5.558 5.92 L 4.879 5.6 L 4.201 5.28 Z M 7.65 10.267 C 7.65 10.681 7.986 11.017 8.4 11.017 C 8.814 11.017 9.15 10.681 9.15 10.267 L 8.4 10.267 L 7.65 10.267 Z M 8.4 12.317 C 7.986 12.317 7.65 12.652 7.65 13.067 C 7.65 13.481 7.986 13.817 8.4 13.817 L 8.4 13.067 L 8.4 12.317 Z M 8.409 13.817 C 8.824 13.817 9.159 13.481 9.159 13.067 C 9.159 12.652 8.824 12.317 8.409 12.317 L 8.409 13.067 L 8.409 13.817 Z M 16.8 8.4 L 16.05 8.4 C 16.05 12.625 12.625 16.05 8.4 16.05 L 8.4 16.8 L 8.4 17.55 C 13.453 17.55 17.55 13.453 17.55 8.4 L 16.8 8.4 Z M 8.4 16.8 L 8.4 16.05 C 4.175 16.05 0.75 12.625 0.75 8.4 L 0 8.4 L -0.75 8.4 C -0.75 13.453 3.347 17.55 8.4 17.55 L 8.4 16.8 Z M 0 8.4 L 0.75 8.4 C 0.75 4.175 4.175 0.75 8.4 0.75 L 8.4 0 L 8.4 -0.75 C 3.347 -0.75 -0.75 3.347 -0.75 8.4 L 0 8.4 Z M 8.4 0 L 8.4 0.75 C 12.625 0.75 16.05 4.175 16.05 8.4 L 16.8 8.4 L 17.55 8.4 C 17.55 3.347 13.453 -0.75 8.4 -0.75 L 8.4 0 Z M 12.133 6.533 L 11.383 6.533 C 11.383 7.337 10.608 8.237 9.187 8.51 L 9.328 9.246 L 9.469 9.983 C 11.274 9.637 12.883 8.342 12.883 6.533 L 12.133 6.533 Z M 8.4 3.733 L 8.4 4.483 C 9.284 4.483 10.056 4.753 10.59 5.153 C 11.123 5.554 11.383 6.049 11.383 6.533 L 12.133 6.533 L 12.883 6.533 C 12.883 5.471 12.308 4.567 11.49 3.953 C 10.672 3.34 9.578 2.983 8.4 2.983 L 8.4 3.733 Z M 4.879 5.6 L 5.558 5.92 C 5.913 5.166 6.977 4.483 8.4 4.483 L 8.4 3.733 L 8.4 2.983 C 6.572 2.983 4.871 3.859 4.201 5.28 L 4.879 5.6 Z M 9.328 9.246 L 9.187 8.51 C 8.415 8.658 7.65 9.309 7.65 10.267 L 8.4 10.267 L 9.15 10.267 C 9.15 10.223 9.166 10.171 9.219 10.115 C 9.276 10.054 9.365 10.003 9.469 9.983 L 9.328 9.246 Z M 8.4 13.067 L 8.4 13.817 L 8.409 13.817 L 8.409 13.067 L 8.409 12.317 L 8.4 12.317 L 8.4 13.067 Z" fill="currentColor" fill-rule="nonzero"></path></g></svg>