<svg xmlns="http://www.w3.org/2000/svg" width="24" height="24" viewBox="0 0 24 24" fill="none"><g transform="translate(2.000 2.000) scale(1.25000) translate(0.000 0.000)"><path d="M 0.75 0 C 0.75 -0.414 0.414 -0.75 0 -0.75 C -0.414 -0.75 -0.75 -0.414 -0.75 0 L 0 0 L 0.75 0 Z M 0 5 L -0.75 5 C -0.75 5.414 -0.414 5.75 0 5.75 L 0 5 Z M 15.194 7.093 C 15.245 7.504 15.62 7.795 16.031 7.744 C 16.442 7.693 16.734 7.318 16.682 6.907 L 15.938 7 L 15.194 7.093 Z M 5 5.75 C 5.414 5.75 5.75 5.414 5.75 5 C 5.75 4.586 5.414 4.25 5 4.25 L 5 5 L 5 5.75 Z M 15.25 16 C 15.25 16.414 15.586 16.75 16 16.75 C 16.414 16.75 16.75 16.414 16.75 16 L 16 16 L 15.25 16 Z M 16 11 L 16.75 11 C 16.75 10.586 16.414 10.25 16 10.25 L 16 11 Z M 11 10.25 C 10.586 10.25 10.25 10.586 10.25 11 C 10.25 11.414 10.586 11.75 11 11.75 L 11 11 L 11 10.25 Z M 0.806 8.907 C 0.755 8.496 0.38 8.205 -0.031 8.256 C -0.442 8.307 -0.734 8.682 -0.682 9.093 L 0.062 9 L 0.806 8.907 Z M 0 0 L -0.75 0 L -0.75 5 L 0 5 L 0.75 5 L 0.75 0 L 0 0 Z M 8 0 L 8 0.75 C 11.697 0.75 14.748 3.517 15.194 7.093 L 15.938 7 L 16.682 6.907 C 16.144 2.59 12.463 -0.75 8 -0.75 L 8 0 Z M 0.582 5 L 1.277 5.281 C 2.353 2.623 4.959 0.75 8 0.75 L 8 0 L 8 -0.75 C 4.327 -0.75 1.184 1.513 -0.114 4.719 L 0.582 5 Z M 0 5 L 0 5.75 L 0.582 5.75 L 0.582 5 L 0.582 4.25 L 0 4.25 L 0 5 Z M 0.582 5 L 0.582 5.75 L 5 5.75 L 5 5 L 5 4.25 L 0.582 4.25 L 0.582 5 Z M 16 16 L 16.75 16 L 16.75 11 L 16 11 L 15.25 11 L 15.25 16 L 16 16 Z M 15.418 11 L 14.723 10.719 C 13.647 13.377 11.041 15.25 8 15.25 L 8 16 L 8 16.75 C 11.673 16.75 14.816 14.487 16.114 11.281 L 15.418 11 Z M 16 11 L 16 10.25 L 15.418 10.25 L 15.418 11 L 15.418 11.75 L 16 11.75 L 16 11 Z M 15.418 11 L 15.418 10.25 L 11 10.25 L 11 11 L 11 11.75 L 15.418 11.75 L 15.418 11 Z M 8 16 L 8 15.25 C 4.303 15.25 1.252 12.483 0.806 8.907 L 0.062 9 L -0.682 9.093 C -0.144 13.41 3.537 16.75 8 16.75 L 8 16 Z" fill="currentColor" fill-rule="nonzero"></path></g></svg>