<svg xmlns="http://www.w3.org/2000/svg" width="24" height="24" viewBox="0 0 24 24" fill="none"><g transform="translate(2.000 2.000) scale(1.19048) translate(0.000 0.000)"><path d="M 16.27 17.33 C 16.563 17.623 17.037 17.623 17.33 17.33 C 17.623 17.037 17.623 16.563 17.33 16.27 L 16.8 16.8 L 16.27 17.33 Z M 11.73 10.67 C 11.437 10.377 10.963 10.377 10.67 10.67 C 10.377 10.963 10.377 11.437 10.67 11.73 L 11.2 11.2 L 11.73 10.67 Z M 13.067 6.533 L 12.317 6.533 C 12.317 9.727 9.727 12.317 6.533 12.317 L 6.533 13.067 L 6.533 13.817 C 10.556 13.817 13.817 10.556 13.817 6.533 L 13.067 6.533 Z M 6.533 13.067 L 6.533 12.317 C 3.339 12.317 0.75 9.727 0.75 6.533 L 0 6.533 L -0.75 6.533 C -0.75 10.556 2.511 13.817 6.533 13.817 L 6.533 13.067 Z M 0 6.533 L 0.75 6.533 C 0.75 3.339 3.339 0.75 6.533 0.75 L 6.533 0 L 6.533 -0.75 C 2.511 -0.75 -0.75 2.511 -0.75 6.533 L 0 6.533 Z M 6.533 0 L 6.533 0.75 C 9.727 0.75 12.317 3.339 12.317 6.533 L 13.067 6.533 L 13.817 6.533 C 13.817 2.511 10.556 -0.75 6.533 -0.75 L 6.533 0 Z M 16.8 16.8 L 17.33 16.27 L 11.73 10.67 L 11.2 11.2 L 10.67 11.73 L 16.27 17.33 L 16.8 16.8 Z" fill="currentColor" fill-rule="nonzero"></path></g></svg>