<svg xmlns="http://www.w3.org/2000/svg" width="24" height="24" viewBox="0 0 24 24" fill="none"><g transform="translate(2.000 2.000) scale(1.19048) translate(0.000 0.000)"><path d="M 16.8 2.8 L 16.05 2.8 C 16.05 3.932 15.132 4.85 14 4.85 L 14 5.6 L 14 6.35 C 15.961 6.35 17.55 4.761 17.55 2.8 L 16.8 2.8 Z M 11.2 2.8 L 11.95 2.8 C 11.95 1.668 12.868 0.75 14 0.75 L 14 0 L 14 -0.75 C 12.039 -0.75 10.45 0.839 10.45 2.8 L 11.2 2.8 Z M 14 0 L 14 0.75 C 15.132 0.75 16.05 1.668 16.05 2.8 L 16.8 2.8 L 17.55 2.8 C 17.55 0.839 15.961 -0.75 14 -0.75 L 14 0 Z M 16.8 14 L 16.05 14 C 16.05 15.132 15.132 16.05 14 16.05 L 14 16.8 L 14 17.55 C 15.961 17.55 17.55 15.961 17.55 14 L 16.8 14 Z M 14 16.8 L 14 16.05 C 12.868 16.05 11.95 15.132 11.95 14 L 11.2 14 L 10.45 14 C 10.45 15.961 12.039 17.55 14 17.55 L 14 16.8 Z M 14 11.2 L 14 11.95 C 15.132 11.95 16.05 12.868 16.05 14 L 16.8 14 L 17.55 14 C 17.55 12.039 15.961 10.45 14 10.45 L 14 11.2 Z M 2.8 11.2 L 2.8 10.45 C 1.668 10.45 0.75 9.532 0.75 8.4 L 0 8.4 L -0.75 8.4 C -0.75 10.361 0.839 11.95 2.8 11.95 L 2.8 11.2 Z M 0 8.4 L 0.75 8.4 C 0.75 7.268 1.668 6.35 2.8 6.35 L 2.8 5.6 L 2.8 4.85 C 0.839 4.85 -0.75 6.439 -0.75 8.4 L 0 8.4 Z M 5.6 8.4 L 4.85 8.4 C 4.85 8.731 4.772 9.042 4.634 9.317 L 5.305 9.652 L 5.976 9.988 C 6.215 9.51 6.35 8.969 6.35 8.4 L 5.6 8.4 Z M 5.305 9.652 L 4.634 9.317 C 4.297 9.99 3.601 10.45 2.8 10.45 L 2.8 11.2 L 2.8 11.95 C 4.191 11.95 5.394 11.15 5.976 9.988 L 5.305 9.652 Z M 2.8 5.6 L 2.8 6.35 C 3.601 6.35 4.297 6.81 4.634 7.483 L 5.305 7.148 L 5.976 6.812 C 5.394 5.65 4.191 4.85 2.8 4.85 L 2.8 5.6 Z M 5.305 7.148 L 4.634 7.483 C 4.772 7.758 4.85 8.069 4.85 8.4 L 5.6 8.4 L 6.35 8.4 C 6.35 7.831 6.215 7.29 5.976 6.812 L 5.305 7.148 Z M 5.305 7.148 L 5.64 7.818 L 11.83 4.723 L 11.495 4.052 L 11.16 3.382 L 4.97 6.477 L 5.305 7.148 Z M 14 5.6 L 14 4.85 C 13.199 4.85 12.503 4.39 12.166 3.717 L 11.495 4.052 L 10.824 4.388 C 11.406 5.55 12.609 6.35 14 6.35 L 14 5.6 Z M 11.495 4.052 L 12.166 3.717 C 12.028 3.442 11.95 3.131 11.95 2.8 L 11.2 2.8 L 10.45 2.8 C 10.45 3.369 10.585 3.91 10.824 4.388 L 11.495 4.052 Z M 5.305 9.652 L 4.97 10.323 L 11.16 13.418 L 11.495 12.748 L 11.83 12.077 L 5.64 8.982 L 5.305 9.652 Z M 11.2 14 L 11.95 14 C 11.95 13.669 12.028 13.358 12.166 13.083 L 11.495 12.748 L 10.824 12.412 C 10.585 12.89 10.45 13.431 10.45 14 L 11.2 14 Z M 11.495 12.748 L 12.166 13.083 C 12.503 12.41 13.199 11.95 14 11.95 L 14 11.2 L 14 10.45 C 12.609 10.45 11.406 11.25 10.824 12.412 L 11.495 12.748 Z" fill="currentColor" fill-rule="nonzero"></path></g></svg>