<svg xmlns="http://www.w3.org/2000/svg" width="24" height="24" viewBox="0 0 24 24" fill="none"><g transform="translate(2.000 2.179) scale(1.19048) translate(0.000 0.000)"><path d="M 16.443 2.837 L 17.169 2.649 C 17.08 2.305 16.761 2.07 16.405 2.088 L 16.443 2.837 Z M 8.4 0 L 8.9 -0.559 C 8.615 -0.814 8.185 -0.814 7.9 -0.559 L 8.4 0 Z M 0.357 2.837 L 0.395 2.088 C 0.039 2.07 -0.28 2.305 -0.369 2.649 L 0.357 2.837 Z M 8.4 16.499 L 8.213 17.225 C 8.336 17.257 8.464 17.257 8.587 17.225 L 8.4 16.499 Z M 6.13 7.922 C 5.837 7.629 5.363 7.629 5.07 7.922 C 4.777 8.215 4.777 8.689 5.07 8.982 L 5.6 8.452 L 6.13 7.922 Z M 7.467 10.319 L 6.936 10.849 C 7.229 11.142 7.704 11.142 7.997 10.849 L 7.467 10.319 Z M 11.73 7.116 C 12.023 6.823 12.023 6.348 11.73 6.055 C 11.437 5.762 10.963 5.762 10.67 6.055 L 11.2 6.585 L 11.73 7.116 Z M 16.443 2.837 L 16.405 2.088 C 16.227 2.097 16.047 2.102 15.867 2.102 L 15.867 2.852 L 15.867 3.602 C 16.073 3.602 16.278 3.597 16.481 3.586 L 16.443 2.837 Z M 15.867 2.852 L 15.867 2.102 C 13.19 2.102 10.749 1.096 8.9 -0.559 L 8.4 0 L 7.9 0.559 C 10.013 2.451 12.807 3.602 15.867 3.602 L 15.867 2.852 Z M 8.4 0 L 7.9 -0.559 C 6.05 1.096 3.61 2.102 0.933 2.102 L 0.933 2.852 L 0.933 3.602 C 3.993 3.602 6.786 2.451 8.9 0.559 L 8.4 0 Z M 0.933 2.852 L 0.933 2.102 C 0.753 2.102 0.573 2.097 0.395 2.088 L 0.357 2.837 L 0.319 3.586 C 0.522 3.597 0.727 3.602 0.933 3.602 L 0.933 2.852 Z M 0.357 2.837 L -0.369 2.649 C -0.618 3.61 -0.75 4.616 -0.75 5.652 L 0 5.652 L 0.75 5.652 C 0.75 4.744 0.866 3.864 1.083 3.025 L 0.357 2.837 Z M 0 5.652 L -0.75 5.652 C -0.75 11.221 3.059 15.899 8.213 17.225 L 8.4 16.499 L 8.587 15.773 C 4.08 14.613 0.75 10.52 0.75 5.652 L 0 5.652 Z M 8.4 16.499 L 8.587 17.225 C 13.741 15.899 17.55 11.221 17.55 5.652 L 16.8 5.652 L 16.05 5.652 C 16.05 10.52 12.72 14.613 8.213 15.773 L 8.4 16.499 Z M 16.8 5.652 L 17.55 5.652 C 17.55 4.616 17.418 3.61 17.169 2.649 L 16.443 2.837 L 15.717 3.025 C 15.934 3.864 16.05 4.744 16.05 5.652 L 16.8 5.652 Z M 5.6 8.452 L 5.07 8.982 L 6.936 10.849 L 7.467 10.319 L 7.997 9.788 L 6.13 7.922 L 5.6 8.452 Z M 7.467 10.319 L 7.997 10.849 L 11.73 7.116 L 11.2 6.585 L 10.67 6.055 L 6.936 9.788 L 7.467 10.319 Z" fill="currentColor" fill-rule="nonzero"></path></g></svg>