<svg xmlns="http://www.w3.org/2000/svg" width="24" height="24" viewBox="0 0 24 24" fill="none"><g transform="translate(2.000 2.000) scale(1.19048) translate(0.000 0.000)"><path d="M 0 -0.75 C -0.414 -0.75 -0.75 -0.414 -0.75 0 C -0.75 0.414 -0.414 0.75 0 0.75 L 0 0 L 0 -0.75 Z M 1.867 0 L 2.602 -0.147 C 2.532 -0.498 2.224 -0.75 1.867 -0.75 L 1.867 0 Z M 13.067 9.333 L 13.067 10.083 C 13.351 10.083 13.61 9.923 13.737 9.669 L 13.067 9.333 Z M 16.8 1.867 L 17.471 2.202 C 17.587 1.97 17.575 1.693 17.438 1.472 C 17.301 1.251 17.06 1.117 16.8 1.117 L 16.8 1.867 Z M 1.593 11.473 L 1.063 10.943 L 1.063 10.943 L 1.593 11.473 Z M 0 0 L 0 0.75 L 1.867 0.75 L 1.867 0 L 1.867 -0.75 L 0 -0.75 L 0 0 Z M 3.733 9.333 L 3.733 10.083 L 13.067 10.083 L 13.067 9.333 L 13.067 8.583 L 3.733 8.583 L 3.733 9.333 Z M 13.067 9.333 L 13.737 9.669 L 17.471 2.202 L 16.8 1.867 L 16.129 1.531 L 12.396 8.998 L 13.067 9.333 Z M 1.867 0 L 1.131 0.147 L 1.505 2.014 L 2.24 1.867 L 2.975 1.72 L 2.602 -0.147 L 1.867 0 Z M 2.24 1.867 L 1.505 2.014 L 2.998 9.48 L 3.733 9.333 L 4.469 9.186 L 2.975 1.72 L 2.24 1.867 Z M 2.24 1.867 L 2.24 2.617 L 16.8 2.617 L 16.8 1.867 L 16.8 1.117 L 2.24 1.117 L 2.24 1.867 Z M 14.933 14.933 L 14.183 14.933 C 14.183 15.55 13.683 16.05 13.067 16.05 L 13.067 16.8 L 13.067 17.55 C 14.512 17.55 15.683 16.378 15.683 14.933 L 14.933 14.933 Z M 13.067 16.8 L 13.067 16.05 C 12.45 16.05 11.95 15.55 11.95 14.933 L 11.2 14.933 L 10.45 14.933 C 10.45 16.378 11.622 17.55 13.067 17.55 L 13.067 16.8 Z M 11.2 14.933 L 11.95 14.933 C 11.95 14.317 12.45 13.817 13.067 13.817 L 13.067 13.067 L 13.067 12.317 C 11.622 12.317 10.45 13.488 10.45 14.933 L 11.2 14.933 Z M 13.067 13.067 L 13.067 13.817 C 13.683 13.817 14.183 14.317 14.183 14.933 L 14.933 14.933 L 15.683 14.933 C 15.683 13.488 14.512 12.317 13.067 12.317 L 13.067 13.067 Z M 5.6 14.933 L 4.85 14.933 C 4.85 15.55 4.35 16.05 3.733 16.05 L 3.733 16.8 L 3.733 17.55 C 5.178 17.55 6.35 16.378 6.35 14.933 L 5.6 14.933 Z M 3.733 16.8 L 3.733 16.05 C 3.117 16.05 2.617 15.55 2.617 14.933 L 1.867 14.933 L 1.117 14.933 C 1.117 16.378 2.288 17.55 3.733 17.55 L 3.733 16.8 Z M 1.867 14.933 L 2.617 14.933 C 2.617 14.317 3.117 13.817 3.733 13.817 L 3.733 13.067 L 3.733 12.317 C 2.288 12.317 1.117 13.488 1.117 14.933 L 1.867 14.933 Z M 3.733 13.067 L 3.733 13.817 C 4.35 13.817 4.85 14.317 4.85 14.933 L 5.6 14.933 L 6.35 14.933 C 6.35 13.488 5.178 12.317 3.733 12.317 L 3.733 13.067 Z M 2.253 13.067 L 2.253 13.817 L 13.067 13.817 L 13.067 13.067 L 13.067 12.317 L 2.253 12.317 L 2.253 13.067 Z M 1.593 11.473 L 2.124 12.004 L 4.264 9.864 L 3.733 9.333 L 3.203 8.803 L 1.063 10.943 L 1.593 11.473 Z M 2.253 13.067 L 2.253 12.317 C 2.09 12.317 2.008 12.119 2.124 12.004 L 1.593 11.473 L 1.063 10.943 C 0.003 12.003 0.754 13.817 2.253 13.817 L 2.253 13.067 Z" fill="currentColor" fill-rule="nonzero"></path></g></svg>