<svg xmlns="http://www.w3.org/2000/svg" width="24" height="24" viewBox="0 0 24 24" fill="none"><g transform="translate(3.111 2.000) scale(1.19048) translate(0.000 0.000)"><path d="M 0.933 5.6 L 0.933 4.85 C 0.543 4.85 0.218 5.149 0.186 5.538 L 0.933 5.6 Z M 14 5.6 L 14.747 5.538 C 14.715 5.149 14.39 4.85 14 4.85 L 14 5.6 Z M 14.933 16.8 L 14.933 17.55 C 15.143 17.55 15.343 17.462 15.485 17.308 C 15.627 17.153 15.698 16.947 15.681 16.738 L 14.933 16.8 Z M 0 16.8 L -0.747 16.738 C -0.765 16.947 -0.694 17.153 -0.552 17.308 C -0.41 17.462 -0.21 17.55 0 17.55 L 0 16.8 Z M 10.45 7.467 C 10.45 7.881 10.786 8.217 11.2 8.217 C 11.614 8.217 11.95 7.881 11.95 7.467 L 11.2 7.467 L 10.45 7.467 Z M 2.983 7.467 C 2.983 7.881 3.319 8.217 3.733 8.217 C 4.148 8.217 4.483 7.881 4.483 7.467 L 3.733 7.467 L 2.983 7.467 Z M 0.933 5.6 L 0.933 6.35 L 14 6.35 L 14 5.6 L 14 4.85 L 0.933 4.85 L 0.933 5.6 Z M 14 5.6 L 13.253 5.662 L 14.186 16.862 L 14.933 16.8 L 15.681 16.738 L 14.747 5.538 L 14 5.6 Z M 14.933 16.8 L 14.933 16.05 L 0 16.05 L 0 16.8 L 0 17.55 L 14.933 17.55 L 14.933 16.8 Z M 0 16.8 L 0.747 16.862 L 1.681 5.662 L 0.933 5.6 L 0.186 5.538 L -0.747 16.738 L 0 16.8 Z M 11.2 3.733 L 10.45 3.733 L 10.45 7.467 L 11.2 7.467 L 11.95 7.467 L 11.95 3.733 L 11.2 3.733 Z M 3.733 7.467 L 4.483 7.467 L 4.483 3.733 L 3.733 3.733 L 2.983 3.733 L 2.983 7.467 L 3.733 7.467 Z M 7.467 0 L 7.467 0.75 C 9.114 0.75 10.45 2.086 10.45 3.733 L 11.2 3.733 L 11.95 3.733 C 11.95 1.257 9.943 -0.75 7.467 -0.75 L 7.467 0 Z M 7.467 0 L 7.467 -0.75 C 4.991 -0.75 2.983 1.257 2.983 3.733 L 3.733 3.733 L 4.483 3.733 C 4.483 2.086 5.819 0.75 7.467 0.75 L 7.467 0 Z" fill="currentColor" fill-rule="nonzero"></path></g></svg>