<svg xmlns="http://www.w3.org/2000/svg" width="24" height="24" viewBox="0 0 24 24" fill="none"><g transform="translate(2.000 2.000) scale(1.19048) translate(0.000 0.000)"><path d="M 9.333 0 L 10.045 -0.237 C 9.943 -0.543 9.656 -0.75 9.333 -0.75 C 9.011 -0.75 8.724 -0.543 8.622 -0.237 L 9.333 0 Z M 11.467 6.4 L 10.755 6.637 C 10.827 6.852 10.991 7.023 11.203 7.102 L 11.467 6.4 Z M 7.2 6.4 L 7.463 7.102 C 7.675 7.023 7.84 6.852 7.912 6.637 L 7.2 6.4 Z M 1.867 8.4 L 1.603 7.698 C 1.311 7.808 1.117 8.087 1.117 8.4 C 1.117 8.713 1.311 8.992 1.603 9.102 L 1.867 8.4 Z M 7.2 10.4 L 7.912 10.163 C 7.84 9.948 7.675 9.777 7.463 9.698 L 7.2 10.4 Z M 9.333 16.8 L 8.622 17.037 C 8.724 17.343 9.011 17.55 9.333 17.55 C 9.656 17.55 9.943 17.343 10.045 17.037 L 9.333 16.8 Z M 11.467 10.4 L 11.203 9.698 C 10.991 9.777 10.827 9.948 10.755 10.163 L 11.467 10.4 Z M 16.8 8.4 L 17.063 9.102 C 17.356 8.992 17.55 8.713 17.55 8.4 C 17.55 8.087 17.356 7.808 17.063 7.698 L 16.8 8.4 Z M 2.617 0 C 2.617 -0.414 2.281 -0.75 1.867 -0.75 C 1.452 -0.75 1.117 -0.414 1.117 0 L 1.867 0 L 2.617 0 Z M 1.117 3.733 C 1.117 4.148 1.452 4.483 1.867 4.483 C 2.281 4.483 2.617 4.148 2.617 3.733 L 1.867 3.733 L 1.117 3.733 Z M 0 1.117 C -0.414 1.117 -0.75 1.452 -0.75 1.867 C -0.75 2.281 -0.414 2.617 0 2.617 L 0 1.867 L 0 1.117 Z M 3.733 2.617 C 4.148 2.617 4.483 2.281 4.483 1.867 C 4.483 1.452 4.148 1.117 3.733 1.117 L 3.733 1.867 L 3.733 2.617 Z M 3.55 13.067 C 3.55 12.652 3.214 12.317 2.8 12.317 C 2.386 12.317 2.05 12.652 2.05 13.067 L 2.8 13.067 L 3.55 13.067 Z M 2.05 16.8 C 2.05 17.214 2.386 17.55 2.8 17.55 C 3.214 17.55 3.55 17.214 3.55 16.8 L 2.8 16.8 L 2.05 16.8 Z M 0.933 14.183 C 0.519 14.183 0.183 14.519 0.183 14.933 C 0.183 15.348 0.519 15.683 0.933 15.683 L 0.933 14.933 L 0.933 14.183 Z M 4.667 15.683 C 5.081 15.683 5.417 15.348 5.417 14.933 C 5.417 14.519 5.081 14.183 4.667 14.183 L 4.667 14.933 L 4.667 15.683 Z M 9.333 0 L 8.622 0.237 L 10.755 6.637 L 11.467 6.4 L 12.178 6.163 L 10.045 -0.237 L 9.333 0 Z M 7.2 6.4 L 7.912 6.637 L 10.045 0.237 L 9.333 0 L 8.622 -0.237 L 6.488 6.163 L 7.2 6.4 Z M 1.867 8.4 L 2.13 9.102 L 7.463 7.102 L 7.2 6.4 L 6.937 5.698 L 1.603 7.698 L 1.867 8.4 Z M 7.2 10.4 L 7.463 9.698 L 2.13 7.698 L 1.867 8.4 L 1.603 9.102 L 6.937 11.102 L 7.2 10.4 Z M 9.333 16.8 L 10.045 16.563 L 7.912 10.163 L 7.2 10.4 L 6.488 10.637 L 8.622 17.037 L 9.333 16.8 Z M 11.467 10.4 L 10.755 10.163 L 8.622 16.563 L 9.333 16.8 L 10.045 17.037 L 12.178 10.637 L 11.467 10.4 Z M 16.8 8.4 L 16.537 7.698 L 11.203 9.698 L 11.467 10.4 L 11.73 11.102 L 17.063 9.102 L 16.8 8.4 Z M 11.467 6.4 L 11.203 7.102 L 16.537 9.102 L 16.8 8.4 L 17.063 7.698 L 11.73 5.698 L 11.467 6.4 Z M 1.867 0 L 1.117 0 L 1.117 3.733 L 1.867 3.733 L 2.617 3.733 L 2.617 0 L 1.867 0 Z M 0 1.867 L 0 2.617 L 3.733 2.617 L 3.733 1.867 L 3.733 1.117 L 0 1.117 L 0 1.867 Z M 2.8 13.067 L 2.05 13.067 L 2.05 16.8 L 2.8 16.8 L 3.55 16.8 L 3.55 13.067 L 2.8 13.067 Z M 0.933 14.933 L 0.933 15.683 L 4.667 15.683 L 4.667 14.933 L 4.667 14.183 L 0.933 14.183 L 0.933 14.933 Z" fill="currentColor" fill-rule="nonzero"></path></g></svg>