<svg xmlns="http://www.w3.org/2000/svg" width="24" height="24" viewBox="0 0 24 24" fill="none"><g transform="translate(2.000 2.000) scale(0.92593) translate(0.000 0.000)"><path d="M 7.639 6.893 L 7.579 6.145 L 7.639 6.893 Z M 8.061 6.586 L 7.368 6.298 L 8.061 6.586 Z M 1.727 7.367 L 1.787 8.114 L 1.727 7.367 Z M 5.478 18.911 L 5.869 19.551 L 5.478 18.911 Z M 4.731 18.368 L 4.001 18.194 L 4.731 18.368 Z M 11.061 15.819 L 10.67 16.459 L 11.061 15.819 Z M 10.539 15.819 L 10.93 16.459 L 10.539 15.819 Z M 16.869 18.368 L 17.599 18.194 L 16.869 18.368 Z M 16.122 18.911 L 15.731 19.551 L 16.122 18.911 Z M 15.654 12.103 L 16.142 12.673 L 15.654 12.103 Z M 15.493 12.599 L 16.223 12.425 L 15.493 12.599 Z M 19.873 7.367 L 19.813 8.114 L 19.873 7.367 Z M 20.158 8.245 L 19.671 7.675 L 20.158 8.245 Z M 13.539 6.586 L 14.232 6.298 L 13.539 6.586 Z M 13.961 6.893 L 14.021 6.145 L 13.961 6.893 Z M 11.262 1.11 L 11.954 0.822 L 11.262 1.11 Z M 10.338 1.11 L 9.646 0.822 L 10.338 1.11 Z M 11.262 1.11 L 10.569 1.398 L 12.847 6.874 L 13.539 6.586 L 14.232 6.298 L 11.954 0.822 L 11.262 1.11 Z M 13.961 6.893 L 13.901 7.64 L 19.813 8.114 L 19.873 7.367 L 19.933 6.619 L 14.021 6.145 L 13.961 6.893 Z M 20.158 8.245 L 19.671 7.675 L 15.166 11.534 L 15.654 12.103 L 16.142 12.673 L 20.646 8.814 L 20.158 8.245 Z M 15.493 12.599 L 14.763 12.773 L 16.14 18.542 L 16.869 18.368 L 17.599 18.194 L 16.223 12.425 L 15.493 12.599 Z M 16.122 18.911 L 16.513 18.271 L 11.452 15.179 L 11.061 15.819 L 10.67 16.459 L 15.731 19.551 L 16.122 18.911 Z M 10.539 15.819 L 10.148 15.179 L 5.087 18.271 L 5.478 18.911 L 5.869 19.551 L 10.93 16.459 L 10.539 15.819 Z M 4.731 18.368 L 5.46 18.542 L 6.837 12.773 L 6.107 12.599 L 5.377 12.425 L 4.001 18.194 L 4.731 18.368 Z M 5.946 12.103 L 6.434 11.534 L 1.929 7.675 L 1.442 8.245 L 0.954 8.814 L 5.458 12.673 L 5.946 12.103 Z M 1.727 7.367 L 1.787 8.114 L 7.699 7.64 L 7.639 6.893 L 7.579 6.145 L 1.667 6.619 L 1.727 7.367 Z M 8.061 6.586 L 8.753 6.874 L 11.031 1.398 L 10.338 1.11 L 9.646 0.822 L 7.368 6.298 L 8.061 6.586 Z M 7.639 6.893 L 7.699 7.64 C 8.166 7.603 8.573 7.307 8.753 6.874 L 8.061 6.586 L 7.368 6.298 C 7.404 6.212 7.486 6.152 7.579 6.145 L 7.639 6.893 Z M 1.442 8.245 L 1.929 7.675 C 2.098 7.82 2.008 8.096 1.787 8.114 L 1.727 7.367 L 1.667 6.619 C 0.559 6.708 0.109 8.091 0.954 8.814 L 1.442 8.245 Z M 6.107 12.599 L 6.837 12.773 C 6.945 12.317 6.79 11.838 6.434 11.534 L 5.946 12.103 L 5.458 12.673 C 5.387 12.612 5.356 12.516 5.377 12.425 L 6.107 12.599 Z M 5.478 18.911 L 5.087 18.271 C 5.277 18.155 5.512 18.326 5.46 18.542 L 4.731 18.368 L 4.001 18.194 C 3.743 19.276 4.92 20.13 5.869 19.551 L 5.478 18.911 Z M 11.061 15.819 L 11.452 15.179 C 11.052 14.935 10.548 14.935 10.148 15.179 L 10.539 15.819 L 10.93 16.459 C 10.85 16.508 10.75 16.508 10.67 16.459 L 11.061 15.819 Z M 16.869 18.368 L 16.14 18.542 C 16.088 18.326 16.323 18.155 16.513 18.271 L 16.122 18.911 L 15.731 19.551 C 16.68 20.13 17.857 19.276 17.599 18.194 L 16.869 18.368 Z M 15.654 12.103 L 15.166 11.534 C 14.81 11.838 14.655 12.317 14.763 12.773 L 15.493 12.599 L 16.223 12.425 C 16.244 12.516 16.213 12.612 16.142 12.673 L 15.654 12.103 Z M 19.873 7.367 L 19.813 8.114 C 19.592 8.096 19.502 7.82 19.671 7.675 L 20.158 8.245 L 20.646 8.814 C 21.491 8.091 21.041 6.708 19.933 6.619 L 19.873 7.367 Z M 13.539 6.586 L 12.847 6.874 C 13.027 7.307 13.434 7.603 13.901 7.64 L 13.961 6.893 L 14.021 6.145 C 14.114 6.152 14.196 6.212 14.232 6.298 L 13.539 6.586 Z M 11.262 1.11 L 11.954 0.822 C 11.527 -0.205 10.073 -0.205 9.646 0.822 L 10.338 1.11 L 11.031 1.398 C 10.945 1.603 10.655 1.603 10.569 1.398 L 11.262 1.11 Z" fill="currentColor" fill-rule="nonzero"></path></g></svg>