<svg xmlns="http://www.w3.org/2000/svg" width="24" height="24" viewBox="0 0 24 24" fill="none"><g transform="translate(2.000 2.000) scale(1.19048) translate(0.000 0.000)"><path d="M 9.15 0 C 9.15 -0.414 8.814 -0.75 8.4 -0.75 C 7.986 -0.75 7.65 -0.414 7.65 0 L 8.4 0 L 9.15 0 Z M 7.65 0.933 C 7.65 1.348 7.986 1.683 8.4 1.683 C 8.814 1.683 9.15 1.348 9.15 0.933 L 8.4 0.933 L 7.65 0.933 Z M 9.15 15.867 C 9.15 15.452 8.814 15.117 8.4 15.117 C 7.986 15.117 7.65 15.452 7.65 15.867 L 8.4 15.867 L 9.15 15.867 Z M 7.65 16.8 C 7.65 17.214 7.986 17.55 8.4 17.55 C 8.814 17.55 9.15 17.214 9.15 16.8 L 8.4 16.8 L 7.65 16.8 Z M 16.8 9.15 C 17.214 9.15 17.55 8.814 17.55 8.4 C 17.55 7.986 17.214 7.65 16.8 7.65 L 16.8 8.4 L 16.8 9.15 Z M 15.867 7.65 C 15.452 7.65 15.117 7.986 15.117 8.4 C 15.117 8.814 15.452 9.15 15.867 9.15 L 15.867 8.4 L 15.867 7.65 Z M 0.933 9.15 C 1.348 9.15 1.683 8.814 1.683 8.4 C 1.683 7.986 1.348 7.65 0.933 7.65 L 0.933 8.4 L 0.933 9.15 Z M 0 7.65 C -0.414 7.65 -0.75 7.986 -0.75 8.4 C -0.75 8.814 -0.414 9.15 0 9.15 L 0 8.4 L 0 7.65 Z M 13.809 14.87 C 14.102 15.163 14.577 15.163 14.87 14.87 C 15.163 14.577 15.163 14.102 14.87 13.809 L 14.34 14.34 L 13.809 14.87 Z M 14.21 13.149 C 13.917 12.857 13.442 12.857 13.149 13.149 C 12.857 13.442 12.857 13.917 13.149 14.21 L 13.68 13.68 L 14.21 13.149 Z M 2.59 3.651 C 2.883 3.943 3.358 3.943 3.651 3.651 C 3.943 3.358 3.943 2.883 3.651 2.59 L 3.12 3.12 L 2.59 3.651 Z M 2.991 1.93 C 2.698 1.637 2.223 1.637 1.93 1.93 C 1.637 2.223 1.637 2.698 1.93 2.991 L 2.46 2.46 L 2.991 1.93 Z M 14.87 2.991 C 15.163 2.698 15.163 2.223 14.87 1.93 C 14.577 1.637 14.102 1.637 13.809 1.93 L 14.34 2.46 L 14.87 2.991 Z M 13.149 2.59 C 12.857 2.883 12.857 3.358 13.149 3.651 C 13.442 3.944 13.917 3.944 14.21 3.651 L 13.68 3.12 L 13.149 2.59 Z M 3.651 14.21 C 3.944 13.917 3.944 13.442 3.651 13.149 C 3.358 12.857 2.883 12.857 2.59 13.149 L 3.12 13.68 L 3.651 14.21 Z M 1.93 13.809 C 1.637 14.102 1.637 14.577 1.93 14.87 C 2.223 15.163 2.698 15.163 2.991 14.87 L 2.46 14.34 L 1.93 13.809 Z M 12.133 8.4 L 11.383 8.4 C 11.383 10.048 10.048 11.383 8.4 11.383 L 8.4 12.133 L 8.4 12.883 C 10.876 12.883 12.883 10.876 12.883 8.4 L 12.133 8.4 Z M 8.4 12.133 L 8.4 11.383 C 6.752 11.383 5.417 10.048 5.417 8.4 L 4.667 8.4 L 3.917 8.4 C 3.917 10.876 5.924 12.883 8.4 12.883 L 8.4 12.133 Z M 4.667 8.4 L 5.417 8.4 C 5.417 6.752 6.752 5.417 8.4 5.417 L 8.4 4.667 L 8.4 3.917 C 5.924 3.917 3.917 5.924 3.917 8.4 L 4.667 8.4 Z M 8.4 4.667 L 8.4 5.417 C 10.048 5.417 11.383 6.752 11.383 8.4 L 12.133 8.4 L 12.883 8.4 C 12.883 5.924 10.876 3.917 8.4 3.917 L 8.4 4.667 Z M 8.4 0 L 7.65 0 L 7.65 0.933 L 8.4 0.933 L 9.15 0.933 L 9.15 0 L 8.4 0 Z M 8.4 15.867 L 7.65 15.867 L 7.65 16.8 L 8.4 16.8 L 9.15 16.8 L 9.15 15.867 L 8.4 15.867 Z M 16.8 8.4 L 16.8 7.65 L 15.867 7.65 L 15.867 8.4 L 15.867 9.15 L 16.8 9.15 L 16.8 8.4 Z M 0.933 8.4 L 0.933 7.65 L 0 7.65 L 0 8.4 L 0 9.15 L 0.933 9.15 L 0.933 8.4 Z M 14.34 14.34 L 14.87 13.809 L 14.21 13.149 L 13.68 13.68 L 13.149 14.21 L 13.809 14.87 L 14.34 14.34 Z M 3.12 3.12 L 3.651 2.59 L 2.991 1.93 L 2.46 2.46 L 1.93 2.991 L 2.59 3.651 L 3.12 3.12 Z M 14.34 2.46 L 13.809 1.93 L 13.149 2.59 L 13.68 3.12 L 14.21 3.651 L 14.87 2.991 L 14.34 2.46 Z M 3.12 13.68 L 2.59 13.149 L 1.93 13.809 L 2.46 14.34 L 2.991 14.87 L 3.651 14.21 L 3.12 13.68 Z" fill="currentColor" fill-rule="nonzero"></path></g></svg>