<svg xmlns="http://www.w3.org/2000/svg" width="24" height="24" viewBox="0 0 24 24" fill="none"><g transform="translate(2.000 2.000) scale(1.19048) translate(0.000 0.000)"><path d="M 9.8 0.632 L 9.238 1.128 C 9.248 1.14 9.259 1.151 9.27 1.162 L 9.8 0.632 Z M 16.168 9.8 L 15.672 9.238 C 15.66 9.248 15.649 9.259 15.638 9.27 L 16.168 9.8 Z M 16.333 7.165 L 16.896 6.669 C 16.885 6.657 16.875 6.646 16.864 6.635 L 16.333 7.165 Z M 7.165 16.333 L 6.635 16.864 C 6.646 16.875 6.657 16.885 6.669 16.896 L 7.165 16.333 Z M 9.635 16.333 L 10.131 16.896 C 10.143 16.885 10.154 16.875 10.165 16.864 L 9.635 16.333 Z M 0.632 9.8 L 1.162 9.27 L 1.146 9.253 L 1.128 9.238 L 0.632 9.8 Z M 3.733 2.983 C 3.319 2.983 2.983 3.319 2.983 3.733 C 2.983 4.148 3.319 4.483 3.733 4.483 L 3.733 3.733 L 3.733 2.983 Z M 3.743 4.483 C 4.157 4.483 4.493 4.148 4.493 3.733 C 4.493 3.319 4.157 2.983 3.743 2.983 L 3.743 3.733 L 3.743 4.483 Z M 0 3.733 L 0.75 3.733 C 0.75 2.086 2.086 0.75 3.733 0.75 L 3.733 0 L 3.733 -0.75 C 1.257 -0.75 -0.75 1.257 -0.75 3.733 L 0 3.733 Z M 0 8.4 L 0.75 8.4 L 0.75 3.733 L 0 3.733 L -0.75 3.733 L -0.75 8.4 L 0 8.4 Z M 3.733 0 L 3.733 0.75 L 8.4 0.75 L 8.4 0 L 8.4 -0.75 L 3.733 -0.75 L 3.733 0 Z M 8.4 0 L 8.4 0.75 C 8.733 0.75 9.032 0.895 9.238 1.128 L 9.8 0.632 L 10.362 0.136 C 9.884 -0.406 9.182 -0.75 8.4 -0.75 L 8.4 0 Z M 16.8 8.4 L 16.05 8.4 C 16.05 8.733 15.905 9.032 15.672 9.238 L 16.168 9.8 L 16.664 10.362 C 17.206 9.884 17.55 9.182 17.55 8.4 L 16.8 8.4 Z M 16.333 7.165 L 15.771 7.662 C 15.945 7.859 16.05 8.116 16.05 8.4 L 16.8 8.4 L 17.55 8.4 C 17.55 7.737 17.302 7.13 16.896 6.669 L 16.333 7.165 Z M 8.4 16.8 L 8.4 16.05 C 8.116 16.05 7.859 15.945 7.662 15.771 L 7.165 16.333 L 6.669 16.896 C 7.13 17.302 7.737 17.55 8.4 17.55 L 8.4 16.8 Z M 9.635 16.333 L 9.138 15.771 C 8.941 15.945 8.684 16.05 8.4 16.05 L 8.4 16.8 L 8.4 17.55 C 9.063 17.55 9.67 17.302 10.131 16.896 L 9.635 16.333 Z M 0.632 9.8 L 1.128 9.238 C 0.895 9.032 0.75 8.733 0.75 8.4 L 0 8.4 L -0.75 8.4 C -0.75 9.182 -0.406 9.884 0.136 10.362 L 0.632 9.8 Z M 9.8 0.632 L 9.27 1.162 L 15.803 7.696 L 16.333 7.165 L 16.864 6.635 L 10.33 0.102 L 9.8 0.632 Z M 7.165 16.333 L 7.696 15.803 L 1.162 9.27 L 0.632 9.8 L 0.102 10.33 L 6.635 16.864 L 7.165 16.333 Z M 16.168 9.8 L 15.638 9.27 L 9.104 15.803 L 9.635 16.333 L 10.165 16.864 L 16.698 10.33 L 16.168 9.8 Z M 3.733 3.733 L 3.733 4.483 L 3.743 4.483 L 3.743 3.733 L 3.743 2.983 L 3.733 2.983 L 3.733 3.733 Z" fill="currentColor" fill-rule="nonzero"></path></g></svg>