<svg xmlns="http://www.w3.org/2000/svg" width="24" height="24" viewBox="0 0 24 24" fill="none"><g transform="translate(2.000 3.111) scale(1.19048) translate(0.000 0.000)"><path d="M 5.197 4.136 C 4.904 3.843 4.429 3.843 4.136 4.136 C 3.843 4.429 3.843 4.904 4.136 5.197 L 4.667 4.667 L 5.197 4.136 Z M 7.467 7.467 L 7.997 7.997 C 8.29 7.704 8.29 7.229 7.997 6.936 L 7.467 7.467 Z M 4.136 9.736 C 3.843 10.029 3.843 10.504 4.136 10.797 C 4.429 11.09 4.904 11.09 5.197 10.797 L 4.667 10.267 L 4.136 9.736 Z M 9.333 9.517 C 8.919 9.517 8.583 9.852 8.583 10.267 C 8.583 10.681 8.919 11.017 9.333 11.017 L 9.333 10.267 L 9.333 9.517 Z M 12.133 11.017 C 12.548 11.017 12.883 10.681 12.883 10.267 C 12.883 9.852 12.548 9.517 12.133 9.517 L 12.133 10.267 L 12.133 11.017 Z M 1.867 0 L 1.867 0.75 L 14.933 0.75 L 14.933 0 L 14.933 -0.75 L 1.867 -0.75 L 1.867 0 Z M 16.8 1.867 L 16.05 1.867 L 16.05 13.067 L 16.8 13.067 L 17.55 13.067 L 17.55 1.867 L 16.8 1.867 Z M 14.933 14.933 L 14.933 14.183 L 1.867 14.183 L 1.867 14.933 L 1.867 15.683 L 14.933 15.683 L 14.933 14.933 Z M 0 13.067 L 0.75 13.067 L 0.75 1.867 L 0 1.867 L -0.75 1.867 L -0.75 13.067 L 0 13.067 Z M 1.867 14.933 L 1.867 14.183 C 1.25 14.183 0.75 13.683 0.75 13.067 L 0 13.067 L -0.75 13.067 C -0.75 14.512 0.422 15.683 1.867 15.683 L 1.867 14.933 Z M 16.8 13.067 L 16.05 13.067 C 16.05 13.683 15.55 14.183 14.933 14.183 L 14.933 14.933 L 14.933 15.683 C 16.378 15.683 17.55 14.512 17.55 13.067 L 16.8 13.067 Z M 14.933 0 L 14.933 0.75 C 15.55 0.75 16.05 1.25 16.05 1.867 L 16.8 1.867 L 17.55 1.867 C 17.55 0.422 16.378 -0.75 14.933 -0.75 L 14.933 0 Z M 1.867 0 L 1.867 -0.75 C 0.422 -0.75 -0.75 0.422 -0.75 1.867 L 0 1.867 L 0.75 1.867 C 0.75 1.25 1.25 0.75 1.867 0.75 L 1.867 0 Z M 4.667 4.667 L 4.136 5.197 L 6.936 7.997 L 7.467 7.467 L 7.997 6.936 L 5.197 4.136 L 4.667 4.667 Z M 7.467 7.467 L 6.936 6.936 L 4.136 9.736 L 4.667 10.267 L 5.197 10.797 L 7.997 7.997 L 7.467 7.467 Z M 9.333 10.267 L 9.333 11.017 L 12.133 11.017 L 12.133 10.267 L 12.133 9.517 L 9.333 9.517 L 9.333 10.267 Z" fill="currentColor" fill-rule="nonzero"></path></g></svg>