<svg xmlns="http://www.w3.org/2000/svg" width="24" height="24" viewBox="0 0 24 24" fill="none"><g transform="translate(2.130 2.000) scale(1.19048) translate(0.000 0.000)"><path d="M 3.466 1.032 L 4.137 1.367 L 4.137 1.367 L 3.466 1.032 Z M 0.199 7.565 L -0.471 7.23 L -0.471 7.23 L 0.199 7.565 Z M 9.338 0.056 L 9.156 0.783 L 9.156 0.783 L 9.338 0.056 Z M 12.849 9.333 L 13.473 9.749 C 13.555 9.626 13.599 9.481 13.599 9.333 L 12.849 9.333 Z M 8.182 11.017 C 8.596 11.017 8.932 10.681 8.932 10.267 C 8.932 9.852 8.596 9.517 8.182 9.517 L 8.182 10.267 L 8.182 11.017 Z M 12.382 9.517 C 11.968 9.517 11.632 9.852 11.632 10.267 C 11.632 10.681 11.968 11.017 12.382 11.017 L 12.382 10.267 L 12.382 9.517 Z M 9.683 14.083 L 9.059 13.667 L 9.059 13.667 L 9.683 14.083 Z M 1.869 10.267 L 1.869 11.017 L 6.315 11.017 L 6.315 10.267 L 6.315 9.517 L 1.869 9.517 L 1.869 10.267 Z M 3.466 1.032 L 2.795 0.696 L -0.471 7.23 L 0.199 7.565 L 0.87 7.901 L 4.137 1.367 L 3.466 1.032 Z M 12.849 0.933 L 13.031 0.206 L 9.52 -0.672 L 9.338 0.056 L 9.156 0.783 L 12.667 1.661 L 12.849 0.933 Z M 8.886 0 L 8.886 -0.75 L 5.136 -0.75 L 5.136 0 L 5.136 0.75 L 8.886 0.75 L 8.886 0 Z M 6.315 10.267 L 5.565 10.267 L 5.565 14.933 L 6.315 14.933 L 7.065 14.933 L 7.065 10.267 L 6.315 10.267 Z M 8.182 16.8 L 8.182 17.55 L 8.271 17.55 L 8.271 16.8 L 8.271 16.05 L 8.182 16.05 L 8.182 16.8 Z M 12.849 9.333 L 13.599 9.333 L 13.599 0.933 L 12.849 0.933 L 12.099 0.933 L 12.099 9.333 L 12.849 9.333 Z M 9.338 0.056 L 9.52 -0.672 C 9.313 -0.724 9.1 -0.75 8.886 -0.75 L 8.886 0 L 8.886 0.75 C 8.977 0.75 9.068 0.761 9.156 0.783 L 9.338 0.056 Z M 3.466 1.032 L 4.137 1.367 C 4.326 0.989 4.713 0.75 5.136 0.75 L 5.136 0 L 5.136 -0.75 C 4.145 -0.75 3.239 -0.19 2.795 0.696 L 3.466 1.032 Z M 6.315 14.933 L 5.565 14.933 C 5.565 16.378 6.737 17.55 8.182 17.55 L 8.182 16.8 L 8.182 16.05 C 7.565 16.05 7.065 15.55 7.065 14.933 L 6.315 14.933 Z M 1.869 10.267 L 1.869 9.517 C 1.039 9.517 0.499 8.643 0.87 7.901 L 0.199 7.565 L -0.471 7.23 C -1.341 8.97 -0.076 11.017 1.869 11.017 L 1.869 10.267 Z M 6.315 10.267 L 6.315 11.017 L 8.182 11.017 L 8.182 10.267 L 8.182 9.517 L 6.315 9.517 L 6.315 10.267 Z M 12.382 10.267 L 12.382 11.017 L 14.715 11.017 L 14.715 10.267 L 14.715 9.517 L 12.382 9.517 L 12.382 10.267 Z M 16.582 8.4 L 17.332 8.4 L 17.332 2.8 L 16.582 2.8 L 15.832 2.8 L 15.832 8.4 L 16.582 8.4 Z M 14.715 0.933 L 14.715 0.183 L 12.849 0.183 L 12.849 0.933 L 12.849 1.683 L 14.715 1.683 L 14.715 0.933 Z M 16.582 2.8 L 17.332 2.8 C 17.332 1.355 16.161 0.183 14.715 0.183 L 14.715 0.933 L 14.715 1.683 C 15.332 1.683 15.832 2.183 15.832 2.8 L 16.582 2.8 Z M 14.715 10.267 L 14.715 11.017 C 16.161 11.017 17.332 9.845 17.332 8.4 L 16.582 8.4 L 15.832 8.4 C 15.832 9.017 15.332 9.517 14.715 9.517 L 14.715 10.267 Z M 9.683 14.083 L 10.307 14.499 L 13.473 9.749 L 12.849 9.333 L 12.225 8.917 L 9.059 13.667 L 9.683 14.083 Z M 9.115 15.956 L 9.865 15.956 C 9.865 15.437 10.019 14.93 10.307 14.499 L 9.683 14.083 L 9.059 13.667 C 8.607 14.344 8.365 15.141 8.365 15.956 L 9.115 15.956 Z M 8.271 16.8 L 8.271 17.55 C 9.152 17.55 9.865 16.836 9.865 15.956 L 9.115 15.956 L 8.365 15.956 C 8.365 16.008 8.323 16.05 8.271 16.05 L 8.271 16.8 Z" fill="currentColor" fill-rule="nonzero"></path></g></svg>