<svg xmlns="http://www.w3.org/2000/svg" width="24" height="24" viewBox="0 0 24 24" fill="none"><g transform="translate(2.130 2.000) scale(1.19048) translate(0.000 0.000)"><path d="M 13.116 15.768 L 12.445 15.433 L 12.445 15.433 L 13.116 15.768 Z M 16.383 9.235 L 17.053 9.57 L 17.053 9.57 L 16.383 9.235 Z M 7.244 16.744 L 7.426 16.017 L 7.426 16.017 L 7.244 16.744 Z M 3.733 7.467 L 3.109 7.051 C 3.027 7.174 2.983 7.319 2.983 7.467 L 3.733 7.467 Z M 8.4 5.783 C 7.986 5.783 7.65 6.119 7.65 6.533 C 7.65 6.948 7.986 7.283 8.4 7.283 L 8.4 6.533 L 8.4 5.783 Z M 4.2 7.283 C 4.614 7.283 4.95 6.948 4.95 6.533 C 4.95 6.119 4.614 5.783 4.2 5.783 L 4.2 6.533 L 4.2 7.283 Z M 6.9 2.717 L 7.524 3.133 L 7.524 3.133 L 6.9 2.717 Z M 14.713 6.533 L 14.713 5.783 L 10.267 5.783 L 10.267 6.533 L 10.267 7.283 L 14.713 7.283 L 14.713 6.533 Z M 13.116 15.768 L 13.787 16.104 L 17.053 9.57 L 16.383 9.235 L 15.712 8.899 L 12.445 15.433 L 13.116 15.768 Z M 3.733 15.867 L 3.551 16.594 L 7.062 17.472 L 7.244 16.744 L 7.426 16.017 L 3.915 15.139 L 3.733 15.867 Z M 7.696 16.8 L 7.696 17.55 L 11.446 17.55 L 11.446 16.8 L 11.446 16.05 L 7.696 16.05 L 7.696 16.8 Z M 10.267 6.533 L 11.017 6.533 L 11.017 1.867 L 10.267 1.867 L 9.517 1.867 L 9.517 6.533 L 10.267 6.533 Z M 8.4 0 L 8.4 -0.75 L 8.311 -0.75 L 8.311 0 L 8.311 0.75 L 8.4 0.75 L 8.4 0 Z M 3.733 7.467 L 2.983 7.467 L 2.983 15.867 L 3.733 15.867 L 4.483 15.867 L 4.483 7.467 L 3.733 7.467 Z M 7.244 16.744 L 7.062 17.472 C 7.269 17.524 7.483 17.55 7.696 17.55 L 7.696 16.8 L 7.696 16.05 C 7.605 16.05 7.514 16.039 7.426 16.017 L 7.244 16.744 Z M 13.116 15.768 L 12.445 15.433 C 12.256 15.811 11.869 16.05 11.446 16.05 L 11.446 16.8 L 11.446 17.55 C 12.437 17.55 13.344 16.99 13.787 16.104 L 13.116 15.768 Z M 10.267 1.867 L 11.017 1.867 C 11.017 0.422 9.845 -0.75 8.4 -0.75 L 8.4 0 L 8.4 0.75 C 9.017 0.75 9.517 1.25 9.517 1.867 L 10.267 1.867 Z M 14.713 6.533 L 14.713 7.283 C 15.543 7.283 16.083 8.157 15.712 8.899 L 16.383 9.235 L 17.053 9.57 C 17.923 7.83 16.658 5.783 14.713 5.783 L 14.713 6.533 Z M 10.267 6.533 L 10.267 5.783 L 8.4 5.783 L 8.4 6.533 L 8.4 7.283 L 10.267 7.283 L 10.267 6.533 Z M 4.2 6.533 L 4.2 5.783 L 1.867 5.783 L 1.867 6.533 L 1.867 7.283 L 4.2 7.283 L 4.2 6.533 Z M 0 8.4 L -0.75 8.4 L -0.75 14 L 0 14 L 0.75 14 L 0.75 8.4 L 0 8.4 Z M 1.867 15.867 L 1.867 16.617 L 3.733 16.617 L 3.733 15.867 L 3.733 15.117 L 1.867 15.117 L 1.867 15.867 Z M 0 14 L -0.75 14 C -0.75 15.445 0.422 16.617 1.867 16.617 L 1.867 15.867 L 1.867 15.117 C 1.25 15.117 0.75 14.617 0.75 14 L 0 14 Z M 1.867 6.533 L 1.867 5.783 C 0.422 5.783 -0.75 6.955 -0.75 8.4 L 0 8.4 L 0.75 8.4 C 0.75 7.783 1.25 7.283 1.867 7.283 L 1.867 6.533 Z M 6.9 2.717 L 6.275 2.301 L 3.109 7.051 L 3.733 7.467 L 4.357 7.883 L 7.524 3.133 L 6.9 2.717 Z M 7.467 0.844 L 6.717 0.844 C 6.717 1.363 6.563 1.87 6.275 2.301 L 6.9 2.717 L 7.524 3.133 C 7.975 2.455 8.217 1.659 8.217 0.844 L 7.467 0.844 Z M 8.311 0 L 8.311 -0.75 C 7.43 -0.75 6.717 -0.036 6.717 0.844 L 7.467 0.844 L 8.217 0.844 C 8.217 0.792 8.259 0.75 8.311 0.75 L 8.311 0 Z" fill="currentColor" fill-rule="nonzero"></path></g></svg>