<svg xmlns="http://www.w3.org/2000/svg" width="24" height="24" viewBox="0 0 24 24" fill="none"><g transform="translate(3.111 2.000) scale(1.19048) translate(0.000 0.000)"><path d="M 14.748 3.787 C 14.778 3.374 14.467 3.015 14.053 2.985 C 13.64 2.956 13.281 3.267 13.252 3.68 L 14 3.733 L 14.748 3.787 Z M 13.191 15.066 L 12.442 15.013 L 12.442 15.013 L 13.191 15.066 Z M 1.743 15.066 L 2.491 15.013 L 2.491 15.013 L 1.743 15.066 Z M 1.681 3.68 C 1.652 3.267 1.293 2.956 0.88 2.985 C 0.467 3.015 0.156 3.374 0.185 3.787 L 0.933 3.733 L 1.681 3.68 Z M 6.35 7.467 C 6.35 7.052 6.014 6.717 5.6 6.717 C 5.186 6.717 4.85 7.052 4.85 7.467 L 5.6 7.467 L 6.35 7.467 Z M 4.85 13.067 C 4.85 13.481 5.186 13.817 5.6 13.817 C 6.014 13.817 6.35 13.481 6.35 13.067 L 5.6 13.067 L 4.85 13.067 Z M 10.083 7.467 C 10.083 7.052 9.748 6.717 9.333 6.717 C 8.919 6.717 8.583 7.052 8.583 7.467 L 9.333 7.467 L 10.083 7.467 Z M 8.583 13.067 C 8.583 13.481 8.919 13.817 9.333 13.817 C 9.748 13.817 10.083 13.481 10.083 13.067 L 9.333 13.067 L 8.583 13.067 Z M 9.517 3.733 C 9.517 4.148 9.852 4.483 10.267 4.483 C 10.681 4.483 11.017 4.148 11.017 3.733 L 10.267 3.733 L 9.517 3.733 Z M 3.917 3.733 C 3.917 4.148 4.252 4.483 4.667 4.483 C 5.081 4.483 5.417 4.148 5.417 3.733 L 4.667 3.733 L 3.917 3.733 Z M 0 2.983 C -0.414 2.983 -0.75 3.319 -0.75 3.733 C -0.75 4.148 -0.414 4.483 0 4.483 L 0 3.733 L 0 2.983 Z M 14.933 4.483 C 15.348 4.483 15.683 4.148 15.683 3.733 C 15.683 3.319 15.348 2.983 14.933 2.983 L 14.933 3.733 L 14.933 4.483 Z M 14 3.733 L 13.252 3.68 L 12.442 15.013 L 13.191 15.066 L 13.939 15.12 L 14.748 3.787 L 14 3.733 Z M 11.329 16.8 L 11.329 16.05 L 3.605 16.05 L 3.605 16.8 L 3.605 17.55 L 11.329 17.55 L 11.329 16.8 Z M 1.743 15.066 L 2.491 15.013 L 1.681 3.68 L 0.933 3.733 L 0.185 3.787 L 0.995 15.12 L 1.743 15.066 Z M 3.605 16.8 L 3.605 16.05 C 3.019 16.05 2.533 15.597 2.491 15.013 L 1.743 15.066 L 0.995 15.12 C 1.093 16.489 2.232 17.55 3.605 17.55 L 3.605 16.8 Z M 13.191 15.066 L 12.442 15.013 C 12.401 15.597 11.914 16.05 11.329 16.05 L 11.329 16.8 L 11.329 17.55 C 12.701 17.55 13.841 16.489 13.939 15.12 L 13.191 15.066 Z M 5.6 7.467 L 4.85 7.467 L 4.85 13.067 L 5.6 13.067 L 6.35 13.067 L 6.35 7.467 L 5.6 7.467 Z M 9.333 7.467 L 8.583 7.467 L 8.583 13.067 L 9.333 13.067 L 10.083 13.067 L 10.083 7.467 L 9.333 7.467 Z M 5.6 0 L 5.6 0.75 L 9.333 0.75 L 9.333 0 L 9.333 -0.75 L 5.6 -0.75 L 5.6 0 Z M 10.267 0.933 L 9.517 0.933 L 9.517 3.733 L 10.267 3.733 L 11.017 3.733 L 11.017 0.933 L 10.267 0.933 Z M 4.667 3.733 L 5.417 3.733 L 5.417 0.933 L 4.667 0.933 L 3.917 0.933 L 3.917 3.733 L 4.667 3.733 Z M 9.333 0 L 9.333 0.75 C 9.435 0.75 9.517 0.832 9.517 0.933 L 10.267 0.933 L 11.017 0.933 C 11.017 0.004 10.263 -0.75 9.333 -0.75 L 9.333 0 Z M 5.6 0 L 5.6 -0.75 C 4.67 -0.75 3.917 0.004 3.917 0.933 L 4.667 0.933 L 5.417 0.933 C 5.417 0.832 5.499 0.75 5.6 0.75 L 5.6 0 Z M 0 3.733 L 0 4.483 L 14.933 4.483 L 14.933 3.733 L 14.933 2.983 L 0 2.983 L 0 3.733 Z" fill="currentColor" fill-rule="nonzero"></path></g></svg>