<svg xmlns="http://www.w3.org/2000/svg" width="24" height="24" viewBox="0 0 24 24" fill="none"><g transform="translate(2.000 6.445) scale(1.19048) translate(0.000 0.000)"><path d="M 9.333 -0.75 C 8.919 -0.75 8.583 -0.414 8.583 0 C 8.583 0.414 8.919 0.75 9.333 0.75 L 9.333 0 L 9.333 -0.75 Z M 16.8 0 L 17.55 0 C 17.55 -0.414 17.214 -0.75 16.8 -0.75 L 16.8 0 Z M 16.05 7.467 C 16.05 7.881 16.386 8.217 16.8 8.217 C 17.214 8.217 17.55 7.881 17.55 7.467 L 16.8 7.467 L 16.05 7.467 Z M -0.53 8.803 C -0.823 9.096 -0.823 9.571 -0.53 9.864 C -0.237 10.157 0.237 10.157 0.53 9.864 L 0 9.333 L -0.53 8.803 Z M 5.6 3.733 L 6.13 3.203 C 5.837 2.91 5.363 2.91 5.07 3.203 L 5.6 3.733 Z M 9.333 7.467 L 8.803 7.997 C 9.096 8.29 9.571 8.29 9.864 7.997 L 9.333 7.467 Z M 9.333 0 L 9.333 0.75 L 16.8 0.75 L 16.8 0 L 16.8 -0.75 L 9.333 -0.75 L 9.333 0 Z M 16.8 0 L 16.05 0 L 16.05 7.467 L 16.8 7.467 L 17.55 7.467 L 17.55 0 L 16.8 0 Z M 0 9.333 L 0.53 9.864 L 6.13 4.264 L 5.6 3.733 L 5.07 3.203 L -0.53 8.803 L 0 9.333 Z M 5.6 3.733 L 5.07 4.264 L 8.803 7.997 L 9.333 7.467 L 9.864 6.936 L 6.13 3.203 L 5.6 3.733 Z M 9.333 7.467 L 9.864 7.997 L 17.33 0.53 L 16.8 0 L 16.27 -0.53 L 8.803 6.936 L 9.333 7.467 Z" fill="currentColor" fill-rule="nonzero"></path></g></svg>