<svg xmlns="http://www.w3.org/2000/svg" width="24" height="24" viewBox="0 0 24 24" fill="none"><g transform="translate(2.000 6.445) scale(1.19048) translate(0.000 0.000)"><path d="M 9.333 8.583 C 8.919 8.583 8.583 8.919 8.583 9.333 C 8.583 9.748 8.919 10.083 9.333 10.083 L 9.333 9.333 L 9.333 8.583 Z M 16.8 9.333 L 16.8 10.083 C 17.214 10.083 17.55 9.748 17.55 9.333 L 16.8 9.333 Z M 17.55 1.867 C 17.55 1.452 17.214 1.117 16.8 1.117 C 16.386 1.117 16.05 1.452 16.05 1.867 L 16.8 1.867 L 17.55 1.867 Z M 0.53 -0.53 C 0.237 -0.823 -0.237 -0.823 -0.53 -0.53 C -0.823 -0.237 -0.823 0.237 -0.53 0.53 L 0 0 L 0.53 -0.53 Z M 5.6 5.6 L 5.07 6.13 C 5.363 6.423 5.837 6.423 6.13 6.13 L 5.6 5.6 Z M 9.333 1.867 L 9.864 1.336 C 9.571 1.043 9.096 1.043 8.803 1.336 L 9.333 1.867 Z M 9.333 9.333 L 9.333 10.083 L 16.8 10.083 L 16.8 9.333 L 16.8 8.583 L 9.333 8.583 L 9.333 9.333 Z M 16.8 9.333 L 17.55 9.333 L 17.55 1.867 L 16.8 1.867 L 16.05 1.867 L 16.05 9.333 L 16.8 9.333 Z M 0 0 L -0.53 0.53 L 5.07 6.13 L 5.6 5.6 L 6.13 5.07 L 0.53 -0.53 L 0 0 Z M 5.6 5.6 L 6.13 6.13 L 9.864 2.397 L 9.333 1.867 L 8.803 1.336 L 5.07 5.07 L 5.6 5.6 Z M 9.333 1.867 L 8.803 2.397 L 16.27 9.864 L 16.8 9.333 L 17.33 8.803 L 9.864 1.336 L 9.333 1.867 Z" fill="currentColor" fill-rule="nonzero"></path></g></svg>