<svg xmlns="http://www.w3.org/2000/svg" width="24" height="24" viewBox="0 0 24 24" fill="none"><g transform="translate(4.222 2.000) scale(1.19048) translate(0.000 0.000)"><path d="M 0 16.8 L -0.75 16.8 C -0.75 17.214 -0.414 17.55 0 17.55 L 0 16.8 Z M 13.067 16.8 L 13.067 17.55 C 13.481 17.55 13.817 17.214 13.817 16.8 L 13.067 16.8 Z M 10.267 3.733 L 9.517 3.733 C 9.517 5.381 8.181 6.717 6.533 6.717 L 6.533 7.467 L 6.533 8.217 C 9.009 8.217 11.017 6.209 11.017 3.733 L 10.267 3.733 Z M 6.533 7.467 L 6.533 6.717 C 4.886 6.717 3.55 5.381 3.55 3.733 L 2.8 3.733 L 2.05 3.733 C 2.05 6.209 4.057 8.217 6.533 8.217 L 6.533 7.467 Z M 2.8 3.733 L 3.55 3.733 C 3.55 2.086 4.886 0.75 6.533 0.75 L 6.533 0 L 6.533 -0.75 C 4.057 -0.75 2.05 1.257 2.05 3.733 L 2.8 3.733 Z M 6.533 0 L 6.533 0.75 C 8.181 0.75 9.517 2.086 9.517 3.733 L 10.267 3.733 L 11.017 3.733 C 11.017 1.257 9.009 -0.75 6.533 -0.75 L 6.533 0 Z M 0 16.8 L 0.75 16.8 C 0.75 13.606 3.339 11.017 6.533 11.017 L 6.533 10.267 L 6.533 9.517 C 2.511 9.517 -0.75 12.778 -0.75 16.8 L 0 16.8 Z M 6.533 10.267 L 6.533 11.017 C 9.727 11.017 12.317 13.606 12.317 16.8 L 13.067 16.8 L 13.817 16.8 C 13.817 12.778 10.556 9.517 6.533 9.517 L 6.533 10.267 Z M 0 16.8 L 0 17.55 L 13.067 17.55 L 13.067 16.8 L 13.067 16.05 L 0 16.05 L 0 16.8 Z" fill="currentColor" fill-rule="nonzero"></path></g></svg>