<svg xmlns="http://www.w3.org/2000/svg" width="24" height="24" viewBox="0 0 24 24" fill="none"><g transform="translate(2.000 2.000) scale(1.19048) translate(0.000 0.000)"><path d="M 1.611 13.164 C 1.25 13.368 1.123 13.825 1.327 14.186 C 1.531 14.546 1.988 14.674 2.349 14.47 L 1.98 13.817 L 1.611 13.164 Z M 14.451 14.47 C 14.812 14.674 15.269 14.546 15.473 14.186 C 15.677 13.825 15.55 13.368 15.189 13.164 L 14.82 13.817 L 14.451 14.47 Z M 11.2 6.533 L 10.45 6.533 C 10.45 7.666 9.532 8.583 8.4 8.583 L 8.4 9.333 L 8.4 10.083 C 10.361 10.083 11.95 8.494 11.95 6.533 L 11.2 6.533 Z M 8.4 9.333 L 8.4 8.583 C 7.268 8.583 6.35 7.666 6.35 6.533 L 5.6 6.533 L 4.85 6.533 C 4.85 8.494 6.439 10.083 8.4 10.083 L 8.4 9.333 Z M 5.6 6.533 L 6.35 6.533 C 6.35 5.401 7.268 4.483 8.4 4.483 L 8.4 3.733 L 8.4 2.983 C 6.439 2.983 4.85 4.573 4.85 6.533 L 5.6 6.533 Z M 8.4 3.733 L 8.4 4.483 C 9.532 4.483 10.45 5.401 10.45 6.533 L 11.2 6.533 L 11.95 6.533 C 11.95 4.573 10.361 2.983 8.4 2.983 L 8.4 3.733 Z M 8.4 12.133 L 8.4 11.383 C 5.934 11.383 3.616 12.03 1.611 13.164 L 1.98 13.817 L 2.349 14.47 C 4.135 13.46 6.199 12.883 8.4 12.883 L 8.4 12.133 Z M 14.82 13.817 L 15.189 13.164 C 13.184 12.03 10.866 11.383 8.4 11.383 L 8.4 12.133 L 8.4 12.883 C 10.601 12.883 12.665 13.46 14.451 14.47 L 14.82 13.817 Z M 16.8 8.4 L 16.05 8.4 C 16.05 12.625 12.625 16.05 8.4 16.05 L 8.4 16.8 L 8.4 17.55 C 13.453 17.55 17.55 13.453 17.55 8.4 L 16.8 8.4 Z M 8.4 16.8 L 8.4 16.05 C 4.175 16.05 0.75 12.625 0.75 8.4 L 0 8.4 L -0.75 8.4 C -0.75 13.453 3.347 17.55 8.4 17.55 L 8.4 16.8 Z M 0 8.4 L 0.75 8.4 C 0.75 4.175 4.175 0.75 8.4 0.75 L 8.4 0 L 8.4 -0.75 C 3.347 -0.75 -0.75 3.347 -0.75 8.4 L 0 8.4 Z M 8.4 0 L 8.4 0.75 C 12.625 0.75 16.05 4.175 16.05 8.4 L 16.8 8.4 L 17.55 8.4 C 17.55 3.347 13.453 -0.75 8.4 -0.75 L 8.4 0 Z" fill="currentColor" fill-rule="nonzero"></path></g></svg>