<svg xmlns="http://www.w3.org/2000/svg" width="24" height="24" viewBox="0 0 24 24" fill="none"><g transform="translate(2.000 2.000) scale(1.19048) translate(0.000 0.000)"><path d="M 0 16.8 L -0.75 16.8 C -0.75 17.214 -0.414 17.55 0 17.55 L 0 16.8 Z M 11.2 16.8 L 11.2 17.55 C 11.614 17.55 11.95 17.214 11.95 16.8 L 11.2 16.8 Z M 14.75 5.6 C 14.75 5.186 14.414 4.85 14 4.85 C 13.586 4.85 13.25 5.186 13.25 5.6 L 14 5.6 L 14.75 5.6 Z M 13.25 11.2 C 13.25 11.614 13.586 11.95 14 11.95 C 14.414 11.95 14.75 11.614 14.75 11.2 L 14 11.2 L 13.25 11.2 Z M 16.8 9.15 C 17.214 9.15 17.55 8.814 17.55 8.4 C 17.55 7.986 17.214 7.65 16.8 7.65 L 16.8 8.4 L 16.8 9.15 Z M 11.2 7.65 C 10.786 7.65 10.45 7.986 10.45 8.4 C 10.45 8.814 10.786 9.15 11.2 9.15 L 11.2 8.4 L 11.2 7.65 Z M 9.333 3.733 L 8.583 3.733 C 8.583 5.381 7.248 6.717 5.6 6.717 L 5.6 7.467 L 5.6 8.217 C 8.076 8.217 10.083 6.209 10.083 3.733 L 9.333 3.733 Z M 5.6 7.467 L 5.6 6.717 C 3.952 6.717 2.617 5.381 2.617 3.733 L 1.867 3.733 L 1.117 3.733 C 1.117 6.209 3.124 8.217 5.6 8.217 L 5.6 7.467 Z M 1.867 3.733 L 2.617 3.733 C 2.617 2.086 3.952 0.75 5.6 0.75 L 5.6 0 L 5.6 -0.75 C 3.124 -0.75 1.117 1.257 1.117 3.733 L 1.867 3.733 Z M 5.6 0 L 5.6 0.75 C 7.248 0.75 8.583 2.086 8.583 3.733 L 9.333 3.733 L 10.083 3.733 C 10.083 1.257 8.076 -0.75 5.6 -0.75 L 5.6 0 Z M 0 15.867 L 0.75 15.867 C 0.75 13.188 2.921 11.017 5.6 11.017 L 5.6 10.267 L 5.6 9.517 C 2.093 9.517 -0.75 12.36 -0.75 15.867 L 0 15.867 Z M 5.6 10.267 L 5.6 11.017 C 8.279 11.017 10.45 13.188 10.45 15.867 L 11.2 15.867 L 11.95 15.867 C 11.95 12.36 9.107 9.517 5.6 9.517 L 5.6 10.267 Z M 0 15.867 L -0.75 15.867 L -0.75 16.8 L 0 16.8 L 0.75 16.8 L 0.75 15.867 L 0 15.867 Z M 0 16.8 L 0 17.55 L 11.2 17.55 L 11.2 16.8 L 11.2 16.05 L 0 16.05 L 0 16.8 Z M 11.2 16.8 L 11.95 16.8 L 11.95 15.867 L 11.2 15.867 L 10.45 15.867 L 10.45 16.8 L 11.2 16.8 Z M 14 5.6 L 13.25 5.6 L 13.25 8.4 L 14 8.4 L 14.75 8.4 L 14.75 5.6 L 14 5.6 Z M 14 8.4 L 13.25 8.4 L 13.25 11.2 L 14 11.2 L 14.75 11.2 L 14.75 8.4 L 14 8.4 Z M 16.8 8.4 L 16.8 7.65 L 14 7.65 L 14 8.4 L 14 9.15 L 16.8 9.15 L 16.8 8.4 Z M 14 8.4 L 14 7.65 L 11.2 7.65 L 11.2 8.4 L 11.2 9.15 L 14 9.15 L 14 8.4 Z" fill="currentColor" fill-rule="nonzero"></path></g></svg>