<svg xmlns="http://www.w3.org/2000/svg" width="24" height="24" viewBox="0 0 24 24" fill="none"><g transform="translate(2.000 4.000) scale(1.19048) translate(0.000 0.000)"><path d="M 16.8 13.44 L 16.8 14.19 C 17.214 14.19 17.55 13.854 17.55 13.44 L 16.8 13.44 Z M 0 13.44 L -0.75 13.44 C -0.75 13.854 -0.414 14.19 0 14.19 L 0 13.44 Z M 12.301 10.2 L 11.604 10.479 L 12.301 10.2 Z M 10.92 2.52 L 10.17 2.52 C 10.17 3.498 9.378 4.29 8.4 4.29 L 8.4 5.04 L 8.4 5.79 C 10.206 5.79 11.67 4.326 11.67 2.52 L 10.92 2.52 Z M 8.4 5.04 L 8.4 4.29 C 7.422 4.29 6.63 3.498 6.63 2.52 L 5.88 2.52 L 5.13 2.52 C 5.13 4.326 6.594 5.79 8.4 5.79 L 8.4 5.04 Z M 5.88 2.52 L 6.63 2.52 C 6.63 1.542 7.422 0.75 8.4 0.75 L 8.4 0 L 8.4 -0.75 C 6.594 -0.75 5.13 0.714 5.13 2.52 L 5.88 2.52 Z M 8.4 0 L 8.4 0.75 C 9.378 0.75 10.17 1.542 10.17 2.52 L 10.92 2.52 L 11.67 2.52 C 11.67 0.714 10.206 -0.75 8.4 -0.75 L 8.4 0 Z M 15.96 5.04 L 15.21 5.04 C 15.21 5.554 14.794 5.97 14.28 5.97 L 14.28 6.72 L 14.28 7.47 C 15.622 7.47 16.71 6.382 16.71 5.04 L 15.96 5.04 Z M 14.28 6.72 L 14.28 5.97 C 13.766 5.97 13.35 5.554 13.35 5.04 L 12.6 5.04 L 11.85 5.04 C 11.85 6.382 12.938 7.47 14.28 7.47 L 14.28 6.72 Z M 12.6 5.04 L 13.35 5.04 C 13.35 4.526 13.766 4.11 14.28 4.11 L 14.28 3.36 L 14.28 2.61 C 12.938 2.61 11.85 3.698 11.85 5.04 L 12.6 5.04 Z M 14.28 3.36 L 14.28 4.11 C 14.794 4.11 15.21 4.526 15.21 5.04 L 15.96 5.04 L 16.71 5.04 C 16.71 3.698 15.622 2.61 14.28 2.61 L 14.28 3.36 Z M 4.2 5.04 L 3.45 5.04 C 3.45 5.554 3.034 5.97 2.52 5.97 L 2.52 6.72 L 2.52 7.47 C 3.862 7.47 4.95 6.382 4.95 5.04 L 4.2 5.04 Z M 2.52 6.72 L 2.52 5.97 C 2.006 5.97 1.59 5.554 1.59 5.04 L 0.84 5.04 L 0.09 5.04 C 0.09 6.382 1.178 7.47 2.52 7.47 L 2.52 6.72 Z M 0.84 5.04 L 1.59 5.04 C 1.59 4.526 2.006 4.11 2.52 4.11 L 2.52 3.36 L 2.52 2.61 C 1.178 2.61 0.09 3.698 0.09 5.04 L 0.84 5.04 Z M 2.52 3.36 L 2.52 4.11 C 3.034 4.11 3.45 4.526 3.45 5.04 L 4.2 5.04 L 4.95 5.04 C 4.95 3.698 3.862 2.61 2.52 2.61 L 2.52 3.36 Z M 14.28 9.24 L 14.28 9.99 C 15.258 9.99 16.05 10.782 16.05 11.76 L 16.8 11.76 L 17.55 11.76 C 17.55 9.954 16.086 8.49 14.28 8.49 L 14.28 9.24 Z M 16.8 11.76 L 16.05 11.76 L 16.05 13.44 L 16.8 13.44 L 17.55 13.44 L 17.55 11.76 L 16.8 11.76 Z M 16.8 13.44 L 16.8 12.69 L 12.6 12.69 L 12.6 13.44 L 12.6 14.19 L 16.8 14.19 L 16.8 13.44 Z M 0 11.76 L 0.75 11.76 C 0.75 10.782 1.542 9.99 2.52 9.99 L 2.52 9.24 L 2.52 8.49 C 0.714 8.49 -0.75 9.954 -0.75 11.76 L 0 11.76 Z M 4.2 13.44 L 4.2 12.69 L 0 12.69 L 0 13.44 L 0 14.19 L 4.2 14.19 L 4.2 13.44 Z M 0 13.44 L 0.75 13.44 L 0.75 11.76 L 0 11.76 L -0.75 11.76 L -0.75 13.44 L 0 13.44 Z M 4.2 11.76 L 3.45 11.76 L 3.45 13.44 L 4.2 13.44 L 4.95 13.44 L 4.95 11.76 L 4.2 11.76 Z M 4.2 13.44 L 4.2 14.19 L 12.6 14.19 L 12.6 13.44 L 12.6 12.69 L 4.2 12.69 L 4.2 13.44 Z M 12.6 13.44 L 13.35 13.44 L 13.35 11.76 L 12.6 11.76 L 11.85 11.76 L 11.85 13.44 L 12.6 13.44 Z M 4.2 11.76 L 4.95 11.76 C 4.95 11.306 5.037 10.874 5.196 10.479 L 4.499 10.2 L 3.803 9.921 C 3.575 10.491 3.45 11.112 3.45 11.76 L 4.2 11.76 Z M 4.499 10.2 L 5.196 10.479 C 5.705 9.206 6.949 8.31 8.4 8.31 L 8.4 7.56 L 8.4 6.81 C 6.315 6.81 4.532 8.099 3.803 9.921 L 4.499 10.2 Z M 2.52 9.24 L 2.52 9.99 C 3.083 9.99 3.585 10.252 3.911 10.665 L 4.499 10.2 L 5.088 9.735 C 4.49 8.978 3.562 8.49 2.52 8.49 L 2.52 9.24 Z M 8.4 7.56 L 8.4 8.31 C 9.851 8.31 11.095 9.206 11.604 10.479 L 12.301 10.2 L 12.997 9.921 C 12.268 8.099 10.485 6.81 8.4 6.81 L 8.4 7.56 Z M 12.301 10.2 L 11.604 10.479 C 11.763 10.874 11.85 11.306 11.85 11.76 L 12.6 11.76 L 13.35 11.76 C 13.35 11.112 13.225 10.491 12.997 9.921 L 12.301 10.2 Z M 12.301 10.2 L 12.889 10.665 C 13.215 10.252 13.717 9.99 14.28 9.99 L 14.28 9.24 L 14.28 8.49 C 13.238 8.49 12.31 8.978 11.712 9.735 L 12.301 10.2 Z" fill="currentColor" fill-rule="nonzero"></path></g></svg>