<svg xmlns="http://www.w3.org/2000/svg" width="24" height="24" viewBox="0 0 24 24" fill="none"><g transform="translate(2.000 5.333) scale(1.19048) translate(0.000 0.000)"><path d="M 10.865 3.063 C 10.494 3.248 10.344 3.698 10.529 4.069 C 10.714 4.439 11.165 4.589 11.535 4.404 L 11.2 3.733 L 10.865 3.063 Z M 15.449 1.609 L 15.114 0.938 L 15.449 1.609 Z M 15.449 9.591 L 15.785 8.92 L 15.785 8.92 L 15.449 9.591 Z M 11.535 6.796 C 11.165 6.611 10.714 6.761 10.529 7.131 C 10.344 7.502 10.494 7.952 10.865 8.137 L 11.2 7.467 L 11.535 6.796 Z M 1.867 0 L 1.867 0.75 L 9.333 0.75 L 9.333 0 L 9.333 -0.75 L 1.867 -0.75 L 1.867 0 Z M 11.2 1.867 L 10.45 1.867 L 10.45 9.333 L 11.2 9.333 L 11.95 9.333 L 11.95 1.867 L 11.2 1.867 Z M 9.333 11.2 L 9.333 10.45 L 1.867 10.45 L 1.867 11.2 L 1.867 11.95 L 9.333 11.95 L 9.333 11.2 Z M 0 9.333 L 0.75 9.333 L 0.75 1.867 L 0 1.867 L -0.75 1.867 L -0.75 9.333 L 0 9.333 Z M 1.867 11.2 L 1.867 10.45 C 1.25 10.45 0.75 9.95 0.75 9.333 L 0 9.333 L -0.75 9.333 C -0.75 10.778 0.422 11.95 1.867 11.95 L 1.867 11.2 Z M 11.2 9.333 L 10.45 9.333 C 10.45 9.95 9.95 10.45 9.333 10.45 L 9.333 11.2 L 9.333 11.95 C 10.778 11.95 11.95 10.778 11.95 9.333 L 11.2 9.333 Z M 9.333 0 L 9.333 0.75 C 9.95 0.75 10.45 1.25 10.45 1.867 L 11.2 1.867 L 11.95 1.867 C 11.95 0.422 10.778 -0.75 9.333 -0.75 L 9.333 0 Z M 1.867 0 L 1.867 -0.75 C 0.422 -0.75 -0.75 0.422 -0.75 1.867 L 0 1.867 L 0.75 1.867 C 0.75 1.25 1.25 0.75 1.867 0.75 L 1.867 0 Z M 11.2 3.733 L 11.535 4.404 L 15.785 2.28 L 15.449 1.609 L 15.114 0.938 L 10.865 3.063 L 11.2 3.733 Z M 16.8 2.443 L 16.05 2.443 L 16.05 8.756 L 16.8 8.756 L 17.55 8.756 L 17.55 2.443 L 16.8 2.443 Z M 15.449 9.591 L 15.785 8.92 L 11.535 6.796 L 11.2 7.467 L 10.865 8.137 L 15.114 10.262 L 15.449 9.591 Z M 16.8 8.756 L 16.05 8.756 C 16.05 8.893 15.907 8.981 15.785 8.92 L 15.449 9.591 L 15.114 10.262 C 16.233 10.822 17.55 10.008 17.55 8.756 L 16.8 8.756 Z M 15.449 1.609 L 15.785 2.28 C 15.907 2.219 16.05 2.307 16.05 2.443 L 16.8 2.443 L 17.55 2.443 C 17.55 1.192 16.233 0.378 15.114 0.938 L 15.449 1.609 Z" fill="currentColor" fill-rule="nonzero"></path></g></svg>