<svg xmlns="http://www.w3.org/2000/svg" width="24" height="24" viewBox="0 0 24 24" fill="none"><g transform="translate(2.000 2.000) scale(1.19048) translate(0.000 0.000)"><path d="M 2.1 0 L 2.1 0.75 L 4.2 0.75 L 4.2 0 L 4.2 -0.75 L 2.1 -0.75 L 2.1 0 Z M 6.3 2.1 L 5.55 2.1 L 5.55 4.2 L 6.3 4.2 L 7.05 4.2 L 7.05 2.1 L 6.3 2.1 Z M 4.2 6.3 L 4.2 5.55 L 2.1 5.55 L 2.1 6.3 L 2.1 7.05 L 4.2 7.05 L 4.2 6.3 Z M 0 4.2 L 0.75 4.2 L 0.75 2.1 L 0 2.1 L -0.75 2.1 L -0.75 4.2 L 0 4.2 Z M 2.1 6.3 L 2.1 5.55 C 1.354 5.55 0.75 4.946 0.75 4.2 L 0 4.2 L -0.75 4.2 C -0.75 5.774 0.526 7.05 2.1 7.05 L 2.1 6.3 Z M 6.3 4.2 L 5.55 4.2 C 5.55 4.946 4.946 5.55 4.2 5.55 L 4.2 6.3 L 4.2 7.05 C 5.774 7.05 7.05 5.774 7.05 4.2 L 6.3 4.2 Z M 4.2 0 L 4.2 0.75 C 4.946 0.75 5.55 1.354 5.55 2.1 L 6.3 2.1 L 7.05 2.1 C 7.05 0.526 5.774 -0.75 4.2 -0.75 L 4.2 0 Z M 2.1 0 L 2.1 -0.75 C 0.526 -0.75 -0.75 0.526 -0.75 2.1 L 0 2.1 L 0.75 2.1 C 0.75 1.354 1.354 0.75 2.1 0.75 L 2.1 0 Z M 12.6 0 L 12.6 0.75 L 14.7 0.75 L 14.7 0 L 14.7 -0.75 L 12.6 -0.75 L 12.6 0 Z M 16.8 2.1 L 16.05 2.1 L 16.05 4.2 L 16.8 4.2 L 17.55 4.2 L 17.55 2.1 L 16.8 2.1 Z M 14.7 6.3 L 14.7 5.55 L 12.6 5.55 L 12.6 6.3 L 12.6 7.05 L 14.7 7.05 L 14.7 6.3 Z M 10.5 4.2 L 11.25 4.2 L 11.25 2.1 L 10.5 2.1 L 9.75 2.1 L 9.75 4.2 L 10.5 4.2 Z M 12.6 6.3 L 12.6 5.55 C 11.854 5.55 11.25 4.946 11.25 4.2 L 10.5 4.2 L 9.75 4.2 C 9.75 5.774 11.026 7.05 12.6 7.05 L 12.6 6.3 Z M 16.8 4.2 L 16.05 4.2 C 16.05 4.946 15.446 5.55 14.7 5.55 L 14.7 6.3 L 14.7 7.05 C 16.274 7.05 17.55 5.774 17.55 4.2 L 16.8 4.2 Z M 14.7 0 L 14.7 0.75 C 15.446 0.75 16.05 1.354 16.05 2.1 L 16.8 2.1 L 17.55 2.1 C 17.55 0.526 16.274 -0.75 14.7 -0.75 L 14.7 0 Z M 12.6 0 L 12.6 -0.75 C 11.026 -0.75 9.75 0.526 9.75 2.1 L 10.5 2.1 L 11.25 2.1 C 11.25 1.354 11.854 0.75 12.6 0.75 L 12.6 0 Z M 2.1 10.5 L 2.1 11.25 L 4.2 11.25 L 4.2 10.5 L 4.2 9.75 L 2.1 9.75 L 2.1 10.5 Z M 6.3 12.6 L 5.55 12.6 L 5.55 14.7 L 6.3 14.7 L 7.05 14.7 L 7.05 12.6 L 6.3 12.6 Z M 4.2 16.8 L 4.2 16.05 L 2.1 16.05 L 2.1 16.8 L 2.1 17.55 L 4.2 17.55 L 4.2 16.8 Z M 0 14.7 L 0.75 14.7 L 0.75 12.6 L 0 12.6 L -0.75 12.6 L -0.75 14.7 L 0 14.7 Z M 2.1 16.8 L 2.1 16.05 C 1.354 16.05 0.75 15.446 0.75 14.7 L 0 14.7 L -0.75 14.7 C -0.75 16.274 0.526 17.55 2.1 17.55 L 2.1 16.8 Z M 6.3 14.7 L 5.55 14.7 C 5.55 15.446 4.946 16.05 4.2 16.05 L 4.2 16.8 L 4.2 17.55 C 5.774 17.55 7.05 16.274 7.05 14.7 L 6.3 14.7 Z M 4.2 10.5 L 4.2 11.25 C 4.946 11.25 5.55 11.854 5.55 12.6 L 6.3 12.6 L 7.05 12.6 C 7.05 11.026 5.774 9.75 4.2 9.75 L 4.2 10.5 Z M 2.1 10.5 L 2.1 9.75 C 0.526 9.75 -0.75 11.026 -0.75 12.6 L 0 12.6 L 0.75 12.6 C 0.75 11.854 1.354 11.25 2.1 11.25 L 2.1 10.5 Z M 12.6 10.5 L 12.6 11.25 L 14.7 11.25 L 14.7 10.5 L 14.7 9.75 L 12.6 9.75 L 12.6 10.5 Z M 16.8 12.6 L 16.05 12.6 L 16.05 14.7 L 16.8 14.7 L 17.55 14.7 L 17.55 12.6 L 16.8 12.6 Z M 14.7 16.8 L 14.7 16.05 L 12.6 16.05 L 12.6 16.8 L 12.6 17.55 L 14.7 17.55 L 14.7 16.8 Z M 10.5 14.7 L 11.25 14.7 L 11.25 12.6 L 10.5 12.6 L 9.75 12.6 L 9.75 14.7 L 10.5 14.7 Z M 12.6 16.8 L 12.6 16.05 C 11.854 16.05 11.25 15.446 11.25 14.7 L 10.5 14.7 L 9.75 14.7 C 9.75 16.274 11.026 17.55 12.6 17.55 L 12.6 16.8 Z M 16.8 14.7 L 16.05 14.7 C 16.05 15.446 15.446 16.05 14.7 16.05 L 14.7 16.8 L 14.7 17.55 C 16.274 17.55 17.55 16.274 17.55 14.7 L 16.8 14.7 Z M 14.7 10.5 L 14.7 11.25 C 15.446 11.25 16.05 11.854 16.05 12.6 L 16.8 12.6 L 17.55 12.6 C 17.55 11.026 16.274 9.75 14.7 9.75 L 14.7 10.5 Z M 12.6 10.5 L 12.6 9.75 C 11.026 9.75 9.75 11.026 9.75 12.6 L 10.5 12.6 L 11.25 12.6 C 11.25 11.854 11.854 11.25 12.6 11.25 L 12.6 10.5 Z" fill="currentColor" fill-rule="nonzero"></path></g></svg>