<svg xmlns="http://www.w3.org/2000/svg" width="24" height="24" viewBox="0 0 24 24" fill="none"><g transform="translate(2.000 4.500) scale(1.19048) translate(0.000 0.000)"><path d="M 0 -0.75 C -0.414 -0.75 -0.75 -0.414 -0.75 0 C -0.75 0.414 -0.414 0.75 0 0.75 L 0 0 L 0 -0.75 Z M 16.8 0.75 C 17.214 0.75 17.55 0.414 17.55 0 C 17.55 -0.414 17.214 -0.75 16.8 -0.75 L 16.8 0 L 16.8 0.75 Z M 0 3.45 C -0.414 3.45 -0.75 3.786 -0.75 4.2 C -0.75 4.614 -0.414 4.95 0 4.95 L 0 4.2 L 0 3.45 Z M 16.8 4.95 C 17.214 4.95 17.55 4.614 17.55 4.2 C 17.55 3.786 17.214 3.45 16.8 3.45 L 16.8 4.2 L 16.8 4.95 Z M 0 7.65 C -0.414 7.65 -0.75 7.986 -0.75 8.4 C -0.75 8.814 -0.414 9.15 0 9.15 L 0 8.4 L 0 7.65 Z M 16.8 9.15 C 17.214 9.15 17.55 8.814 17.55 8.4 C 17.55 7.986 17.214 7.65 16.8 7.65 L 16.8 8.4 L 16.8 9.15 Z M 0 11.85 C -0.414 11.85 -0.75 12.186 -0.75 12.6 C -0.75 13.014 -0.414 13.35 0 13.35 L 0 12.6 L 0 11.85 Z M 16.8 13.35 C 17.214 13.35 17.55 13.014 17.55 12.6 C 17.55 12.186 17.214 11.85 16.8 11.85 L 16.8 12.6 L 16.8 13.35 Z M 0 0 L 0 0.75 L 16.8 0.75 L 16.8 0 L 16.8 -0.75 L 0 -0.75 L 0 0 Z M 0 4.2 L 0 4.95 L 16.8 4.95 L 16.8 4.2 L 16.8 3.45 L 0 3.45 L 0 4.2 Z M 0 8.4 L 0 9.15 L 16.8 9.15 L 16.8 8.4 L 16.8 7.65 L 0 7.65 L 0 8.4 Z M 0 12.6 L 0 13.35 L 16.8 13.35 L 16.8 12.6 L 16.8 11.85 L 0 11.85 L 0 12.6 Z" fill="currentColor" fill-rule="nonzero"></path></g></svg>