<svg xmlns="http://www.w3.org/2000/svg" width="24" height="24" viewBox="0 0 24 24" fill="none"><g transform="translate(2.000 2.000) scale(1.19048) translate(0.000 0.000)"><path d="M 6.003 9.736 C 5.71 10.029 5.71 10.504 6.003 10.797 C 6.296 11.09 6.771 11.09 7.064 10.797 L 6.533 10.267 L 6.003 9.736 Z M 10.797 7.064 C 11.09 6.771 11.09 6.296 10.797 6.003 C 10.504 5.71 10.029 5.71 9.736 6.003 L 10.267 6.533 L 10.797 7.064 Z M 7.064 6.003 C 6.771 5.71 6.296 5.71 6.003 6.003 C 5.71 6.296 5.71 6.771 6.003 7.064 L 6.533 6.533 L 7.064 6.003 Z M 9.736 10.797 C 10.029 11.09 10.504 11.09 10.797 10.797 C 11.09 10.504 11.09 10.029 10.797 9.736 L 10.267 10.267 L 9.736 10.797 Z M 16.8 8.4 L 16.05 8.4 C 16.05 12.625 12.625 16.05 8.4 16.05 L 8.4 16.8 L 8.4 17.55 C 13.453 17.55 17.55 13.453 17.55 8.4 L 16.8 8.4 Z M 8.4 16.8 L 8.4 16.05 C 4.175 16.05 0.75 12.625 0.75 8.4 L 0 8.4 L -0.75 8.4 C -0.75 13.453 3.347 17.55 8.4 17.55 L 8.4 16.8 Z M 0 8.4 L 0.75 8.4 C 0.75 4.175 4.175 0.75 8.4 0.75 L 8.4 0 L 8.4 -0.75 C 3.347 -0.75 -0.75 3.347 -0.75 8.4 L 0 8.4 Z M 8.4 0 L 8.4 0.75 C 12.625 0.75 16.05 4.175 16.05 8.4 L 16.8 8.4 L 17.55 8.4 C 17.55 3.347 13.453 -0.75 8.4 -0.75 L 8.4 0 Z M 6.533 10.267 L 7.064 10.797 L 8.93 8.93 L 8.4 8.4 L 7.87 7.87 L 6.003 9.736 L 6.533 10.267 Z M 8.4 8.4 L 8.93 8.93 L 10.797 7.064 L 10.267 6.533 L 9.736 6.003 L 7.87 7.87 L 8.4 8.4 Z M 6.533 6.533 L 6.003 7.064 L 7.87 8.93 L 8.4 8.4 L 8.93 7.87 L 7.064 6.003 L 6.533 6.533 Z M 8.4 8.4 L 7.87 8.93 L 9.736 10.797 L 10.267 10.267 L 10.797 9.736 L 8.93 7.87 L 8.4 8.4 Z" fill="currentColor" fill-rule="nonzero"></path></g></svg>