<svg xmlns="http://www.w3.org/2000/svg" width="24" height="24" viewBox="0 0 24 24" fill="none"><g transform="translate(2.000 2.000) scale(1.66667) translate(0.000 0.000)"><path d="M -0.53 11.47 C -0.823 11.763 -0.823 12.237 -0.53 12.53 C -0.237 12.823 0.237 12.823 0.53 12.53 L 0 12 L -0.53 11.47 Z M 12.53 0.53 C 12.823 0.237 12.823 -0.237 12.53 -0.53 C 12.237 -0.823 11.763 -0.823 11.47 -0.53 L 12 0 L 12.53 0.53 Z M 0.53 -0.53 C 0.237 -0.823 -0.237 -0.823 -0.53 -0.53 C -0.823 -0.237 -0.823 0.237 -0.53 0.53 L 0 0 L 0.53 -0.53 Z M 11.47 12.53 C 11.763 12.823 12.237 12.823 12.53 12.53 C 12.823 12.237 12.823 11.763 12.53 11.47 L 12 12 L 11.47 12.53 Z M 0 12 L 0.53 12.53 L 12.53 0.53 L 12 0 L 11.47 -0.53 L -0.53 11.47 L 0 12 Z M 0 0 L -0.53 0.53 L 11.47 12.53 L 12 12 L 12.53 11.47 L 0.53 -0.53 L 0 0 Z" fill="currentColor" fill-rule="nonzero"></path></g></svg>