<svg xmlns="http://www.w3.org/2000/svg" width="107.843" height="107.843" viewBox="0 0 107.843 107.843" fill="none">
  <path d="M 16.285 32.571 C 25.279 32.571 32.571 25.279 32.571 16.285 C 32.571 7.291 25.279 0 16.285 0 C 7.291 0 0 7.291 0 16.285 C 0 25.279 7.291 32.571 16.285 32.571 Z M 16.285 70.206 C 25.279 70.206 32.571 62.915 32.571 53.921 C 32.571 44.927 25.279 37.636 16.285 37.636 C 7.291 37.636 0 44.927 0 53.921 C 0 62.915 7.291 70.206 16.285 70.206 Z M 70.206 53.921 C 70.206 62.915 62.915 70.206 53.921 70.206 C 44.927 70.206 37.636 62.915 37.636 53.921 C 37.636 44.927 44.927 37.636 53.921 37.636 C 62.915 37.636 70.206 44.927 70.206 53.921 Z M 53.921 107.843 C 62.915 107.843 70.206 100.552 70.206 91.558 C 70.206 82.564 62.915 75.272 53.921 75.272 C 44.927 75.272 37.636 82.564 37.636 91.558 C 37.636 100.552 44.927 107.843 53.921 107.843 Z M 107.843 91.558 C 107.843 100.552 100.552 107.843 91.558 107.843 C 82.563 107.843 75.272 100.552 75.272 91.558 C 75.272 82.564 82.563 75.272 91.558 75.272 C 100.552 75.272 107.843 82.564 107.843 91.558 Z" fill="currentColor" fill-rule="evenodd"></path>
</svg>