<svg xmlns="http://www.w3.org/2000/svg" width="108.527" height="108.805" viewBox="0 0 108.527 108.805" fill="none">
  <path d="M 92.241 32.571 C 101.236 32.571 108.527 25.279 108.527 16.285 C 108.527 7.291 101.236 0 92.241 0 C 83.247 0 75.956 7.291 75.956 16.285 C 75.956 25.279 83.247 32.571 92.241 32.571 Z M 16.285 108.805 C 25.279 108.805 32.571 101.514 32.571 92.52 C 32.571 83.526 25.279 76.234 16.285 76.234 C 7.291 76.234 0 83.526 0 92.52 C 0 101.514 7.291 108.805 16.285 108.805 Z M 108.527 54.402 C 108.527 63.396 101.236 70.687 92.241 70.687 C 83.247 70.687 75.956 63.396 75.956 54.402 C 75.956 45.408 83.247 38.117 92.241 38.117 C 101.236 38.117 108.527 45.408 108.527 54.402 Z M 54.605 108.805 C 63.599 108.805 70.89 101.514 70.89 92.52 C 70.89 83.526 63.599 76.234 54.605 76.234 C 45.611 76.234 38.319 83.526 38.319 92.52 C 38.319 101.514 45.611 108.805 54.605 108.805 Z M 108.527 92.52 C 108.527 101.514 101.236 108.805 92.241 108.805 C 83.247 108.805 75.956 101.514 75.956 92.52 C 75.956 83.526 83.247 76.234 92.241 76.234 C 101.236 76.234 108.527 83.526 108.527 92.52 Z" fill="currentColor" fill-rule="evenodd"></path>
</svg>