<svg xmlns="http://www.w3.org/2000/svg" width="108.527" height="108.805" viewBox="0 0 108.527 108.805" fill="none">
  <path d="M 108.527 16.285 C 108.527 25.279 101.236 32.571 92.241 32.571 C 83.247 32.571 75.956 25.279 75.956 16.285 C 75.956 7.291 83.247 0 92.241 0 C 101.236 0 108.527 7.291 108.527 16.285 Z M 32.571 92.52 C 32.571 101.514 25.279 108.805 16.285 108.805 C 7.291 108.805 0 101.514 0 92.52 C 0 83.526 7.291 76.234 16.285 76.234 C 25.279 76.234 32.571 83.526 32.571 92.52 Z M 55.01 32.571 C 64.004 32.571 71.296 25.279 71.296 16.285 C 71.296 7.291 64.004 0 55.01 0 C 46.016 0 38.725 7.291 38.725 16.285 C 38.725 25.279 46.016 32.571 55.01 32.571 Z M 108.527 54.402 C 108.527 63.396 101.236 70.687 92.241 70.687 C 83.247 70.687 75.956 63.396 75.956 54.402 C 75.956 45.408 83.247 38.117 92.241 38.117 C 101.236 38.117 108.527 45.408 108.527 54.402 Z M 54.605 108.805 C 63.599 108.805 70.89 101.514 70.89 92.52 C 70.89 83.526 63.599 76.234 54.605 76.234 C 45.611 76.234 38.319 83.526 38.319 92.52 C 38.319 101.514 45.611 108.805 54.605 108.805 Z M 32.571 54.884 C 32.571 63.878 25.279 71.169 16.285 71.169 C 7.291 71.169 0 63.878 0 54.884 C 0 45.89 7.291 38.599 16.285 38.599 C 25.279 38.599 32.571 45.89 32.571 54.884 Z" fill="currentColor" fill-rule="evenodd"></path>
</svg>