<svg xmlns="http://www.w3.org/2000/svg" width="639.281" height="629.000" viewBox="0 0 639.281 629.000" fill="none">
  <path d="M 5.162 2.581 C 5.162 4.007 4.007 5.162 2.581 5.162 C 1.156 5.162 0 4.007 0 2.581 C 0 1.156 1.156 0 2.581 0 C 4.007 0 5.162 1.156 5.162 2.581 Z M 62.821 2.581 C 62.821 4.007 61.665 5.162 60.24 5.162 C 58.814 5.162 57.658 4.007 57.658 2.581 C 57.658 1.156 58.814 0 60.24 0 C 61.665 0 62.821 1.156 62.821 2.581 Z M 117.908 5.162 C 119.334 5.162 120.489 4.007 120.489 2.581 C 120.489 1.156 119.334 0 117.908 0 C 116.483 0 115.327 1.156 115.327 2.581 C 115.327 4.007 116.483 5.162 117.908 5.162 Z M 178.148 2.962 C 178.148 4.177 176.992 5.162 175.566 5.162 C 174.141 5.162 172.985 4.177 172.985 2.962 C 172.985 1.746 174.141 0.761 175.566 0.761 C 176.992 0.761 178.148 1.746 178.148 2.962 Z M 233.225 5.162 C 234.65 5.162 235.806 4.007 235.806 2.581 C 235.806 1.156 234.65 0 233.225 0 C 231.799 0 230.644 1.156 230.644 2.581 C 230.644 4.007 231.799 5.162 233.225 5.162 Z M 293.475 2.581 C 293.475 4.007 292.319 5.162 290.894 5.162 C 289.468 5.162 288.313 4.007 288.313 2.581 C 288.313 1.156 289.468 0 290.894 0 C 292.319 0 293.475 1.156 293.475 2.581 Z M 348.552 5.162 C 349.977 5.162 351.133 4.007 351.133 2.581 C 351.133 1.156 349.977 0 348.552 0 C 347.126 0 345.971 1.156 345.971 2.581 C 345.971 4.007 347.126 5.162 348.552 5.162 Z M 408.791 2.581 C 408.791 4.007 407.636 5.162 406.21 5.162 C 404.785 5.162 403.629 4.007 403.629 2.581 C 403.629 1.156 404.785 0 406.21 0 C 407.636 0 408.791 1.156 408.791 2.581 Z M 463.869 5.162 C 465.294 5.162 466.45 4.007 466.45 2.581 C 466.45 1.156 465.294 0 463.869 0 C 462.443 0 461.288 1.156 461.288 2.581 C 461.288 4.007 462.443 5.162 463.869 5.162 Z M 524.118 2.581 C 524.118 4.007 522.963 5.162 521.537 5.162 C 520.112 5.162 518.956 4.007 518.956 2.581 C 518.956 1.156 520.112 0 521.537 0 C 522.963 0 524.118 1.156 524.118 2.581 Z M 2.581 61.864 C 4.007 61.864 5.162 60.708 5.162 59.283 C 5.162 57.857 4.007 56.701 2.581 56.701 C 1.156 56.701 0 57.857 0 59.283 C 0 60.708 1.156 61.864 2.581 61.864 Z M 62.821 59.283 C 62.821 60.708 61.665 61.864 60.24 61.864 C 58.814 61.864 57.658 60.708 57.658 59.283 C 57.658 57.857 58.814 56.701 60.24 56.701 C 61.665 56.701 62.821 57.857 62.821 59.283 Z M 117.908 61.864 C 119.334 61.864 120.489 60.708 120.489 59.283 C 120.489 57.857 119.334 56.701 117.908 56.701 C 116.483 56.701 115.327 57.857 115.327 59.283 C 115.327 60.708 116.483 61.864 117.908 61.864 Z M 178.148 59.283 C 178.148 60.708 176.992 61.864 175.566 61.864 C 174.141 61.864 172.985 60.708 172.985 59.283 C 172.985 57.857 174.141 56.701 175.566 56.701 C 176.992 56.701 178.148 57.857 178.148 59.283 Z M 233.225 61.864 C 234.65 61.864 235.806 60.708 235.806 59.283 C 235.806 57.857 234.65 56.701 233.225 56.701 C 231.799 56.701 230.644 57.857 230.644 59.283 C 230.644 60.708 231.799 61.864 233.225 61.864 Z M 293.475 59.283 C 293.475 60.708 292.319 61.864 290.894 61.864 C 289.468 61.864 288.313 60.708 288.313 59.283 C 288.313 57.857 289.468 56.701 290.894 56.701 C 292.319 56.701 293.475 57.857 293.475 59.283 Z M 348.552 61.864 C 349.977 61.864 351.133 60.708 351.133 59.283 C 351.133 57.857 349.977 56.701 348.552 56.701 C 347.126 56.701 345.971 57.857 345.971 59.283 C 345.971 60.708 347.126 61.864 348.552 61.864 Z M 408.791 59.283 C 408.791 60.708 407.636 61.864 406.21 61.864 C 404.785 61.864 403.629 60.708 403.629 59.283 C 403.629 57.857 404.785 56.701 406.21 56.701 C 407.636 56.701 408.791 57.857 408.791 59.283 Z M 463.869 61.864 C 465.294 61.864 466.45 60.708 466.45 59.283 C 466.45 57.857 465.294 56.701 463.869 56.701 C 462.443 56.701 461.288 57.857 461.288 59.283 C 461.288 60.708 462.443 61.864 463.869 61.864 Z M 524.118 59.283 C 524.118 60.708 522.963 61.864 521.537 61.864 C 520.112 61.864 518.956 60.708 518.956 59.283 C 518.956 57.857 520.112 56.701 521.537 56.701 C 522.963 56.701 524.118 57.857 524.118 59.283 Z M 2.581 118.565 C 4.007 118.565 5.162 117.409 5.162 115.983 C 5.162 114.558 4.007 113.402 2.581 113.402 C 1.156 113.402 0 114.558 0 115.983 C 0 117.409 1.156 118.565 2.581 118.565 Z M 62.821 115.983 C 62.821 117.409 61.665 118.565 60.24 118.565 C 58.814 118.565 57.658 117.409 57.658 115.983 C 57.658 114.558 58.814 113.402 60.24 113.402 C 61.665 113.402 62.821 114.558 62.821 115.983 Z M 117.908 118.565 C 119.334 118.565 120.489 117.409 120.489 115.983 C 120.489 114.558 119.334 113.402 117.908 113.402 C 116.483 113.402 115.327 114.558 115.327 115.983 C 115.327 117.409 116.483 118.565 117.908 118.565 Z M 178.148 115.983 C 178.148 117.409 176.992 118.565 175.566 118.565 C 174.141 118.565 172.985 117.409 172.985 115.983 C 172.985 114.558 174.141 113.402 175.566 113.402 C 176.992 113.402 178.148 114.558 178.148 115.983 Z M 233.225 118.565 C 234.65 118.565 235.806 117.409 235.806 115.983 C 235.806 114.558 234.65 113.402 233.225 113.402 C 231.799 113.402 230.644 114.558 230.644 115.983 C 230.644 117.409 231.799 118.565 233.225 118.565 Z M 293.475 115.983 C 293.475 117.409 292.319 118.565 290.894 118.565 C 289.468 118.565 288.313 117.409 288.313 115.983 C 288.313 114.558 289.468 113.402 290.894 113.402 C 292.319 113.402 293.475 114.558 293.475 115.983 Z M 348.552 118.565 C 349.977 118.565 351.133 117.409 351.133 115.983 C 351.133 114.558 349.977 113.402 348.552 113.402 C 347.126 113.402 345.971 114.558 345.971 115.983 C 345.971 117.409 347.126 118.565 348.552 118.565 Z M 408.791 115.983 C 408.791 117.409 407.636 118.565 406.21 118.565 C 404.785 118.565 403.629 117.409 403.629 115.983 C 403.629 114.558 404.785 113.402 406.21 113.402 C 407.636 113.402 408.791 114.558 408.791 115.983 Z M 463.869 118.565 C 465.294 118.565 466.45 117.409 466.45 115.983 C 466.45 114.558 465.294 113.402 463.869 113.402 C 462.443 113.402 461.288 114.558 461.288 115.983 C 461.288 117.409 462.443 118.565 463.869 118.565 Z M 524.118 115.983 C 524.118 117.409 522.963 118.565 521.537 118.565 C 520.112 118.565 518.956 117.409 518.956 115.983 C 518.956 114.558 520.112 113.402 521.537 113.402 C 522.963 113.402 524.118 114.558 524.118 115.983 Z M 2.581 175.256 C 4.007 175.256 5.162 174.1 5.162 172.675 C 5.162 171.249 4.007 170.094 2.581 170.094 C 1.156 170.094 0 171.249 0 172.675 C 0 174.1 1.156 175.256 2.581 175.256 Z M 62.821 172.675 C 62.821 174.1 61.665 175.256 60.24 175.256 C 58.814 175.256 57.658 174.1 57.658 172.675 C 57.658 171.249 58.814 170.094 60.24 170.094 C 61.665 170.094 62.821 171.249 62.821 172.675 Z M 117.908 175.256 C 119.334 175.256 120.489 174.1 120.489 172.675 C 120.489 171.249 119.334 170.094 117.908 170.094 C 116.483 170.094 115.327 171.249 115.327 172.675 C 115.327 174.1 116.483 175.256 117.908 175.256 Z M 178.148 172.675 C 178.148 174.1 176.992 175.256 175.566 175.256 C 174.141 175.256 172.985 174.1 172.985 172.675 C 172.985 171.249 174.141 170.094 175.566 170.094 C 176.992 170.094 178.148 171.249 178.148 172.675 Z M 233.225 175.256 C 234.65 175.256 235.806 174.1 235.806 172.675 C 235.806 171.249 234.65 170.094 233.225 170.094 C 231.799 170.094 230.644 171.249 230.644 172.675 C 230.644 174.1 231.799 175.256 233.225 175.256 Z M 293.475 172.675 C 293.475 174.1 292.319 175.256 290.894 175.256 C 289.468 175.256 288.313 174.1 288.313 172.675 C 288.313 171.249 289.468 170.094 290.894 170.094 C 292.319 170.094 293.475 171.249 293.475 172.675 Z M 348.552 175.256 C 349.977 175.256 351.133 174.1 351.133 172.675 C 351.133 171.249 349.977 170.094 348.552 170.094 C 347.126 170.094 345.971 171.249 345.971 172.675 C 345.971 174.1 347.126 175.256 348.552 175.256 Z M 408.791 172.675 C 408.791 174.1 407.636 175.256 406.21 175.256 C 404.785 175.256 403.629 174.1 403.629 172.675 C 403.629 171.249 404.785 170.094 406.21 170.094 C 407.636 170.094 408.791 171.249 408.791 172.675 Z M 463.869 175.256 C 465.294 175.256 466.45 174.1 466.45 172.675 C 466.45 171.249 465.294 170.094 463.869 170.094 C 462.443 170.094 461.288 171.249 461.288 172.675 C 461.288 174.1 462.443 175.256 463.869 175.256 Z M 524.118 172.675 C 524.118 174.1 522.963 175.256 521.537 175.256 C 520.112 175.256 518.956 174.1 518.956 172.675 C 518.956 171.249 520.112 170.094 521.537 170.094 C 522.963 170.094 524.118 171.249 524.118 172.675 Z M 2.581 231.957 C 4.007 231.957 5.162 230.801 5.162 229.376 C 5.162 227.95 4.007 226.795 2.581 226.795 C 1.156 226.795 0 227.95 0 229.376 C 0 230.801 1.156 231.957 2.581 231.957 Z M 62.821 229.376 C 62.821 230.801 61.665 231.957 60.24 231.957 C 58.814 231.957 57.658 230.801 57.658 229.376 C 57.658 227.95 58.814 226.795 60.24 226.795 C 61.665 226.795 62.821 227.95 62.821 229.376 Z M 117.908 231.957 C 119.334 231.957 120.489 230.801 120.489 229.376 C 120.489 227.95 119.334 226.795 117.908 226.795 C 116.483 226.795 115.327 227.95 115.327 229.376 C 115.327 230.801 116.483 231.957 117.908 231.957 Z M 178.148 229.376 C 178.148 230.801 176.992 231.957 175.566 231.957 C 174.141 231.957 172.985 230.801 172.985 229.376 C 172.985 227.95 174.141 226.795 175.566 226.795 C 176.992 226.795 178.148 227.95 178.148 229.376 Z M 233.225 231.957 C 234.65 231.957 235.806 230.801 235.806 229.376 C 235.806 227.95 234.65 226.795 233.225 226.795 C 231.799 226.795 230.644 227.95 230.644 229.376 C 230.644 230.801 231.799 231.957 233.225 231.957 Z M 293.475 229.376 C 293.475 230.801 292.319 231.957 290.894 231.957 C 289.468 231.957 288.313 230.801 288.313 229.376 C 288.313 227.95 289.468 226.795 290.894 226.795 C 292.319 226.795 293.475 227.95 293.475 229.376 Z M 348.552 231.957 C 349.977 231.957 351.133 230.801 351.133 229.376 C 351.133 227.95 349.977 226.795 348.552 226.795 C 347.126 226.795 345.971 227.95 345.971 229.376 C 345.971 230.801 347.126 231.957 348.552 231.957 Z M 408.791 229.376 C 408.791 230.801 407.636 231.957 406.21 231.957 C 404.785 231.957 403.629 230.801 403.629 229.376 C 403.629 227.95 404.785 226.795 406.21 226.795 C 407.636 226.795 408.791 227.95 408.791 229.376 Z M 463.869 231.957 C 465.294 231.957 466.45 230.801 466.45 229.376 C 466.45 227.95 465.294 226.795 463.869 226.795 C 462.443 226.795 461.288 227.95 461.288 229.376 C 461.288 230.801 462.443 231.957 463.869 231.957 Z M 524.118 229.376 C 524.118 230.801 522.963 231.957 521.537 231.957 C 520.112 231.957 518.956 230.801 518.956 229.376 C 518.956 227.95 520.112 226.795 521.537 226.795 C 522.963 226.795 524.118 227.95 524.118 229.376 Z M 2.581 288.658 C 4.007 288.658 5.162 287.503 5.162 286.077 C 5.162 284.652 4.007 283.496 2.581 283.496 C 1.156 283.496 0 284.652 0 286.077 C 0 287.503 1.156 288.658 2.581 288.658 Z M 62.821 286.077 C 62.821 287.503 61.665 288.658 60.24 288.658 C 58.814 288.658 57.658 287.503 57.658 286.077 C 57.658 284.652 58.814 283.496 60.24 283.496 C 61.665 283.496 62.821 284.652 62.821 286.077 Z M 117.908 288.658 C 119.334 288.658 120.489 287.503 120.489 286.077 C 120.489 284.652 119.334 283.496 117.908 283.496 C 116.483 283.496 115.327 284.652 115.327 286.077 C 115.327 287.503 116.483 288.658 117.908 288.658 Z M 178.148 286.077 C 178.148 287.503 176.992 288.658 175.566 288.658 C 174.141 288.658 172.985 287.503 172.985 286.077 C 172.985 284.652 174.141 283.496 175.566 283.496 C 176.992 283.496 178.148 284.652 178.148 286.077 Z M 233.225 288.658 C 234.65 288.658 235.806 287.503 235.806 286.077 C 235.806 284.652 234.65 283.496 233.225 283.496 C 231.799 283.496 230.644 284.652 230.644 286.077 C 230.644 287.503 231.799 288.658 233.225 288.658 Z M 293.475 286.077 C 293.475 287.503 292.319 288.658 290.894 288.658 C 289.468 288.658 288.313 287.503 288.313 286.077 C 288.313 284.652 289.468 283.496 290.894 283.496 C 292.319 283.496 293.475 284.652 293.475 286.077 Z M 348.552 288.658 C 349.977 288.658 351.133 287.503 351.133 286.077 C 351.133 284.652 349.977 283.496 348.552 283.496 C 347.126 283.496 345.971 284.652 345.971 286.077 C 345.971 287.503 347.126 288.658 348.552 288.658 Z M 408.791 286.077 C 408.791 287.503 407.636 288.658 406.21 288.658 C 404.785 288.658 403.629 287.503 403.629 286.077 C 403.629 284.652 404.785 283.496 406.21 283.496 C 407.636 283.496 408.791 284.652 408.791 286.077 Z M 463.869 288.658 C 465.294 288.658 466.45 287.503 466.45 286.077 C 466.45 284.652 465.294 283.496 463.869 283.496 C 462.443 283.496 461.288 284.652 461.288 286.077 C 461.288 287.503 462.443 288.658 463.869 288.658 Z M 524.118 286.077 C 524.118 287.503 522.963 288.658 521.537 288.658 C 520.112 288.658 518.956 287.503 518.956 286.077 C 518.956 284.652 520.112 283.496 521.537 283.496 C 522.963 283.496 524.118 284.652 524.118 286.077 Z M 2.581 345.349 C 4.007 345.349 5.162 344.194 5.162 342.768 C 5.162 341.343 4.007 340.187 2.581 340.187 C 1.156 340.187 0 341.343 0 342.768 C 0 344.194 1.156 345.349 2.581 345.349 Z M 62.821 342.768 C 62.821 344.194 61.665 345.349 60.24 345.349 C 58.814 345.349 57.658 344.194 57.658 342.768 C 57.658 341.343 58.814 340.187 60.24 340.187 C 61.665 340.187 62.821 341.343 62.821 342.768 Z M 117.908 345.349 C 119.334 345.349 120.489 344.194 120.489 342.768 C 120.489 341.343 119.334 340.187 117.908 340.187 C 116.483 340.187 115.327 341.343 115.327 342.768 C 115.327 344.194 116.483 345.349 117.908 345.349 Z M 178.148 342.768 C 178.148 344.194 176.992 345.349 175.566 345.349 C 174.141 345.349 172.985 344.194 172.985 342.768 C 172.985 341.343 174.141 340.187 175.566 340.187 C 176.992 340.187 178.148 341.343 178.148 342.768 Z M 233.225 345.349 C 234.65 345.349 235.806 344.194 235.806 342.768 C 235.806 341.343 234.65 340.187 233.225 340.187 C 231.799 340.187 230.644 341.343 230.644 342.768 C 230.644 344.194 231.799 345.349 233.225 345.349 Z M 293.475 342.768 C 293.475 344.194 292.319 345.349 290.894 345.349 C 289.468 345.349 288.313 344.194 288.313 342.768 C 288.313 341.343 289.468 340.187 290.894 340.187 C 292.319 340.187 293.475 341.343 293.475 342.768 Z M 348.552 345.349 C 349.977 345.349 351.133 344.194 351.133 342.768 C 351.133 341.343 349.977 340.187 348.552 340.187 C 347.126 340.187 345.971 341.343 345.971 342.768 C 345.971 344.194 347.126 345.349 348.552 345.349 Z M 408.791 342.768 C 408.791 344.194 407.636 345.349 406.21 345.349 C 404.785 345.349 403.629 344.194 403.629 342.768 C 403.629 341.343 404.785 340.187 406.21 340.187 C 407.636 340.187 408.791 341.343 408.791 342.768 Z M 463.869 345.349 C 465.294 345.349 466.45 344.194 466.45 342.768 C 466.45 341.343 465.294 340.187 463.869 340.187 C 462.443 340.187 461.288 341.343 461.288 342.768 C 461.288 344.194 462.443 345.349 463.869 345.349 Z M 524.118 342.768 C 524.118 344.194 522.963 345.349 521.537 345.349 C 520.112 345.349 518.956 344.194 518.956 342.768 C 518.956 341.343 520.112 340.187 521.537 340.187 C 522.963 340.187 524.118 341.343 524.118 342.768 Z M 2.581 402.051 C 4.007 402.051 5.162 400.895 5.162 399.47 C 5.162 398.044 4.007 396.889 2.581 396.889 C 1.156 396.889 0 398.044 0 399.47 C 0 400.895 1.156 402.051 2.581 402.051 Z M 62.821 399.47 C 62.821 400.895 61.665 402.051 60.24 402.051 C 58.814 402.051 57.658 400.895 57.658 399.47 C 57.658 398.044 58.814 396.889 60.24 396.889 C 61.665 396.889 62.821 398.044 62.821 399.47 Z M 117.908 402.051 C 119.334 402.051 120.489 400.895 120.489 399.47 C 120.489 398.044 119.334 396.889 117.908 396.889 C 116.483 396.889 115.327 398.044 115.327 399.47 C 115.327 400.895 116.483 402.051 117.908 402.051 Z M 178.148 399.47 C 178.148 400.895 176.992 402.051 175.566 402.051 C 174.141 402.051 172.985 400.895 172.985 399.47 C 172.985 398.044 174.141 396.889 175.566 396.889 C 176.992 396.889 178.148 398.044 178.148 399.47 Z M 233.225 402.051 C 234.65 402.051 235.806 400.895 235.806 399.47 C 235.806 398.044 234.65 396.889 233.225 396.889 C 231.799 396.889 230.644 398.044 230.644 399.47 C 230.644 400.895 231.799 402.051 233.225 402.051 Z M 293.475 399.47 C 293.475 400.895 292.319 402.051 290.894 402.051 C 289.468 402.051 288.313 400.895 288.313 399.47 C 288.313 398.044 289.468 396.889 290.894 396.889 C 292.319 396.889 293.475 398.044 293.475 399.47 Z M 348.552 402.051 C 349.977 402.051 351.133 400.895 351.133 399.47 C 351.133 398.044 349.977 396.889 348.552 396.889 C 347.126 396.889 345.971 398.044 345.971 399.47 C 345.971 400.895 347.126 402.051 348.552 402.051 Z M 408.791 399.47 C 408.791 400.895 407.636 402.051 406.21 402.051 C 404.785 402.051 403.629 400.895 403.629 399.47 C 403.629 398.044 404.785 396.889 406.21 396.889 C 407.636 396.889 408.791 398.044 408.791 399.47 Z M 463.869 402.051 C 465.294 402.051 466.45 400.895 466.45 399.47 C 466.45 398.044 465.294 396.889 463.869 396.889 C 462.443 396.889 461.288 398.044 461.288 399.47 C 461.288 400.895 462.443 402.051 463.869 402.051 Z M 524.118 399.47 C 524.118 400.895 522.963 402.051 521.537 402.051 C 520.112 402.051 518.956 400.895 518.956 399.47 C 518.956 398.044 520.112 396.889 521.537 396.889 C 522.963 396.889 524.118 398.044 524.118 399.47 Z M 2.581 458.752 C 4.007 458.752 5.162 457.597 5.162 456.171 C 5.162 454.746 4.007 453.59 2.581 453.59 C 1.156 453.59 0 454.746 0 456.171 C 0 457.597 1.156 458.752 2.581 458.752 Z M 62.821 456.171 C 62.821 457.597 61.665 458.752 60.24 458.752 C 58.814 458.752 57.658 457.597 57.658 456.171 C 57.658 454.746 58.814 453.59 60.24 453.59 C 61.665 453.59 62.821 454.746 62.821 456.171 Z M 117.908 458.752 C 119.334 458.752 120.489 457.597 120.489 456.171 C 120.489 454.746 119.334 453.59 117.908 453.59 C 116.483 453.59 115.327 454.746 115.327 456.171 C 115.327 457.597 116.483 458.752 117.908 458.752 Z M 178.148 456.171 C 178.148 457.597 176.992 458.752 175.566 458.752 C 174.141 458.752 172.985 457.597 172.985 456.171 C 172.985 454.746 174.141 453.59 175.566 453.59 C 176.992 453.59 178.148 454.746 178.148 456.171 Z M 233.225 458.752 C 234.65 458.752 235.806 457.597 235.806 456.171 C 235.806 454.746 234.65 453.59 233.225 453.59 C 231.799 453.59 230.644 454.746 230.644 456.171 C 230.644 457.597 231.799 458.752 233.225 458.752 Z M 293.475 456.171 C 293.475 457.597 292.319 458.752 290.894 458.752 C 289.468 458.752 288.313 457.597 288.313 456.171 C 288.313 454.746 289.468 453.59 290.894 453.59 C 292.319 453.59 293.475 454.746 293.475 456.171 Z M 348.552 458.752 C 349.977 458.752 351.133 457.597 351.133 456.171 C 351.133 454.746 349.977 453.59 348.552 453.59 C 347.126 453.59 345.971 454.746 345.971 456.171 C 345.971 457.597 347.126 458.752 348.552 458.752 Z M 408.791 456.171 C 408.791 457.597 407.636 458.752 406.21 458.752 C 404.785 458.752 403.629 457.597 403.629 456.171 C 403.629 454.746 404.785 453.59 406.21 453.59 C 407.636 453.59 408.791 454.746 408.791 456.171 Z M 463.869 458.752 C 465.294 458.752 466.45 457.597 466.45 456.171 C 466.45 454.746 465.294 453.59 463.869 453.59 C 462.443 453.59 461.288 454.746 461.288 456.171 C 461.288 457.597 462.443 458.752 463.869 458.752 Z M 524.118 456.171 C 524.118 457.597 522.963 458.752 521.537 458.752 C 520.112 458.752 518.956 457.597 518.956 456.171 C 518.956 454.746 520.112 453.59 521.537 453.59 C 522.963 453.59 524.118 454.746 524.118 456.171 Z M 2.581 515.443 C 4.007 515.443 5.162 514.288 5.162 512.862 C 5.162 511.437 4.007 510.281 2.581 510.281 C 1.156 510.281 0 511.437 0 512.862 C 0 514.288 1.156 515.443 2.581 515.443 Z M 62.821 512.862 C 62.821 514.288 61.665 515.443 60.24 515.443 C 58.814 515.443 57.658 514.288 57.658 512.862 C 57.658 511.437 58.814 510.281 60.24 510.281 C 61.665 510.281 62.821 511.437 62.821 512.862 Z M 117.908 515.443 C 119.334 515.443 120.489 514.288 120.489 512.862 C 120.489 511.437 119.334 510.281 117.908 510.281 C 116.483 510.281 115.327 511.437 115.327 512.862 C 115.327 514.288 116.483 515.443 117.908 515.443 Z M 178.148 512.862 C 178.148 514.288 176.992 515.443 175.566 515.443 C 174.141 515.443 172.985 514.288 172.985 512.862 C 172.985 511.437 174.141 510.281 175.566 510.281 C 176.992 510.281 178.148 511.437 178.148 512.862 Z M 233.225 515.443 C 234.65 515.443 235.806 514.288 235.806 512.862 C 235.806 511.437 234.65 510.281 233.225 510.281 C 231.799 510.281 230.644 511.437 230.644 512.862 C 230.644 514.288 231.799 515.443 233.225 515.443 Z M 293.475 512.862 C 293.475 514.288 292.319 515.443 290.894 515.443 C 289.468 515.443 288.313 514.288 288.313 512.862 C 288.313 511.437 289.468 510.281 290.894 510.281 C 292.319 510.281 293.475 511.437 293.475 512.862 Z M 348.552 515.443 C 349.977 515.443 351.133 514.288 351.133 512.862 C 351.133 511.437 349.977 510.281 348.552 510.281 C 347.126 510.281 345.971 511.437 345.971 512.862 C 345.971 514.288 347.126 515.443 348.552 515.443 Z M 408.791 512.862 C 408.791 514.288 407.636 515.443 406.21 515.443 C 404.785 515.443 403.629 514.288 403.629 512.862 C 403.629 511.437 404.785 510.281 406.21 510.281 C 407.636 510.281 408.791 511.437 408.791 512.862 Z M 463.869 515.443 C 465.294 515.443 466.45 514.288 466.45 512.862 C 466.45 511.437 465.294 510.281 463.869 510.281 C 462.443 510.281 461.288 511.437 461.288 512.862 C 461.288 514.288 462.443 515.443 463.869 515.443 Z M 524.118 512.862 C 524.118 514.288 522.963 515.443 521.537 515.443 C 520.112 515.443 518.956 514.288 518.956 512.862 C 518.956 511.437 520.112 510.281 521.537 510.281 C 522.963 510.281 524.118 511.437 524.118 512.862 Z M 579.041 5.162 C 580.467 5.162 581.622 4.007 581.622 2.581 C 581.622 1.156 580.467 0 579.041 0 C 577.616 0 576.46 1.156 576.46 2.581 C 576.46 4.007 577.616 5.162 579.041 5.162 Z M 639.281 2.581 C 639.281 4.007 638.125 5.162 636.7 5.162 C 635.274 5.162 634.119 4.007 634.119 2.581 C 634.119 1.156 635.274 0 636.7 0 C 638.125 0 639.281 1.156 639.281 2.581 Z M 579.041 61.864 C 580.467 61.864 581.622 60.708 581.622 59.283 C 581.622 57.857 580.467 56.701 579.041 56.701 C 577.616 56.701 576.46 57.857 576.46 59.283 C 576.46 60.708 577.616 61.864 579.041 61.864 Z M 639.281 59.283 C 639.281 60.708 638.125 61.864 636.7 61.864 C 635.274 61.864 634.119 60.708 634.119 59.283 C 634.119 57.857 635.274 56.701 636.7 56.701 C 638.125 56.701 639.281 57.857 639.281 59.283 Z M 579.041 118.565 C 580.467 118.565 581.622 117.409 581.622 115.983 C 581.622 114.558 580.467 113.402 579.041 113.402 C 577.616 113.402 576.46 114.558 576.46 115.983 C 576.46 117.409 577.616 118.565 579.041 118.565 Z M 639.281 115.983 C 639.281 117.409 638.125 118.565 636.7 118.565 C 635.274 118.565 634.119 117.409 634.119 115.983 C 634.119 114.558 635.274 113.402 636.7 113.402 C 638.125 113.402 639.281 114.558 639.281 115.983 Z M 579.041 175.256 C 580.467 175.256 581.622 174.1 581.622 172.675 C 581.622 171.249 580.467 170.094 579.041 170.094 C 577.616 170.094 576.46 171.249 576.46 172.675 C 576.46 174.1 577.616 175.256 579.041 175.256 Z M 639.281 172.675 C 639.281 174.1 638.125 175.256 636.7 175.256 C 635.274 175.256 634.119 174.1 634.119 172.675 C 634.119 171.249 635.274 170.094 636.7 170.094 C 638.125 170.094 639.281 171.249 639.281 172.675 Z M 579.041 231.957 C 580.467 231.957 581.622 230.801 581.622 229.376 C 581.622 227.95 580.467 226.795 579.041 226.795 C 577.616 226.795 576.46 227.95 576.46 229.376 C 576.46 230.801 577.616 231.957 579.041 231.957 Z M 639.281 229.376 C 639.281 230.801 638.125 231.957 636.7 231.957 C 635.274 231.957 634.119 230.801 634.119 229.376 C 634.119 227.95 635.274 226.795 636.7 226.795 C 638.125 226.795 639.281 227.95 639.281 229.376 Z M 579.041 288.658 C 580.467 288.658 581.622 287.503 581.622 286.077 C 581.622 284.652 580.467 283.496 579.041 283.496 C 577.616 283.496 576.46 284.652 576.46 286.077 C 576.46 287.503 577.616 288.658 579.041 288.658 Z M 639.281 286.077 C 639.281 287.503 638.125 288.658 636.7 288.658 C 635.274 288.658 634.119 287.503 634.119 286.077 C 634.119 284.652 635.274 283.496 636.7 283.496 C 638.125 283.496 639.281 284.652 639.281 286.077 Z M 579.041 345.349 C 580.467 345.349 581.622 344.194 581.622 342.768 C 581.622 341.343 580.467 340.187 579.041 340.187 C 577.616 340.187 576.46 341.343 576.46 342.768 C 576.46 344.194 577.616 345.349 579.041 345.349 Z M 639.281 342.768 C 639.281 344.194 638.125 345.349 636.7 345.349 C 635.274 345.349 634.119 344.194 634.119 342.768 C 634.119 341.343 635.274 340.187 636.7 340.187 C 638.125 340.187 639.281 341.343 639.281 342.768 Z M 579.041 402.051 C 580.467 402.051 581.622 400.895 581.622 399.47 C 581.622 398.044 580.467 396.889 579.041 396.889 C 577.616 396.889 576.46 398.044 576.46 399.47 C 576.46 400.895 577.616 402.051 579.041 402.051 Z M 639.281 399.47 C 639.281 400.895 638.125 402.051 636.7 402.051 C 635.274 402.051 634.119 400.895 634.119 399.47 C 634.119 398.044 635.274 396.889 636.7 396.889 C 638.125 396.889 639.281 398.044 639.281 399.47 Z M 579.041 458.752 C 580.467 458.752 581.622 457.597 581.622 456.171 C 581.622 454.746 580.467 453.59 579.041 453.59 C 577.616 453.59 576.46 454.746 576.46 456.171 C 576.46 457.597 577.616 458.752 579.041 458.752 Z M 639.281 456.171 C 639.281 457.597 638.125 458.752 636.7 458.752 C 635.274 458.752 634.119 457.597 634.119 456.171 C 634.119 454.746 635.274 453.59 636.7 453.59 C 638.125 453.59 639.281 454.746 639.281 456.171 Z M 579.041 515.443 C 580.467 515.443 581.622 514.288 581.622 512.862 C 581.622 511.437 580.467 510.281 579.041 510.281 C 577.616 510.281 576.46 511.437 576.46 512.862 C 576.46 514.288 577.616 515.443 579.041 515.443 Z M 639.281 512.862 C 639.281 514.288 638.125 515.443 636.7 515.443 C 635.274 515.443 634.119 514.288 634.119 512.862 C 634.119 511.437 635.274 510.281 636.7 510.281 C 638.125 510.281 639.281 511.437 639.281 512.862 Z M 2.581 572.299 C 4.007 572.299 5.162 571.143 5.162 569.718 C 5.162 568.292 4.007 567.137 2.581 567.137 C 1.156 567.137 0 568.292 0 569.718 C 0 571.143 1.156 572.299 2.581 572.299 Z M 62.821 569.718 C 62.821 571.143 61.665 572.299 60.24 572.299 C 58.814 572.299 57.658 571.143 57.658 569.718 C 57.658 568.292 58.814 567.137 60.24 567.137 C 61.665 567.137 62.821 568.292 62.821 569.718 Z M 117.908 572.299 C 119.334 572.299 120.489 571.143 120.489 569.718 C 120.489 568.292 119.334 567.137 117.908 567.137 C 116.483 567.137 115.327 568.292 115.327 569.718 C 115.327 571.143 116.483 572.299 117.908 572.299 Z M 178.148 569.718 C 178.148 571.143 176.992 572.299 175.566 572.299 C 174.141 572.299 172.985 571.143 172.985 569.718 C 172.985 568.292 174.141 567.137 175.566 567.137 C 176.992 567.137 178.148 568.292 178.148 569.718 Z M 233.225 572.299 C 234.65 572.299 235.806 571.143 235.806 569.718 C 235.806 568.292 234.65 567.137 233.225 567.137 C 231.799 567.137 230.644 568.292 230.644 569.718 C 230.644 571.143 231.799 572.299 233.225 572.299 Z M 293.475 569.718 C 293.475 571.143 292.319 572.299 290.894 572.299 C 289.468 572.299 288.313 571.143 288.313 569.718 C 288.313 568.292 289.468 567.137 290.894 567.137 C 292.319 567.137 293.475 568.292 293.475 569.718 Z M 348.552 572.299 C 349.977 572.299 351.133 571.143 351.133 569.718 C 351.133 568.292 349.977 567.137 348.552 567.137 C 347.126 567.137 345.971 568.292 345.971 569.718 C 345.971 571.143 347.126 572.299 348.552 572.299 Z M 408.791 569.718 C 408.791 571.143 407.636 572.299 406.21 572.299 C 404.785 572.299 403.629 571.143 403.629 569.718 C 403.629 568.292 404.785 567.137 406.21 567.137 C 407.636 567.137 408.791 568.292 408.791 569.718 Z M 463.869 572.299 C 465.294 572.299 466.45 571.143 466.45 569.718 C 466.45 568.292 465.294 567.137 463.869 567.137 C 462.443 567.137 461.288 568.292 461.288 569.718 C 461.288 571.143 462.443 572.299 463.869 572.299 Z M 524.118 569.718 C 524.118 571.143 522.963 572.299 521.537 572.299 C 520.112 572.299 518.956 571.143 518.956 569.718 C 518.956 568.292 520.112 567.137 521.537 567.137 C 522.963 567.137 524.118 568.292 524.118 569.718 Z M 2.581 629 C 4.007 629 5.162 627.845 5.162 626.419 C 5.162 624.994 4.007 623.838 2.581 623.838 C 1.156 623.838 0 624.994 0 626.419 C 0 627.845 1.156 629 2.581 629 Z M 62.821 626.419 C 62.821 627.845 61.665 629 60.24 629 C 58.814 629 57.658 627.845 57.658 626.419 C 57.658 624.994 58.814 623.838 60.24 623.838 C 61.665 623.838 62.821 624.994 62.821 626.419 Z M 117.908 629 C 119.334 629 120.489 627.845 120.489 626.419 C 120.489 624.994 119.334 623.838 117.908 623.838 C 116.483 623.838 115.327 624.994 115.327 626.419 C 115.327 627.845 116.483 629 117.908 629 Z M 178.148 626.419 C 178.148 627.845 176.992 629 175.566 629 C 174.141 629 172.985 627.845 172.985 626.419 C 172.985 624.994 174.141 623.838 175.566 623.838 C 176.992 623.838 178.148 624.994 178.148 626.419 Z M 233.225 629 C 234.65 629 235.806 627.845 235.806 626.419 C 235.806 624.994 234.65 623.838 233.225 623.838 C 231.799 623.838 230.644 624.994 230.644 626.419 C 230.644 627.845 231.799 629 233.225 629 Z M 293.475 626.419 C 293.475 627.845 292.319 629 290.894 629 C 289.468 629 288.313 627.845 288.313 626.419 C 288.313 624.994 289.468 623.838 290.894 623.838 C 292.319 623.838 293.475 624.994 293.475 626.419 Z M 348.552 629 C 349.977 629 351.133 627.845 351.133 626.419 C 351.133 624.994 349.977 623.838 348.552 623.838 C 347.126 623.838 345.971 624.994 345.971 626.419 C 345.971 627.845 347.126 629 348.552 629 Z M 408.791 626.419 C 408.791 627.845 407.636 629 406.21 629 C 404.785 629 403.629 627.845 403.629 626.419 C 403.629 624.994 404.785 623.838 406.21 623.838 C 407.636 623.838 408.791 624.994 408.791 626.419 Z M 463.869 629 C 465.294 629 466.45 627.845 466.45 626.419 C 466.45 624.994 465.294 623.838 463.869 623.838 C 462.443 623.838 461.288 624.994 461.288 626.419 C 461.288 627.845 462.443 629 463.869 629 Z M 524.118 626.419 C 524.118 627.845 522.963 629 521.537 629 C 520.112 629 518.956 627.845 518.956 626.419 C 518.956 624.994 520.112 623.838 521.537 623.838 C 522.963 623.838 524.118 624.994 524.118 626.419 Z M 579.041 572.299 C 580.467 572.299 581.622 571.143 581.622 569.718 C 581.622 568.292 580.467 567.137 579.041 567.137 C 577.616 567.137 576.46 568.292 576.46 569.718 C 576.46 571.143 577.616 572.299 579.041 572.299 Z M 639.281 569.718 C 639.281 571.143 638.125 572.299 636.7 572.299 C 635.274 572.299 634.119 571.143 634.119 569.718 C 634.119 568.292 635.274 567.137 636.7 567.137 C 638.125 567.137 639.281 568.292 639.281 569.718 Z M 579.041 629 C 580.467 629 581.622 627.845 581.622 626.419 C 581.622 624.994 580.467 623.838 579.041 623.838 C 577.616 623.838 576.46 624.994 576.46 626.419 C 576.46 627.845 577.616 629 579.041 629 Z M 639.281 626.419 C 639.281 627.845 638.125 629 636.7 629 C 635.274 629 634.119 627.845 634.119 626.419 C 634.119 624.994 635.274 623.838 636.7 623.838 C 638.125 623.838 639.281 624.994 639.281 626.419 Z" fill="currentColor" fill-rule="evenodd"></path>
</svg>