<?xml version="1.0" encoding="UTF-8"?>
<svg xmlns="http://www.w3.org/2000/svg" width="44.618" height="22.770" viewBox="0 0 44.618 22.770" fill="none">
  <path d="M 26.617 21.71 C 26.911 21.563 27.149 21.371 27.308 21.12 C 27.398 20.98 27.458 20.82 27.488 20.66 C 28.088 21.03 28.768 21.22 29.468 21.22 C 29.858 21.23 30.238 21.17 30.618 21.07 C 32.196 20.651 33.184 19.582 33.48 18.102 C 35.805 18.542 38.14 18.922 40.484 19.242 L 39.438 20.03 C 39.208 20.21 39.158 20.55 39.338 20.78 C 39.518 21.01 39.858 21.06 40.088 20.88 L 42.208 19.28 C 42.438 19.1 42.488 18.76 42.308 18.53 L 40.708 16.41 C 40.608 16.27 40.428 16.19 40.248 16.2 L 40.248 16.19 C 40.138 16.2 40.038 16.24 39.958 16.3 C 39.728 16.48 39.678 16.82 39.858 17.05 L 40.716 18.19 C 38.326 17.867 35.944 17.479 33.574 17.03 C 33.567 16.591 33.51 16.127 33.401 15.643 C 33.886 15.552 34.562 15.42 35.328 15.22 C 35.608 15.15 35.778 14.86 35.708 14.58 C 35.638 14.3 35.348 14.13 35.068 14.2 C 34.28 14.416 33.589 14.543 33.119 14.625 C 32.785 13.697 32.218 12.861 31.468 12.2 C 30.828 11.65 30.008 11.36 29.158 11.36 C 28.788 11.36 28.408 11.41 28.048 11.51 C 27.338 11.69 26.678 12.07 26.168 12.6 C 26.268 10.28 26.398 4 26.398 3.75 C 26.358 3.53 26.268 3.32 26.138 3.14 L 26.138 3.11 L 26.188 0.83 C 26.188 0.59 25.988 0.38 25.738 0.38 C 25.498 0.38 25.288 0.57 25.288 0.82 L 25.258 2.51 C 24.998 2.42 24.718 2.36 24.448 2.36 C 24.238 2.35 24.018 2.37 23.808 2.41 L 23.848 0.46 C 23.848 0.22 23.658 0.01 23.408 0 L 23.388 0 C 23.138 0 22.938 0.2 22.938 0.45 L 22.888 2.93 C 22.678 3.17 22.558 3.47 22.538 3.78 C 22.538 3.81 22.448 5.99 22.328 8.12 C 21.788 7.59 20.998 7.4 20.278 7.61 C 19.227 7.891 12.956 11.254 10.657 14.7 C 10.602 14.674 10.542 14.657 10.478 14.65 C 10.018 14.57 9.278 14.42 8.438 14.21 C 8.158 14.14 7.878 14.31 7.798 14.58 C 7.718 14.87 7.888 15.16 8.168 15.24 C 8.941 15.442 9.622 15.575 10.108 15.665 C 9.741 16.45 9.692 17.342 9.968 18.17 C 10.79 20.366 12.859 21.276 14.771 21.71 L 1.578 21.71 C 1.288 21.71 1.048 21.95 1.048 22.24 C 1.048 22.53 1.278 22.77 1.578 22.77 L 44.088 22.77 C 44.378 22.77 44.618 22.53 44.618 22.24 C 44.618 21.95 44.388 21.71 44.088 21.71 L 26.617 21.71 Z M 32.468 15.55 C 32.606 15.975 32.68 16.416 32.692 16.859 C 30.486 16.426 28.291 15.939 26.108 15.4 C 26.034 15.382 25.959 15.38 25.887 15.392 C 25.935 13.984 26.908 12.74 28.308 12.39 L 28.298 12.39 C 28.588 12.31 28.878 12.27 29.168 12.27 C 29.818 12.27 30.428 12.49 30.918 12.91 C 31.698 13.61 32.238 14.53 32.468 15.55 Z M 27.258 19.34 C 27.06 18.89 26.604 17.794 26.07 16.495 C 28.233 17.024 30.409 17.504 32.594 17.931 C 32.546 18.158 32.481 18.381 32.398 18.6 C 32.018 19.42 31.278 20.02 30.398 20.21 C 30.098 20.3 29.788 20.34 29.478 20.34 C 28.648 20.34 27.848 19.98 27.278 19.37 L 27.258 19.34 Z M 20.528 8.49 C 19.518 8.78 12.778 12.42 11.068 15.8 C 10.688 16.42 10.598 17.17 10.818 17.86 C 11.468 19.64 13.228 20.66 16.348 21.07 C 18.248 21.25 20.168 21.33 22.078 21.32 L 22.668 21.32 C 24.048 21.32 26.138 21.32 26.558 20.66 L 26.564 20.649 C 26.602 20.578 26.705 20.382 26.488 19.9 C 26.318 19.5 22.888 11.28 22.438 9.99 C 22.418 9.92 22.388 9.85 22.358 9.78 L 22.358 9.78 C 22.308 9.72 22.278 9.65 22.268 9.58 C 22.048 8.98 21.518 8.54 20.888 8.46 C 20.768 8.46 20.648 8.47 20.528 8.5 L 20.528 8.49 Z M 23.298 6.97 C 23.248 7.85 23.208 8.64 23.178 9.33 C 23.228 9.45 23.278 9.58 23.318 9.69 C 23.518 10.28 24.338 12.31 25.048 14.01 C 25.148 13.76 25.218 13.49 25.248 13.22 C 25.297 12.622 25.367 10.176 25.423 8.184 L 25.423 8.183 L 25.423 8.183 C 25.436 7.745 25.447 7.329 25.458 6.96 C 25.148 6.77 24.788 6.68 24.428 6.68 C 24.038 6.68 23.648 6.79 23.308 6.98 L 23.298 6.97 Z M 25.504 4.46 C 25.497 4.838 25.486 5.351 25.469 5.943 C 25.135 5.818 24.791 5.76 24.438 5.76 C 24.068 5.76 23.708 5.82 23.368 5.94 C 23.406 5.355 23.428 4.834 23.444 4.453 L 23.444 4.452 C 23.454 4.235 23.461 4.063 23.468 3.95 C 23.478 3.9 23.478 3.85 23.478 3.8 C 23.488 3.67 23.548 3.55 23.638 3.46 C 23.868 3.3 24.148 3.22 24.428 3.26 C 25.268 3.3 25.468 3.67 25.518 3.81 L 25.518 3.88 C 25.514 3.991 25.51 4.191 25.504 4.46 L 25.504 4.46 Z M 36.748 14.28 C 36.828 14.49 37.028 14.63 37.248 14.63 L 37.248 14.64 C 37.308 14.64 37.368 14.63 37.428 14.61 C 37.5 14.583 37.57 14.556 37.64 14.53 L 37.64 14.53 L 37.64 14.53 C 37.9 14.432 38.148 14.338 38.408 14.22 C 38.748 14.07 39.088 13.92 39.438 13.76 C 39.688 13.63 39.798 13.33 39.688 13.07 C 39.568 12.8 39.258 12.67 38.988 12.79 C 38.648 12.95 38.318 13.1 37.988 13.24 C 37.708 13.36 37.388 13.48 37.068 13.6 L 37.068 13.6 C 36.788 13.7 36.648 14 36.748 14.28 Z M 40.588 12.36 C 40.598 12.66 40.848 12.88 41.138 12.88 C 41.218 12.87 41.298 12.85 41.368 12.82 C 42.518 12.25 43.258 11.84 43.288 11.82 C 43.548 11.67 43.638 11.35 43.498 11.09 C 43.348 10.83 43.028 10.74 42.768 10.88 C 42.758 10.89 42.018 11.3 40.898 11.86 C 40.698 11.95 40.588 12.15 40.588 12.36 Z M 6.288 14.62 C 6.228 14.62 6.168 14.61 6.108 14.59 C 5.778 14.47 5.468 14.34 5.168 14.21 C 4.828 14.06 4.468 13.9 4.098 13.73 C 3.828 13.61 3.718 13.29 3.838 13.02 C 3.958 12.75 4.278 12.64 4.548 12.76 C 4.898 12.92 5.248 13.08 5.588 13.23 C 5.868 13.35 6.168 13.47 6.468 13.58 C 6.748 13.68 6.888 13.99 6.788 14.26 C 6.708 14.47 6.508 14.61 6.288 14.61 L 6.288 14.62 Z M 2.408 12.85 C 2.328 12.85 2.238 12.83 2.168 12.79 C 1.038 12.21 0.298 11.79 0.268 11.77 C 0.008 11.62 -0.072 11.3 0.068 11.04 C 0.218 10.78 0.538 10.7 0.798 10.84 C 0.798 10.84 1.548 11.27 2.658 11.84 C 2.918 11.97 3.028 12.29 2.888 12.56 C 2.798 12.74 2.608 12.85 2.408 12.85 Z" fill="currentColor" fill-rule="evenodd"></path>
</svg>