<?xml version="1.0" encoding="UTF-8"?>
<svg xmlns="http://www.w3.org/2000/svg" width="34.150" height="28.340" viewBox="0 0 34.150 28.340" fill="none">
  <path d="M 0.347 28.29 C 0.387 28.31 0.487 28.31 0.487 28.31 L 0.477 28.34 C 0.687 28.34 0.877 28.2 0.947 28 C 2.317 23.79 4.047 19.72 6.117 15.81 C 7.787 12.57 9.837 9.54 12.237 6.79 C 14.347 4.23 17.147 2.34 20.297 1.33 C 20.926 1.168 21.565 1.06 22.21 1.011 L 17.907 6.82 C 17.747 7.04 17.787 7.35 18.007 7.52 C 18.097 7.58 18.197 7.61 18.307 7.61 L 18.297 7.62 C 18.457 7.62 18.607 7.55 18.707 7.42 L 22.367 2.47 L 22.367 3.82 C 22.367 4.09 22.587 4.31 22.857 4.31 C 23.127 4.31 23.347 4.09 23.347 3.82 L 23.347 2.499 L 26.967 7.42 C 27.137 7.64 27.437 7.68 27.657 7.52 C 27.877 7.35 27.927 7.04 27.757 6.82 L 23.468 0.99 C 26.704 1.128 30.002 2.754 33.327 5.86 C 33.517 6.05 33.827 6.04 34.017 5.84 C 34.197 5.64 34.197 5.34 33.997 5.15 C 30.337 1.72 26.657 0 23.037 0 C 22.037 0 21.027 0.13 20.057 0.39 C 16.717 1.44 13.747 3.44 11.517 6.14 C 9.067 8.95 6.967 12.04 5.257 15.36 C 3.157 19.32 1.407 23.45 0.017 27.7 C -0.053 27.95 0.097 28.22 0.347 28.29 Z M 23.347 25.38 L 23.347 26.446 L 26.977 22.17 C 27.067 22.06 27.207 22 27.357 22 L 27.357 21.99 C 27.627 21.99 27.847 22.21 27.857 22.48 C 27.857 22.6 27.817 22.72 27.737 22.81 L 23.197 28.15 C 23.107 28.26 22.967 28.32 22.817 28.32 C 22.677 28.32 22.537 28.26 22.437 28.15 L 17.927 22.81 C 17.777 22.58 17.847 22.27 18.077 22.12 C 18.267 22 18.507 22.02 18.677 22.17 L 22.367 26.537 L 22.367 25.38 C 22.367 25.11 22.587 24.89 22.857 24.89 C 23.127 24.89 23.347 25.11 23.347 25.38 Z M 22.367 23.41 C 22.367 23.68 22.587 23.9 22.857 23.9 C 23.127 23.9 23.347 23.68 23.347 23.41 L 23.347 21.45 C 23.347 21.18 23.127 20.96 22.857 20.96 C 22.587 20.96 22.367 21.18 22.367 21.45 L 22.367 23.41 Z M 22.367 19.49 C 22.367 19.76 22.587 19.98 22.857 19.98 C 23.127 19.98 23.347 19.76 23.347 19.49 L 23.347 17.53 C 23.347 17.26 23.127 17.04 22.857 17.04 C 22.587 17.04 22.367 17.26 22.367 17.53 L 22.367 19.49 Z M 22.367 15.57 C 22.367 15.84 22.587 16.06 22.857 16.06 C 23.127 16.06 23.347 15.84 23.347 15.57 L 23.347 13.61 C 23.347 13.34 23.127 13.12 22.857 13.12 C 22.587 13.12 22.367 13.34 22.367 13.61 L 22.367 15.57 Z M 22.367 11.65 C 22.367 11.92 22.587 12.14 22.857 12.14 C 23.127 12.14 23.347 11.92 23.347 11.65 L 23.347 9.69 C 23.347 9.42 23.127 9.2 22.857 9.2 C 22.587 9.2 22.367 9.42 22.367 9.69 L 22.367 11.65 Z M 22.367 7.73 C 22.367 8 22.587 8.22 22.857 8.22 C 23.127 8.22 23.347 8 23.347 7.73 L 23.347 5.77 C 23.347 5.5 23.127 5.28 22.857 5.28 C 22.587 5.28 22.367 5.5 22.367 5.77 L 22.367 7.73 Z" fill="currentColor" fill-rule="evenodd"></path>
</svg>