<?xml version="1.0" encoding="UTF-8"?>
<svg xmlns="http://www.w3.org/2000/svg" width="35.913" height="23.278" viewBox="0 0 35.913 23.278" fill="none">
  <path d="M 14.082 8.19 C 15.412 3.37 19.792 0.01 24.792 0.01 L 24.792 0 C 26.712 0 28.592 0.5 30.262 1.44 C 35.612 4.46 37.492 11.24 34.472 16.58 C 31.452 21.93 24.672 23.81 19.332 20.79 C 19.302 20.82 19.222 20.87 19.222 20.87 L 13.812 23.23 C 13.502 23.36 13.142 23.22 13.012 22.91 C 12.882 22.6 13.022 22.24 13.332 22.11 L 18.152 20.01 C 17.252 19.33 16.452 18.52 15.792 17.61 L 5.862 22.18 C 5.782 22.22 5.702 22.24 5.612 22.24 C 5.372 22.24 5.152 22.1 5.052 21.88 C 4.912 21.57 5.042 21.21 5.352 21.07 L 15.122 16.57 C 13.912 14.48 13.452 12.04 13.792 9.65 L 9.012 11.75 C 8.932 11.78 8.842 11.8 8.762 11.8 C 8.522 11.8 8.302 11.66 8.202 11.44 C 8.062 11.14 8.202 10.78 8.512 10.64 L 14.082 8.19 Z M 14.892 11.19 C 14.912 16.64 19.342 21.04 24.792 21.02 L 24.772 21.02 C 29.262 21.02 33.192 18 34.342 13.66 C 35.742 8.38 32.592 2.97 27.312 1.57 C 22.032 0.17 16.622 3.32 15.222 8.6 C 15.232 8.7 15.202 8.8 15.152 8.89 C 14.982 9.65 14.892 10.42 14.892 11.19 Z M 0.322 18.97 L 11.942 13.65 L 11.942 13.64 C 12.022 14.01 12.112 14.37 12.212 14.72 L 0.782 19.96 C 0.712 19.99 0.632 20.01 0.552 20.01 C 0.332 20.01 0.142 19.89 0.052 19.69 C -0.078 19.42 0.042 19.09 0.322 18.97 Z M 24.784 3.09 C 20.348 3.094 16.752 6.693 16.752 11.13 C 16.752 13.84 18.112 16.36 20.372 17.85 C 20.652 18.03 21.032 17.95 21.212 17.66 C 21.392 17.38 21.312 17.02 21.042 16.83 C 17.892 14.76 17.022 10.53 19.092 7.39 C 21.162 4.24 25.392 3.37 28.532 5.44 C 30.452 6.7 31.602 8.84 31.602 11.13 C 31.602 11.47 31.872 11.74 32.212 11.74 C 32.552 11.74 32.822 11.47 32.822 11.13 C 32.822 6.691 29.223 3.101 24.784 3.09 Z M 24.784 3.09 L 24.782 3.09 L 24.792 3.09 L 24.784 3.09 Z M 22.342 18.68 C 22.342 18.24 22.692 17.89 23.132 17.89 C 23.572 17.89 23.922 18.24 23.922 18.68 C 23.922 19.12 23.572 19.47 23.132 19.47 C 22.692 19.47 22.342 19.12 22.342 18.68 Z" fill="currentColor" fill-rule="evenodd"></path>
</svg>