<?xml version="1.0" encoding="UTF-8"?>
<svg xmlns="http://www.w3.org/2000/svg" width="35.540" height="22.502" viewBox="0 0 35.540 22.502" fill="none">
  <path d="M 4.59 18.672 C 4.59 19.062 4.91 19.382 5.3 19.382 C 5.62 19.382 5.9 19.162 5.98 18.852 C 5.98 18.842 6.25 17.852 6.74 16.352 C 6.85 15.982 6.65 15.592 6.29 15.472 C 5.92 15.342 5.52 15.542 5.39 15.912 C 4.89 17.442 4.62 18.442 4.61 18.482 C 4.59 18.542 4.59 18.612 4.59 18.672 Z M 6.23 13.622 C 6.23 14.012 6.55 14.332 6.94 14.332 C 7.23 14.322 7.5 14.142 7.6 13.862 C 7.91 13.012 8.23 12.192 8.55 11.412 C 8.68 11.062 8.52 10.672 8.18 10.522 C 7.82 10.362 7.4 10.522 7.24 10.882 C 6.91 11.682 6.59 12.522 6.27 13.382 C 6.24 13.462 6.23 13.542 6.23 13.622 Z M 8.965 9.432 L 8.97 9.432 L 8.96 9.432 L 8.965 9.432 Z M 9.6 9.032 C 9.481 9.28 9.233 9.43 8.965 9.432 C 8.577 9.429 8.26 9.11 8.26 8.722 C 8.26 8.622 8.28 8.512 8.33 8.422 C 8.74 7.562 9.15 6.752 9.56 6.022 C 9.76 5.692 10.2 5.582 10.53 5.782 C 10.85 5.972 10.96 6.382 10.79 6.712 C 10.39 7.412 9.99 8.192 9.6 9.032 Z M 24.78 8.722 C 24.9 8.962 25.15 9.122 25.42 9.122 L 25.42 9.112 C 25.53 9.112 25.63 9.092 25.73 9.042 C 26.08 8.882 26.23 8.452 26.06 8.102 C 25.66 7.282 25.21 6.482 24.72 5.712 C 24.715 5.702 24.71 5.694 24.705 5.687 C 24.7 5.679 24.695 5.672 24.69 5.662 C 24.46 5.342 24.02 5.262 23.7 5.492 C 23.38 5.722 23.3 6.162 23.53 6.482 C 23.99 7.202 24.41 7.952 24.78 8.722 Z M 10.88 4.112 C 10.88 4.502 11.2 4.822 11.59 4.822 C 11.81 4.822 12.03 4.712 12.16 4.532 C 12.64 3.842 13.19 3.212 13.8 2.642 C 14.07 2.382 14.09 1.952 13.85 1.672 C 13.6 1.372 13.15 1.342 12.85 1.592 C 12.16 2.232 11.55 2.932 11.01 3.702 C 10.93 3.822 10.88 3.962 10.88 4.112 Z M 22.525 4.682 L 22.53 4.682 L 22.52 4.682 L 22.525 4.682 Z M 22.99 4.502 C 22.861 4.611 22.693 4.68 22.525 4.682 C 22.326 4.68 22.129 4.591 22 4.442 C 21.45 3.812 20.84 3.252 20.16 2.762 C 19.84 2.542 19.75 2.102 19.97 1.782 C 20.19 1.462 20.63 1.372 20.95 1.592 C 20.95 1.592 20.97 1.602 20.98 1.612 C 21.74 2.162 22.43 2.802 23.05 3.502 C 23.31 3.792 23.28 4.242 22.99 4.502 Z M 18.02 1.682 C 18.08 1.702 18.15 1.712 18.22 1.712 L 18.23 1.702 L 18.24 1.702 C 18.55 1.702 18.82 1.502 18.91 1.202 C 19.02 0.832 18.81 0.432 18.44 0.322 C 17.83 0.132 17.19 0.032 16.55 0.002 C 16.18 -0.008 15.81 0.022 15.45 0.112 C 15.09 0.212 14.86 0.572 14.94 0.942 C 15.02 1.322 15.4 1.572 15.78 1.492 C 16.01 1.442 16.25 1.422 16.49 1.422 C 17.01 1.442 17.52 1.532 18.02 1.682 Z M 0.88 22.502 L 34.66 22.502 C 35.14 22.502 35.54 22.102 35.54 21.622 C 35.54 21.142 35.15 20.742 34.66 20.742 L 0.88 20.742 C 0.4 20.742 0 21.142 0 21.622 C 0 22.102 0.39 22.502 0.88 22.502 Z M 28.92 13.672 C 27.91 13.672 27.09 14.492 27.09 15.502 C 27.09 16.512 27.91 17.332 28.92 17.332 C 29.93 17.332 30.75 16.512 30.75 15.502 C 30.75 14.492 29.93 13.672 28.92 13.672 Z M 28.92 12.262 C 30.71 12.262 32.17 13.712 32.17 15.512 C 32.17 17.312 30.72 18.762 28.92 18.762 C 27.12 18.762 25.67 17.312 25.67 15.512 C 25.67 13.722 27.12 12.262 28.92 12.262 Z M 23.14 8.592 C 22.97 8.522 22.77 8.522 22.6 8.602 L 22.6 8.612 C 22.43 8.682 22.3 8.832 22.23 9.002 C 22.09 9.372 22.28 9.782 22.64 9.922 L 25.96 11.192 C 26.32 11.332 26.73 11.142 26.87 10.782 L 28.14 7.462 C 28.25 7.112 28.08 6.742 27.75 6.592 C 27.4 6.432 26.98 6.592 26.82 6.952 L 25.8 9.612 L 23.14 8.592 Z" fill="currentColor" fill-rule="evenodd"></path>
</svg>