<?xml version="1.0" encoding="UTF-8"?>
<svg xmlns="http://www.w3.org/2000/svg" width="38.714" height="29.679" viewBox="0 0 38.714 29.679" fill="none">
  <path d="M 37.749 3.559 C 37.899 3.329 38.219 3.259 38.449 3.409 L 38.439 3.419 C 38.709 3.619 38.789 3.979 38.639 4.279 L 29.849 21.929 C 29.239 23.949 27.419 25.359 25.309 25.449 L 25.229 25.449 L 21.039 25.369 C 21.029 25.379 20.999 25.399 20.999 25.399 L 12.399 29.629 C 12.339 29.659 12.259 29.679 12.189 29.679 C 11.959 29.659 11.759 29.509 11.689 29.289 C 11.569 28.979 11.689 28.629 11.979 28.459 L 18.379 25.299 L 17.699 25.299 C 16.649 25.269 15.639 24.889 14.839 24.199 C 14.789 24.269 14.719 24.329 14.639 24.369 L 6.199 28.529 C 6.139 28.559 6.059 28.579 5.989 28.579 C 5.759 28.569 5.559 28.409 5.489 28.189 C 5.369 27.879 5.489 27.529 5.779 27.359 L 14.009 23.299 C 13.629 22.789 13.329 22.219 13.119 21.619 C 12.629 20.239 12.339 18.789 12.259 17.319 L 8.199 19.239 C 8.139 19.269 8.069 19.289 7.999 19.289 C 7.769 19.279 7.569 19.119 7.499 18.899 C 7.379 18.589 7.509 18.239 7.799 18.079 L 12.279 15.959 C 12.319 15.209 12.439 14.469 12.619 13.739 C 12.949 12.269 13.849 10.999 15.129 10.209 C 16.319 9.439 17.819 9.319 19.119 9.899 L 26.989 13.359 C 27.749 13.689 28.409 14.199 28.929 14.849 L 36.169 0.309 C 36.179 0.279 36.189 0.259 36.209 0.229 C 36.359 -0.001 36.669 -0.071 36.909 0.079 C 37.179 0.279 37.259 0.639 37.109 0.939 L 29.029 17.169 L 28.539 16.319 C 28.099 15.529 27.419 14.909 26.599 14.539 L 18.729 11.079 C 17.719 10.629 16.559 10.729 15.629 11.329 C 14.629 11.939 13.919 12.939 13.659 14.089 C 13.109 16.439 13.269 18.899 14.129 21.159 C 14.589 22.779 16.029 23.939 17.719 24.029 L 25.259 24.179 C 26.949 24.119 28.409 22.989 28.889 21.369 L 37.709 3.639 C 37.719 3.609 37.729 3.589 37.749 3.559 Z M 0.339 25.789 L 11.509 21.099 L 11.509 21.109 C 11.519 21.143 11.529 21.176 11.538 21.209 C 11.629 21.518 11.722 21.834 11.839 22.159 L 0.759 26.809 C 0.689 26.829 0.619 26.849 0.549 26.849 C 0.329 26.849 0.129 26.709 0.039 26.509 C -0.071 26.229 0.059 25.909 0.339 25.789 Z" fill="currentColor" fill-rule="evenodd"></path>
</svg>