<?xml version="1.0" encoding="UTF-8"?>
<svg xmlns="http://www.w3.org/2000/svg" width="44.806" height="37.890" viewBox="0 0 44.806 37.890" fill="none">
  <path d="M 24.946 37.88 C 24.656 37.88 24.416 37.64 24.416 37.35 L 24.416 35.535 C 24.07 35.215 23.618 35.026 23.146 35.01 C 22.709 35.072 22.304 35.278 22.002 35.591 L 22.046 37.34 C 22.046 37.63 21.816 37.88 21.526 37.89 L 21.516 37.89 L 21.516 37.88 C 21.226 37.88 20.986 37.65 20.986 37.36 L 20.937 35.438 C 20.935 35.413 20.934 35.388 20.935 35.363 L 20.845 31.799 C 20.819 31.71 20.817 31.616 20.838 31.527 L 20.776 29.05 C 20.766 28.61 20.826 28.16 20.976 27.74 L 22.076 24.45 C 22.316 23.75 22.426 23.01 22.396 22.27 C 22.39 21.995 22.379 21.681 22.364 21.337 C 21.793 21.604 21.173 21.75 20.526 21.75 C 18.105 21.75 16.082 19.716 15.479 16.95 L 1.606 16.95 C 1.306 16.95 1.076 16.71 1.076 16.42 C 1.076 16.13 1.316 15.89 1.606 15.89 L 15.322 15.89 C 15.305 15.673 15.296 15.452 15.296 15.23 C 15.296 14.29 15.456 13.396 15.744 12.589 C 11.144 11.094 6.453 9.873 1.71 8.918 L 2.556 10.22 C 2.716 10.47 2.646 10.8 2.406 10.96 C 2.316 11.02 2.216 11.05 2.116 11.05 L 2.106 11.03 C 1.926 11.03 1.756 10.94 1.656 10.79 L 0.086 8.38 C -0.074 8.13 -0.004 7.8 0.246 7.64 L 2.666 6.07 C 2.916 5.91 3.246 5.98 3.406 6.23 C 3.566 6.48 3.496 6.81 3.246 6.97 L 1.866 7.866 C 6.703 8.832 11.487 10.085 16.178 11.609 C 17.118 9.861 18.717 8.71 20.526 8.71 C 21.067 8.71 21.59 8.813 22.081 9.003 C 22.082 6.947 22.477 4.911 23.246 2.99 C 24.576 0.48 27.566 -0.64 30.226 0.37 C 32.306 0.97 33.506 3.15 32.906 5.23 C 32.906 5.25 32.896 5.27 32.886 5.29 L 30.513 15.89 L 44.276 15.89 C 44.576 15.89 44.806 16.13 44.806 16.42 C 44.806 16.71 44.566 16.95 44.276 16.95 L 44.266 16.95 L 31.662 16.95 C 31.661 17.003 31.653 17.057 31.636 17.11 C 31.566 17.33 31.356 17.47 31.126 17.47 C 31.066 17.47 31.006 17.47 30.956 17.44 L 30.222 17.191 L 28.696 24.01 C 28.526 24.77 28.226 25.5 27.806 26.15 L 25.726 29.44 C 25.566 29.69 25.486 29.98 25.486 30.27 L 25.486 31.465 C 25.529 31.583 25.53 31.716 25.486 31.836 L 25.486 35.191 C 25.543 35.324 25.542 35.475 25.486 35.607 L 25.486 37.35 C 25.486 37.64 25.256 37.88 24.956 37.88 L 24.946 37.88 Z M 29.182 16.95 L 27.656 23.77 C 27.516 24.41 27.256 25.03 26.906 25.58 L 24.826 28.87 C 24.556 29.29 24.416 29.78 24.416 30.28 L 24.416 30.728 C 23.599 30.42 22.692 30.427 21.879 30.75 L 21.836 29.03 C 21.826 28.71 21.876 28.39 21.976 28.09 L 23.076 24.8 C 23.356 23.98 23.486 23.11 23.456 22.24 C 23.448 22.047 23.441 21.838 23.433 21.613 L 23.433 21.612 L 23.432 21.612 L 23.432 21.608 L 23.432 21.608 C 23.422 21.322 23.411 21.013 23.398 20.683 C 24.452 19.821 25.241 18.499 25.581 16.95 L 29.182 16.95 Z M 29.419 15.89 L 31.846 5.05 C 31.876 4.92 32.496 2.06 29.946 1.4 C 27.746 0.51 25.236 1.44 24.156 3.55 C 23.416 5.475 23.072 7.536 23.158 9.594 C 24.716 10.727 25.766 12.831 25.766 15.23 C 25.766 15.452 25.757 15.673 25.739 15.89 L 29.419 15.89 Z M 24.737 15.89 C 24.741 15.675 24.731 15.458 24.706 15.24 C 25.006 12.59 23.166 10.18 20.526 9.78 C 17.896 10.19 16.066 12.6 16.366 15.24 C 16.341 15.458 16.331 15.675 16.334 15.89 L 24.737 15.89 Z M 24.601 16.95 L 16.468 16.95 C 16.921 18.853 18.481 20.379 20.526 20.69 C 22.57 20.379 24.143 18.853 24.601 16.95 Z M 24.416 31.921 L 24.416 34.272 C 24.001 34.067 23.539 33.96 23.066 33.96 C 22.677 33.999 22.306 34.113 21.969 34.292 L 21.909 31.93 C 22.68 31.473 23.642 31.47 24.416 31.921 Z M 43.016 21.68 C 43.076 21.7 43.146 21.71 43.206 21.71 L 43.196 21.72 C 43.416 21.71 43.616 21.58 43.696 21.37 C 43.806 21.09 43.666 20.78 43.386 20.68 C 43.382 20.68 43.296 20.648 43.136 20.589 C 42.819 20.472 42.212 20.248 41.376 19.95 C 41.106 19.86 40.816 20 40.716 20.26 C 40.606 20.53 40.746 20.84 41.016 20.95 C 42.276 21.4 43.016 21.68 43.016 21.68 Z M 39.191 20.26 L 39.196 20.26 L 39.186 20.26 L 39.191 20.26 Z M 39.696 19.9 C 39.616 20.118 39.419 20.258 39.191 20.26 C 39.132 20.259 39.074 20.249 39.016 20.23 L 37.006 19.52 C 36.726 19.42 36.586 19.12 36.676 18.84 C 36.766 18.56 37.076 18.42 37.356 18.51 L 39.366 19.22 C 39.646 19.32 39.786 19.62 39.696 19.9 Z M 34.996 18.82 C 35.046 18.84 35.106 18.85 35.166 18.85 L 35.176 18.85 C 35.396 18.85 35.606 18.7 35.676 18.49 C 35.766 18.21 35.626 17.91 35.346 17.81 L 33.326 17.11 C 33.046 17.02 32.756 17.17 32.656 17.44 C 32.556 17.72 32.696 18.02 32.976 18.12 L 34.996 18.82 Z" fill="currentColor" fill-rule="evenodd"></path>
</svg>