<?xml version="1.0" encoding="UTF-8"?>
<svg xmlns="http://www.w3.org/2000/svg" width="27.220" height="25.493" viewBox="0 0 27.220 25.493" fill="none">
  <path d="M 16.625 10.533 C 16.627 10.533 16.628 10.533 16.63 10.533 L 16.62 10.533 C 16.621 10.533 16.623 10.533 16.625 10.533 Z M 16.26 10.363 C 16.349 10.472 16.487 10.532 16.625 10.533 C 16.743 10.532 16.861 10.492 16.95 10.413 C 17.16 10.243 17.18 9.923 17 9.723 C 16.65 9.313 16.32 8.873 16.02 8.463 C 15.86 8.243 15.55 8.193 15.33 8.353 C 15.11 8.513 15.06 8.823 15.22 9.043 C 15.54 9.473 15.88 9.923 16.26 10.363 Z M 14.26 7.723 C 14.35 7.853 14.49 7.923 14.65 7.923 L 14.65 7.933 C 14.76 7.933 14.87 7.893 14.95 7.823 C 15.17 7.653 15.21 7.353 15.05 7.133 C 14.68 6.653 14.35 6.243 14.01 5.833 C 13.84 5.623 13.53 5.593 13.32 5.773 C 13.11 5.943 13.08 6.253 13.26 6.463 C 13.59 6.853 13.91 7.253 14.26 7.723 Z M 12.18 5.283 C 12.27 5.383 12.4 5.433 12.53 5.433 L 12.54 5.433 C 12.67 5.433 12.79 5.383 12.88 5.293 C 13.07 5.113 13.07 4.793 12.88 4.603 C 12.51 4.213 12.1 3.823 11.68 3.443 C 11.48 3.263 11.17 3.283 10.99 3.483 C 10.8 3.683 10.82 3.993 11.02 4.173 C 11.43 4.533 11.82 4.913 12.18 5.283 Z M 0.2 3.243 C 0.28 3.303 0.38 3.343 0.49 3.343 L 0.49 3.333 C 0.65 3.343 0.8 3.263 0.89 3.133 C 1.11 2.833 1.35 2.553 1.61 2.293 C 1.81 2.093 1.8 1.783 1.61 1.593 C 1.42 1.403 1.11 1.403 0.92 1.593 C 0.62 1.893 0.35 2.213 0.1 2.553 C -0.06 2.773 -0.02 3.083 0.2 3.243 Z M 9.8 3.123 C 9.89 3.193 9.99 3.233 10.1 3.233 C 10.25 3.233 10.4 3.163 10.49 3.043 C 10.66 2.833 10.62 2.523 10.41 2.353 C 9.97 2.003 9.51 1.673 9.03 1.373 C 8.8 1.233 8.49 1.303 8.35 1.533 C 8.21 1.763 8.28 2.073 8.51 2.213 C 8.95 2.493 9.39 2.793 9.8 3.123 Z M 7.13 1.483 C 7.19 1.513 7.25 1.523 7.32 1.523 L 7.32 1.533 C 7.51 1.533 7.69 1.413 7.77 1.233 C 7.87 0.993 7.76 0.703 7.51 0.593 C 6.98 0.353 6.42 0.183 5.85 0.073 C 5.59 0.023 5.33 0.193 5.28 0.463 C 5.23 0.723 5.4 0.983 5.67 1.033 C 6.17 1.123 6.66 1.283 7.13 1.483 Z M 2.14 1.203 C 2.23 1.363 2.4 1.463 2.58 1.463 L 2.58 1.483 C 2.66 1.483 2.74 1.463 2.81 1.423 C 3.25 1.193 3.72 1.043 4.2 0.983 C 4.46 0.953 4.65 0.703 4.62 0.433 C 4.59 0.163 4.34 -0.027 4.07 0.003 C 3.47 0.073 2.89 0.263 2.35 0.543 C 2.11 0.663 2.01 0.963 2.14 1.203 Z M 19.28 11.243 C 18.03 11.243 17.03 12.253 17.03 13.503 C 17.03 14.753 18.04 15.753 19.29 15.753 C 20.54 15.753 21.54 14.743 21.54 13.503 C 21.54 12.253 20.53 11.253 19.28 11.253 L 19.28 11.243 Z M 19.28 10.273 C 21.07 10.273 22.52 11.723 22.52 13.513 C 22.52 15.303 21.07 16.753 19.28 16.753 C 17.49 16.753 16.04 15.303 16.04 13.513 C 16.04 11.723 17.49 10.273 19.28 10.273 Z M 26.73 25.493 L 21.542 25.493 L 21.54 25.493 L 0.49 25.493 C 0.22 25.493 0 25.273 0 25.003 C 0 24.733 0.22 24.513 0.49 24.513 L 20.836 24.513 C 20.617 23.687 20.689 22.807 21.05 22.013 C 21.508 21.234 22.192 20.622 23.003 20.257 C 22.889 20.034 22.955 19.763 23.17 19.623 C 23.4 19.473 23.7 19.533 23.85 19.763 L 24.75 21.133 C 24.9 21.363 24.84 21.663 24.61 21.813 C 24.53 21.863 24.44 21.893 24.34 21.893 C 24.18 21.893 24.02 21.813 23.93 21.673 L 23.549 21.093 C 22.878 21.36 22.309 21.84 21.92 22.463 C 21.642 23.114 21.621 23.847 21.861 24.513 L 25.839 24.513 C 25.801 24.482 25.767 24.445 25.74 24.403 L 24.84 23.033 C 24.69 22.803 24.75 22.503 24.98 22.353 C 25.21 22.203 25.51 22.263 25.66 22.493 L 26.56 23.863 C 26.701 24.079 26.657 24.356 26.461 24.513 L 26.73 24.513 C 27 24.513 27.22 24.733 27.22 25.003 C 27.22 25.273 27 25.493 26.73 25.493 Z M 22.12 18.943 C 22.21 19.083 22.37 19.163 22.53 19.163 C 22.63 19.163 22.72 19.133 22.8 19.083 C 23.03 18.933 23.09 18.633 22.94 18.403 L 22.04 17.033 C 21.89 16.803 21.59 16.743 21.36 16.893 C 21.13 17.043 21.07 17.343 21.22 17.573 L 22.12 18.943 Z" fill="currentColor" fill-rule="evenodd"></path>
</svg>