<?xml version="1.0" encoding="UTF-8"?>
<svg xmlns="http://www.w3.org/2000/svg" width="32.540" height="23.672" viewBox="0 0 32.540 23.672" fill="none">
  <path d="M 32.19 22.912 L 27.07 22.912 C 27.07 20.752 26.72 18.602 26.05 16.542 C 25.98 16.332 25.76 16.222 25.56 16.292 C 25.35 16.362 25.24 16.582 25.31 16.782 C 25.95 18.762 26.28 20.822 26.29 22.902 L 15.73 22.902 C 15.73 22.902 15.8 22.832 15.83 22.782 C 16.05 22.412 16.05 21.952 15.83 21.572 C 15.806 21.512 15.674 21.196 15.479 20.73 L 15.478 20.728 C 15.349 20.419 15.192 20.043 15.02 19.632 L 16.18 19.312 C 17.02 21.292 19.31 22.212 21.29 21.372 C 23.03 20.632 23.99 18.742 23.55 16.902 L 30.08 14.842 L 29.93 15.102 C 29.82 15.292 29.89 15.532 30.07 15.632 C 30.25 15.732 30.5 15.672 30.6 15.492 L 31.42 14.062 L 29.99 13.242 C 29.8 13.132 29.56 13.202 29.46 13.382 C 29.36 13.562 29.42 13.812 29.6 13.912 L 29.88 14.072 L 23.28 16.152 C 22.38 14.192 20.06 13.342 18.11 14.242 C 16.46 15.002 15.56 16.792 15.92 18.562 L 14.7 18.902 C 14.66 18.802 14.62 18.702 14.57 18.592 C 14.77 18.162 14.91 17.712 14.98 17.242 C 15.06 16.392 15.17 10.822 15.17 10.532 C 15.15 10.372 15.08 10.222 14.99 10.102 L 15.17 0.402 C 15.17 0.182 15 0.012 14.79 0.002 C 14.59 -0.018 14.41 0.142 14.39 0.342 L 14.39 0.382 L 14.22 9.582 C 14.06 9.532 13.89 9.512 13.73 9.502 L 13.73 9.502 C 13.61 9.502 13.48 9.502 13.36 9.522 L 13.53 0.402 C 13.53 0.182 13.36 0.012 13.15 0.002 C 12.95 -0.018 12.77 0.132 12.75 0.342 L 12.75 0.392 L 12.57 9.962 C 12.43 10.142 12.35 10.352 12.33 10.572 C 12.33 10.572 12.27 12.002 12.19 13.482 C 11.8 13.152 11.28 13.042 10.79 13.192 C 10 13.422 5.03 16.082 3.73 18.672 C 3.38 19.282 3.3 20.012 3.52 20.682 C 3.68 21.102 3.92 21.492 4.23 21.812 L 0.28 22.912 C 0.28 22.912 0.27 22.912 0.26 22.922 C 0.24 22.922 0.21 22.942 0.19 22.962 C 0.18 22.967 0.17 22.974 0.16 22.982 L 0.16 22.982 L 0.16 22.982 C 0.15 22.989 0.14 22.997 0.13 23.002 C 0.12 23.012 0.113 23.022 0.105 23.032 C 0.098 23.042 0.09 23.052 0.08 23.062 C 0.06 23.082 0.05 23.102 0.04 23.122 L 0.04 23.122 C 0.04 23.131 0.036 23.14 0.032 23.15 C 0.026 23.162 0.02 23.175 0.02 23.192 C 0.02 23.216 0.014 23.233 0.006 23.254 L 0 23.272 L 0 23.292 C 0 23.292 0 23.332 0.01 23.342 C 0.016 23.348 0.015 23.359 0.012 23.371 C 0.011 23.378 0.01 23.385 0.01 23.392 L 0.01 23.402 C 0.03 23.472 0.08 23.532 0.13 23.582 C 0.135 23.582 0.14 23.587 0.145 23.592 L 0.145 23.592 L 0.145 23.592 C 0.15 23.597 0.155 23.602 0.16 23.602 C 0.22 23.642 0.3 23.672 0.37 23.672 L 32.15 23.672 C 32.37 23.672 32.54 23.492 32.54 23.282 C 32.54 23.072 32.36 22.892 32.15 22.892 L 32.19 22.912 Z M 19.76 14.652 C 21.48 14.652 22.88 16.052 22.88 17.772 C 22.88 19.492 21.48 20.892 19.76 20.892 C 18.04 20.892 16.64 19.492 16.64 17.772 C 16.64 16.042 18.04 14.652 19.76 14.642 L 19.76 14.652 Z M 5.95 22.922 L 3.28 22.922 L 4.99 22.442 C 5.29 22.632 5.61 22.792 5.95 22.922 Z M 13.02 14.712 C 13 14.642 12.97 14.572 12.94 14.502 L 12.94 14.472 C 12.955 14.212 12.97 13.942 12.985 13.672 L 12.985 13.672 L 12.985 13.672 C 13 13.402 13.015 13.132 13.03 12.872 C 13.45 12.652 13.95 12.652 14.37 12.872 C 14.33 14.582 14.27 16.732 14.23 17.202 C 14.21 17.322 14.19 17.432 14.15 17.542 L 14.112 17.448 L 14.112 17.448 C 13.607 16.205 13.147 15.072 13.02 14.702 L 13.02 14.712 Z M 14.42 10.612 C 14.42 10.612 14.41 11.222 14.39 12.042 C 13.96 11.902 13.5 11.902 13.07 12.032 C 13.11 11.222 13.13 10.642 13.13 10.632 C 13.13 10.532 13.22 10.302 13.72 10.322 C 14.251 10.339 14.378 10.561 14.404 10.606 C 14.409 10.614 14.41 10.616 14.41 10.612 L 14.42 10.612 Z M 4.45 19.052 C 5.62 16.722 10.4 14.152 11.03 13.972 C 11.1 13.952 11.18 13.942 11.25 13.942 C 11.94 13.942 12.26 14.912 12.27 14.962 C 12.43 15.432 13.13 17.162 13.8 18.782 C 14.44 20.332 15.05 21.792 15.11 21.922 C 15.21 22.132 15.22 22.292 15.16 22.392 C 14.89 22.812 13.4 22.812 12.5 22.812 L 12.08 22.812 C 10.75 22.812 9.41 22.762 8.09 22.642 C 5.94 22.352 4.72 21.652 4.27 20.442 C 4.12 19.972 4.19 19.472 4.44 19.052 L 4.45 19.052 Z M 18.42 19.782 C 18.52 19.822 18.64 19.772 18.68 19.672 C 18.71 19.602 18.69 19.512 18.64 19.462 C 17.7 18.842 17.44 17.582 18.06 16.642 C 18.68 15.702 19.94 15.442 20.88 16.062 C 21.45 16.442 21.8 17.082 21.8 17.772 C 21.82 17.882 21.93 17.952 22.04 17.922 C 22.12 17.902 22.18 17.842 22.19 17.772 C 22.19 16.432 21.1 15.342 19.76 15.342 C 18.42 15.342 17.33 16.432 17.33 17.772 C 17.33 18.592 17.74 19.352 18.42 19.802 L 18.42 19.782 Z M 19.19 19.992 C 19.19 19.822 19.32 19.692 19.49 19.692 C 19.66 19.692 19.79 19.822 19.79 19.992 C 19.79 20.162 19.66 20.292 19.49 20.292 C 19.32 20.292 19.19 20.162 19.19 19.992 Z" fill="currentColor" fill-rule="evenodd"></path>
</svg>