<?xml version="1.0" encoding="UTF-8"?>
<svg xmlns="http://www.w3.org/2000/svg" width="30.811" height="26.029" viewBox="0 0 30.811 26.029" fill="none">
  <path d="M 15.918 1.371 C 15.918 1.621 15.708 1.831 15.448 1.831 L 15.448 1.841 C 15.198 1.841 14.988 1.631 14.988 1.371 L 14.988 0.441 C 14.998 0.201 15.188 0.011 15.428 0.001 C 15.688 -0.019 15.908 0.181 15.918 0.441 L 15.918 1.371 Z M 15.919 4.931 C 15.919 5.181 15.709 5.391 15.449 5.391 L 15.439 5.401 C 15.179 5.401 14.979 5.191 14.979 4.931 L 14.979 3.151 L 14.979 3.111 C 14.989 2.861 15.209 2.661 15.469 2.671 C 15.719 2.681 15.919 2.901 15.909 3.161 L 15.909 3.741 C 15.989 3.671 16.099 3.631 16.209 3.631 L 21.149 3.661 L 20.809 3.291 C 20.805 3.288 20.801 3.285 20.796 3.281 C 20.787 3.275 20.779 3.268 20.779 3.261 C 20.609 3.061 20.639 2.771 20.839 2.601 C 21.039 2.431 21.339 2.461 21.499 2.661 L 22.589 3.861 C 22.669 3.951 22.709 4.071 22.709 4.191 C 22.699 4.311 22.649 4.431 22.559 4.511 L 21.359 5.601 C 21.179 5.751 20.909 5.741 20.739 5.571 C 20.559 5.391 20.559 5.091 20.739 4.911 L 21.099 4.581 L 16.209 4.551 C 16.109 4.541 15.999 4.501 15.919 4.431 L 15.919 4.931 Z M 15.448 8.951 C 15.708 8.951 15.918 8.741 15.918 8.481 L 15.918 6.701 C 15.908 6.441 15.688 6.241 15.428 6.261 C 15.188 6.271 14.998 6.461 14.988 6.701 L 14.988 8.481 C 14.988 8.741 15.198 8.941 15.448 8.951 Z M 15.918 15.601 C 15.918 15.861 15.708 16.071 15.448 16.071 C 15.198 16.071 14.988 15.871 14.988 15.611 L 14.988 13.831 C 14.998 13.591 15.188 13.401 15.428 13.391 C 15.688 13.371 15.908 13.571 15.918 13.831 L 15.918 15.601 Z M 15.448 12.511 C 15.708 12.511 15.918 12.301 15.918 12.051 L 15.918 10.271 C 15.908 10.011 15.688 9.811 15.428 9.831 C 15.188 9.841 14.998 10.031 14.988 10.271 L 14.988 12.051 C 14.988 12.311 15.198 12.521 15.448 12.521 L 15.448 12.511 Z M 29.968 1.401 C 30.108 1.181 30.388 1.111 30.608 1.251 L 30.588 1.261 C 30.808 1.391 30.878 1.681 30.738 1.901 L 15.788 25.821 C 15.748 25.881 15.708 25.921 15.648 25.961 L 15.638 25.961 C 15.488 26.051 15.308 26.051 15.168 25.961 L 15.158 25.961 C 15.098 25.921 15.058 25.871 15.018 25.811 L 0.068 1.901 C -0.062 1.681 -0.002 1.411 0.208 1.271 C 0.428 1.131 0.718 1.191 0.858 1.401 L 15.098 24.191 C 15.128 23.881 15.168 23.521 15.218 23.121 C 15.068 23.041 14.978 22.891 14.978 22.721 L 14.978 20.941 C 14.978 20.691 15.188 20.481 15.448 20.481 C 15.508 20.481 15.568 20.491 15.618 20.511 C 15.667 20.228 15.722 19.938 15.779 19.641 C 15.792 19.572 15.805 19.502 15.818 19.431 C 15.728 19.551 15.598 19.621 15.448 19.621 C 15.198 19.621 14.988 19.411 14.988 19.151 L 14.988 17.371 L 14.988 17.331 C 14.998 17.081 15.218 16.881 15.478 16.891 C 15.728 16.901 15.928 17.121 15.918 17.381 L 15.918 18.941 C 16.948 13.901 19.048 7.251 23.218 4.111 C 23.418 3.951 23.718 3.991 23.868 4.201 C 24.028 4.401 23.988 4.701 23.778 4.851 C 18.488 8.821 16.658 19.241 16.118 23.551 L 29.968 1.401 Z" fill="currentColor" fill-rule="evenodd"></path>
</svg>