<?xml version="1.0" encoding="UTF-8"?>
<svg xmlns="http://www.w3.org/2000/svg" width="30.810" height="36.960" viewBox="0 0 30.810 36.960" fill="none">
  <path d="M 5.243 23.337 C 4.702 23.717 4.042 23.94 3.33 23.94 C 1.49 23.94 0 22.45 0 20.61 C 0 18.77 1.49 17.28 3.33 17.28 C 5.17 17.28 6.66 18.77 6.66 20.61 C 6.66 21.363 6.411 22.057 5.99 22.614 C 9.156 24.559 12.13 28.865 14.057 32.117 C 13.441 30.085 12.629 27.555 11.69 24.96 C 9.277 18.312 6.96 13.846 4.925 11.874 C 4.452 12.133 3.908 12.28 3.33 12.28 C 1.49 12.28 0 10.79 0 8.95 C 0 7.11 1.49 5.62 3.33 5.62 C 5.17 5.62 6.66 7.11 6.66 8.95 C 6.66 9.846 6.306 10.66 5.731 11.258 C 9.793 15.372 13.586 26.933 15.32 32.808 L 15.32 32.73 C 15.32 32.45 15.55 32.23 15.82 32.23 C 16.09 32.23 16.32 32.46 16.32 32.73 L 16.32 32.789 C 18.006 27.08 21.62 16.058 25.537 11.655 C 25.818 11.857 26.131 12.017 26.468 12.124 C 24.491 14.206 22.26 18.588 19.94 24.98 C 19.002 27.572 18.193 30.098 17.577 32.127 C 19.401 29.05 22.158 25.035 25.127 22.968 C 24.523 22.365 24.15 21.531 24.15 20.61 C 24.15 18.77 25.64 17.28 27.48 17.28 C 29.32 17.28 30.81 18.77 30.81 20.61 C 30.81 22.45 29.32 23.94 27.48 23.94 C 26.946 23.94 26.442 23.815 25.995 23.592 C 21.027 26.779 16.315 36.562 16.27 36.67 C 16.19 36.85 16.01 36.96 15.82 36.96 L 15.82 36.95 L 15.82 36.95 L 15.82 36.94 L 15.82 36.94 C 15.744 36.94 15.673 36.924 15.609 36.895 C 15.567 36.876 15.527 36.851 15.491 36.82 C 15.427 36.767 15.378 36.699 15.348 36.625 C 15.069 36.054 10.23 26.178 5.243 23.337 Z M 15.82 29.21 C 15.54 29.21 15.32 28.99 15.32 28.71 L 15.32 24.68 C 15.32 24.4 15.55 24.18 15.82 24.18 C 16.09 24.18 16.32 24.41 16.32 24.68 L 16.32 28.71 C 16.32 28.99 16.1 29.21 15.82 29.21 Z M 15.82 21.15 C 15.54 21.15 15.32 20.93 15.32 20.65 L 15.32 16.62 C 15.32 16.34 15.55 16.12 15.82 16.12 C 16.09 16.12 16.32 16.35 16.32 16.62 L 16.32 20.65 C 16.32 20.93 16.1 21.15 15.82 21.15 Z M 15.82 13.09 C 15.54 13.09 15.32 12.87 15.32 12.59 L 15.32 8.56 C 15.32 8.28 15.55 8.06 15.82 8.06 C 16.09 8.06 16.32 8.29 16.32 8.56 L 16.32 12.59 C 16.32 12.87 16.1 13.09 15.82 13.09 Z M 15.82 5.03 C 15.54 5.03 15.32 4.81 15.32 4.53 L 15.32 0.5 C 15.32 0.22 15.55 0 15.82 0 C 16.09 0 16.32 0.23 16.32 0.5 L 16.32 4.53 C 16.32 4.81 16.1 5.03 15.82 5.03 Z M 3.33 6.63 C 2.05 6.63 1.01 7.67 1.01 8.95 C 1.01 10.23 2.05 11.27 3.33 11.27 C 4.61 11.27 5.65 10.23 5.65 8.95 C 5.65 7.67 4.61 6.63 3.33 6.63 Z M 3.33 18.29 C 2.05 18.29 1.01 19.33 1.01 20.61 C 1.01 21.89 2.05 22.93 3.33 22.93 C 4.61 22.93 5.65 21.89 5.65 20.61 C 5.65 19.33 4.61 18.29 3.33 18.29 Z M 25.16 20.61 C 25.16 19.33 26.2 18.29 27.48 18.29 C 28.76 18.29 29.8 19.33 29.8 20.61 C 29.8 21.89 28.76 22.93 27.48 22.93 C 26.2 22.93 25.16 21.89 25.16 20.61 Z M 27.48 6.63 C 26.2 6.63 25.16 7.67 25.16 8.95 C 25.16 10.23 26.2 11.27 27.48 11.27 C 28.76 11.27 29.8 10.23 29.8 8.95 C 29.8 7.67 28.76 6.63 27.48 6.63 Z M 27.48 5.62 C 29.32 5.62 30.81 7.11 30.81 8.95 C 30.81 10.79 29.32 12.28 27.48 12.28 C 25.64 12.28 24.15 10.79 24.15 8.95 C 24.15 7.11 25.64 5.62 27.48 5.62 Z" fill="currentColor" fill-rule="evenodd"></path>
</svg>