<?xml version="1.0" encoding="UTF-8"?>
<svg xmlns="http://www.w3.org/2000/svg" width="17.049" height="36.881" viewBox="0 0 17.049 36.881" fill="none">
  <path d="M 0 36.4 C 0.005 36.525 0.056 36.635 0.137 36.717 C 0.21 36.799 0.311 36.857 0.43 36.87 L 0.506 36.87 L 0.51 36.87 L 0.51 36.88 L 0.52 36.88 L 0.52 36.88 C 0.76 36.89 0.97 36.73 1.02 36.5 C 1.07 36.25 6.29 11.19 16.64 9.32 L 16.67 9.32 C 16.92 9.27 17.09 9.03 17.04 8.78 C 16.98 8.55 16.77 8.4 16.54 8.4 L 16.44 8.4 C 13.84 8.86 11.36 10.66 9.06 13.72 C 6.97 16.65 5.27 19.84 4 23.2 C 2.842 26.154 1.848 29.17 1.02 32.232 L 1.02 30.71 C 1.01 30.44 0.78 30.24 0.51 30.24 C 0.24 30.23 0 30.44 0 30.71 L 0 32.61 C 0.01 32.88 0.24 33.08 0.51 33.08 L 0.51 33.07 C 0.625 33.075 0.734 33.039 0.822 32.976 C 0.731 33.327 0.641 33.679 0.554 34.032 C 0.539 34.031 0.525 34.03 0.51 34.03 C 0.24 34.02 0 34.23 0 34.5 L 0 36.4 Z M 0 28.82 C 0.01 29.09 0.24 29.29 0.51 29.29 C 0.78 29.3 1.02 29.09 1.02 28.82 L 1.02 26.92 C 1.01 26.65 0.78 26.45 0.51 26.45 C 0.24 26.44 0 26.65 0 26.92 L 0 28.82 Z M 0 25.04 C 0.01 25.31 0.24 25.51 0.51 25.51 C 0.78 25.52 1.02 25.31 1.02 25.04 L 1.02 23.14 C 1.01 22.87 0.78 22.67 0.51 22.67 C 0.24 22.66 0 22.87 0 23.14 L 0 25.04 Z M 0 21.26 C 0.01 21.53 0.24 21.73 0.51 21.73 C 0.78 21.74 1.01 21.53 1.02 21.26 L 1.02 19.36 C 1.01 19.09 0.78 18.89 0.51 18.89 C 0.24 18.88 0.01 19.09 0 19.36 L 0 21.26 Z M 0 17.48 C 0.01 17.75 0.24 17.95 0.51 17.95 L 0.51 17.94 C 0.78 17.95 1.02 17.74 1.02 17.47 L 1.02 15.58 C 1.01 15.31 0.78 15.11 0.51 15.11 C 0.24 15.1 0 15.31 0 15.58 L 0 17.48 Z M 0 13.7 C 0.01 13.97 0.24 14.17 0.51 14.17 L 0.51 14.16 C 0.78 14.17 1.02 13.96 1.02 13.69 L 1.02 11.8 C 1.01 11.53 0.78 11.33 0.51 11.33 C 0.24 11.32 0 11.53 0 11.8 L 0 13.7 Z M 0 9.92 C 0.01 10.19 0.24 10.39 0.51 10.39 C 0.78 10.4 1.01 10.19 1.02 9.92 L 1.02 8.02 C 1.01 7.75 0.78 7.55 0.51 7.55 C 0.24 7.54 0 7.75 0 8.02 L 0 9.92 Z M 0 6.14 C 0.01 6.41 0.24 6.61 0.51 6.61 C 0.78 6.62 1.02 6.41 1.02 6.14 L 1.02 4.25 C 1.01 3.98 0.78 3.78 0.51 3.78 C 0.24 3.77 0 3.98 0 4.25 L 0 6.14 Z M 0 2.36 C 0.01 2.63 0.24 2.83 0.51 2.83 C 0.78 2.84 1.02 2.63 1.02 2.36 L 1.02 0.47 C 1.01 0.2 0.78 0 0.51 0 C 0.24 -0.01 0 0.2 0 0.47 L 0 2.36 Z M 13.4 3.19 L 13.4 3.2 L 13.4 3.18 L 13.4 3.19 Z M 15.137 5.94 L 13.58 7.26 C 13.37 7.45 13.34 7.77 13.52 7.98 C 13.71 8.19 14.03 8.22 14.24 8.04 L 16.87 5.81 L 16.93 5.75 C 17.11 5.54 17.08 5.22 16.87 5.04 L 14.24 2.81 C 14.15 2.73 14.03 2.69 13.91 2.69 C 13.633 2.69 13.405 2.915 13.4 3.19 C 13.403 3.336 13.472 3.473 13.58 3.57 L 15.175 4.93 L 3.74 4.93 C 3.47 4.93 3.25 5.15 3.25 5.42 C 3.24 5.7 3.46 5.94 3.74 5.94 L 15.137 5.94 Z" fill="currentColor" fill-rule="evenodd"></path>
</svg>