<?xml version="1.0" encoding="UTF-8"?>
<svg xmlns="http://www.w3.org/2000/svg" width="31.719" height="29.590" viewBox="0 0 31.719 29.590" fill="none">
  <path d="M 17.184 29.56 L 15.884 29.56 L 15.884 29.59 C 13.604 29.59 10.054 29.45 8.544 29.25 C 5.624 28.86 1.594 27.91 0.224 24.24 C -0.176 23.03 -0.036 21.71 0.604 20.61 C 3.074 15.71 12.504 10.66 13.994 10.23 C 15.034 9.93 16.154 10.27 16.834 11.11 C 17.004 8.11 17.154 4.94 17.154 4.94 C 17.174 4.53 17.334 4.14 17.614 3.84 L 17.674 0.46 L 17.674 0.44 C 17.684 0.18 17.894 -0.01 18.144 0 C 18.404 0 18.604 0.21 18.604 0.47 L 18.554 3.27 C 18.874 3.18 19.214 3.14 19.544 3.16 C 19.974 3.17 20.394 3.26 20.784 3.42 L 20.834 0.95 C 20.834 0.69 21.044 0.49 21.304 0.49 C 21.564 0.49 21.764 0.7 21.764 0.96 L 21.704 4.02 C 21.704 4.037 21.701 4.05 21.699 4.063 C 21.696 4.072 21.694 4.081 21.694 4.09 C 21.874 4.32 22.004 4.6 22.054 4.89 C 22.054 5.37 21.864 14.51 21.724 17.18 C 22.444 16.33 23.404 15.73 24.474 15.46 C 26.014 14.99 27.694 15.32 28.944 16.35 C 30.164 17.43 31.024 18.87 31.384 20.46 C 32.404 24.28 31.054 27.18 27.844 28.04 C 27.344 28.18 26.834 28.25 26.324 28.25 C 25.334 28.25 24.374 27.95 23.554 27.4 C 23.534 27.68 23.454 27.95 23.304 28.19 C 22.434 29.54 19.644 29.56 17.184 29.56 Z M 28.344 17.07 C 27.334 16.23 25.964 15.96 24.704 16.35 C 22.544 16.89 21.114 18.96 21.384 21.17 C 21.384 21.25 21.364 21.33 21.324 21.4 C 22.143 23.39 22.871 25.125 23.163 25.823 L 23.204 25.92 C 23.214 25.925 23.222 25.933 23.229 25.94 C 23.237 25.948 23.244 25.955 23.254 25.96 C 24.344 27.16 26.044 27.62 27.594 27.14 C 30.284 26.42 31.364 24.01 30.474 20.7 C 30.154 19.3 29.414 18.03 28.344 17.07 Z M 21.054 8.05 C 21.094 6.27 21.124 4.92 21.124 4.92 L 21.114 4.93 C 21.114 4.929 21.113 4.926 21.112 4.922 C 21.085 4.834 20.872 4.128 19.504 4.08 C 19.094 4.03 18.674 4.14 18.344 4.39 C 18.184 4.54 18.094 4.74 18.074 4.95 C 18.074 4.95 18.014 6.29 17.924 8.05 C 18.924 7.62 20.054 7.62 21.054 8.05 Z M 21.034 9.08 C 20.064 8.5 18.844 8.51 17.874 9.1 L 17.864 9.11 C 17.836 9.614 17.808 10.135 17.78 10.656 C 17.748 11.243 17.716 11.829 17.684 12.39 L 17.684 12.39 C 17.754 12.55 17.824 12.71 17.874 12.88 C 18.154 13.65 19.234 16.31 20.354 19.05 C 20.544 18.59 20.674 18.1 20.754 17.6 C 20.844 16.66 20.954 12.41 21.034 9.08 Z M 1.434 20.98 C 0.914 21.85 0.794 22.9 1.094 23.87 C 2.004 26.31 4.414 27.71 8.664 28.28 C 11.234 28.52 13.804 28.63 16.384 28.61 L 17.174 28.61 L 17.198 28.61 C 19.196 28.6 21.917 28.587 22.514 27.66 C 22.584 27.56 22.784 27.25 22.444 26.49 C 22.204 25.96 17.594 14.89 16.994 13.16 C 16.991 13.153 16.983 13.131 16.97 13.098 C 16.95 13.043 16.918 12.956 16.874 12.85 C 16.814 12.79 16.774 12.71 16.764 12.62 C 16.454 11.98 15.814 11.01 14.764 11.01 C 14.594 11.01 14.424 11.03 14.254 11.08 C 12.874 11.47 3.744 16.4 1.434 20.98 Z M 24.694 26.18 C 24.914 26.31 25.204 26.24 25.324 26.01 C 25.454 25.79 25.384 25.5 25.154 25.37 C 24.194 24.68 23.524 23.67 23.274 22.51 C 23.044 21.65 22.494 18.77 25.164 18.06 C 25.414 17.99 25.564 17.74 25.494 17.49 C 25.424 17.24 25.174 17.09 24.924 17.16 C 23.784 17.42 22.844 18.23 22.414 19.33 C 21.674 21.86 22.574 24.59 24.684 26.18 L 24.694 26.18 Z M 26.474 26.64 C 26.714 26.58 26.864 26.33 26.794 26.08 C 26.734 25.84 26.484 25.69 26.234 25.76 C 25.994 25.82 25.844 26.07 25.914 26.32 C 25.974 26.56 26.224 26.71 26.474 26.64 Z" fill="currentColor" fill-rule="evenodd"></path>
</svg>