<?xml version="1.0" encoding="UTF-8"?>
<svg xmlns="http://www.w3.org/2000/svg" width="34.346" height="13.510" viewBox="0 0 34.346 13.510" fill="none">
  <path d="M 11.402 6.265 C 11.425 5.996 11.467 5.726 11.53 5.455 C 12.025 3.308 13.653 1.72 15.633 1.173 C 16.33 1.861 16.796 2.742 16.979 3.693 L 16.91 3.645 C 16.69 3.495 16.38 3.545 16.23 3.765 C 16.08 3.985 16.13 4.295 16.35 4.445 L 17.37 5.155 C 17.47 5.235 17.6 5.255 17.73 5.235 L 17.74 5.235 C 17.86 5.215 17.98 5.145 18.05 5.035 L 18.76 4.015 C 18.91 3.795 18.86 3.485 18.64 3.335 C 18.42 3.185 18.11 3.235 17.96 3.455 L 17.929 3.5 C 17.747 2.577 17.347 1.71 16.759 0.979 C 17.319 0.94 17.895 0.982 18.47 1.115 C 20.987 1.696 22.736 3.826 22.94 6.265 L 19.244 6.265 C 19.261 6.192 19.261 6.114 19.24 6.035 C 19.16 5.775 18.89 5.625 18.63 5.695 L 17.02 6.115 L 17.01 6.115 C 16.912 6.142 16.828 6.195 16.766 6.265 L 11.402 6.265 Z M 10.423 6.265 L 0.5 6.265 C 0.23 6.265 0 6.485 0 6.755 C 0 7.035 0.23 7.245 0.5 7.245 L 3.742 7.245 C 3.605 7.658 3.567 8.1 3.64 8.535 C 3.744 8.887 3.929 9.204 4.174 9.466 L 4.14 9.475 L 4.13 9.475 C 3.87 9.545 3.71 9.805 3.78 10.065 C 3.86 10.325 4.13 10.475 4.39 10.405 L 6 9.985 C 6.26 9.915 6.42 9.655 6.35 9.395 C 6.27 9.135 6 8.985 5.74 9.055 L 5.404 9.144 C 5.024 8.99 4.72 8.686 4.58 8.295 C 4.538 7.932 4.617 7.562 4.799 7.245 L 10.422 7.245 C 10.436 7.439 10.458 7.63 10.489 7.82 C 10.273 7.915 10.157 8.15 10.22 8.385 C 10.287 8.603 10.487 8.744 10.704 8.742 C 11.389 10.965 13.206 12.774 15.64 13.335 C 19.27 14.175 22.9 11.905 23.74 8.275 C 23.82 7.931 23.871 7.587 23.897 7.245 L 33.84 7.245 C 34.11 7.245 34.34 7.025 34.34 6.755 C 34.34 6.475 34.11 6.265 33.84 6.265 L 23.897 6.265 C 23.874 5.956 23.831 5.65 23.766 5.351 L 25.32 4.945 L 25.33 4.945 C 25.59 4.875 25.75 4.615 25.68 4.355 C 25.6 4.095 25.33 3.945 25.07 4.015 L 23.498 4.425 C 22.736 2.361 20.981 0.708 18.68 0.175 C 15.05 -0.665 11.42 1.595 10.58 5.235 C 10.5 5.579 10.449 5.924 10.423 6.265 Z M 12.44 8.305 L 11.653 8.511 C 12.253 10.391 13.802 11.918 15.87 12.395 C 18.99 13.115 22.09 11.175 22.81 8.055 C 22.872 7.785 22.915 7.514 22.938 7.245 L 15.966 7.245 C 15.903 7.35 15.798 7.431 15.67 7.465 L 15.66 7.465 L 14.05 7.885 C 13.79 7.955 13.52 7.805 13.44 7.545 C 13.412 7.441 13.421 7.337 13.458 7.245 L 11.4 7.245 C 11.41 7.355 11.422 7.464 11.437 7.572 L 12.19 7.375 C 12.45 7.305 12.72 7.455 12.8 7.715 C 12.87 7.975 12.71 8.235 12.45 8.305 L 12.44 8.305 Z M 33.97 2.685 L 33.37 2.845 C 33.11 2.915 32.84 2.765 32.76 2.505 C 32.69 2.245 32.85 1.985 33.11 1.915 L 33.12 1.915 L 33.72 1.755 C 33.98 1.685 34.25 1.835 34.33 2.095 C 34.4 2.355 34.24 2.615 33.98 2.685 L 33.97 2.685 Z M 31.76 3.265 L 30.15 3.685 C 29.89 3.755 29.62 3.605 29.54 3.345 C 29.47 3.085 29.63 2.825 29.89 2.755 L 29.9 2.755 L 31.51 2.335 C 31.77 2.265 32.04 2.415 32.12 2.675 C 32.19 2.935 32.03 3.195 31.77 3.265 L 31.76 3.265 Z M 28.54 4.105 L 26.93 4.525 C 26.67 4.595 26.4 4.445 26.32 4.185 C 26.25 3.925 26.41 3.665 26.67 3.595 L 28.28 3.175 C 28.54 3.105 28.82 3.255 28.89 3.515 C 28.96 3.775 28.8 4.035 28.54 4.105 Z M 22.1 5.785 L 20.49 6.205 C 20.23 6.275 19.96 6.125 19.88 5.865 C 19.81 5.605 19.97 5.345 20.23 5.275 L 20.24 5.275 L 21.85 4.855 C 22.11 4.785 22.38 4.935 22.46 5.195 C 22.53 5.455 22.37 5.715 22.11 5.785 L 22.1 5.785 Z M 9.22 9.145 L 7.61 9.565 C 7.35 9.635 7.08 9.485 7 9.225 C 6.93 8.965 7.09 8.705 7.35 8.635 L 7.36 8.635 L 8.96 8.215 C 9.22 8.145 9.49 8.295 9.57 8.555 C 9.64 8.815 9.48 9.075 9.22 9.145 Z M 2.78 10.825 L 1.16 11.245 C 0.9 11.315 0.63 11.165 0.55 10.905 C 0.48 10.645 0.63 10.385 0.89 10.315 L 0.9 10.315 L 2.51 9.895 C 2.77 9.825 3.04 9.975 3.12 10.235 C 3.19 10.495 3.03 10.755 2.77 10.825 L 2.78 10.825 Z" fill="currentColor" fill-rule="evenodd"></path>
</svg>