<?xml version="1.0" encoding="UTF-8"?>
<svg xmlns="http://www.w3.org/2000/svg" width="30.370" height="34.372" viewBox="0 0 30.370 34.372" fill="none">
  <path d="M 13.737 2.047 L 12.23 0.912 C 12.01 0.742 11.96 0.432 12.13 0.202 C 12.3 -0.018 12.61 -0.068 12.84 0.102 L 15.44 2.052 C 15.656 2.209 15.718 2.511 15.568 2.74 C 15.56 2.754 15.55 2.768 15.54 2.782 L 13.59 5.382 C 13.49 5.512 13.34 5.582 13.18 5.582 L 13.18 5.572 C 12.9 5.572 12.68 5.352 12.67 5.082 C 12.67 4.972 12.71 4.862 12.78 4.772 L 14.094 3.02 C 6.783 3.556 1.02 9.663 1.01 17.112 C 1.01 17.392 0.79 17.612 0.51 17.612 L 0.5 17.612 L 0.5 17.622 C 0.22 17.622 0 17.402 0 17.122 C 0 9.235 6.034 2.763 13.737 2.047 Z M 15.19 8.042 C 10.15 8.042 6.06 12.132 6.06 17.172 C 6.06 22.212 10.15 26.302 15.19 26.302 C 20.23 26.302 24.32 22.212 24.32 17.172 C 24.32 12.132 20.23 8.052 15.19 8.042 Z M 15.19 7.042 C 20.78 7.042 25.32 11.572 25.32 17.172 C 25.32 22.772 20.79 27.302 15.19 27.302 C 9.59 27.302 5.06 22.772 5.06 17.172 C 5.06 11.582 9.59 7.042 15.19 7.042 Z M 16.302 31.362 L 17.6 29.632 C 17.77 29.402 17.72 29.092 17.5 28.922 C 17.27 28.752 16.96 28.802 16.79 29.022 L 14.913 31.525 C 14.886 31.547 14.862 31.573 14.84 31.602 C 14.797 31.66 14.768 31.723 14.752 31.788 C 14.738 31.835 14.73 31.883 14.73 31.932 C 14.737 32.126 14.853 32.295 15.022 32.374 L 17.54 34.272 C 17.63 34.332 17.73 34.372 17.84 34.372 L 17.85 34.362 C 18.02 34.362 18.17 34.282 18.27 34.152 C 18.43 33.922 18.37 33.612 18.15 33.452 L 16.671 32.342 C 24.355 31.609 30.37 25.146 30.37 17.272 C 30.37 17.002 30.14 16.772 29.87 16.772 C 29.6 16.772 29.37 16.992 29.37 17.272 C 29.36 24.714 23.606 30.819 16.302 31.362 Z M 15.195 9.782 C 11.187 9.784 7.95 13.023 7.94 17.032 C 7.94 19.472 9.17 21.752 11.21 23.092 C 11.46 23.262 11.81 23.192 11.97 22.932 C 12.14 22.682 12.07 22.332 11.81 22.172 C 8.97 20.302 8.18 16.492 10.05 13.652 C 11.92 10.812 15.73 10.022 18.57 11.892 C 20.3 13.032 21.34 14.962 21.34 17.032 C 21.34 17.332 21.59 17.582 21.89 17.582 C 22.19 17.582 22.44 17.332 22.44 17.032 C 22.44 13.033 19.193 9.784 15.195 9.782 Z M 15.195 9.782 C 15.197 9.782 15.198 9.782 15.2 9.782 L 15.19 9.782 C 15.192 9.782 15.193 9.782 15.195 9.782 Z M 12.99 23.842 C 13 23.452 13.32 23.132 13.71 23.132 C 14.1 23.132 14.42 23.452 14.42 23.842 C 14.41 24.232 14.09 24.552 13.7 24.552 C 13.31 24.552 12.99 24.232 12.99 23.842 Z" fill="currentColor" fill-rule="evenodd"></path>
</svg>