<?xml version="1.0" encoding="UTF-8"?>
<svg xmlns="http://www.w3.org/2000/svg" width="37.576" height="30.986" viewBox="0 0 37.576 30.986" fill="none">
  <path d="M 9.699 29.406 C 9.706 29.383 9.712 29.36 9.716 29.336 C 9.72 29.332 9.74 29.225 9.777 29.029 C 9.839 28.7 9.949 28.12 10.106 27.366 C 10.126 27.316 10.136 27.266 10.136 27.216 C 10.166 26.886 9.916 26.606 9.586 26.576 C 9.256 26.546 8.966 26.796 8.946 27.126 C 8.915 27.264 8.887 27.402 8.861 27.532 L 8.861 27.532 L 8.861 27.532 C 8.846 27.61 8.831 27.685 8.816 27.756 C 8.636 27.866 8.536 28.056 8.536 28.266 L 8.536 29.216 C 8.536 29.282 8.547 29.346 8.568 29.406 L 1.506 29.406 C 1.076 29.406 0.716 29.766 0.716 30.196 C 0.716 30.626 1.066 30.986 1.506 30.986 L 36.786 30.986 C 37.216 30.986 37.576 30.626 37.576 30.196 C 37.576 29.766 37.226 29.406 36.786 29.406 L 33.737 29.406 C 35.243 29.036 36.356 27.679 36.356 26.056 C 36.356 24.146 34.806 22.606 32.906 22.606 C 30.996 22.606 29.456 24.156 29.456 26.056 C 29.456 27.679 30.569 29.036 32.075 29.406 L 9.699 29.406 Z M 22.786 28.566 C 22.486 28.566 22.236 28.336 22.196 28.046 C 22.086 27.086 21.956 26.096 21.816 25.106 C 21.726 24.786 21.916 24.456 22.236 24.366 C 22.556 24.276 22.886 24.466 22.976 24.786 C 22.986 24.836 22.996 24.886 22.996 24.936 C 23.036 25.206 23.076 25.476 23.106 25.756 C 23.216 25.326 23.326 24.906 23.436 24.486 L 23.436 24.486 C 23.566 24.176 23.916 24.036 24.216 24.156 C 24.466 24.256 24.616 24.526 24.586 24.796 C 24.336 25.716 24.096 26.686 23.866 27.666 C 23.806 27.906 23.606 28.096 23.356 28.126 C 23.296 28.366 23.096 28.546 22.846 28.576 L 22.776 28.576 L 22.786 28.566 Z M 9.046 25.866 C 8.726 25.866 8.466 25.616 8.456 25.296 C 8.416 24.296 8.346 23.306 8.276 22.346 C 8.286 22.016 8.566 21.756 8.896 21.766 C 9.176 21.776 9.406 21.976 9.466 22.246 C 9.516 22.856 9.556 23.476 9.596 24.096 L 9.596 24.096 L 9.596 24.096 C 9.811 23.147 10.036 22.218 10.252 21.326 L 10.252 21.325 L 10.266 21.266 C 10.386 20.956 10.736 20.806 11.046 20.926 C 11.306 21.026 11.456 21.286 11.426 21.556 C 11.196 22.476 10.966 23.446 10.736 24.436 C 10.656 24.756 10.326 24.956 10.006 24.876 C 9.836 24.836 9.696 24.716 9.616 24.566 C 9.626 24.786 9.636 25.006 9.646 25.236 C 9.656 25.566 9.406 25.836 9.076 25.856 L 9.046 25.856 L 9.046 25.866 Z M 21.956 22.666 C 21.666 22.666 21.416 22.456 21.366 22.166 C 21.196 21.156 21.026 20.166 20.846 19.256 C 20.826 18.926 21.076 18.636 21.406 18.616 C 21.676 18.596 21.926 18.766 22.016 19.026 C 22.196 19.956 22.376 20.946 22.536 21.976 C 22.586 22.306 22.366 22.606 22.036 22.656 L 21.946 22.656 L 21.956 22.666 Z M 24.856 22.376 C 24.526 22.376 24.256 22.106 24.266 21.766 C 24.266 21.706 24.276 21.646 24.296 21.596 C 24.646 20.526 25.006 19.566 25.356 18.756 C 25.446 18.436 25.786 18.256 26.096 18.346 C 26.416 18.436 26.596 18.776 26.506 19.086 C 26.496 19.136 26.476 19.186 26.446 19.226 C 26.106 20.006 25.766 20.926 25.426 21.966 C 25.346 22.216 25.116 22.386 24.866 22.386 L 24.856 22.376 Z M 32.436 21.896 L 32.43 21.896 C 32.471 21.895 32.506 21.888 32.545 21.88 L 32.566 21.876 C 32.886 21.796 33.086 21.466 33.006 21.146 C 32.756 20.156 32.446 19.186 32.076 18.236 C 32.056 18.176 32.036 18.126 32.006 18.076 C 31.836 17.796 31.476 17.696 31.186 17.866 C 30.906 18.036 30.806 18.396 30.976 18.686 C 31.326 19.586 31.626 20.506 31.856 21.446 C 31.926 21.714 32.163 21.893 32.43 21.896 L 32.426 21.896 L 32.436 21.896 Z M 8.546 19.936 C 8.246 19.936 7.996 19.716 7.956 19.416 C 7.826 18.416 7.676 17.436 7.516 16.506 C 7.416 16.186 7.596 15.856 7.906 15.756 C 8.216 15.656 8.556 15.836 8.656 16.146 L 8.686 16.296 C 8.856 17.256 9.006 18.256 9.136 19.266 C 9.176 19.596 8.936 19.896 8.606 19.936 L 8.546 19.936 Z M 11.586 19.146 C 11.256 19.146 10.986 18.876 10.996 18.536 C 10.996 18.486 10.996 18.436 11.016 18.386 C 11.306 17.356 11.596 16.396 11.886 15.516 C 11.946 15.186 12.266 14.976 12.586 15.046 C 12.916 15.106 13.126 15.426 13.056 15.746 C 13.056 15.796 13.036 15.846 13.006 15.886 C 12.726 16.746 12.436 17.706 12.156 18.716 C 12.086 18.976 11.846 19.146 11.586 19.146 Z M 27.356 17.006 L 27.351 17.006 C 27.529 17.005 27.697 16.935 27.806 16.796 C 28.166 16.366 28.486 16.146 28.756 16.146 C 29.046 16.156 29.336 16.266 29.556 16.456 L 29.676 16.546 C 29.956 16.716 30.326 16.626 30.496 16.346 C 30.666 16.066 30.576 15.696 30.296 15.526 C 29.866 15.166 29.326 14.956 28.756 14.956 C 28.006 15.016 27.326 15.406 26.896 16.026 C 26.816 16.136 26.766 16.266 26.766 16.396 C 26.756 16.724 27.023 17.003 27.351 17.006 L 27.346 17.006 L 27.356 17.006 Z M 20.806 16.826 C 20.526 16.826 20.296 16.636 20.226 16.366 C 19.976 15.316 19.726 14.366 19.466 13.526 C 19.406 13.196 19.626 12.886 19.956 12.836 C 20.226 12.786 20.496 12.926 20.606 13.176 C 20.876 14.036 21.136 15.016 21.386 16.086 C 21.456 16.406 21.256 16.726 20.936 16.806 C 20.917 16.806 20.898 16.808 20.878 16.811 L 20.878 16.811 L 20.878 16.811 C 20.856 16.813 20.832 16.816 20.806 16.816 L 20.806 16.826 Z M 7.486 14.076 L 7.476 14.076 C 7.516 14.066 7.566 14.056 7.606 14.056 C 7.926 13.986 8.126 13.656 8.056 13.336 C 7.816 12.326 7.546 11.346 7.246 10.426 C 7.136 10.176 6.866 10.036 6.596 10.086 C 6.276 10.146 6.056 10.456 6.116 10.786 C 6.406 11.686 6.666 12.636 6.906 13.616 C 6.975 13.883 7.21 14.071 7.476 14.076 L 7.476 14.076 L 7.486 14.076 Z M 13.456 13.496 C 13.126 13.496 12.856 13.216 12.866 12.886 C 12.866 12.816 12.886 12.736 12.906 12.676 C 13.276 11.716 13.736 10.796 14.256 9.916 C 14.466 9.656 14.846 9.616 15.096 9.826 C 15.306 9.996 15.376 10.296 15.266 10.546 C 14.776 11.376 14.356 12.236 14.006 13.126 C 13.916 13.346 13.696 13.496 13.456 13.496 Z M 18.966 11.176 C 18.736 11.176 18.536 11.046 18.436 10.846 C 17.726 9.396 17.176 9.116 16.916 9.086 C 16.586 9.086 16.316 8.806 16.326 8.476 C 16.336 8.146 16.606 7.876 16.936 7.886 C 16.986 7.886 17.036 7.886 17.086 7.906 C 17.976 8.026 18.776 8.816 19.516 10.316 C 19.656 10.616 19.536 10.976 19.236 11.116 C 19.156 11.156 19.076 11.176 18.986 11.176 L 18.966 11.176 Z M 5.656 8.426 C 5.416 8.426 5.196 8.286 5.106 8.066 C 4.736 7.176 4.306 6.296 3.836 5.456 C 3.636 5.186 3.696 4.816 3.966 4.616 C 4.236 4.416 4.606 4.476 4.806 4.746 C 4.836 4.786 4.856 4.826 4.876 4.876 C 5.376 5.766 5.816 6.676 6.206 7.616 C 6.326 7.926 6.186 8.276 5.876 8.396 C 5.806 8.426 5.736 8.436 5.656 8.436 L 5.656 8.426 Z M 2.716 3.276 C 2.536 3.276 2.366 3.196 2.246 3.046 C 1.696 2.306 1.036 1.646 0.286 1.106 C 0.006 0.936 -0.084 0.566 0.086 0.286 C 0.256 0.006 0.616 -0.084 0.896 0.086 C 1.776 0.696 2.536 1.446 3.166 2.306 C 3.366 2.566 3.316 2.946 3.056 3.146 C 2.956 3.226 2.826 3.266 2.706 3.266 L 2.716 3.276 Z M 32.906 23.796 C 31.656 23.796 30.646 24.806 30.646 26.046 C 30.646 27.296 31.656 28.306 32.896 28.306 C 34.146 28.306 35.156 27.296 35.156 26.056 C 35.156 24.816 34.146 23.806 32.906 23.796 Z" fill="currentColor" fill-rule="evenodd"></path>
</svg>