<?xml version="1.0" encoding="UTF-8"?>
<svg xmlns="http://www.w3.org/2000/svg" width="75.076" height="15.721" viewBox="0 0 75.076 15.721" fill="none">
  <path d="M 47.074 1.427 L 47.074 3.718 L 45.638 3.718 L 45.638 5.22 L 47.074 5.22 L 47.074 10.325 C 47.074 12.069 47.862 12.766 49.846 12.766 C 50.195 12.766 50.527 12.724 50.817 12.674 L 50.817 11.189 C 50.568 11.214 50.41 11.23 50.137 11.23 C 49.248 11.23 48.858 10.815 48.858 9.869 L 48.858 5.22 L 50.817 5.22 L 50.817 3.718 L 48.858 3.718 L 48.858 1.427 L 47.074 1.427 Z" fill="currentColor" fill-rule="nonzero"></path>
  <path d="M 55.871 12.89 C 58.511 12.89 60.129 11.122 60.129 8.192 C 60.129 5.278 58.502 3.502 55.871 3.502 C 53.231 3.502 51.604 5.278 51.604 8.192 C 51.604 11.122 53.223 12.89 55.871 12.89 Z M 55.871 11.305 C 54.319 11.305 53.447 10.168 53.447 8.192 C 53.447 6.233 54.319 5.088 55.871 5.088 C 57.415 5.088 58.295 6.233 58.295 8.192 C 58.295 10.159 57.415 11.305 55.871 11.305 Z" fill="currentColor" fill-rule="nonzero"></path>
  <path d="M 61.514 12.716 L 63.299 12.716 L 63.299 7.379 C 63.299 6.109 64.253 5.254 65.607 5.254 C 65.922 5.254 66.453 5.312 66.603 5.362 L 66.603 3.602 C 66.412 3.552 66.071 3.527 65.806 3.527 C 64.627 3.527 63.623 4.174 63.365 5.063 L 63.232 5.063 L 63.232 3.676 L 61.514 3.676 L 61.514 12.716 Z" fill="currentColor" fill-rule="nonzero"></path>
  <path d="M 71.034 5.021 C 72.354 5.021 73.217 5.943 73.259 7.362 L 68.693 7.362 C 68.793 5.951 69.714 5.021 71.034 5.021 Z M 73.25 10.276 C 72.918 10.981 72.179 11.371 71.1 11.371 C 69.673 11.371 68.751 10.367 68.693 8.781 L 68.693 8.682 L 75.076 8.682 L 75.076 8.059 C 75.076 5.22 73.557 3.502 71.042 3.502 C 68.494 3.502 66.875 5.337 66.875 8.225 C 66.875 11.114 68.461 12.89 71.051 12.89 C 73.117 12.89 74.562 11.894 74.968 10.276 L 73.25 10.276 Z" fill="currentColor" fill-rule="nonzero"></path>
  <path d="M 35.37 9.378 C 35.508 11.598 37.357 13.017 40.11 13.017 C 43.053 13.017 44.894 11.529 44.894 9.154 C 44.894 7.287 43.844 6.255 41.298 5.661 L 39.93 5.326 C 38.312 4.947 37.658 4.439 37.658 3.553 C 37.658 2.435 38.674 1.703 40.197 1.703 C 41.642 1.703 42.64 2.418 42.821 3.562 L 44.696 3.562 C 44.584 1.471 42.743 0 40.222 0 C 37.512 0 35.705 1.471 35.705 3.682 C 35.705 5.506 36.729 6.59 38.975 7.115 L 40.575 7.502 C 42.218 7.889 42.941 8.457 42.941 9.404 C 42.941 10.505 41.805 11.305 40.257 11.305 C 38.596 11.305 37.443 10.557 37.28 9.378 L 35.37 9.378 Z" fill="currentColor" fill-rule="nonzero"></path>
  <path d="M 16.883 3.527 C 15.654 3.527 14.592 4.141 14.044 5.171 L 13.911 5.171 L 13.911 3.676 L 12.193 3.676 L 12.193 15.721 L 13.977 15.721 L 13.977 11.346 L 14.118 11.346 C 14.592 12.301 15.613 12.865 16.899 12.865 C 19.182 12.865 20.635 11.064 20.635 8.192 C 20.635 5.32 19.182 3.527 16.883 3.527 Z M 16.376 11.263 C 14.882 11.263 13.944 10.085 13.944 8.2 C 13.944 6.308 14.882 5.129 16.385 5.129 C 17.895 5.129 18.8 6.283 18.8 8.192 C 18.8 10.11 17.895 11.263 16.376 11.263 Z" fill="currentColor" fill-rule="nonzero"></path>
  <path d="M 26.879 3.527 C 25.651 3.527 24.588 4.141 24.041 5.171 L 23.908 5.171 L 23.908 3.676 L 22.189 3.676 L 22.189 15.721 L 23.974 15.721 L 23.974 11.346 L 24.115 11.346 C 24.588 12.301 25.609 12.865 26.896 12.865 C 29.179 12.865 30.631 11.064 30.631 8.192 C 30.631 5.32 29.179 3.527 26.879 3.527 Z M 26.373 11.263 C 24.879 11.263 23.941 10.085 23.941 8.2 C 23.941 6.308 24.879 5.129 26.381 5.129 C 27.892 5.129 28.797 6.283 28.797 8.192 C 28.797 10.11 27.892 11.263 26.373 11.263 Z" fill="currentColor" fill-rule="nonzero"></path>
  <path d="M 8.991 12.716 L 11.038 12.716 L 6.556 0.301 L 4.482 0.301 L 0 12.716 L 1.979 12.716 L 3.123 9.421 L 7.855 9.421 L 8.991 12.716 Z M 5.42 2.555 L 5.566 2.555 L 7.365 7.803 L 3.613 7.803 L 5.42 2.555 Z" fill="currentColor" fill-rule="nonzero"></path>
</svg>