<?xml version="1.0" encoding="UTF-8"?>
<svg xmlns="http://www.w3.org/2000/svg" width="55.489" height="7.084" viewBox="0 0 55.489 7.084" fill="none">
  <path d="M 4.195 5.575 L 1.398 5.575 L 0.883 7.001 L 0 7.001 L 2.318 0.626 L 3.284 0.626 L 5.594 7.001 L 4.71 7.001 L 4.195 5.575 Z M 3.956 4.894 L 2.797 1.656 L 1.638 4.894 L 3.956 4.894 Z" fill="currentColor" fill-rule="nonzero"></path>
  <path d="M 7.929 6.228 L 9.493 1.96 L 10.385 1.96 L 8.407 7.001 L 7.432 7.001 L 5.454 1.96 L 6.356 1.96 L 7.929 6.228 Z" fill="currentColor" fill-rule="nonzero"></path>
  <path d="M 10.988 4.462 C 10.988 3.947 11.093 3.496 11.301 3.11 C 11.51 2.717 11.795 2.413 12.157 2.199 C 12.525 1.984 12.933 1.877 13.38 1.877 C 13.822 1.877 14.205 1.972 14.53 2.162 C 14.855 2.352 15.098 2.591 15.257 2.88 L 15.257 1.96 L 16.103 1.96 L 16.103 7.001 L 15.257 7.001 L 15.257 6.063 C 15.091 6.357 14.843 6.603 14.512 6.799 C 14.187 6.989 13.807 7.084 13.371 7.084 C 12.923 7.084 12.519 6.974 12.157 6.753 C 11.795 6.532 11.51 6.222 11.301 5.824 C 11.093 5.425 10.988 4.971 10.988 4.462 Z M 15.257 4.471 C 15.257 4.091 15.18 3.76 15.027 3.478 C 14.874 3.195 14.665 2.981 14.401 2.834 C 14.144 2.68 13.859 2.604 13.546 2.604 C 13.233 2.604 12.948 2.677 12.69 2.824 C 12.433 2.972 12.227 3.186 12.074 3.468 C 11.921 3.751 11.844 4.082 11.844 4.462 C 11.844 4.848 11.921 5.186 12.074 5.474 C 12.227 5.756 12.433 5.974 12.69 6.127 C 12.948 6.274 13.233 6.348 13.546 6.348 C 13.859 6.348 14.144 6.274 14.401 6.127 C 14.665 5.974 14.874 5.756 15.027 5.474 C 15.18 5.186 15.257 4.851 15.257 4.471 Z" fill="currentColor" fill-rule="nonzero"></path>
  <path d="M 17.767 1.141 C 17.607 1.141 17.472 1.086 17.362 0.975 C 17.251 0.865 17.196 0.73 17.196 0.57 C 17.196 0.411 17.251 0.276 17.362 0.166 C 17.472 0.055 17.607 0 17.767 0 C 17.92 0 18.049 0.055 18.153 0.166 C 18.263 0.276 18.319 0.411 18.319 0.57 C 18.319 0.73 18.263 0.865 18.153 0.975 C 18.049 1.086 17.92 1.141 17.767 1.141 Z M 18.171 1.96 L 18.171 7.001 L 17.334 7.001 L 17.334 1.96 L 18.171 1.96 Z" fill="currentColor" fill-rule="nonzero"></path>
  <path d="M 20.252 0.193 L 20.252 7.001 L 19.414 7.001 L 19.414 0.193 L 20.252 0.193 Z" fill="currentColor" fill-rule="nonzero"></path>
  <path d="M 21.366 4.462 C 21.366 3.947 21.47 3.496 21.678 3.11 C 21.887 2.717 22.172 2.413 22.534 2.199 C 22.902 1.984 23.31 1.877 23.758 1.877 C 24.199 1.877 24.582 1.972 24.908 2.162 C 25.233 2.352 25.475 2.591 25.634 2.88 L 25.634 1.96 L 26.481 1.96 L 26.481 7.001 L 25.634 7.001 L 25.634 6.063 C 25.469 6.357 25.22 6.603 24.889 6.799 C 24.564 6.989 24.184 7.084 23.748 7.084 C 23.301 7.084 22.896 6.974 22.534 6.753 C 22.172 6.532 21.887 6.222 21.678 5.824 C 21.47 5.425 21.366 4.971 21.366 4.462 Z M 25.634 4.471 C 25.634 4.091 25.558 3.76 25.404 3.478 C 25.251 3.195 25.042 2.981 24.779 2.834 C 24.521 2.68 24.236 2.604 23.923 2.604 C 23.61 2.604 23.325 2.677 23.068 2.824 C 22.81 2.972 22.604 3.186 22.451 3.468 C 22.298 3.751 22.221 4.082 22.221 4.462 C 22.221 4.848 22.298 5.186 22.451 5.474 C 22.604 5.756 22.81 5.974 23.068 6.127 C 23.325 6.274 23.61 6.348 23.923 6.348 C 24.236 6.348 24.521 6.274 24.779 6.127 C 25.042 5.974 25.251 5.756 25.404 5.474 C 25.558 5.186 25.634 4.851 25.634 4.471 Z" fill="currentColor" fill-rule="nonzero"></path>
  <path d="M 28.825 2.898 C 28.996 2.597 29.248 2.352 29.579 2.162 C 29.91 1.972 30.288 1.877 30.711 1.877 C 31.165 1.877 31.572 1.984 31.934 2.199 C 32.296 2.413 32.581 2.717 32.79 3.11 C 32.998 3.496 33.103 3.947 33.103 4.462 C 33.103 4.971 32.998 5.425 32.79 5.824 C 32.581 6.222 32.293 6.532 31.925 6.753 C 31.563 6.974 31.158 7.084 30.711 7.084 C 30.275 7.084 29.892 6.989 29.561 6.799 C 29.236 6.609 28.99 6.366 28.825 6.072 L 28.825 7.001 L 27.988 7.001 L 27.988 0.193 L 28.825 0.193 L 28.825 2.898 Z M 32.247 4.462 C 32.247 4.082 32.17 3.751 32.017 3.468 C 31.864 3.186 31.655 2.972 31.392 2.824 C 31.134 2.677 30.849 2.604 30.536 2.604 C 30.229 2.604 29.944 2.68 29.68 2.834 C 29.423 2.981 29.214 3.199 29.055 3.487 C 28.901 3.769 28.825 4.097 28.825 4.471 C 28.825 4.851 28.901 5.186 29.055 5.474 C 29.214 5.756 29.423 5.974 29.68 6.127 C 29.944 6.274 30.229 6.348 30.536 6.348 C 30.849 6.348 31.134 6.274 31.392 6.127 C 31.655 5.974 31.864 5.756 32.017 5.474 C 32.17 5.186 32.247 4.848 32.247 4.462 Z" fill="currentColor" fill-rule="nonzero"></path>
  <path d="M 35.042 0.193 L 35.042 7.001 L 34.205 7.001 L 34.205 0.193 L 35.042 0.193 Z" fill="currentColor" fill-rule="nonzero"></path>
  <path d="M 41.161 4.287 C 41.161 4.447 41.152 4.615 41.133 4.793 L 37.104 4.793 C 37.134 5.29 37.303 5.679 37.61 5.962 C 37.922 6.238 38.3 6.376 38.741 6.376 C 39.103 6.376 39.404 6.293 39.643 6.127 C 39.888 5.955 40.06 5.729 40.158 5.446 L 41.06 5.446 C 40.925 5.931 40.655 6.327 40.25 6.633 C 39.845 6.934 39.342 7.084 38.741 7.084 C 38.263 7.084 37.833 6.977 37.453 6.762 C 37.079 6.547 36.785 6.244 36.57 5.851 C 36.355 5.453 36.248 4.993 36.248 4.471 C 36.248 3.95 36.352 3.493 36.561 3.1 C 36.769 2.708 37.061 2.407 37.435 2.199 C 37.815 1.984 38.251 1.877 38.741 1.877 C 39.22 1.877 39.643 1.981 40.011 2.19 C 40.379 2.398 40.661 2.686 40.857 3.054 C 41.06 3.416 41.161 3.827 41.161 4.287 Z M 40.296 4.112 C 40.296 3.793 40.225 3.521 40.084 3.294 C 39.943 3.061 39.75 2.886 39.505 2.769 C 39.266 2.647 38.999 2.585 38.704 2.585 C 38.281 2.585 37.919 2.72 37.619 2.99 C 37.324 3.26 37.156 3.634 37.113 4.112 L 40.296 4.112 Z" fill="currentColor" fill-rule="nonzero"></path>
  <path d="M 47.101 7.084 C 46.629 7.084 46.2 6.977 45.813 6.762 C 45.433 6.547 45.133 6.244 44.912 5.851 C 44.697 5.453 44.59 4.993 44.59 4.471 C 44.59 3.956 44.7 3.502 44.921 3.11 C 45.148 2.711 45.455 2.407 45.841 2.199 C 46.227 1.984 46.66 1.877 47.138 1.877 C 47.617 1.877 48.049 1.984 48.435 2.199 C 48.822 2.407 49.125 2.708 49.346 3.1 C 49.573 3.493 49.687 3.95 49.687 4.471 C 49.687 4.993 49.57 5.453 49.337 5.851 C 49.11 6.244 48.8 6.547 48.408 6.762 C 48.015 6.977 47.58 7.084 47.101 7.084 Z M 47.101 6.348 C 47.402 6.348 47.684 6.277 47.948 6.136 C 48.212 5.995 48.423 5.784 48.583 5.502 C 48.748 5.219 48.831 4.876 48.831 4.471 C 48.831 4.066 48.751 3.723 48.592 3.441 C 48.432 3.159 48.224 2.95 47.966 2.815 C 47.709 2.674 47.43 2.604 47.129 2.604 C 46.822 2.604 46.54 2.674 46.283 2.815 C 46.031 2.95 45.829 3.159 45.675 3.441 C 45.522 3.723 45.445 4.066 45.445 4.471 C 45.445 4.882 45.519 5.229 45.666 5.511 C 45.82 5.793 46.022 6.005 46.273 6.146 C 46.525 6.281 46.801 6.348 47.101 6.348 Z" fill="currentColor" fill-rule="nonzero"></path>
  <path d="M 53.428 1.868 C 54.041 1.868 54.538 2.055 54.918 2.429 C 55.298 2.797 55.489 3.33 55.489 4.03 L 55.489 7.001 L 54.661 7.001 L 54.661 4.149 C 54.661 3.646 54.535 3.263 54.283 2.999 C 54.032 2.729 53.688 2.594 53.253 2.594 C 52.811 2.594 52.459 2.732 52.195 3.008 C 51.937 3.284 51.809 3.686 51.809 4.214 L 51.809 7.001 L 50.971 7.001 L 50.971 1.96 L 51.809 1.96 L 51.809 2.677 C 51.974 2.42 52.198 2.22 52.48 2.079 C 52.768 1.938 53.084 1.868 53.428 1.868 Z" fill="currentColor" fill-rule="nonzero"></path>
</svg>