<?xml version="1.0" encoding="UTF-8"?>
<svg xmlns="http://www.w3.org/2000/svg" width="96.318" height="15.400" viewBox="0 0 96.318 15.400" fill="none">
  <path d="M 22.252 0.399 L 24.272 0.399 L 24.272 11.389 L 22.252 11.389 L 22.252 0.399 Z" fill="currentColor" fill-rule="nonzero"></path>
  <path d="M 0 5.97 C 0 2.881 2.331 0.401 5.539 0.401 C 7.782 0.401 9.549 1.544 10.47 3.178 L 8.687 4.247 C 8.019 3.015 6.98 2.361 5.554 2.361 C 3.534 2.361 2.005 3.995 2.005 5.97 C 2.005 7.975 3.52 9.579 5.628 9.579 C 7.247 9.579 8.376 8.658 8.762 7.232 L 5.302 7.232 L 5.302 5.302 L 10.93 5.302 L 10.93 6.104 C 10.93 9.029 8.866 11.539 5.628 11.539 C 2.242 11.539 0 8.97 0 5.97 Z" fill="currentColor" fill-rule="nonzero"></path>
  <path d="M 11.852 7.054 C 11.852 4.173 13.961 2.525 16.159 2.525 C 17.303 2.525 18.327 3 18.951 3.743 L 18.951 2.703 L 20.956 2.703 L 20.956 11.391 L 18.951 11.391 L 18.951 10.262 C 18.312 11.064 17.273 11.569 16.129 11.569 C 14.035 11.569 11.852 9.89 11.852 7.054 Z M 19.055 7.025 C 19.055 5.554 17.941 4.351 16.456 4.351 C 14.971 4.351 13.828 5.525 13.828 7.025 C 13.828 8.539 14.971 9.727 16.456 9.727 C 17.941 9.727 19.055 8.524 19.055 7.025 Z" fill="currentColor" fill-rule="nonzero"></path>
  <path d="M 25.294 7.054 C 25.294 4.173 27.403 2.525 29.6 2.525 C 30.744 2.525 31.769 3 32.392 3.743 L 32.392 2.703 L 34.397 2.703 L 34.397 11.391 L 32.392 11.391 L 32.392 10.262 C 31.754 11.064 30.715 11.569 29.571 11.569 C 27.477 11.569 25.294 9.89 25.294 7.054 Z M 32.497 7.025 C 32.497 5.554 31.383 4.351 29.898 4.351 C 28.413 4.351 27.269 5.525 27.269 7.025 C 27.269 8.539 28.413 9.727 29.898 9.727 C 31.382 9.727 32.497 8.524 32.497 7.025 Z" fill="currentColor" fill-rule="nonzero"></path>
  <path d="M 38.305 6.965 L 35.157 2.703 L 37.607 2.703 L 39.582 5.465 L 41.542 2.703 L 43.918 2.703 L 40.799 6.995 L 44.126 11.391 L 41.676 11.391 L 39.552 8.495 L 37.488 11.391 L 35.037 11.391 L 38.305 6.965 Z" fill="currentColor" fill-rule="nonzero"></path>
  <path d="M 47.885 10.96 L 44.321 2.703 L 46.459 2.703 L 48.88 8.554 L 51.166 2.703 L 53.276 2.703 L 48.093 15.4 L 46.058 15.4 L 47.885 10.96 Z" fill="currentColor" fill-rule="nonzero"></path>
  <path d="M 57.391 9.594 L 59.232 8.138 C 59.782 9.074 60.628 9.608 61.608 9.608 C 62.678 9.608 63.257 8.911 63.257 8.153 C 63.257 7.233 62.158 6.95 60.999 6.594 C 59.544 6.133 57.926 5.569 57.926 3.505 C 57.926 1.768 59.44 0.401 61.519 0.401 C 63.272 0.401 64.281 1.07 65.158 1.976 L 63.494 3.238 C 63.034 2.555 62.395 2.198 61.534 2.198 C 60.554 2.198 60.019 2.733 60.019 3.431 C 60.019 4.292 61.059 4.574 62.232 4.961 C 63.703 5.435 65.366 6.089 65.366 8.168 C 65.366 9.876 63.999 11.54 61.623 11.54 C 59.663 11.539 58.371 10.707 57.391 9.594 Z" fill="currentColor" fill-rule="nonzero"></path>
  <path d="M 65.53 2.703 L 67.015 2.703 L 67.015 1.381 L 69.035 0 L 69.035 2.703 L 70.802 2.703 L 70.802 4.5 L 69.035 4.5 L 69.035 7.752 C 69.035 9.267 69.243 9.505 70.802 9.505 L 70.802 11.39 L 70.52 11.39 C 67.832 11.39 67.015 10.529 67.015 7.767 L 67.015 4.5 L 65.53 4.5 L 65.53 2.703 Z" fill="currentColor" fill-rule="nonzero"></path>
  <path d="M 71.338 7.054 C 71.338 4.53 73.327 2.525 75.837 2.525 C 78.332 2.525 80.337 4.53 80.337 7.054 C 80.337 9.564 78.332 11.569 75.837 11.569 C 73.327 11.569 71.338 9.564 71.338 7.054 Z M 78.362 7.054 C 78.362 5.599 77.247 4.411 75.837 4.411 C 74.396 4.411 73.312 5.599 73.312 7.054 C 73.312 8.495 74.396 9.683 75.837 9.683 C 77.247 9.683 78.362 8.495 78.362 7.054 Z" fill="currentColor" fill-rule="nonzero"></path>
  <path d="M 83.353 2.703 L 83.353 3.995 C 83.754 3.133 84.481 2.703 85.58 2.703 C 86.204 2.703 86.723 2.851 87.11 3.074 L 86.352 4.975 C 86.055 4.782 85.714 4.633 85.149 4.633 C 83.991 4.633 83.367 5.257 83.367 6.757 L 83.367 11.39 L 81.362 11.39 L 81.362 2.703 L 83.353 2.703 Z" fill="currentColor" fill-rule="nonzero"></path>
  <path d="M 87.334 7.069 C 87.334 4.53 89.308 2.525 91.848 2.525 C 94.432 2.525 96.318 4.426 96.318 6.995 L 96.318 7.752 L 89.249 7.752 C 89.517 8.97 90.497 9.802 91.923 9.802 C 93.036 9.802 93.913 9.193 94.328 8.272 L 95.977 9.222 C 95.219 10.619 93.853 11.569 91.923 11.569 C 89.19 11.569 87.334 9.579 87.334 7.069 Z M 89.353 6.074 L 94.284 6.074 C 93.987 4.916 93.096 4.292 91.848 4.292 C 90.645 4.292 89.71 5.02 89.353 6.074 Z" fill="currentColor" fill-rule="nonzero"></path>
</svg>