<?xml version="1.0" encoding="UTF-8"?>
<svg xmlns="http://www.w3.org/2000/svg" width="38.848" height="6.269" viewBox="0 0 38.848 6.269" fill="none">
  <path d="M 6.066 3.378 C 6.066 4.216 5.818 4.883 5.321 5.381 C 4.757 5.973 4.021 6.269 3.117 6.269 C 2.251 6.269 1.514 5.969 0.909 5.369 C 0.303 4.768 0 4.024 0 3.136 C 0 2.247 0.303 1.503 0.909 0.903 C 1.514 0.302 2.251 0.002 3.117 0.002 C 3.547 0.002 3.958 0.086 4.348 0.253 C 4.739 0.421 5.052 0.644 5.286 0.923 L 4.759 1.451 C 4.362 0.976 3.815 0.739 3.116 0.739 C 2.484 0.739 1.938 0.961 1.477 1.405 C 1.016 1.849 0.786 2.426 0.786 3.135 C 0.786 3.844 1.016 4.421 1.477 4.865 C 1.938 5.309 2.484 5.531 3.116 5.531 C 3.786 5.531 4.345 5.308 4.792 4.861 C 5.082 4.57 5.25 4.165 5.295 3.646 L 3.116 3.646 L 3.116 2.925 L 6.023 2.925 C 6.053 3.082 6.066 3.233 6.066 3.378 Z" fill="currentColor" fill-rule="nonzero"></path>
  <path d="M 10.676 0.872 L 7.944 0.872 L 7.944 2.774 L 10.408 2.774 L 10.408 3.495 L 7.944 3.495 L 7.944 5.397 L 10.676 5.397 L 10.676 6.135 L 7.173 6.135 L 7.173 0.135 L 10.676 0.135 L 10.676 0.872 Z" fill="currentColor" fill-rule="nonzero"></path>
  <path d="M 13.927 6.135 L 13.156 6.135 L 13.156 0.872 L 11.48 0.872 L 11.48 0.135 L 15.603 0.135 L 15.603 0.872 L 13.927 0.872 L 13.927 6.135 Z" fill="currentColor" fill-rule="nonzero"></path>
  <path d="M 18.586 6.135 L 18.586 0.135 L 19.357 0.135 L 19.357 6.135 L 18.586 6.135 Z" fill="currentColor" fill-rule="nonzero"></path>
  <path d="M 22.776 6.135 L 22.005 6.135 L 22.005 0.872 L 20.329 0.872 L 20.329 0.135 L 24.452 0.135 L 24.452 0.872 L 22.776 0.872 L 22.776 6.135 Z" fill="currentColor" fill-rule="nonzero"></path>
  <path d="M 32.257 5.36 C 31.667 5.966 30.934 6.269 30.057 6.269 C 29.18 6.269 28.447 5.966 27.858 5.36 C 27.268 4.754 26.974 4.012 26.974 3.135 C 26.974 2.258 27.268 1.516 27.858 0.91 C 28.447 0.304 29.18 0 30.057 0 C 30.929 0 31.661 0.305 32.253 0.914 C 32.845 1.523 33.141 2.263 33.141 3.135 C 33.141 4.012 32.846 4.754 32.257 5.36 Z M 28.427 4.857 C 28.871 5.307 29.414 5.531 30.057 5.531 C 30.7 5.531 31.244 5.306 31.687 4.857 C 32.131 4.407 32.354 3.833 32.354 3.135 C 32.354 2.437 32.131 1.863 31.687 1.413 C 31.244 0.963 30.7 0.739 30.057 0.739 C 29.414 0.739 28.871 0.964 28.427 1.413 C 27.984 1.863 27.761 2.437 27.761 3.135 C 27.761 3.833 27.984 4.407 28.427 4.857 Z" fill="currentColor" fill-rule="nonzero"></path>
  <path d="M 34.223 6.135 L 34.223 0.135 L 35.161 0.135 L 38.077 4.802 L 38.11 4.802 L 38.077 3.646 L 38.077 0.135 L 38.848 0.135 L 38.848 6.135 L 38.043 6.135 L 34.992 1.241 L 34.959 1.241 L 34.992 2.397 L 34.992 6.135 L 34.223 6.135 Z" fill="currentColor" fill-rule="nonzero"></path>
  <path d="M 5.321 5.381 L 5.25 5.31 L 5.249 5.312 L 5.321 5.381 Z M 0.909 5.369 L 0.839 5.44 L 0.839 5.44 L 0.909 5.369 Z M 0.909 0.903 L 0.979 0.974 L 0.979 0.974 L 0.909 0.903 Z M 4.348 0.253 L 4.387 0.161 L 4.387 0.161 L 4.348 0.253 Z M 5.286 0.923 L 5.357 0.994 L 5.421 0.929 L 5.363 0.859 L 5.286 0.923 Z M 4.759 1.451 L 4.682 1.515 L 4.752 1.599 L 4.83 1.522 L 4.759 1.451 Z M 4.792 4.861 L 4.863 4.932 L 4.863 4.932 L 4.792 4.861 Z M 5.295 3.646 L 5.395 3.655 L 5.404 3.546 L 5.295 3.546 L 5.295 3.646 Z M 3.116 3.646 L 3.016 3.646 L 3.016 3.746 L 3.116 3.746 L 3.116 3.646 Z M 3.116 2.925 L 3.116 2.825 L 3.016 2.825 L 3.016 2.925 L 3.116 2.925 Z M 6.023 2.925 L 6.121 2.906 L 6.106 2.825 L 6.023 2.825 L 6.023 2.925 Z M 10.676 0.872 L 10.676 0.972 L 10.776 0.972 L 10.776 0.872 L 10.676 0.872 Z M 7.944 0.872 L 7.944 0.772 L 7.844 0.772 L 7.844 0.872 L 7.944 0.872 Z M 7.944 2.774 L 7.844 2.774 L 7.844 2.874 L 7.944 2.874 L 7.944 2.774 Z M 10.408 2.774 L 10.508 2.774 L 10.508 2.674 L 10.408 2.674 L 10.408 2.774 Z M 10.408 3.495 L 10.408 3.595 L 10.508 3.595 L 10.508 3.495 L 10.408 3.495 Z M 7.944 3.495 L 7.944 3.395 L 7.844 3.395 L 7.844 3.495 L 7.944 3.495 Z M 7.944 5.397 L 7.844 5.397 L 7.844 5.497 L 7.944 5.497 L 7.944 5.397 Z M 10.676 5.397 L 10.776 5.397 L 10.776 5.297 L 10.676 5.297 L 10.676 5.397 Z M 10.676 6.135 L 10.676 6.235 L 10.776 6.235 L 10.776 6.135 L 10.676 6.135 Z M 7.173 6.135 L 7.073 6.135 L 7.073 6.235 L 7.173 6.235 L 7.173 6.135 Z M 7.173 0.135 L 7.173 0.035 L 7.073 0.035 L 7.073 0.135 L 7.173 0.135 Z M 10.676 0.135 L 10.776 0.135 L 10.776 0.035 L 10.676 0.035 L 10.676 0.135 Z M 13.927 6.135 L 13.927 6.235 L 14.027 6.235 L 14.027 6.135 L 13.927 6.135 Z M 13.156 6.135 L 13.056 6.135 L 13.056 6.235 L 13.156 6.235 L 13.156 6.135 Z M 13.156 0.872 L 13.256 0.872 L 13.256 0.772 L 13.156 0.772 L 13.156 0.872 Z M 11.48 0.872 L 11.38 0.872 L 11.38 0.972 L 11.48 0.972 L 11.48 0.872 Z M 11.48 0.135 L 11.48 0.035 L 11.38 0.035 L 11.38 0.135 L 11.48 0.135 Z M 15.603 0.135 L 15.703 0.135 L 15.703 0.035 L 15.603 0.035 L 15.603 0.135 Z M 15.603 0.872 L 15.603 0.972 L 15.703 0.972 L 15.703 0.872 L 15.603 0.872 Z M 13.927 0.872 L 13.927 0.772 L 13.827 0.772 L 13.827 0.872 L 13.927 0.872 Z M 18.586 6.135 L 18.486 6.135 L 18.486 6.235 L 18.586 6.235 L 18.586 6.135 Z M 18.586 0.135 L 18.586 0.035 L 18.486 0.035 L 18.486 0.135 L 18.586 0.135 Z M 19.357 0.135 L 19.457 0.135 L 19.457 0.035 L 19.357 0.035 L 19.357 0.135 Z M 19.357 6.135 L 19.357 6.235 L 19.457 6.235 L 19.457 6.135 L 19.357 6.135 Z M 22.776 6.135 L 22.776 6.235 L 22.876 6.235 L 22.876 6.135 L 22.776 6.135 Z M 22.005 6.135 L 21.905 6.135 L 21.905 6.235 L 22.005 6.235 L 22.005 6.135 Z M 22.005 0.872 L 22.105 0.872 L 22.105 0.772 L 22.005 0.772 L 22.005 0.872 Z M 20.329 0.872 L 20.229 0.872 L 20.229 0.972 L 20.329 0.972 L 20.329 0.872 Z M 20.329 0.135 L 20.329 0.035 L 20.229 0.035 L 20.229 0.135 L 20.329 0.135 Z M 24.452 0.135 L 24.552 0.135 L 24.552 0.035 L 24.452 0.035 L 24.452 0.135 Z M 24.452 0.872 L 24.452 0.972 L 24.552 0.972 L 24.552 0.872 L 24.452 0.872 Z M 22.776 0.872 L 22.776 0.772 L 22.676 0.772 L 22.676 0.872 L 22.776 0.872 Z M 32.257 5.36 L 32.329 5.43 L 32.329 5.43 L 32.257 5.36 Z M 27.858 5.36 L 27.93 5.29 L 27.93 5.29 L 27.858 5.36 Z M 27.858 0.91 L 27.93 0.98 L 27.93 0.98 L 27.858 0.91 Z M 28.427 4.857 L 28.356 4.927 L 28.356 4.927 L 28.427 4.857 Z M 31.687 4.857 L 31.616 4.787 L 31.616 4.787 L 31.687 4.857 Z M 31.687 1.413 L 31.616 1.483 L 31.616 1.483 L 31.687 1.413 Z M 28.427 1.413 L 28.356 1.343 L 28.356 1.343 L 28.427 1.413 Z M 34.223 6.135 L 34.123 6.135 L 34.123 6.235 L 34.223 6.235 L 34.223 6.135 Z M 34.223 0.135 L 34.223 0.035 L 34.123 0.035 L 34.123 0.135 L 34.223 0.135 Z M 35.161 0.135 L 35.246 0.082 L 35.216 0.035 L 35.161 0.035 L 35.161 0.135 Z M 38.077 4.802 L 37.992 4.855 L 38.021 4.902 L 38.077 4.902 L 38.077 4.802 Z M 38.11 4.802 L 38.11 4.902 L 38.213 4.902 L 38.21 4.799 L 38.11 4.802 Z M 38.077 3.646 L 37.977 3.646 L 37.977 3.649 L 38.077 3.646 Z M 38.077 0.135 L 38.077 0.035 L 37.977 0.035 L 37.977 0.135 L 38.077 0.135 Z M 38.848 0.135 L 38.948 0.135 L 38.948 0.035 L 38.848 0.035 L 38.848 0.135 Z M 38.848 6.135 L 38.848 6.235 L 38.948 6.235 L 38.948 6.135 L 38.848 6.135 Z M 38.043 6.135 L 37.958 6.188 L 37.987 6.235 L 38.043 6.235 L 38.043 6.135 Z M 34.992 1.241 L 35.077 1.188 L 35.047 1.141 L 34.992 1.141 L 34.992 1.241 Z M 34.959 1.241 L 34.959 1.141 L 34.856 1.141 L 34.859 1.244 L 34.959 1.241 Z M 34.992 2.397 L 35.092 2.397 L 35.092 2.394 L 34.992 2.397 Z M 34.992 6.135 L 34.992 6.235 L 35.092 6.235 L 35.092 6.135 L 34.992 6.135 Z M 5.966 3.378 C 5.966 4.195 5.725 4.835 5.25 5.31 L 5.392 5.452 C 5.911 4.931 6.166 4.237 6.166 3.378 L 5.966 3.378 Z M 5.249 5.312 C 4.706 5.882 3.997 6.169 3.117 6.169 L 3.117 6.369 C 4.045 6.369 4.808 6.064 5.393 5.45 L 5.249 5.312 Z M 3.117 6.169 C 2.277 6.169 1.565 5.879 0.979 5.298 L 0.839 5.44 C 1.463 6.059 2.225 6.369 3.117 6.369 L 3.117 6.169 Z M 0.979 5.298 C 0.393 4.717 0.1 3.998 0.1 3.136 L -0.1 3.136 C -0.1 4.049 0.213 4.819 0.839 5.44 L 0.979 5.298 Z M 0.1 3.136 C 0.1 2.272 0.393 1.554 0.979 0.974 L 0.839 0.832 C 0.213 1.452 -0.1 2.222 -0.1 3.136 L 0.1 3.136 Z M 0.979 0.974 C 1.565 0.392 2.277 0.102 3.117 0.102 L 3.117 -0.098 C 2.225 -0.098 1.463 0.212 0.839 0.832 L 0.979 0.974 Z M 3.117 0.102 C 3.534 0.102 3.931 0.183 4.309 0.345 L 4.387 0.161 C 3.985 -0.011 3.56 -0.098 3.117 -0.098 L 3.117 0.102 Z M 4.309 0.345 C 4.688 0.508 4.987 0.722 5.209 0.987 L 5.363 0.859 C 5.117 0.566 4.79 0.334 4.387 0.161 L 4.309 0.345 Z M 5.215 0.852 L 4.688 1.38 L 4.83 1.522 L 5.357 0.994 L 5.215 0.852 Z M 4.836 1.387 C 4.417 0.886 3.84 0.639 3.116 0.639 L 3.116 0.839 C 3.79 0.839 4.307 1.066 4.682 1.515 L 4.836 1.387 Z M 3.116 0.639 C 2.458 0.639 1.887 0.871 1.408 1.333 L 1.546 1.477 C 1.989 1.051 2.51 0.839 3.116 0.839 L 3.116 0.639 Z M 1.408 1.333 C 0.925 1.798 0.686 2.402 0.686 3.135 L 0.886 3.135 C 0.886 2.45 1.107 1.9 1.546 1.477 L 1.408 1.333 Z M 0.686 3.135 C 0.686 3.868 0.925 4.472 1.408 4.937 L 1.546 4.793 C 1.107 4.37 0.886 3.82 0.886 3.135 L 0.686 3.135 Z M 1.408 4.937 C 1.887 5.399 2.458 5.631 3.116 5.631 L 3.116 5.431 C 2.51 5.431 1.989 5.219 1.546 4.793 L 1.408 4.937 Z M 3.116 5.631 C 3.811 5.631 4.396 5.399 4.863 4.932 L 4.721 4.79 C 4.294 5.217 3.761 5.431 3.116 5.431 L 3.116 5.631 Z M 4.863 4.932 C 5.173 4.62 5.348 4.191 5.395 3.655 L 5.195 3.637 C 5.152 4.139 4.991 4.52 4.721 4.79 L 4.863 4.932 Z M 5.295 3.546 L 3.116 3.546 L 3.116 3.746 L 5.295 3.746 L 5.295 3.546 Z M 3.216 3.646 L 3.216 2.925 L 3.016 2.925 L 3.016 3.646 L 3.216 3.646 Z M 3.116 3.025 L 6.023 3.025 L 6.023 2.825 L 3.116 2.825 L 3.116 3.025 Z M 5.925 2.944 C 5.954 3.094 5.966 3.239 5.966 3.378 L 6.166 3.378 C 6.166 3.227 6.152 3.07 6.121 2.906 L 5.925 2.944 Z M 10.676 0.772 L 7.944 0.772 L 7.944 0.972 L 10.676 0.972 L 10.676 0.772 Z M 7.844 0.872 L 7.844 2.774 L 8.044 2.774 L 8.044 0.872 L 7.844 0.872 Z M 7.944 2.874 L 10.408 2.874 L 10.408 2.674 L 7.944 2.674 L 7.944 2.874 Z M 10.308 2.774 L 10.308 3.495 L 10.508 3.495 L 10.508 2.774 L 10.308 2.774 Z M 10.408 3.395 L 7.944 3.395 L 7.944 3.595 L 10.408 3.595 L 10.408 3.395 Z M 7.844 3.495 L 7.844 5.397 L 8.044 5.397 L 8.044 3.495 L 7.844 3.495 Z M 7.944 5.497 L 10.676 5.497 L 10.676 5.297 L 7.944 5.297 L 7.944 5.497 Z M 10.576 5.397 L 10.576 6.135 L 10.776 6.135 L 10.776 5.397 L 10.576 5.397 Z M 10.676 6.035 L 7.173 6.035 L 7.173 6.235 L 10.676 6.235 L 10.676 6.035 Z M 7.273 6.135 L 7.273 0.135 L 7.073 0.135 L 7.073 6.135 L 7.273 6.135 Z M 7.173 0.235 L 10.676 0.235 L 10.676 0.035 L 7.173 0.035 L 7.173 0.235 Z M 10.576 0.135 L 10.576 0.872 L 10.776 0.872 L 10.776 0.135 L 10.576 0.135 Z M 13.927 6.035 L 13.156 6.035 L 13.156 6.235 L 13.927 6.235 L 13.927 6.035 Z M 13.256 6.135 L 13.256 0.872 L 13.056 0.872 L 13.056 6.135 L 13.256 6.135 Z M 13.156 0.772 L 11.48 0.772 L 11.48 0.972 L 13.156 0.972 L 13.156 0.772 Z M 11.58 0.872 L 11.58 0.135 L 11.38 0.135 L 11.38 0.872 L 11.58 0.872 Z M 11.48 0.235 L 15.603 0.235 L 15.603 0.035 L 11.48 0.035 L 11.48 0.235 Z M 15.503 0.135 L 15.503 0.872 L 15.703 0.872 L 15.703 0.135 L 15.503 0.135 Z M 15.603 0.772 L 13.927 0.772 L 13.927 0.972 L 15.603 0.972 L 15.603 0.772 Z M 13.827 0.872 L 13.827 6.135 L 14.027 6.135 L 14.027 0.872 L 13.827 0.872 Z M 18.686 6.135 L 18.686 0.135 L 18.486 0.135 L 18.486 6.135 L 18.686 6.135 Z M 18.586 0.235 L 19.357 0.235 L 19.357 0.035 L 18.586 0.035 L 18.586 0.235 Z M 19.257 0.135 L 19.257 6.135 L 19.457 6.135 L 19.457 0.135 L 19.257 0.135 Z M 19.357 6.035 L 18.586 6.035 L 18.586 6.235 L 19.357 6.235 L 19.357 6.035 Z M 22.776 6.035 L 22.005 6.035 L 22.005 6.235 L 22.776 6.235 L 22.776 6.035 Z M 22.105 6.135 L 22.105 0.872 L 21.905 0.872 L 21.905 6.135 L 22.105 6.135 Z M 22.005 0.772 L 20.329 0.772 L 20.329 0.972 L 22.005 0.972 L 22.005 0.772 Z M 20.429 0.872 L 20.429 0.135 L 20.229 0.135 L 20.229 0.872 L 20.429 0.872 Z M 20.329 0.235 L 24.452 0.235 L 24.452 0.035 L 20.329 0.035 L 20.329 0.235 Z M 24.352 0.135 L 24.352 0.872 L 24.552 0.872 L 24.552 0.135 L 24.352 0.135 Z M 24.452 0.772 L 22.776 0.772 L 22.776 0.972 L 24.452 0.972 L 24.452 0.772 Z M 22.676 0.872 L 22.676 6.135 L 22.876 6.135 L 22.876 0.872 L 22.676 0.872 Z M 32.185 5.29 C 31.615 5.876 30.908 6.169 30.057 6.169 L 30.057 6.369 C 30.96 6.369 31.719 6.056 32.329 5.43 L 32.185 5.29 Z M 30.057 6.169 C 29.206 6.169 28.499 5.876 27.93 5.29 L 27.786 5.43 C 28.395 6.056 29.154 6.369 30.057 6.369 L 30.057 6.169 Z M 27.93 5.29 C 27.359 4.704 27.074 3.987 27.074 3.135 L 26.874 3.135 C 26.874 4.037 27.177 4.804 27.786 5.43 L 27.93 5.29 Z M 27.074 3.135 C 27.074 2.283 27.359 1.566 27.93 0.98 L 27.786 0.84 C 27.177 1.466 26.874 2.233 26.874 3.135 L 27.074 3.135 Z M 27.93 0.98 C 28.499 0.394 29.206 0.1 30.057 0.1 L 30.057 -0.1 C 29.154 -0.1 28.395 0.214 27.786 0.84 L 27.93 0.98 Z M 30.057 0.1 C 30.903 0.1 31.609 0.395 32.181 0.984 L 32.325 0.844 C 31.713 0.215 30.955 -0.1 30.057 -0.1 L 30.057 0.1 Z M 32.181 0.984 C 32.755 1.573 33.041 2.288 33.041 3.135 L 33.241 3.135 C 33.241 2.238 32.935 1.472 32.325 0.844 L 32.181 0.984 Z M 33.041 3.135 C 33.041 3.987 32.755 4.704 32.185 5.29 L 32.329 5.43 C 32.936 4.804 33.241 4.037 33.241 3.135 L 33.041 3.135 Z M 28.356 4.927 C 28.819 5.397 29.388 5.631 30.057 5.631 L 30.057 5.431 C 29.44 5.431 28.923 5.217 28.498 4.787 L 28.356 4.927 Z M 30.057 5.631 C 30.726 5.631 31.296 5.396 31.758 4.927 L 31.616 4.787 C 31.192 5.216 30.674 5.431 30.057 5.431 L 30.057 5.631 Z M 31.758 4.927 C 32.222 4.457 32.454 3.856 32.454 3.135 L 32.254 3.135 C 32.254 3.81 32.039 4.357 31.616 4.787 L 31.758 4.927 Z M 32.454 3.135 C 32.454 2.414 32.222 1.813 31.758 1.343 L 31.616 1.483 C 32.039 1.913 32.254 2.46 32.254 3.135 L 32.454 3.135 Z M 31.758 1.343 C 31.296 0.873 30.726 0.639 30.057 0.639 L 30.057 0.839 C 30.674 0.839 31.192 1.053 31.616 1.483 L 31.758 1.343 Z M 30.057 0.639 C 29.388 0.639 28.819 0.874 28.356 1.343 L 28.498 1.483 C 28.923 1.054 29.44 0.839 30.057 0.839 L 30.057 0.639 Z M 28.356 1.343 C 27.892 1.813 27.661 2.414 27.661 3.135 L 27.861 3.135 C 27.861 2.46 28.075 1.913 28.498 1.483 L 28.356 1.343 Z M 27.661 3.135 C 27.661 3.856 27.892 4.457 28.356 4.927 L 28.498 4.787 C 28.075 4.357 27.861 3.81 27.861 3.135 L 27.661 3.135 Z M 34.323 6.135 L 34.323 0.135 L 34.123 0.135 L 34.123 6.135 L 34.323 6.135 Z M 34.223 0.235 L 35.161 0.235 L 35.161 0.035 L 34.223 0.035 L 34.223 0.235 Z M 35.076 0.188 L 37.992 4.855 L 38.162 4.749 L 35.246 0.082 L 35.076 0.188 Z M 38.077 4.902 L 38.11 4.902 L 38.11 4.702 L 38.077 4.702 L 38.077 4.902 Z M 38.21 4.799 L 38.177 3.643 L 37.977 3.649 L 38.01 4.805 L 38.21 4.799 Z M 38.177 3.646 L 38.177 0.135 L 37.977 0.135 L 37.977 3.646 L 38.177 3.646 Z M 38.077 0.235 L 38.848 0.235 L 38.848 0.035 L 38.077 0.035 L 38.077 0.235 Z M 38.748 0.135 L 38.748 6.135 L 38.948 6.135 L 38.948 0.135 L 38.748 0.135 Z M 38.848 6.035 L 38.043 6.035 L 38.043 6.235 L 38.848 6.235 L 38.848 6.035 Z M 38.128 6.082 L 35.077 1.188 L 34.907 1.294 L 37.958 6.188 L 38.128 6.082 Z M 34.992 1.141 L 34.959 1.141 L 34.959 1.341 L 34.992 1.341 L 34.992 1.141 Z M 34.859 1.244 L 34.892 2.4 L 35.092 2.394 L 35.059 1.238 L 34.859 1.244 Z M 34.892 2.397 L 34.892 6.135 L 35.092 6.135 L 35.092 2.397 L 34.892 2.397 Z M 34.992 6.035 L 34.223 6.035 L 34.223 6.235 L 34.992 6.235 L 34.992 6.035 Z" fill="currentColor" fill-rule="nonzero"></path>
</svg>