<?xml version="1.0" encoding="UTF-8"?>
<svg xmlns="http://www.w3.org/2000/svg" width="84.776" height="17.030" viewBox="0 0 84.776 17.030" fill="none">
  <path d="M 27.094 4.704 C 24.742 4.704 22.825 6.493 22.825 8.957 C 22.825 11.406 24.742 13.21 27.094 13.21 C 29.447 13.21 31.364 11.406 31.364 8.957 C 31.363 6.493 29.446 4.704 27.094 4.704 Z M 27.094 11.536 C 25.805 11.536 24.694 10.473 24.694 8.958 C 24.694 7.427 25.806 6.38 27.094 6.38 C 28.383 6.38 29.494 7.427 29.494 8.958 C 29.494 10.472 28.383 11.536 27.094 11.536 Z M 17.78 4.704 C 15.428 4.704 13.511 6.493 13.511 8.957 C 13.511 11.406 15.428 13.21 17.78 13.21 C 20.133 13.21 22.05 11.406 22.05 8.957 C 22.05 6.493 20.133 4.704 17.78 4.704 Z M 17.78 11.536 C 16.491 11.536 15.38 10.473 15.38 8.958 C 15.38 7.427 16.492 6.38 17.78 6.38 C 19.069 6.38 20.18 7.427 20.18 8.958 C 20.181 10.472 19.069 11.536 17.78 11.536 Z M 6.702 6.01 L 6.702 7.814 L 11.02 7.814 C 10.891 8.829 10.553 9.57 10.037 10.085 C 9.409 10.713 8.426 11.406 6.702 11.406 C 4.044 11.406 1.966 9.263 1.966 6.605 C 1.966 3.947 4.044 1.804 6.702 1.804 C 8.136 1.804 9.183 2.368 9.956 3.093 L 11.229 1.82 C 10.149 0.789 8.716 0 6.702 0 C 3.061 0 0 2.964 0 6.605 C 0 10.246 3.061 13.21 6.702 13.21 C 8.667 13.21 10.15 12.565 11.309 11.357 C 12.501 10.165 12.872 8.489 12.872 7.136 C 12.872 6.718 12.84 6.331 12.775 6.009 L 6.702 6.009 L 6.702 6.01 Z M 52.01 7.411 C 51.656 6.461 50.576 4.704 48.369 4.704 C 46.178 4.704 44.357 6.428 44.357 8.957 C 44.357 11.341 46.162 13.21 48.578 13.21 C 50.527 13.21 51.655 12.018 52.123 11.325 L 50.673 10.358 C 50.19 11.067 49.529 11.534 48.578 11.534 C 47.628 11.534 46.951 11.099 46.516 10.245 L 52.203 7.893 L 52.01 7.411 Z M 46.21 8.829 C 46.162 7.185 47.483 6.348 48.434 6.348 C 49.175 6.348 49.803 6.719 50.013 7.25 L 46.21 8.829 Z M 41.587 12.953 L 43.455 12.953 L 43.455 0.452 L 41.587 0.452 L 41.587 12.953 Z M 38.525 5.655 L 38.461 5.655 C 38.042 5.155 37.236 4.704 36.222 4.704 C 34.095 4.704 32.146 6.573 32.146 8.974 C 32.146 11.358 34.095 13.211 36.222 13.211 C 37.237 13.211 38.042 12.76 38.461 12.245 L 38.525 12.245 L 38.525 12.857 C 38.525 14.484 37.655 15.354 36.254 15.354 C 35.11 15.354 34.401 14.533 34.111 13.84 L 32.484 14.517 C 32.951 15.644 34.191 17.03 36.254 17.03 C 38.445 17.03 40.298 15.741 40.298 12.599 L 40.298 4.963 L 38.526 4.963 L 38.526 5.655 L 38.525 5.655 Z M 36.383 11.536 C 35.094 11.536 34.015 10.456 34.015 8.974 C 34.015 7.475 35.094 6.38 36.383 6.38 C 37.655 6.38 38.654 7.475 38.654 8.974 C 38.654 10.456 37.655 11.536 36.383 11.536 Z M 60.764 0.452 L 56.293 0.452 L 56.293 12.953 L 58.158 12.953 L 58.158 8.217 L 60.763 8.217 C 62.831 8.217 64.865 6.72 64.865 4.335 C 64.865 1.95 62.832 0.452 60.764 0.452 Z M 60.812 6.477 L 58.158 6.477 L 58.158 2.192 L 60.812 2.192 C 62.207 2.192 62.999 3.347 62.999 4.335 C 62.999 5.303 62.207 6.477 60.812 6.477 Z M 72.344 4.682 C 70.993 4.682 69.594 5.277 69.015 6.596 L 70.671 7.287 C 71.025 6.596 71.685 6.37 72.376 6.37 C 73.341 6.37 74.322 6.949 74.338 7.978 L 74.338 8.107 C 74 7.914 73.276 7.625 72.392 7.625 C 70.607 7.625 68.789 8.606 68.789 10.439 C 68.789 12.112 70.253 13.189 71.893 13.189 C 73.147 13.189 73.839 12.626 74.273 11.966 L 74.337 11.966 L 74.337 12.931 L 76.139 12.931 L 76.139 8.138 C 76.14 5.92 74.482 4.682 72.344 4.682 Z M 72.118 11.533 C 71.508 11.533 70.655 11.227 70.655 10.471 C 70.655 9.506 71.717 9.136 72.634 9.136 C 73.453 9.136 73.84 9.313 74.338 9.554 C 74.193 10.713 73.196 11.533 72.118 11.533 Z M 82.701 4.955 L 80.562 10.375 L 80.498 10.375 L 78.278 4.955 L 76.268 4.955 L 79.597 12.53 L 77.699 16.744 L 79.645 16.744 L 84.776 4.955 L 82.701 4.955 Z M 65.895 12.953 L 67.76 12.953 L 67.76 0.452 L 65.895 0.452 L 65.895 12.953 Z" fill="currentColor" fill-rule="nonzero"></path>
</svg>